<mxfile host="65bd71144e">
    <diagram id="i8oGoq47ilsVACAjvylI" name="Page-1">
        <mxGraphModel dx="536" dy="711" grid="1" gridSize="10" guides="1" tooltips="1" connect="1" arrows="1" fold="1" page="1" pageScale="1" pageWidth="827" pageHeight="1169" math="0" shadow="0">
            <root>
                <mxCell id="0"/>
                <mxCell id="1" parent="0"/>
                <mxCell id="119" value="" style="shape=image;verticalLabelPosition=bottom;labelBackgroundColor=default;verticalAlign=top;aspect=fixed;imageAspect=0;image=data:image/png,iVBORw0KGgoAAAANSUhEUgAABEkAAANUCAYAAABPCnOGAAAACXBIWXMAAAsTAAALEwEAmpwYAAAgAElEQVR4nOydV3McZ3b+n8k55xlMADDIAEmBmSIleaVdy/bV7pVd6wtX+Tv409h3LpdvvFu7lv676w0KS0oiCQYQOWMwg8k5x+7/Bfi+GiQGkSIp6vyqUKgCZrrf7n67Z87znvMciSiKIgiCIAiCIAiCIAiCIH7kSF/3AAiCIAiCIAiCIAiCIN4ESCQhCIIgCIIgCIIgCIIAiSQEQRAEQRAEQRAEQRAASCQhCIIgCIIgCIIgCIIAQCIJQRAEQRAEQRAEQRAEABJJCIIgCIIgCIIgCIIgAJBIQhAEQRAEQRAEQRAEAYBEEoIgCIIgCIIgCIIgCAAkkhAEQRAEQRAEQRAEQQAgkYQgCIIgCIIgCIIgCAIAiSQEQRAEQRAEQRAEQRAASCQhCIIgCIIgCIIgCIIAQCIJQRAEQRAEQRAEQRAEABJJCIIgCIIgCIIgCIIgAJBIQhAEQRAEQRAEQRAEAQCQv+4BEARBEMTbSqvVQiqVQj6fR6/Xg06ng9frhdFofN1DI74DvV4PxWIRW1tbaDQasNlssNvtsFgsUKlUr3t4BPGDQRAElMtlxONx1Go16PV6WCwWupcIgngjIJGEIAiCIL4n6vU65u7fw/zDh2jUGxgYGMDHH39MIskPlF6vh93dXfznf/4n4vE4Ll68iMuXL+Ps2bMU2BHEcyAIAhKJBD799FPEYjGEQiHMzMzgnXfeoXuJIIjXDokkBEEQxIkIgoBWq4VarYZMJoNcLodqtYpGo4FOpwNRFCGRSCCXy6FSqaDT6WA0GmGz2WA2m6HRaKBUKiGKIhr1OhLJJJLJJNLpNOr1OgBAIpE8cQwSiQQmkwkTExPw+XyQyWQAgFqthv39fezs7ECpVMLtdsPlcsFqtfLXnEa320UymcTm1iYa9Qb0ej18Ph8GBgagVCpPfI8oiuh2u6jVakgmk4hEIpBKpRgYGIDT6YTJZIJc/u1HqiAIaLfbyGazWF5cwsKjBXg8HqjV6qeOj3hzEQQBtVoNOzs72N3dhc/nQ6lUQqfTed1De2mIoghRFNFqtZDP51GpVKDRaKDX66HX69+aAFYQBDSbTWSzWSSTSRQKBdjtdoyOjsJgMLzu4f2g6fV6qFQqyGQy2N/fR6vVQjgcRigUOvT8Y8//QqGASqUChUKBUCgEk8kEmUz21M8HgiCI7wsSSQiCIIgTEQQB1UoF0VgMc3NzWFxcxN7eHlKpFGq1GjqdDmQyGXQ6HSwWC7xeL4aGhnDmzBlMTk7C4XBAqVRCEAQUSyXcu3cPt27dwt27d5FMJp+6f4lEAqlUirGxMfzrv/4rLBYLtFotut0ustksbt68iV//+tcwGo147733cOXKFRiNxqeKEO12G2tra/jv//5vJBIJBINB/OQnP4HNZjtVJIEoot1uI5FI4KuvvsInn3wChUKBn/70p7h48SI0Gs0hkUQURdTrdWQyGaytrSEajeL8+fOYnp6GyWR6rutAvFkwEUEQBAiCAFEUX/eQXjqCIKBarWJlZQWRSAQulwt+vx9+v/+tEUlEUUSpVMLS0hJu3bqFxcVFzM7OwmazkUjygrTbbSSTSdy7dw9/+ctfkM/n8ctf/hIDAwP8+cwE8LGxMaTTaTx48AA6nQ4XL14kQZkgiNcOiSQEQRDEIXq9HgqFAhKJBB49eoSlpSXs7Owgm81CFEWeMcJW+SQSCSQSCVKpFIrFImKxGNbW1nD9+nWcPXsWUqmUZ2Hkcjkkk0k0Gg0EAgHo9fpD4sJRZDIZ/H4/DAbDoS/MnU4H5XIZiUQCjUYD5XIZrVbrmQJWURTRaDSQyWSQSCSg1WpRq9UgCMLp78G32SHVahXJZBJKpRKlUgmtVuvYe1utFvb29rC0tIRSqQSdToeBgQH4/X5otdqnjpF4M5HL5XC73fj444+RzWYxPj6OUCgEjUbzuof20hBFEb1eD9VqFaurq7h37x5GRkYgkUhgtVphtVpf9xBfCiw7rF6vI5fLYX9/H4ODg29VVtDrQnwsKlcqFaRSKWQyGVQqlUPPZ6lUCr1ej1AohEgkgkePHiGVSmFrawtWqxUDAwNv1X1FEMQPCxJJCIIgiEN0Oh0kEgncv38fv/71r3H79m0AgM1mw8TEBILBIOx2OzQaDURRRLlcRjqdxtbWFpaWlvD111/DarVCp9NhcHAQOp2Ob1sURV6m8sEHH8Dv90OpVJ6aVi2VSmGxWBAMBqFSqSCTydDtdvm22Eo++3kW+jMBnve9/e9/0nva7TY2Nzfx8OFDNBoNOBwODAwMwOv1QiqlxnI/VGQyGQYHB/HP//zP6PV6UCqVUCqVUCgUr3toLxUmkqyvr+Ovf/0rGo0G7HY7wuHw6x7a98LzPgOIZ4eJbkeRSCTQ6XQIBAIIBoPQarXI5XJYXV2Fy+WCw+EgkYQgiNcGiSQEQRAEgG9r9DOZDL7++mt8/vnn2N/fh8PhwNmzZzExMYFAIACn0wmdTgeFQsF9S1j9eTwex/b2NprNJux2+4n7kclkB4LL2DhGx8e4+HEaGo0Gdrv9B5N6LYoims0m9vb2sLm5ycUiVmdPnE6/AMUylN4kXwLmwdNfjvGmjfFlIYoiOp0O2u02Op0Out3uE7OtCOJ5kUqlUCqVMJvN8Hq9qNfr2NvbQywWw9TU1OseHkEQP2JIJCEIgiAAHARF1WoVsVgM33zzDf70pz/BZrNhZmYGv/jFL3D16lUYDAaoVKpjQaEgCNysb35+HpFIBAMDAycGkFKpFCaTCUPDQ5ienoZGo3lqdoVUKoVEInnjgzS2atpsNhGLxRCJRHDx4kUMDw8/0eeg1+s90eeC+bMwM8OTzisTF7rdLnq9HmQy2aHz2uv1Dp0/qVR66Oek7bHrKggCFwiAb683GycbDxvfk7bHMoH6XyMKAnqPj10QBH6scrkcMpmMnxOh10Pv8TGctG+2zf59s3Gy3+x1J43xpNf2n/P+a9w/ziftTy6XQyKRHPobG/tJ14AdK9tH/3Gy/Z009v5z3D+X+s/Vs8wlVirRbDbR7Xb5WNjfmOkyG/PR8fQLXUePoX///cf8JotM/fdU/9iBw/cUE/aOzsPTjq3/Wh2dF896P/XfU/2vP+lZcnT+sL89aWz92zh6Dfvvoydt62nIZDIYjUYMDAwgHo8jFoshHo+j2WoeGjtBEMSrhEQSgiAIAsCBj8bOzg7u3r2LSCQCmUyGc+fO4YMPPsDw8DDMZjMUCsWJ2RAsoJVIJBgZGYHT6YTNZoNerz/x9RKJBNLHASj74v42IAgCCoUC9vf3kc1m0el0YLPZMDAwcKjsiMG6iCQSCezs7CCZTCKfz6NaraLZbPJA3Ww2w+VyYXh4GAMDAzCbzVCr1Yf2y7rp3L17F6urqwgEAvD7/ZBIJKjVaohGo8hkMuh0OlAoFLDZbAgEAhgdHYXT6YRWqz10HRqNBpaWlrC2toZMJgONRoPz58/DYDBgZWUFsVgM5XIZ3W4XGo0GDocDwWAQQ0NDGBgYOOQ1w8o3IpEI7ty5g0qlgqGhIVitVnS7Xe4JUSqVIJfLcebMGZw5cwZ2ux0KhQK5XA6JRAJbW1uIx+OoVCqHjIMdDgdCoRAGBwdhtVqhVqshlUoPnduVlRU0Gg1MTk4iHA7D4/FAr9fzMTJj3q2tLWxubqJYLGJ8fBxTU1NwOBwwGo3odrvY29vDl19+iUKhgOHhYYTDYQSDQeh0OrRaLcTjcWxubmJzcxO1Wg0XL15EKBTC1tYW9vb2kM1mUa/XIZfLYbFY4Pf7MTQ0xEvPSqUStre3sbGxgUwmg2q1CqlUCoPBgFAohFAohGAwCLPZfGwuNZtNxONx7OzsIJVKIZ/Po1arcd8ctk+3242hoSH4fD6YzWaoVKpjc+izzz7D3Nwc8vk8VldX0Ww2sby8DJvNBplMBqvViqGhIX78BoOBZ6MVCgVEIhHs7Owgk8mgXC5z4c5gMMDldGLw8THbbLY3uqyiVCrh9u3bWFlZgU6ng91u5/fVxsYG4vE46vU6REGA3mCAz+fD4OAg/H4/7Hb7iZ5L3W4X1WoV6XQam5ubiMViKBaLaDQakEgkUKvV/P4MBAJwuVwwmoyQSg4ECXatM5kMtra2sLKyAqVSiZGREWg0GpTLZSSTSW6yLZFIYDQa4fF4eEagVqs9sUys1+uhXq8jm80iEokgEonwzmZsDplMJng8HgwPD8Pn88FkMn1nQ1/mTeLxeGA2m5FOp5HJZJDNZGGz2o49lwiCIF4FJJIQBEEQAA6CxEgkgnv37iGZTEKv1+PcuXO4fv06fD7fiRkk/UgkEqhUKvj9/kNZJCdlfxxd6XxahsibvtrM6Ha7KBQKiMViyOfz6Ha7sNvt8Pl8J4okLKjcjezi5s2bWFtbw/7+PgqFwqGgxOFwYGhoCFevXkW73UY4HIZCoeArzExsSafT+Pzzz/Hpp59idnYW77zzDveNWVhYQCQSQbPZhFwuh9frxezsLF+FZh0l2HlmIskf/vAHrK+vw2AwoNfrweVy4fPPP8fi4iJSqRTa7Ta0Wi0GBwdx7tw59Ho9GI1GGAwGHoQJvYNuKZubm/jVr36FZDKJq1evwu/3o91uIxqNYm1tDalUCjqdDu12GwMDA1Cr1VAoFNjZ2cGjR494sFosFvlxmM1mBAIBzM7OotPpIBwOw+12Q6FQoNvtIpVKYWFhAZ9++inS6TQ+/PBDdLtdaLVaaLVafv4ajQZ2dnbw5Zdf4tatW8hms/j7v/972O126PV6GI1G9Ho9xONx/Pa3v8Xu7i4++OADSCQSOBwO6HQ6dDodRKNRfPXVV/j888+RTqfRbDbR6XTwzTffYH5+Hnt7e8jlctwE9uzZs3j33XehVquhVqsRi8Vw9+5dfP3111xkAACLxYILFy7gypUr0Gq1MBgMh66/IAhoNBrY3t7GzZs3sbGxwedSrVaDKIpQKBSw2+0YGRnBlStX8M4772B4eJgH8p1OB7lcDvfu3cPvfvc7xGIxtNtt7OzsIB6P4/79+5DJZFAoFAgEArh+/TrfJhOJcrkctra2cPfuXdy7dw+RSATZbBbdbhdSqRR2ux2Dg4O4dOkSms0m395JLV9fpleIBBJA8vxZCeVyGbe++gqffvIJzGYzhoaGcO7cOSgUCnz11VdYXV1FoVBAt9uFxWLB+Pg4rly5AgDQ6/XQarXfZnSJ4NcpkUhgaWkJf/3rX7G0tIR0Os0FDa1WC5/Ph7Nnz+LChQsAAJVKBaVSCZlMxu/3VCqFubk5/O///i9UKhXef/99WCwWpFIpbGxscLFPFEXYbDaMjo6i1WpBqVTC4/EcEknYHGo2m0ilUlhbW8Pc3Bzm5+cRjUZRLBbR6/WgUCjgcDgwOjqKq1evotvtYnBwEHK5/NQMpydxVCRptVrIZrNIp9Pwer3U5YYgiNcCiSQEQRAEgIMVxFQqhe3tbbTbbR7ce71eaDSaZ/7y+yzGpL1eD61WC/V6HYIgnPolmKVzn5bB8qbBOgPF43FUq1W+cu9wOI6ttLI0+0ajgVg0huXlZdTrdbjdbvj9fshkMrTbbTQaDeTzeWxtbfHOOn/7t3+LycnJQ0IECyhZ55+trS1eFsNWks+ePYtms4lisYhCoYA7d+6gXC6jVCrhvffeg8vl4ka6LGhqt9uo1+soFAr4y1/+AqfTiUqlArfbDY/Hg1qthmKxiHQ6jVu3bqHT6aDVamFmZgaBQOBYmQoLwpaWlpBIJACAB91+vx86nQ7BYBByuRzFQgHZbBZ/+L//w927d1EqlSCRSBAOh6HVavmx7u/vo1wuIx6P44MPPsC1a9dgs9mgUCjg9/tRqVSwtLSEfD6P5eVlqNVqOJ1OmM1mKJVKtNttpFIpLC8vY25uDvV6HYODgwiHw7wLU/8xtNtttFotdDqdQ2VH7Jyxc5BOp/H1118jn8+jUqnw1X6/349sNotarYaHDx/yedDpdLCzs4N8Pg+VSoWRkREEg0Ekk0kUCgXMz8+j3W7DbDZDr9fDbDbzLIxer8czhlZWVtBut+HxePg1YNkLxWIR6+vr3HD5pz/9KcbHx6HT6XiWwOjoKC5dugSpVIq9vT04nU54vV4eyDJfocnJSbhcLqhUKn5d79y5g5s3byISiaBarcJutyMUCkEikaDT6fDOWZ999hmSySSazSbP1mHH0l9Gwkp+XgSpVMpLt543kBdFEd1OB7VajZfdFAoF6PV6CIKAkZERdLtdlEol5HI5bG5uHhLwfD4ff372hIP5H4lE8Mc//hF37txBNBpFr9fDwMAA73xVqVRQKpVw5/ZtxONxFEtFXLl8hWeRMXq9HjqPx5ZKpXD//n3odDoufI6NjaHT6aBSqSCdTmN5eRlyuRz1eh1/8zd/A6PRyLfF2j5Ho1Eu0u3v76PdbsPn82F4eBgSiQTtdhv5fB6bm5v83vvwww8xMTEBo9F4ehv1J8AyZywWCz/+VCqFcrkMq9X61hkjEwTx5kMiCUEQBMGD61wuh3g8DrlcDrvdDrvdDrPZfKr/wdNWelmw3Y8gCCiVStjZ2YFCoYBKpTpRWGHiiE6nO0g37/tC/6bS6/VQKpWQSCRQq9WgVqthMplgsVhOTEdnfgcsqHE6nRgcHITNZuMiAAvs19bWsLi4iGq1yjsMndZZpdvtIpFIoNPpwGAwwO12Y2RkBB6Ph/ulPHz4ELFYDIVCARqNBqFQCFqtFhaL5ZggJQgCisUi1tbWUKvVMDg4yAO2arXKy1l2d3cBgJcIeb3eU7e1t7eHSqUCq9WK4eFhjI6OwmAw8KwUlUqFeDyOhYUF3Lp1C0tLSwgGgwiHwxgbG4Pdbke9Xsfu7i4WFhawu7uLZDIJnU4Hn88HpVIJm80Gl8sFQRAwPT2NdDqNSCSC+fl5TExMwOl0wmKxoFKp8O5Mu7u78Pl8OHfuHCYmJuDxeL5zR6JGo4HNzU10u10MDAxgaGgITqcToihia2sLq6ur2NraOiS6pNNpOJ1OBINBOBwOyGQyrK+vY3V1FRsbG2i32xgbG4PP54NarT5RWGBzKRQK8XIWVkqztLSEjY0NPHr0CK1WC4FAADabDUqlEiqVCiaTCePj4yiXy8hms8hkMvB4PJiZmcH09DTPEmNlTk6n80DQKhaxubmJu3fv4tatW5BKpQgEAhgbG0MwGIRSqUS9Xsf6+jrW19exvb2NcrkMk8kEnV4PvcHAO2b1BAHNx2268/n8id1RngelUgm73c7vQ1YaqFAooNfrD853IMDvqZNgnkvNZhOVSgVerxdTU1MYGBiATCZDOp3m5WkLCwtwu918Tvd35srlctjY2MBf//pXPHjwAHq9HoODg5iZmYHb7YYoitjf38fKygq2t7exH49DqVRCrzvISjlaZgUc3O9MuLDb7XA4HPwelUqlyGQyuHv3LjY2NvDw4UMAwMTEBIaGhrgQzca2srKC27dvY25uDiqVipdUeb1eyOVylMtlLC8vY319HYuLi6hUKnC5XDCZTLzbE8sqNBqNfJ72t43vRyqVQq1Ww2KxcHPrcrmMTCaDUqn0wteeIAjiu0AiCUEQxI8ctjrearVQq9VQq9Xgdrtht9sPlV+c9J6jK+kMZux3Uj1+p9PB6uoq/uu//gtms/nUlV22EhsOh/F3f/d3mJ6efnkH/T3BvDeKxSIEQYBWq4VarT61zTFbub98+TJ8Ph8UCgX3G5HL5Tw1f2pqCo8ePcIf/vAHlEolrK2tweVywWq1HvLVODoOi8WCy5cv491334XH44HFYkGn00Emk0EoFMLXX3+N+fl5bG5u4sGDB9Bqtcd8ZNi1lslkcDqdmJmZwdWrV7mQ0el0kEqlcOvWLe7Vcf/+fYyPj2NmZoavjh/dXqfTgdfrxUcffYSpqSneVlomk0Gv16PVamFjYwNffvklD9R/9rOf4cqVK7zDUrvdRjqdRjgcxs2bN/Hw4UOsrKzA5/NBq9XCarVyo+CLFy+i2+3i008/xf7+Pr7++msoFAqcPXsWiUQCX3zxBVZXV6FUKjE9PY0bN24gGAx+pxICBjOlDIVCuHbtGiYnJ7kQMDU1BZfLxTNgWObH8PAwF2hMJhMAYHx8HMPDw/if//kfxONxbG1tIRgMwuVy8dV3mfxAmLpy5QoCgQBUKtWxuVSv1zE1NYWHDx/iT3/6EwqFAtbW1uB2u2G1WqHRaKDRaODz+TA6OsqfAcw7ZXJyEiMjIxAfz13NY5GGebXcvn0bm5ub0Ov1OH/+PG7cuAGv1wuTycQD8ZmZGaysrOAPf/gDF8GsVitCgQCsFstBx6zH3ip//vOfcfPmTbTb7e90/hl2ux3vv/8+Lly4AKfTyQN2o9GIiYkJWK1WXL9+HXabDVar9cRtMJHEbrfjwoUL3JDZ6XQCOMh+GB4exmeffYbbt29jf38f6+vrcDgc3Mel0WhgdXUVc3NziMfjMBgMeP/993H+/HmEw2FYLBZeHjc9PY0///nPuHv3LlZWVqDVauH3+xEKhU4cX6fTgVwux9jYGG7cuIFQKASj0QipVIpcLgeDwQC9Xo+1tTVEo1GenWQ0GqFSqXi55TfffINIJAKHw4Hz58/jypUr8Hq90Ol0kEqlaDabmJ6exqNHj/D73/8e+Xwejx49gsVigd1u59kkLpcLFy9ehNfrRavVQjgcPvHzQCKRQKlQQK/TQafT8fPEysTedLNugiDeTkgkIQiC+JHDskharRb/UalUByugp6yqCoLAzTQrlQra7fYhoUQul8Nms3Hz1n5YtsXe3h4ymcypq/Qsm0Wn0/GOGj8EGo0GyuUyRFGERqOBUqk8NTiQSqXQ6XQIh8MYGho61pFGEAV0O13uCbO0tITl5WVEo1FEo1GcOXPm1HEwceDMmTN47733oNPpoFKpeBcjq9WKWq2GjY0NpNNprKysIBQKYXR09MTt9fuOzM7Owu/38/8FAgEuWNy5cweRSIT7ssiksmNZNFKpFFqtFqFQCJcvX8bU1NShki62mr67u4ulpSXIZDIMDw/j8uXLuH79Os8GEASBZ0IUCgWsr6/zwHtsbAxTU1OQyWTQarUYGRlBq9XC6uoqisUilpeXoVAo+L7u3buHcrnMV/UnJydhtVpfyAtHpVLB7XZjfHwc586dOyT0+f1+1Ot1bpS8v78Pj8eD8fFxzM7OYmxsjF8vZrT5zTffIBqNIpVKYX9/H81mE8BjUVJ6IC6Nj49jdHT0mCEyKwNiGQHLy8vY2NjA3t4e9vf3MT09zbO3zGYznE4nDAYDZDIZNBoNLBYLPB7PoevOKJVKiMfjWFxcRDabhcfjwdmzZ3H16tVjra8DgQB0Oh22traQyWQQiUQOskoqFQiPswaEx5kkqVQKm5ubL3z/s6wPZmALHMxBjUaDgYEB+Hw+3p3mtOcRy9TR6/U4c+YMbty4AZfLBYPBwDsC2Ww27jVSLBa5lwfbZ71ex+bmJlZWVlCtVuHz+XDx4kW8++673DwZOBA8XC4XN09NJBJYXl5GMplEq9U6lj3GjsVqtWJsbAxXrlzhGS7Aga8KE8l2d3eRy+WQzWZRKpW4iFar1RCLxbC6uopKpYLJyUnMzs7i8uXLMJlM/D4QBAHBYBBqtRpra2u4d+8eNjc34fP5MDs7C+BAHDSZTDAYDBgcHIQoik806JbKZFCqVFCpVFAoFKjX69y8mkQSgiBeBySSEARBEDyThLVnlcvlp2Y/AAedcNbX1/G73/2O16az9wKAwWDAhQsXcOHCBYyPjx/ajkKh4CvrLGA7rdyGGfq5XK6XfMTfD8zDo9VqQSqVcqPF0+hvKcqCtH4/kG6ni06nAwA8UNXpdCiXyygUCvx/R1EqlXA6nTxNngWqzPRRp9NxvwqXy8Vbb+ZyuVPT241GI0ZHRzE5Ocl9KRhqtRoDAwOYmZlBNBrF6uoqUqkU9vb2oFarD4kkTLwJBAIIBoO8tKi/BW6r1UKlUkE2m0WhUMDk5CTGx8fhcrn4a9mPXq+H2+1GMBiEz+dDLBZDNBpFoVA41GpXp9NhYGAAly5dQqvVwqNHj3Dz5k3E43GUy2XEYjGMjIzgxo0bmJqa4gLBi6BWq7noYrfbD21PoVDAYDDw1fdGowGXy4WJiQl4vV5eosHENqPRCLPZDK1Wy4W4/uv/1Ln0uKwLAA+otVotSqUSNx5l2znavvZo214Gywpi3VASiQRkMhnvWsM8LPrf0+12uWmt3W7nHizlchmNZpMblNrtdly6dAkGvR7tU+b5s2I0GjEzM8PLivrP2bOKYCzwd7lc8Pv93KuJXVOJRAKDwcDLRtrtNi/PYfOQdVCKx+NcoAkGg3C73YcMSiUSCUwmE0KhEC99KhQKyGQyKBQKPMOIIZVKYbPZDnUaUigU/NhUKhWcTif3PalUKvzHYrFAIpEgl8vx7BKDwcDvTWYSe9RbSKVS8blbLBaRyWTQarUOzb3nuX9Yi3EmXLZarWPiO0EQxKuCRBKCIAjiUEDFEEUReEIA0e120Wg0UKvVUC6XuTiQTCbR6/Wg1+vh9/sRDAYPlVzIZDJ4PB5cuHABY2Njh4SE/v0zzwCdTsdLCt5EjgZZbMUeAPc+eBKss0q5VELpsYlqs9nk57Pd7UDoHnRVSafT3Oy2VqudKmgww1gmkBwNDJkXg9Vqhd1uRyKR4OaiJ63cso4bHo+Hd5w4uj+r1YpAIACr1Yper8fNXI9mHkgkEmg0GrhcLtjt9mMtPll7U2YoW6/XYbfbEQgEYDAYDmXl9M8R5j+SSCSQy+X4+WFBG/MomZ6e5p44Ozs7KJfLAA4yZcLhMM6dOwe/33+qV87zwMoOmCHt0fOgVCqh1+uh1+shiiLMZjM8Hs+hlXsmUCiVSmg0Gl4a0Ww2j11/Vp7Fzl2pVEK73eav73Q66Ha7iMViyGQyqNfrkEgkqNfr38n7gWVQsBKzQqEAmUyGfD7PWy4fzXoQBAH5fB7RaJdcShAAACAASURBVPRAGHlc4lev13nnFblcDpPZzI1hXzSbgHXgMRgM38lYFADPSLJarbzMrf/elslk/BpptVpueNwf6DPj2mKxCJfLxT1xWJclhlQq5cKG3+/HwsICstksisUiSqXSMSNt1iLa4/Fww+KjY9Pr9bBYLFCr1dwouF6vo9PpQBRFFAoF3lVLFEXusZLJZE68hul0GqlUCvV6HcViEdVqFe12G4IgfOcStX5hpdvtUhYJQRCvDRJJCIIgCJ5mL5fLuZlop9s59UuqQqFAMBDAhx9+iDNnzqBer6NWqyGTyeDLL7/EysoKer3eie9nq/8DAwMYHh6GRqM5MRjtX408yfT0TeBpgcCzBArdbpeXuzx69AjLy8vIZrOoVqvodDq8Q02r1UKxWESn04HT6eTBzUmwoMlqtZ567phhIhMearUaGo3Gidtk88NoNMJkMp2Y7q/T6WC1WrkYUKvVUCqV0Gq1jp0TpVIJg8FwYrZGf6Dfbre5rwcL8E6CBbCsW029XueiABPhmNno4OAgSqUSlpeXkcvluC/D6OgoZmZmMDQ0BIvF8sICSf+4jgpV7Dywuc26w6hUKmi1Wt7euf+1TChRKBS8w85RYaPb7SKZTGJlZQULCwtYXV1FLpdDpVLhQSebSywTyev1fucVeyaSVCoVVKtV/gzI5/OYm5s78d5mWS2sgwsTFZlIotfr+dx0Op2wWq0vpbuNQqE4Jh48D3K5HDqdjt8vJ22HiXbsWvdn5wHgJS+NRoNnB52WsSeTyQ7dU5lMhgvSRzNimKhieGx+e/SeYnOHZat0u11eWsmy30qlEr+Oe3t7SKfT0Ov1UCqVJ94LTMgsFApQKBR8e+yee9GW7T+Elu8EQby9kEhCEATxI4elOavVal4a0Wq1UH7sNXISUqkUVpsNU1NTfLWUtY9cW1vD6urqE/fJVv+NRuOpIsnRMb4s+ksHgG+79DwNVrbQn51w0oqpTCbjKeNsZfUkWMCUTqfx8OFD3L59G9vb28hkMjyw6g82mKEhE59OMsxlsJanTyv3YWOVSqWnmvD2b/NJgSZbSZfJZDwQ7nQ6EHrHj18ul/OyiqPXnol0TARg+31a4MWOlxmE8pXox8fDRAlmTspa0jabTej1+gMjUo2GB4YvY86xoPmo6NH/f3at+tvUPqkltkQiQa/XOySQsMyAZDKJBw8e4Pbt29jd3UUmk+GvY9eNXV+FQnFoHn1XIYIJNqyrjkKh4F13WGnUUURRhMlk4ga7Y2NjMFssXHxgPy8iavTDnnHPU15z0jbYtXyWEjr2vBAE4VCLaCZ8Pq2kEQDvOMT8d/g9dYr4fNr9yeY+EwsB8LGx8bXbbZ4Bx64fy1w66RpqNBqYzWbulxMOh6HT6V7oerFjBMDvBYIgiNcBiSQEQRA/clgAwVaxNRoN6vU68tncsSwABstU0Gg0PGBjZQsGg+GZ99tfUvAqYUEDCzj7A5nTYME7CzqZEWH/qjILVJjhZqvVOrWModfrIZfLYWlpCV988QW+/PJLyGQyDAwMIBQKYWBggJutCoKATCaD+/fvY2tr65nP17O8rv81zxoov4xV4qNB27Ps70X2y4LWVqvF29vm83k0m03U63WUSyU0HpcyvUyYIHfa2PuP7XmOr/9a9Xo9ZLNZLCws4LPPPsOtW7egVqvh8/kQCoXg9Xqh1Wr5XEqlUrh//z52dnZ49tiLwEQWhUKBQCCAs2fPYnh4GG63+0TT4n7kcjk8Hg+Cjw1dmcDQE3q87OxlZJKwLlMv0q3oScau7P/91/Fp436Ra/6ksT3LFvuFsf7fzM/owoULCAQCJ7YEP4pCocDAwABcLtcz39MnjYd1vWLZZi9LJCMIgnheSCQhCIIg+Cqp1WqF1+vl3Q9YHbxWqz3ma9G/4t3r9dDtdqFWq4+VYrxp9K92Mz+GZ+mi0Ov1UKvVUK1WufkkOy/9gS4rr5BKpdx8sNPpHOtc0+v1UCgUsLm5ib29PTSbTUxNTeH69esIhUJwOp38fPZ6PUSjUUQiEezt7T119Z9lFlQqlVPNXdnqMfM4eVKrYuCglKPZbKLRaPCOGP3barVa3JeApf9rNBrIFSd/1TgtQGTv1Wq1kMvl3Bi0VqsdKl047Vi63S7PPJHL5dxXRxRFVCoVrKysYH5+Hul0GlqtFm63GxKJBNlcDhubm9jY2ACAZwoOXyYvUt7T7XaRzWb5XOp2uxgcHMS7776LQCAAh8PBr1mv18POzg4ikQii0SgXJb6rEMEycJjRrEajgd1ux+joKEZGRp7qAcJKkixmM5SPnx3tdhuFQgGLi4tYX18/dQ4/KwaDAePj4xgaGoLJZIJGo/lO23lRsU4ikfAOLqzl+mkiKvPmqVar3AiaZXg8SXiSSCRP9JI6CaVCAc3jTELmV+T1ejE5OQmv1/tM11Cv18NgNDz3PO4XL1l5EivHe5YsQ4IgiO8DEkkIgiAIAAdfdJ1OJwYHB7npZiKRQCqVgsfjeeoX5R/Sip9cLoder4dMJkOlUkGtVnuiSMKC8HK5zDv5MNPNfuNR5rdiNpshkUhQrVbRaDTQabchVamAIyJJPp/n3T2sViuuXLmCX/ziF7BarXxFViKRoNvtQhRFbrr4LFkvtVoNxWLx1Gyg/mPqdDrfBiUnXEfmG8E6YrAMmv7/N5tNFItF1Gq1Q2KRSvl8fjISiQRqtZr7NfR6PVQqFRSLxVPLv1jpUqFQQLvdhkaj4QFfvylwoVDA3Nwcvv76a+RyOTidToyPj6NQKGBtbQ2Li4sYGBjgfhE/lHR/Npd2d3dRLBZht9tx7do1/PznP+ediNhcYobALKvktCD0WTN82H2g0+n4fpifyNDQ0DMJEux9UqmUz6X9/X387ne/w29+85sXbgHs9/vxi1/8goua31UkeVGYiKRUKk/sUNQPE2ULhQIajQb3/TlqXvyiSCQSKJRKGIxG6HQ63mFGr9fD5XJheHj4VC+go8d2tPvRs9LpdFB7bODLTL9ZJ6cfyj1IEMTbBYkkBEEQBICD+vdgMIjZ2Vkkk0msra3h4cOHsFgsuHLlCoaHh59cjy+K3P/hTaa/bazBYOBi0N7eHpRKJYxG47Ev+qycaGdnB3t7e9xTgbXAZOeEtQl1u93Q6XTI5/MolUrI5nKw2WzQHQlumPjQ6/V4ZorxcbDC/CN6vR5KpRJy2SzS6TTy+Tz0ev0Tj7HdbiOVSmFnZ4d3MelvKdtut5HL5bgIBgAulwtms/lUD4lKpYKtrS1sbm5iYmLiUKDZ7XaRSCSwurqKZDIJqVQKu91+4Dmh0x7b3pNgQTY7vyaTCel0GhsbGzh79uyhrByWwVIoFJBIJJBIJCCVSuFyuWA0Gnmgz87HysoKFhcXkc1mMTg4iPHxcUxOTiIWi/EuHXNzc7DZbHC73bBard+5G8qrpL9UQRRFvrJ/dC51u13UajXkcjmk0+kT28kC33rasLnQ6XRO9Nfp75Rks9lgs9lQLpexu7uLVCqFTqfDA++jokt/a2Lm0cFeo1AoYDQYMDIygsuXL58q9D0rdrudt8Z9mQLD86JQKOB0OuFyuVCtVhGPx5FMJhF4XGrEvIyYefH+/j42NzdRrVZhNBphs9lgsVigVCpPFQyfF6lUCo1GA5vNBofDAa1Wi2KxiK2tLQwPDyMcDp/qD3L0Gn4XgYSJYvl8HsViEb1eD0ajEQ6Hg2fkEQRBvGpIJCEIgiAAHIgkw8PD6Ha7mJ+fx4MHDzA3N4derwe32w2fz3dopfBo3b0gihCeRyR5gRT/45v6tqb+aduUSqUwGo3w+/2w2WyIRCKIxWLY2tqCyWQ61tqTBZfFYhEbGxvY2tqCIAiwWq38i3y/SGI2m+H1eqHX69Fut5HP55HJZKDT6U5sA3vURLb/NwAuaOxFo4jFYkilUk8N3FutFvb396HT6ZBOp1GtVrn4wLIuUqkU9vb2kEqloFKp4PV6YbfbITshiBRFEeVyGevr6/D7/fB6vbDZbIfGmEgksLCwgHg8zoNB1rb3eejv1MFEkmQyidXVVWSzWbRaLV4qxYLJTCaDaDTKj9nv93PBh5UtRKNRLC4uYmVlBbVaDdevX8cHH3yAkZERbG9vI51OY25uDnP35jAwMIDJyUmejfJDyZI6Om+P+k60221ks1lEo1FEo1GkUqlD7bnZNlimEDPhZQa3LKOpv+yEdX1hLZjT6TTW1tYwPT2NcrnMM0zY6/vHw0q4pFIpZFIp8PheUCqVcDiduHbtGgYHB08ts3pWNBoNfD4fbDbbM2VFfF+w+8zj8WB+fh77+/uIxWIYGho61F2MZZFEIhGsrKygWq3C7XbDbrfDarUCwEsTSSSSg5bcDocDbrcbRqMR29vbWFxcxNjYGM6ePcs7DrHXH7uGjQakTzAcfhrNZpN3mhJFEQaDAW63GyaT6bWKWgRB/HihJw9BEAQB4FszVr/fj2vXrqHVamFnZwerq6v41a9+hZWVFfj9ftjtdr7qydpHVioVxGIxrK2tYWlpifsMnLRyK4oiSqUStra3Ie/zBjkJVsNvsVhgMBiO+Z0IgoBSqYTd3V3Mz8+jXq+fKiCwFrCWx100wuEwYrEYdnd3sbe3h08++QSRSARjY2O83SxLA9/f38fq6ioWFhYglUoxOTmJM2fOHMu8kMvlsFqt/DwpFApks1nEYjE4HI5DwgITa3w+H3Z3dxGJRHD37l3o9Xr4fD4YjUYePCwvL2NxcRGlUumZAgcW5AqCgFu3bqFWqyEUCsFms/GsioWFBTx8+BCdTgdjY2M4d+4c/H7/sW0zIafT6SAWi+HevXsQRRGhUAharZYLMnfv3sXm5iZ0Oh2GhoYQDAah1+sPVseF5xPDWOA2NTWFeDyOe/fuIRKJ4Pe//z0ymQy8Xi8/P4lEAktLS7h//z5EUcTIyAguXrwIn88H4EAwymQyuHPnDu7cuQMAGB0dxblz5zA2NgabzQZRFHHt2jXUajU8ePgAy8vL+Pzzz3Hjxg3MzMy8kNnnq0Aul/NuMZFIBPF4HN988w0PyvV6PRqNBjcKXlpaQq1WOyTw9dMvVGm1WmQyGSwuLsLtdnPPF41Gw4U/qVSKYDCIq1evot1uY21tDbdu3UKz2UQ4HObGsXK5nHvHlEolXrrGMtjsdjskkEAqOfDf8Hg8MBqNL2ymy9pIn9Qe91Wi1WoxPj5+KIvrz3/+M7LZLEZHR/lczOVy2NzcxDfffINKpYKhoSFcunQJHo+HC38vEyagBoNBXLlyBQCQTCbx2Wef8f0zjySZTMb9VIrFIur1OuRyOfx+P2ZmZriI86wIgoBqtYpEIoFisQi1Wg2HwwGHw3FMsCYIgnhVkEhCEARBAPg27drlcuHq1atQKpX4zW9+g7m5Ofzxj3/Ew4cPMTY2hkAgALvdzrMSqtUqcrkcz7IoFAqwWq2wWCwwmUzHRItut4t8Ps9X9J9kFiqRSGAwGDA6OgqZTHYsE0MQBBSLRWxvb0MQBMRisVMFBLlcDofDgYmJCQQCAQwODiKdTuPRo0e8w0w0GsX29jbcbjfMZvNBl598Hqurq4hEIiiXywiFQnjnnXcwMzNzLB1cKpXyTBKbzQalUolcLodoNIqxsbFD42FZJ8FgEKurq1hZWcGDBw9Qq9V4Z5ByuYxkMomlpSXs7+9DoVCcGtge3bbBYIBKpcL8/Dx2d3cxNTUFj8fD0/jn5+eRyWRgtVoRDodPFUnY9pjvxfr6OiqVCtbW1mCxWFCpVLC9vY2trS3k83lMTU1hdnYWwWCQGy92hefPBFCr1ZicnESj0UA8Hsfdu3fxxRdfYGdnBxMTE7DZbKjX69jd3cXi4iL34piYmMCFCxfg9XohiiKq1SoXd+bn5xEMBjE1NYUzZ85gcHCQ70sqlSKVTGJjY4Obt3q9XoyOjvJSpTcVmUwGm82G0OO5tL6+jnv37qFcLiMcDsNut6NcLiORSGBxcRHJZJLPpZNEMdbO2WKxwG63I5vNYnl5GWazGdVq9cBo1WKB2+2G1+uF1WpFIBDAlStXkMvlsLu7i0ePHmF3dxfj4+MYGRmBxWKBSqVCtVpFoVBAMplEPp+HQqHg5Xx2ux2QAFKZFCrpQYvo5w26T+J1dtLqR6vVYnR0FI1GA/Pz89jb28M333yDWCyGSCQCl8sFURS54ByLxaBSqTA5OYlr167B4/EcyuR4mSiVSoRCIVy9ehXlchn7+/uYm5vD7u4uxsbGuOmtQqFApVJBLpdDPB5HrVaDzWbD5cuXEQqFXlgk0Wq1XCRhAhxBEMSrhkQSgiAIgsMyN3w+H0+lHx8fRyQSQS6XQyqVQiaTOZQ+z35EUcTw8DBcLhcCgQDOnz+PkZERGI1G3h4YOPD32Nvbw+effw6DwfDE4FMmk/Fg12AwQKlUHno9a6PL2po+6Uu1QqHA4OAgVCoV9w2ZmprCz3/+cwwODmJ1dRWNRgNra2vY2Nj4thXp4xbHbrcbFy9exOTkJC5duoRQKHTMAJJlXajVat7Kl4kI/eeAHZvD4cD09DQqlQq63S7i8Tii0SgymQw0Gg3vwhMOhzE2NoZcLodMJvNUjwaVSoVgMIhwOMzLJRKJBLa3t9FoNHiJw9mzZ3H27FlcvXoVbrebiwVHj0kmk8HlcuHGjRtwuVyIRqPY3NxEp9NBvV5HvV6HVqvF8PAwLl++jGvXrsHv979QBoZSqYTL5cLMzAwXQKLRKAqFAu7fv89LQXq9HkwmEyYmJjA1NYUrV67A5XLxVtYPHz7EzZs3EY1GYTKZcOnSJVy7dg0Oh4N7tLBgfGp6GolkEg8ePEAkEsGDBw/gcrkQDofhdru/03G8CpgAODMzg1K5jF6vx8up0uk074ii0WgwPj7Osxkymcyp3VU0Gg1mZmZQKBTw4MEDRKNRPHz4EJubm1AoFPB4PDh37hxEUYROr4f+cZnTjRs3oNVqsbKygmg0imw2i0KhwH1k2POiv+xteHj4xFK0ty2LgPkhDQ4O4uOPP4bD4cD6+jqKxSKWlpawuroK4MADRhAEnDlzBuFwGFevXsXY2BjMZvP3NjaZVAqTyYSRkRG0Wi3o9Xqsr68jlUphf38fyWSS+9Sw68LEuZGRES6KPi/M7ykWi6HRaGBgYABerxcqlYoEEoIgXhskkhAEQRCHkMlk3AuCdf+4d+8elpeXedDD2rGyjgtmsxkejwfBYBBnzpzBxMQENwIVRRH1eh06nQ52ux1utxvJZBKZTAbZbPapY+l2uygUCmi1WtzgVKFQwGg0wu12o9VqQSKRoFarPbELhkKhgMFg4C181Wo1hoeHYbVa4Xa7YbFYsLa2hmg0inw+j2azyc1UWaB8/vx5TE1NIRQKnWjwCoCLJKFQCKOjo1hZWUEkEkGpVEK73eaBBjN5DYfD3Phwfn4ea2trKJVKyOfzsNlssFqtmJ2dhcNux/rGBnZ2dlAsFrmB42nH6nK5MDExAZVKhVqtxj0QGo0GNBoNz4i5fv06RkdHYbVaT23fLJFI+Gqx3+/H559/jlwuh3w+j3a7Da1Wi6GhIczOzuLy5cs4e/YsNBrNt0GuBIfOpVQq5SVNp4lkMpns0GucTidu376N5eVlZLNZNJtNKBQKWCwWDA4O4vz587h06RKCwSBv31sulxGPxxGJRHiJ1aVLl3Du3DkecDIRSK/XY3R0FM1mE7VaDY8ePUKhUEAsFoPH4+GvValUcDgcaDabsFqthzw32LU3P86yUKvVXLg7GvCzzjAmkwkul4t3AzotE4plHjGxxmKx8OvF/icPh9F67FUxPz+PjY0NFItFPpecTifOnz8Ps9mM9fV17OzsoFqtwmw2H5tLTFDpFwtZa3CZTIZmswmPx4NKpQKh1+Pn5fz58zzD5N69e9je3kYqlUK9XocoitBoNPyYQ6EQpqenMTIyckwkeVOQy+X8+cYy5J50nzAT1F6vB7vdDq1Wy58TbH54vV6899578Hg8uHnzJpaWlhCPx5HP5yGRSKDX6+H3+3Hu3DmcP38eY2Nj8Hq9h+4VNhdNJhM8Hg80Gg30ev2pmXkymYx3HSqXyzCbzYfuP+njEkmfzwetVgun0wmfz4f79+8jEokgk8lwHxT2zGfdb2ZmZk4Uup5Gr9fjpq3JZBKCICAYDMLn871W7xiCIAgSSQiCIIhjSKVSKBSKg8DrcbvcmZkZVCqVg5a2j1c6WbaJSqWCTq+DyXjQkcRisfBSC9YJZnZ2Fh6PB++99x5qtRrf15NSxyUSCYxGI89QYS0hbTYbzwY4mqFxGkyUCAQCcLvdfHXdbDZjYmKCt+CtVCpotVpcBFIoFNBqNDA9DgpsNtuhwOckVCoVhoaGUCgUeIeZWCyGRCLBO0iw42NeACqVChMTE7xtryAI0Gg03MRQo9FgaHgY5XIZrVYLNpvtoDzhCedOp9NxAWR2dhalUgm9Xo+X4zidTni93qf6nLCA3mq1YmJiAgaDAVevXkWj0UCv1+PBvsPhgMvlOpaRwrIGpqen8S//8i9oNBrw+XzweDzHjEOP7pdlNjHzzffffx+NRgPdbhcymYwHik6nE263+5CPgU6nw8WLF+H1eFCrVqHSaDA2Nnbi8bJsDCagfPTRR7DZbIdMauVyOUKhEH75y1+iWq3C4/HA4/Hw4FClUiEUCh2USExMoNVq8U5AR8UghUIBn8+Hjz76CGfOnEGr1UIgEIDRaDzxXFgsFvzkJz/BxMQEAMBms3Hxhp1jrVaLwcFBaLVaTE5OolQqodVqcXHCYDTA7XJDpVIhHA6jVCqh0+nA6XQeK5OQy+Ww2WwYHx+HXq/HpUuX0Gw20W63eSDPxBB2zllJ3MDAwEHmViiEYqnERVVRFKFQKKBUKnk7W/a8eFODYpPJhA8//JCXXdlsNu53cxS1Wo2pqSnuAcPEyH5Rhd1LdrsdcrkcRqMRly9fRrVa5SKEUqnk96fT6eSiX3/JkEajwcDAAK5fv45gMMjnpsvlOiZ4sVLKoaEh/OM//iNKpRICgQB8Pt+hTlnseW4ymTA0NMRLHUulEr/ngIO5q1KpeKteu91+otD2JJiBdCwWw97eHiqVCiwWC8bGxvjzkCAI4nUhEb+PwkaCIAjirYB3rnlsnPg0QYP9Ppoq399p41k60BzdLkvP7++oIwjCS9vW0S4g/ds86bieVgbQ6/VQLBaxtraGf//3f8fKygo+/vhjfPDBB5iYmIDT6Tz0enY8R/d/1Euhf4z9x9Hr9XiL3v/4j//AJ598gitXruBnP/sZrl27hrGxsWPvfdoxZbNZ/Pa3v8X/+3//D2tra3C5XPi3f/s3fPTRRydex/7tnNZGuP84n+d8Pmn+9L//aMZG/zxh9Jd8PGk//S1N+7crCMITj+HovGTiwWnH1T++o3Pzu7y2f/9H742T7ssnbevo+TjtPSdt96T5fNLcO3p+3zTYsTBR+ElzHDg8PwAc6l51dLtPOrcn/Zy0L/b+k55tJ+2Pvee0a3d0bKfdc6eN81np9XpIp9O4ffs2bt26hYWFBYyOjuKf/umfMD09zQVxgiCI1wFlkhAEQRCn0l97/qLbeZlB0JMCz++yrZcdoDHvAZaOXiwWsb+/j4WFBXi93mMiycs8npPG8jK2/bTg8Pt8/3e9Rs97Xvv3c9r7Tgt6+///fYzvWV/7Mn0cnuV8nPa+tyXAZcfyrMfztPnRv90Xfb6y/TzL+5/n/vs+nolHEUURxWIRq6uriMfj8Pl8GBsbg9Pp5FmIBEEQrwsSSQiCIAjiJdNfnnLmzBlIJBK0Wi0olUr68k8QBAFwTyu/3w+fz4eJiQle4kkQBPE6oacQQRAEQXwPME+QixcuYHR0FIIgQKVSweVyve6hEQRBvFakUim8Xi8+/vhjNBoNblxsMBhe99AIgiBIJCEIgiCI7wvWxtbpcnE/hjfVe4EgCOJVwUoSh4aG+N9epJyPIAjiZUIiCUEQBEF8j0ikUpAsQhAEcZi3ybuGIIi3CxJJCIIgCOIHTr8HysWLFyGXyxEOhzE8PHxqS9mnwdoY37hxA+FwGEajEW63+yWPnCAIgiAI4s2CWgATBEEQxFuAIAjodruoVCpoNBpQqVTQaDRQqVRQKBTPvb1er4dGo4FGo4FutwupVAqj0QiNRvM9jJ4gCIIgCOLNgEQSgiAIgniLOPqx/iIeKC9zWwRBEARBED8ESCQhCIIgCIIgCIIgCIIAQBbSBEEQBEEQBEEQBEEQIJGEIAiCIAiCIAiCIAgCAIkkBEEQBEEQBEEQBEEQAKgFMNGHIAgQRZGM+QiCIAiCIAiCIIjXikQieS2xKYkkBERRhCAIaLVaaLfbkMvlkMlkr3tYBEEQ3wkSegmCIAiCIH6YCILAF+9lMhlUKtUrj01JJCG4QBKNRpHJZKBUKiGX09QgiJcNBe8EQRAE8WZBn80E8WYhiiI6nQ6kUimsViucTic0Gs0rFUooEv6RIwgCms0mMpkMPvnkE3zxxReQyWSQSsmu5scGfUkgiAPoXiCIA+heIIhvofuBIF7NfcCqHEwmE65evYr3338fPp8PKpXqlcWoJJIQEAQB1WoVCwsL+L//+z/4fD5YLBZIJJIfnVgiCAK63S56vR4UCgVl1BAAgF6vh06nA1EUoVQqqRyNAAB0u110u11IpVLI5fIf3fOSOI4gCOj1euj1epDL5fQZQgA4/N2CPkPeXp4neBRFkT8rAFCpOwHgYF50u10IggCJRAKFQvHWiXO9nohWr4daq4dqq4NWR4Dw+H8KiQQqhRQaGdCuV6HWKGGxWDA7O8vLb14V9OlNQCaT8Q9tq9WKf/iHf8C7774LhULxxj+wX+rNIorodLsoFApotVowm83Q6/UAaPXgx4ooihBFEc1mE6VSCd1uFzabDRqNBsCbNS9e5QcHcSCcVatVVKtVqFQqGI3Gt/LLDPHssC+35XIZ9Xoder0eBoMBMpmM2Vg1PgAAIABJREFU5sWPFPYZ0m63USwW0W63+XeLV21GSJ8Rbw6iKEIUBDQef7cAALPZDLVa/dpMKn9svIn3AxPO6vU6KpUKlEoljEYjlErlWzUn6u0uEuUmtlNVzEeLiBbq6AkiRAlgUMoQsGjg1wlIby0jtrMKURQhlUohlUpf6XkgkeRHDnsYs1VQrVaLiYkJvP/++1Cr1W+8SPIyEQQB7XYbqVQKtVoNbrcbJpPpld+Ubxtv4gfR8yAIAmq1GjKZDDrtNnwDA9DpdDQnfuR0u12USiXk83loNBrY7XaoVCqaFz9SWDDc6XSQz+dRLpdhNpths9lIJHkGfuifE0+CCe3pdBqNRoN/t6A58eNGFARUH3+3AACHw0ELc28Yr+O5xL5bFItFqNQq2G12qNXqVz6O74N2T0S50UGi2EA7VUFCW4ZWVoDe2oBcKoVFo4TPqsGEUwuvqoUlRRf51N5ry9YlkYQ4pFpLJBKoVCpotVqoVKofVaqwIAiQy+XQaDQQRRFarRY6nY5S6H/k9Ho9iKIIjUYDuVwOrVYLrVZL8+JHDMsYaLfb+P/svWmTHMeRoP3knVl3XwC6cQMkQRIURIo6dlajlenDmL1m80vnP+zuu3q1mtHFSwTFE/fROLrRdVdWZWbE+6EqEtmF6gMUgGqg/IG1VTcQyI4M93D38LhKpRJhGOafEtwuLmbFwGAwIEmS3Fa4rit6scAopXAcJ1+BGEVRnmgXvVhcsixDA71eD4ByuSwx54JjEu1pmpIkCUEQUC6XCcPwtdYLrSFTmrg34nZ7yKd3+3x5t8u1rT47sYUblDheC3l/vcZ/v7DM28dKZL0m299WCL35+c/FGQELh8KsmnAcJ/9aJGzbzg+uNZ+ykmRxMbMIRg/yL8fGtkQvFhWzaqBoI4rfC4uJUirXheKX6MXiorXOYyrXfE1mRG3LxrLFhywi07EFkNsLSZ4tLia2MOMO27ax3ddXL7TWpErTG6Y8ag+5ttXlizstvrzX5tpWj26cUS8FnGxEvHOiypVTdX56qs7xis/OVkwYeHn/mMf7S5JEEARhD2Ya5NfLRwmvkNctgBFeDaIXi4uFhWayZL+gBxaW+BIBEPsgPMubohNKwyDJ2GzH/PXGE/50Y5sfHvZ41I3pjTIakcu761V+dnaZn59d4vxahYrv4KBo2dbcTaQkSQRhgpkBDMMQrbUskRZyzDYsz/NwHZf5m25h3phT56Mowvd9WSkg5CsGfN+nVCqJXgiMcyHjGWFzZpHrupIgWXCK5wGa8yYWaXu7sDcmtjA+xHkNfYhSmv4oY6s75NaTHl/f7/DF3SbfPeyw3Rvh2hbvHKvw9rEKV041eH+jxsW1CstlH4vx7TdHYfwlPVIQCjiOQ6lUwvO8/DTpo9BRhflhAplKpZJf6yl6sdgY+fu+T7ValateBYB8eXQURXnCXeyEAOMBcLlcJgiCN+6mCuHHYQbD5rBWiS2EYmxRqVQm2/ReP73ItGanP+LrzTZ/ur7N327ucK8ZM0wzHNtioxbxrxdX+eWFZd4+XmGtGuI5Fo5t5VvRjsLbSlQnCBOMEQqCAM/z8Dxv3lUSjgDmVO0wDPMD+F4nZyW8HGzbzgc7Zv+w6IVgAlzbtvMroUUvFhujA2EY5ol28/fC4mJWnpmVJIt2BqAwm+nY4nU5F1FrSFXGk17Cre0+3z7o8NX9Ft9sttnsxGBp1pciLq6UeH+jxpVTS7x1vMJKJSDyjqbuS5JEEAqYJbGCUGQRDzEW9sesMJKkmVDEBLgmQSII8NSHmINcBQHID3YGSZoJY4qxhfn5dUBpzTDR3GsO+L8/POZvN3b44VGXnf4I27E5Xg1451iZ3106xi/OL7NWDSl5DvYRPrxakiSCMEFrjVKKXq9Hmqb5Ncivi4ESXg5KKdI0pd/vo7WmUqnIeTUCSimGwyHD4TDfpve6zPgIL48sy4jjmNFoRBAE+ZYb0YvFRWtNlmX0+32yLMvPGoDXZwAkvHjMda/9fh/LsuS6cAHYHVuYVcxHeTtvohT9Ycb91oBv7re5er/N1/fb3HrSZ5gqjtVCzq+UubRe4fJGnXdPVFkpB4SejW0d7RP+jm6rC8IcyLKMTqfDYDDID+ADCWQWGg1JktBqtUjTdHyQ1muW4RdePEop4jim1WoRhiG+7+f2QlhMzGC41+vR7Xap1euSaBcASNOUTqdDHMe7tmIJi4tJkrTbbYDXcvWA8ILRT2OLdrtNEARHdsWq1uOzR/rDjAetIV/da/M///GAq/fbNPsJSaaohi4XVsv88vwyvzi/zDvHq9RCF8e2OWKvMxNJkgjCBLOSJMsysiwb31eOlptMFhyNznUiTVOUUvOukjBnzMFiSimSJMF13fzvBCG3FRM/Iiw2JrZI01R8iACMdaIYc2qtUVr0YtHR6F32wmzRO4rb9AZJysN2zPVHPb641+Qf99pc2+rRGaQErsWF1fHKkfc3alw6UeP0colK8PokSECSJILwFL07mFFKgeZoHLEszBUzQ5xl2diJSfJs4TG2ohjkCovNtE4opUQvFp2C+JVSZGk61gmJLQTIbQWAVmIrhDGzfMhRSJRoIMsUw1TxqBPzzWaHT2/t8Kfr29zY7qO0puQ7bNRDPjy9xK/fXuXdE1XWqmG+veZ1QpIkgjBBIw5KEARBEARBEIT5YVaQ6COSV9AaMqVo9hO+e9Thq3ttvrrf4vtHXTabAywL1msRb62V+ejMEu9vVDm7UmalHBC4r1+CBCRJIgiCIAiCIAiCIAhCAZMciVNFa5Bwa6vH32494ZNbTX541GG7n1BybU7WI945UeWjMw1+dX6Z08slIs95rbbXTCNJEkEQBEEQBEEQBEEQcjKt6Y3Gt9d8ebfF57ebfPeww93mgPYgpeY7vLte44ONBldO17iwWuF4LSDyHRzLem0TJCBJEkHIsSwL27bxfZ8syybZz9e4dwsvDMdxCIIAx3FwbEfOIxGwLAvXdQmCgCAIsG173lUS5ozxIUYv5DpPAQvQY93wPA8VhmNbIWqx0JgYwnGc8U1Hk+8FwcQW5tY8e07GQmnNMFXs9BM2mwO+edDmbzd3+PJeiyfdIUpr1qo+F1Yr/Oxsgw9PNXj7eJXVio9t29hvgI2TJIkgTDCGqVwuTwY+oQyGhTy4rdVqZFmWX90og5/Fxcg/CALq9fo4eSYBrsB4oFMul/MgV+yEYGKLSqVCFEUEQTDvKgnzxgLLtvB8j3q9DjBJloi9WGSKsUWtVnuaRJtDzJlmmq3OkK83O3x+Z4e/321ye7tPa5CiLc3JWomfn2/w0ZkGbx+rsl6PqEUervPmTBhJkkQQJhgjFIUhmVJ4vjd2ZBLkLjTFrL7WWgbDAjDWC9+fzJjYNtabMG0i/FMYH+L7Po7j4LruWDfEhyw0ZoVRFEUopSTRLgBgWzaOM44tYLKSRGLOhcesaDexxatcpao1pErRiRM2mzHfP+ry93stvrzb4sZWl1GmaEQ+Jxshl9ar/PL8Mu+t11ithFQC97XeWjMLSZIIQgHbtvE8HxctQYwA7N6GZX4WvRDM4NcEMKIXApBvt3HdcXglOiHAeABsWRYajW1J4kwY49g2tsQWQoF5xpyZ1vRHGTe2+/z52hO+uLvDtcc9HnVilIKVss+l41X+5eIKPz3TYKMeUS95+M7rezjrfkiSRBAmaK1RShHHMWmaEkVRPuMjLC7mvvrhcIhSilKplAe8wuKilCJJEkajUX5mjawaELIsYzQakSQJvu/j+74MfhacvWILkCTaIqO1Jssy4jgGIAxDiS2EmbHFy17BnGaKfpKx1Rly/XGPrzZbfHGnybXHPXb6IyLP4VQj4q1jFd4/WeOnJxucX61QDhwcZ16nprx8JEkiCBO01qRpSrPZZDAYsLa2huM4MvBZcLTWDIdDtre3SdOUEydOEEURIAHuomIGPf1+n1arRRAELC0tyVkDC8540JPSabfp9nrUajUajYZs0VtwtNaMRiN2dnYYDoesrKxQq9XEfywwxcTZkydPAFhZWZHYYsEpxhbtdpsgCGg0Gi99HJJkmu3uiKv32vyf7x5x9V6bx92Y/igj8mzOrZT55fllfn52ibePV1kq+fiujW292afoSJJEECYY45SmKUmSoJSad5WEI4JZTWL0QqPlgDUhXzUgg2ABxj5Ea0gntiJNU7TW866WME8m4jeTMKPRaKwTGrnhRshXDZjvBcGsMEqSBNu2xzHnxI+86ERJPMrY7g25/aTP15sdrt5v8497bR51YizL4uxymbeOlfnJRp3LJ2tcXKuwWgnw3TfncNb9kCSJIExhkiUS3AoG47RMgkQQxgNiLfZC2EVRJwShSNFmCAKwSx9ELwSD8SFKKfRLTKb2Rgk/POrw1xs7/OcPW1zb6hOnCsexOF71+fBUnd9eWuO99RrHqiGR72Av0CH1kiQRBEEQBEEQhJeNDIQFQTgELyNppjVkStEeJNx+0ufbh12+ut/km80Od1oxSmtO1ALOrpS5vF7n8qkq7xyvsloNCH0HZ4ESJCBJEkEQBEEQBEEQBEF4Y8m0Jk4UD9tD/nzjCX+6vs13Dzo87I6wgdWyz4W1Cr86v8xv3l7lzEqZ0LdxrTfz9pqDkCSJIAiCIAiCIAiCILxhpErTH6U8ag/59mGHr+61+Op+m5vbPTpxRj10ubhW4dLxCu9v1Lm0XuVEPZwkSKyFTJCAJEkEIcdc02jbNq7ryuniQo5lWTiOg1IKa/JHWGyMrXAcRw5uFXKMXpgv8SMLjkV+eKtt2zgSWwgFbNvGsceHYIpeCAbLsnBdd3zD5j8Rb5rtNb0kGydIHrT5w3eP+eR2k0edmCTVBK7D2aWIX5xb4ufnlnh3vcZaJcCxF3P1SBFJkgjCBMuycFyHWq1GGIYEQSBOS8CyLIIgoF6vk2UZnuflfy8sJpZlYVsWURShtcZ1XTxX3OmiY5Kp5XIZx3GIokjshIBlWXietyu2kDz7YmMm5TzPo1avA+SxhbC4mCS7uQradd180vbH+JIkUzzuxFx73OWrex2+vN/ih4ddnnSH2NicWQq4fLLOBydrXDpR5dxymUbk4zqLcXvNQUhUJwgFHNuhVCoRhiGe5/1owyS8OZiMfrVSQWmd64Ww4FgWvu+PZ3psG1tWkyw8xQA3CIKxblgSbC46xeRZFEUSWwjA0+RZpVLJdUT0QjATcyY58rwrVTWQZYphqnjSG/LDoy6f3mryya0dvn3YJh4pQt/hRDXgvY0av31nlSunG6xWAsqBI/pXQJIkgjDBGAYz6BFnJcDTGR/HdbG1Fr0QgIJeFAJb0QvBJEpyfbBk1ZnwNFEisYVgMHrgTlYhyvY8AcZ6YPgxsUWWKXrDlJtbPb64Oz575LuHHe42B4wyWKkGXFyr8NGZOpc3GpxfLbFWCQg9G1v0bxeSJBGEAlprRqMRWmt8me0RAI3O9UIpRRiG6EmyRFhctNYopUiSBNu28X0fkAHxoqO1Jk1TsizDdd1dAa+wuCilnsYWvi+xhQDsjjmDIJBEiYDWmizL8tjC87xD6UWmNMNU0RqMuLsz4Mu7Tf584wnfPeyy1R3h2HCiHnJxtcyVU3V+eWGFt49XKHuOnD+yB5IkEYQJJrhttVoMh0OWlpaoVCqADHwWGZUphsMhzWaTJElYW1sjDENA9GKRUUrR6/XodDr4vk+j0cgTJcJiYoLbTqdDv9+nWq1Sq9Vk4LPgSGwhzEKpcWyxs7ODZVk0Gg2JLRYc40N6vR7dbhff96nX6/i+v+/knAaGqeJhe8A3Dzr85foT/rHZ5l5zQLuf4roWb62WuXK6wZVTdd45VuV4PaTkOzgLfHvNQUiSRBAmGOM0HA7p9XpUq1VZMSAAkCQJ/X6fJEnIsgyNlhtuFhitx6uLjF6YVSXCYlP0If1+Pw9shQVGP9WLwWDAYDCgWq2ORzXiQhaWog8ZDAYAeeJMWGyKsYVSikqlsu9YZJQqWoOEB+0B3z3s8sWdHT671eRec4ACGmWXM8vj1SMfnl7i0nqFE7UQz5HtNQchSRJBmGCCWeO8BKGI0QuN6IawG7EXwjRFfyIIOaIPgiAcgjzm3CePoTV0BgnfPGjz+Z0mn93e4YdHPZqDEZa2WK36XDlZ5xfnV3h3vcpGI6IeefiOrG48DJIkEQRBEARBEARBEIQjjNaQKUV3lPGoFXN9q8ff77S4er/Fd486dOOUauRxsh7yzvEKH55e4ien6qw3Iiq+g+PYsojtkEiSRBAEQRAEQRAEQRCOMEprRqnmUSvmj9e2+OvNHa4/6nK/PSBJNbXI5e1jFX5+tsHPz61wbrVMPfQIXRvblo3iz4MkSQRBEARBEARBEAThCJIpTZxmPOkNubnV4+vNDp/e3uG7h112ekNcy+LsWomLxypc3qhz+WSNt45VWCp5OLYl54/8CCRJIgiCIAiCIAiCIAhHkExBqz/iuwddfv/tI/52a4dHnZjuUGFbcG454r9dWOHn55d490SVtWqE71rj633nXfnXFEmSHBG01sRxTKfT4ebNm9y7d49ms0mv10Mpheu6VCoVTp48yVtvvcXKygqlUgnbtudd9TcGcx95tVolCEPCMJSDjQQsy8qvYVNK4Xs+NnLo1SJjWRa2bRNFUX71r+uKO110LMvCdV3K5TKO44iPFsACi7FeVKtVwjAkCAK52WbBsSwrjy1qtRqAXCEvYFnjpIaJLTzPQ2HzoD3k7s6A7x60+ep+m6/ut3jUicmU5mQ94OKxCu+t17hyqsHFY2VWyyGRJ3HqP4tEdUcEpRSDwYDNzU1+//vf85//+Z98//33PHr0iDRNiaKI9fV1fvOb3/Dv//7vuK5LFEXzrvYbhQlwG40GFmBZNpYtBmbRsW2bIAjyAMa2xfEI5IPgKIrAAtsSvVh0jA+p1WpUq9U8mSYsNpZl4XkeS0tLaK2xbVv0QsC2bcIwxPd9iTmFHMu2iUoR4WSM1xtl3N3p8ucb2/zp2jZfbbboxRmuY1MveVxcq/D/fLDOR2carFVDyoEzTsLN+T3eBCRJMme01qRpSqvV4g9/+AN/+9vfaDabLC8v89vf/pYgCHCcscJ7rsuFCxeo1+s4jjPvqr+RmOsaM6WwbbC1DHwEQD+9js3MAAmC1hql1HjAIyoh8NROGL0wNkNYbPLrPAtfohdCrg+AbWnQiF4IZBl04hH3mwO+f9znH5ttvtnscHO7R6bgWC3g9HKZyxtVLm/UeH+9xkolIPJsOXvkBSJJkjljttk8fvyYP/zhD/yv//W/eOedd3j//ff58MMPOX/+PGEYMhqNaLfb+L7P0tKSLMt7CZjANkmS8bYKaWOBSRDDOJkpAx/BoJTKk9xmqx5IgLvoaK3Jsow0TfE8L9cH0YvFxQyEjQ8xsYX4kcWmqBfALnshLCZaa1Kl6A0THrT6fHGnyR+v7/DNgy6PO0OGmaIReZxbqfDx2Qb/4501Lp2oEfo2rmUj6vNikSTJnEnTlGvXrvHZZ5/RbDZZX1/n17/+Nb/85S85duwY9Xodz/PIsozV1dV8eZ6cl/FyUErR6XQYDoc0Gg1KpRIgAe4io5RiOBzSbrfJsozl5eXxnnJELxYZrTWDwYBut4vnedRqtTxRIiwmJkHS6/UYDAaUSqV8242w2GRZRqfTYTQaUa/XKZVKohcLjtaa4XBIp9NBa029XpfYYoFRWjMYZTxqx/zwsMMXd3b4x4MOt54M2OkleK7FxbUq763XuLxR550TVU6vlIk8G8eyJEHyEpAkyZxJ05QbN27wySef0O12WVtb48KFC1y4cIEsyxiNRqRpmh/c6vs+vu8/935Ws43EfBb/3qygWHRMRr/f79Pr9Z6eN4A4rEXF9JckSeh2uyRJQq1WG+8hFp1YWIzNjOOYdrtNFEWUy+X88FbRjcXEJEn6/T7tdhvbtqlUKvOuljBP9NPYotvtMhgMiKKIKIrETiwwJvZOkoROpwNAqVSS2GJBSdU4QfK4E/Pdww5/u7HNf/2wze3mgExD6NqcrEV8eHqJX11Y5vJGjfVGhGe/udu/p8er80CSJHMmTVMePXrEtWvXqFQqlEolPvvsM7799lu2trYYDoeUy2XW19e5ePEiFy5c4MyZM891aKsJ6LMsI8uyZ/5tNBoxGg7zJX8wnj03X0XMeQxaj/dOjndSPos1PtI977zGIexF8ZyHw5Q1ny+yrPm34rsX/24ak6g6sC2m3q34eZjyhyl7mDoUP1+0PF6W7A79XKz8wLPnfW7xcxbFMnrSj2CsE9POqSiP52mH/epwlPrSYer7Y+qwSx6H1OPnqcdzy+MQdTAcdNbArvdTes/nPlP2iMjjRfWloh6/LB0+qPx0XzpocuDH1MOULfqR6XOMjkRfegXyeN7+fFBQfNh6PE87FMu/DHkUn2fiMBNbFH3IK+ujL0geu/qSObPrkDHQYeX8vDZlv7LPW49D69o/4Z9N+WJMYT6L5Q6Sh6nDocr+k7HgXvozqw75//kn63FYmzJtY5/nuYctW6zHiygLoIFWP+G7h13+sdni73dbfP+ww4NODFgcqwa8d7zCldMN3tuocm61zHLZx7XG/1npZ/3YLD0rfh6m/D9rX6fbd7/nTvej6XrPC0mSzBmlFNvb29y+fZvTp08ThiHff/89o9GIJ0+eEMcxURSxtrbGgwcP8p9XV1cJw/DAFSVaj888abVatFotOp0OSZLs+vckSdja2mJ7ezvfWjAYDMiyDNd18w5h2zau6+LYDkor0jQly7JdSm/KOo6D4zj5+Q1mj/Z0BzFlXc/Nb4dIkmTPsmbvv2VbWNoiyzKSJJlZ1rLGJ8qbQ27NypxZgbFlWfkssKnvcDik3+/nbVzs8I7j5EvrldrdFsXfD+NbMFzXxbbtPFFlAqXp+pr3s207D6jMPubpss/zXFPWsiyU1mQzZFdsB1MWxqso9ipr2sH8niRJcv3aS3ZFnTDnv0zLwrIsfM/Dcd1d+lNM8hXl4XkeruXmgaep8/QzgbEOuw4W1kzZTbebcXJKKUZJQhzH+d9P60RRHkZu00betLHpH3vVYfq5ph6mzWY5DyMPo7NmJdosirIrymOmA7PGVxU6jpMP/A4q67puro+zypq2M33UtPG0vk/Lw3XdZ8pOP9vcHmHkYdr3IHlYlrXvc03ZYv8cjUZYlkW/3yfLsl32ovjc/WQ3LWeANElI9pCdbdv5isKindirjc0B4AfJo2gzjZz3k4frutiOPQ7U9ihr6mt8gmVZu2zVLNmZNjaym+UPpp9r2mK/Np6Wx2g0mvncvfrd9CSDYdofJEmS+9F+v7/Lj5r+Yds2mVKofWQ37Q/2k12x3Ux/nvYH07JzbGd83lI22x+YdyvK7iB5mDoYOe9VtqhrRbu9V9lZfWmWPHIf5rhgjZewZ0lKmqXPlDN1LtrB/WzxXv55pv5M2sKayGM0GjEajXK9MDpQtFWWPU44ZGlKuo8/mI6t9vLPRXkAuezg2cHHXv55VlkjOyNn8357xVbFOKzYR2fJY7rfPY9vfJ6yB7Wx6zi57Iqxx6wYyHEdbMsGrUkOqEMuO8ZtFscxw+Ewj9WLNq3Yn59Hdkqp3LbNkofx5cV+t5c8TDxoZDcdh02XLfrRom7uJY/njYEO45+LduJQz7UttDq4rONOZKf0rrh4uqxt23iuiz3xo0WbadCA1pBkMEg1t5tDPrn1hM9u7/D1/TZbvSG+Y7Facrmw5PHhRomfn6lwZq1KoxRiW/vLrtgWRdlNt9testurbFGPn1cez1PW2J9Z9vVVIkmSOaO1pt/v8+jRI/r9Po8fP+btt9/mwoUL/OIXv8B1XXZ2drh37x6ffPIJrVYLy7L44IMPOHv27IFJEpOE+fzzz/n888+5evUq7Xb7mTrEccz169dxHIdms8nm5uaum3Vc1yUMQ8rlMmEYkiRJvu962hib64nNlznnYzAYPNOhbdumXC5TLpfz39dpt+n2ejOTA1EUUa1W8wRRt9ul2Ww+s+rFOILi3t9+v8/Ozg6j0eiZdnIch0ajQRiGeYLkyZMndLvdmYPharVKvV4HxgPRTqdDt9vd1Q4mQAnDkHq9juu6edDc7/d3DV5NIBEEAbVajTAI6Pf7DAaDvI2nyxp5RFHEcDik2+0Sx/EzZY08TBub5Z1xHD/Txo7j7JKH1ppWq5UPAGfJrlKpEAQBtm3Tbrdpt9szjatphygM0UCv16PVas2Uh+d5LC8tUa5UyLKMQTyg3WoTx/GucqYtarUatVot3wLR6XTo9Xq7yhp5lMvl/JyAOI7z7VWz9CcMQ0qlUn5Fd7fb5fHjx7RarV2D4SAICIIgbwsj4+FwOFN2pVKJUqlEEAT5nuThcLhrAGRkVyqVKJfL+L6f34Q1GAye0Xkju2q1mh8M2Gq16Ha7z8jDtm1KpRK1Wi2Xc7vdptVqzQyAgiBgaWmJKIpI05TBYDBTdqaNG40GtVptLLvBIO//xWeastVqlUqlkrex0fvpd/N9nyiKqFQqeX8eDAa5HhfrEARB3j98389tlWnjYlnf9/Otdb7v0+/36Xa7jEajXWWN7EyfsywrP1AbxsnE4lJp825F2TWbTfr9/jPymJadUopms0l7sld9uo2jKKLRaBD4Pkma0uv1nkmAF5Mey8vLlEolkiTJ5TEcDneVNQP9SqVCpVIhTVPiOM63CEyXNe1WLpd3yS6O42dkFwQBURRRKpWwbZter0e/338miWfO3CqVSkRhhOu59Ho9ut0uaZrOlF2lUiEMw9y+mnMfppPWnudRrVYplUq4rstoNKLZbDIYDJ4ZYBb10vO8XHZmWXwRcxW0sfGj0Yhut8v29jZxHJMkSe5HjW4uLS0RBAGj0ZBBf5Dr23QbB75PrVajVCrlAypj54tlXdfF933K5TKlUinfNmp03sjDPDcMw9w/mxjEyKPY/01ZY69s285ta3Ezvu1UAAAgAElEQVTQVpSdiREc19mll0WdN/a1VqsRRRGO4+Q2xQwYi7iuS71ep1wuY9t2Lrt+vz9THpVKhVqthuM4eR/t9XozE0BRFFGv1/F9n+FwSK/Xy99vug5BEOTnRphJlF6v90y/M2VNWxgbv7OzQ6vVAsgnYIwvN/IonmkzHVuZ+povgHa7vWdsZfqcsVcmTpk1mRKGIZVKJS/b6/Vot9szk3Ke5+WxlW3bxHHMzs7OLptSLFur1fJtZ6PRKI8pihT9nZGdaTczaTerjc32V+PLTVtMlw3DMLevhylrYqDRaESv15sZL5nYyvjyLM3odDt5v58lO+M/lFK0Wi22trbY2trK+4exT1EUUa1UCMIQgG63S6fTeWbQaPyz6UtGt/aLrRqNRu5zzSTqrNjK2MFqtQqQ259+v/9MPGHsYLVazfuz8QfTdsK0ca1Ww3XdXb58ls817eZ5HnEc0+v1nvHlRf0plUr4njeOdSf2crrdTCxoZGdsfBzHzyQ/zLuZ+E5lY9mZuHG6LYrjFKVULrtifZXWJBlsx5prLc3320O+f9jlzk6fziAhtBXHQotLS/D+MThTGuGnPew0BO2TTXyuieWLGLtiYnkjOyOPYl8yZU2dbdveFb9Oy87Er+VyGcdxdvmZaf9sykZRhOu6uX01zy22m4k9oijC8zyGw2E+sb/X5MSrQJIkRwATVGVZRqlU4vjx43z44YecOXOGMAzZ3Nzkr3/9K9evX+fGjRt8+eWXNBoNNjY2DnVQoMk2muB/VpLEDObCMMyzy1mW7ZptUXr3oMwYkmkFLs4Qaq1B7156XHyG+V1Py05mfibPmHbk0wapWNdpR14sa55vyk8z69nmuWa2ZLpssZwpO92uJrNfDMKLS26LmMx+cdXarDYD8tn06TacVdZk1KfbY692K9a3WG667HRbmvJ7zUiauulC+VntYMoWy2k1+92AvI1N2eLvmvXcWfo3ayXJdJsV61x896LuzGrfWXIuli/KeFaCYtZz95Pd9PvOqsN++rCnPKbaYVZfKuo8erw9aS+91FrvaovpOk+/S9Em7DdbXtSrg/rdrLpprckO6qNT/79YP2Mriv+/2F57zYw889wZtrX4O7XWk9movWVnAsfp/rif7KbL7KUT0/38MLZ42h7vJbviM4rtNm13Xdd9Ro+Lq+qKmBnLYt32mumc1p+9dLhY71ntq/V4xhr2sCl6bxsP46voNeyS8142/pn6akWm9n+/YluastPPPqxtK9pG82776VDuDwp13m/meS/ZzWJaz/bSS1OP4v8r+rtpZvrdPez2LB0u2u5pu2FsJgfY+Fl2ez/bNm0DZ5Ut1ldrvUtXZ9WhaAen6zDNdLxUlPMsiu9nvt9rNe2sPjf9bJOc3K/diuwVs82y3ebdcjvPwf55+qso/2LdVZahZvS5WStDp218sfw00z5sL3037Tb93Fl91Pi96f5sZFd8tvHfe8Ufs5Jhs567p43PMrRSqIkP3Usee9V3Lxu0V/tO16H4u6b9fjaR6TBRdIcZDzpDbjYTvn2iuNFM2eqOyLRmpeKxFricKiveOx7x3okyK5WQsu/g2ADPxufTdZ0Vqxj9me6P0zHpdJ1nlVVaYbN7p8C0nM3q1WI/MmWn9diswC629bTNnweSJDlCNBoNzp8/z69+9St+85vf5Fn6Y8eOYVkWzWaTu3fv8t1333Hu3Dk+/vjjA59pWRYrKyt8/PHHnD9/nn/7t397ZrvNaDRie3ub//iP/+D777+n0Whw4sSJfGUHkC8RNMsmLcuiXq/nHamIySq73mSplyafBZpWemMEzVJB27bzjPissma209TBZJeng1RTZ7Ok1cLKs5mznIyZ2dJa51lus5KhuJLEvF9x+aiZCTMZ2+k6mHpYWPmMp8ni71UWa3fZaSNo5GHez7zbrLImc2+WsjmOQ71ez+uwpzwmy+gPVXYiu2q1mp/OPlN2/vi5Fk9lt5cjN+9mZgfM9o1piu0AjGcxJ6t9pmVcbAsYH5RmMtiz6ms+syzLZ2mOHz++60BfU6a45NU8d5YDMzIwS7xNfYuDhmnZFdvYrNKYJQ/P83ZttzGzfbMGHWb2Oe93hZmPaVzXJZghj1llc323bVzPozRpl+l+V1zuaoI8c3BdrVabKY/itgYz0zcr4C+WNfLwff/Asma1mtHL6fcr6o9SiiAIaNTreL6f33pUXHXm+37+3OIM3kHyMPZ11tlTxVlUy7bwLX/XrNV0WbN6obitYFa/K9pX27bxJnUxs2z7yc7IIwzDmQOJWWWN7PaTs7HxRnazbLzneeMl01i77MR0WfP+5rm+77OysrLLHxbr4XlevjLIyG6WjS/KA8hXrJhDnpeXl3Nbkq8QmeiJkctesjN935Q1/3eW7Ez7mi1Qtm1TikozZWd8gZGHmcGbJY+i77As6+ls6h7+oFi2aAf3kp3nujDpd47jzPTPxsabJfeBH7C8vEytVpspj11lgyCXnalDsY+afleUR6lUemawlsu50C8cx6EURaQzBuXF7QRmpt+sIDp27Bi1Wm2Xvuf+2XWpTtpuWh7TvhzIVxpNJ89mlTV2wgxAZunadGxVHLgUZWe2bGBBVBrLblZfKpbVWhMEY9kV/XNxMq6o88Y3mthxVhsbm1ksOytJMl3WrCTYq2zR59q2ncdWB/lnEy/tV9bEC8bPmXKrq6v5ailjq0y77dfvdsmDpzHpXrGVsT9G12f1O/PvnueNt65NnmtWl0zXwbyf6Uum7x8ku4PKzoqXZsW6xTqYrS6mnWfFr6bPzZLdrDjMK5S1PGtXbDXLDvq+j2M//f1mhegoVTzujngSd/n8cczVzQEPeim9oQYLTtYjfnqywrm6zTE/5dRyiZNry5RLIe5Edua9jL87yD9bgDWJgWYlHIttAU8PEK5Wq3vKw6xWNrLbK7bK61CQ867E8Ax5FFdHVSqVA3dMvEwkSXIEMIOOpaUl1tfXOXXqFBsbG7njiKKIU6dOcebMGba2tnj8+DE7Ozt7ZuKLmAH0xsYGx44de0YxtR6vItnc3OT3v/89169f37Vk1gRRBhMsWJaV72eexfQhPCbI2YtiIsIMLPYraz4PLFuoh2d7z7zPNGma5rdU1ApbdYpJEkNxu4W5lvmg+lr205nd/d6vGJQdtux+hqRYByAPlA567mHLms8gCA6Us/k0g5uD6mAc2L5l2Z2sMMvED3o3U3Y/tNbjrVuTYHS/a/qKctvvucV2OKgO033JLJE3dZv1TPO92QY0a1A+/ekHAd4kUbhXWVNf0+9m6UXx9xt5zNLjWfUtynnmuxXa4qCyxWcXdW2vNjOfe5XNnzepg1KKUqnEyupqPjAu6v4z76fJdfKgdjMDq736UrHfa1vnt57t99znkZ1lWdiAMwmSDypr6jwrWT2rLexDPNd8b+RxmLKWbT0zg7ZXHYzdNn35oPc7TFmNxvO9fLuA2UJV7N+7ZDexLXv5sOk6mPY4WHY2jjX2z3uWLfQl8/zDyNkM3g4jD987QNem6rCX7J6ph7XbDs4qO+2fDyPnYh85qKxJgBxGdpY1TgKtrKxQqVTypM0sG2j86KHagac6sV/Z4veHLXsYH5a3mWXjRPv73KI8oig60D8/r078mLKHsq+6sDryBZed9gf1ep0wDGfa1n1lx9N+Me0bZ5a1d8t6v4sgZrXbrL40XYeXITsA25odT+xVh/3i11nyOEwdTB/dU3+K9WA8TsF2accJDwcxPzxJufpwyFePh9xspSitqUQupxsl3luv8OGpOqerDlUnpV4JqRUmH40uaK3zdjuovgDeHnHYzDZ+jrKHrYPRy8PK2cTw877tSZIkc8Z0NjPjtLy8nBtJw/Q+5uk94gdhOpVxUrsSG/rpXuKiUTUD02I9nvl+YgD2C0iLP5uO/aLL7sd0nfd6rsF1XZaWlvKl3HslHg773Oep715lD/PsonF5U+RRfH/zeVDZH1Pfg8rms18rKyildq3U+GffrVjW/K7nqfNB7W8Ctlly2U/f9qvzq5LHQe+2X9n96nDY58L+8rBtO18RYZz/vs+2xgHeYeVxULB9mHebLv88NmX62fMuCwf3jx9T9jBtDIeTh4WF67jUarV8z/Z+evG8fT/34YdpN9s6tH9+nuf+mDocpvxzyaPQlw4qexi/Py2P59EJOPjdTDJleXl5pg95VfKY3k53UJ33Kjdd9nna7UU991XbiZdR1sTeq6urAM/EnNPtdhgdNt8fNBgtPnev+j7z3OewKS+r3cy440U/98fEYYeVh9YwTBW3tvt8ervJp7d2+PZhl+3eiExplkoe756o8K9vr/GTU3U2aiHVwMa2NF5hRUzxuc9b3/3q/Dxlp8vvV4dZZQ/z3GIsU3zPeSBJkjljWRa1Wo3jx4/j+/4zB6fB0/1Z5mCug2bg9/o9sxTNZL6nM4HTQfVBz36eerzoss/bgQ4qb5JDz9s5X1bZl/ns10Ee8y5r9MA4qufRi6PQFqKXP67sQeXNvzmOg/0c9uJ1eLejWPZlPftFP9MMfoo+5HXRi6Mgu6NQ35fxbmaQ8zw+ZN51fpl1OArvNu+yRg9MPD89MfnP/P7nLS/yeP6y+5XTjM+UGowyHneG3Hjc4+r9Flfvtfj2YYetXkLZd9ioh7x1vMoHGzU+OrPE2ZUSZd/FsZ6eD/Qi9eJ1KjvP5IhBkiRzxnGc/BDW4XBIs9l85kRqrZ9e4zsajfKtMMKLZToZZZZ5HYWOKswPoxfmpgGzFFr0YrExZwCY20vMUmjRi8VG66eHFZq92CB6segYWyGxhWAoxhbArjOphNcbrTVJqnnSG/H5nR3+eG2bb+63edCKaY8yqr7N+ZUyH59Z4l/eWuGd41WqoUfo2YBGZePzHi1r93XbwqtFkiRzxnEczpw5w5UrV/j000+5efMmX331FaurqywtLeG64yuAv/nmG77++muGwyHnzp1jY2PjuVeTCAeTZVl+pV+tVsuTUWKcFhcTxJgbqBqNRr4XVfRicdFa51famatoxSYvNlqPD8QcxDHxYJBflSh2YrHRWktsITyDmZTrdrsAu861Er14PTG31zzpj7jzpM83D9r8/W6Lb+53eNiJ0cDFlTLn18pcPlnng/UaF49VWKn6OJPEqcpUfsV48aBf4dUjEd2c8TyPCxcuMBgMuHr1KteuXeOTTz4hiiIuXbpEqVTi5s2bfPrpp3zxxRecOHGCS5cucfr0aQnIXzBmBtCc+WIOvRRntdiYQKbdbucH+3q+l++LFRYPMwMYxzHtdpswDPOT/4XFxQyG+/0+nXYbi/Hp/8ICo2fHFmEQIi5kcSmuImm32wD5QZXC64vS0B2m3Nzq8edr2/zxhy1ubvfoJ+ObX47XQj460+BfLq5weaPORqOE71o49tPzOJRSu2ILc3MTSPLsVSMR3ZyxbZulpSUuXrzIr3/9azzPI45j/vCHP/DZZ5/heV6eUXzvvfd47733+PDDDzl58uS+t7oIz485TMgEuvsdyiQsFsZxZVm2541OwmJhgtxZVzcLi4vWGm10gr0PtBMWD6UUSmILoYDxI+Z74fXDnD/SHiTc3u7z/eMuV++1+Wazzb3WgERr1qoB51bKvL9e4yen6rx9vMJqLSD09j4v0sScSmLOuSFJkjlj7uYOw5Df/e53NBoN/vf//t/85S9/YWdnB601q6urXLp0iX/5l3/hl7/8JVeuXKFarUpGURAEQRAEQRAEYQ4opRmlmsedIZ/e3uFP17a5er/N485wPBFe8ji7UuJ/vLPKf7+4wsZSiUrg4tj7r0eWpNn8kSTJEcAczLOxsYHjOKyurvLb3/6WwWCA1ppyuczy8jKnTp1ifX39mSuCBUEQBEEQBEEQhJdPpjTDVPGoM+Cr+23+ca/N1w/aXN/q0xtmNMo+Z5dLXDpR5YONOu+tVzleCyn5No4lu+1eByRJckRwHIe1tTXW1ta4fPnyMxnE4gn5kiB5+UgbC0V+zJXQwptNUR9ELwSD2AphX0QvhAJiJ14/tIZMawajjCf9Id8+6PB/vn3M57ebPO7EDFJFxXc4uxTxszNL/Or8Mh+cqrNc9nFsC/s5rsC1LAtLFpTMDUmSHCEk4J4vxiA5joPrunLllpBj9EIphW3ZcmirAIy3S7qui+M4YiuE3IfYtp3fSCB6seBYTz+LeiEuZLExMYRlWfmB33KDyevBKFNsdYfc2urxxZ0mX95vcf1Rj+3uECw4u1Ti8sk6lzdqXFqvcW65RC3yxttrDuEPjA+R2GL+SJJEECYYw+R5Hkqp/DRpYbExCZIgCJ4OfJCZ4kWmmFD1fR/P8yTAFYCn22eDIMDzPLETAhYWjj32IYDEFgJY7PIhWmvxIUecVGlGqeJJd8i1x12+uNvi/36/xXcPu6RK4ToWxyoRH5yq8a9vrU5ur4koB85zrx5xXZcgCPB9H8d2ZHXinJAkiSBMMA6rVquhlMqv/xXDtNhYloXv+zQajVwvZBZQsCyLUqmUD4Rl4COYRHu5XM6TJLKaRDCDHokthCK2bRMEAY1GA0D04gij1Phq3xuPu/zjfpu/323y7YMO95sDUqVoRB7nV8v8/OwSl0/WObdaZq0WEHn2oRMkBtu2iaIoX9HuuhJbzAtJkghCAeO0TFZfnJVQXElifha9EGzLBhvsYDz7J/ZCAPLViJ7nzbsqwhHCxBYgPkR4SlEvxIccLTTm5hpFO064uzPg8zs7fHarydX7bR50hoSOzfFayIXVEj893eC/XVjl4lqZcuDiufaPmk8zSVUz8WKJXswNSZIIQgGlFMPhUGZ7hBytNVmWMRqNUEoRRRFaa9GLBUdpRZqlpGmarzaSIFfQSpEmCWmWyTYsIUdiC2GaYmwBjLdWyBkURwY9ub3mcSfmy3stPrm1wzcPOtx50udJLyF04K218fkjPzuzxDsnqhyrBlTCg6/33Q+lFGkqscVRQJIkgjBBa43WmjiOGY1G+SFrIIfpLjJaa9I0pd/vk6Ypnufhe75suVlwtNYkSUKv15OVAwJgfAjEwyFxHFMqleQAVwGtNUopiS2EXRRjCxivJDFJVdGL+aE0JJmiPUh40Ir5/lGHT27t8PmdJg9aMSOlWC57nF0uceVUgyun61zeqLNeD3EsC9v+52RnYot+v4/nefm2G+HVI0kSQTBoSNOUXq9HHMeEYUgQBnKTyYJjApler0eSJFQqlfGAWEsgs6iYhOpwOKTb7RKGIVEUybkkApnKGAwGdLvdfG+5sNgYH9LtdhkOh4RhSBiG866WMEeMDzGxBUAYhvi+P+eaCUopWoOEHx52+PT2Dp/cbHJju8eTfoJSirWqz8dnlvnZ2Qbvrtc4vVSiGnq4L+DWqmJs0ev18H2fIAhwXVdWMM8BSZIIwgRjnIpbK9DIigGBLMtIkmSsF1qh0ZI8W3CMrUiSBMdx0FrPu0rCnDErBrIsI01TsiwTvVh0JuLP7YXEFkIB40NgPDgX5oMGMqXoDjMetmJubPX46n6LL++0+O5hh94ooxI4rNdLvHO8ysfnlvlgo8Z6I6IWerzI3EVxHGLbNgotCZI5IUkSQZigkWBW2BsZ7AiCcFjEXgiCILweaK0ZpZqHrQF/ufGET283+fp+m/vtAWmmqYUe51cr/PeLK3x8bonTyyWWSj6Ba7/QBMl0ncSPzBdJkgiCIAiCIAiCIAgLQzY5nPVJd8j1rR5fb7b58m6Tbx92edyJcR2bs0shF9YqvL9R48qpBhfXKtQjD895eQkS4WggSRJBEARBEARBEARhYci0ph2n/PCoy//8+iFf3Gmy2Y5pD1J81+b8UsjPzi3zq/PLfHCyzkrZJ/AcHMuSBMkCIEkSQZhgWRa2beO6Lp7nYb2AQ5iENwPbtvPbS2zLlvNIBCzLwnGc/PR52S8sGB9i9EKu8xSwyA/5dl0Xb3Kdp7gQAcB2HFzPA63lBpNXyChV7AwS7u30+Xqzwz/utbh6r8W9doxSmo2liLfWyry/UePyRp23j1VYrQSEno39km26iS183x9fIy/GYm5IkkQQJliWlQcyQRDgOo4MhgUsnjosMwgSFhtjKxzHwfN9XM8TvRCAsW6YK6EleSbA0+SZ53kopcRWCE99iG3jmwkY0YtXRpxm3Nvp88mtHf7frx/x1f02wyRDW7BU9nj3eIXfvXucK6frnGqUKPvOP32172GwJn+MvTDX/xp9EV4tkiQRhAKu41CpVPKr2MQwCVjgeR7VapUsy/A9T/RCwLIsgiCgPkmWyPW/ghkMR1GE67q5DxEWGzP5YmKLMAzFhwh5QrVarQLjOEP04uWgAaU0vVHK3ScDvn/U4er9Nt9strn1pE+mNcuVgFNLEZdP1vngZI1LJ6ocr4aEvv1KEiQAWGDZFmEY5ivbXVeG6vNCWl4QJliWheU4lMvl/LotcVaCbdtjZ+VMzKWF6IWAbduEYUgQBIDohDDGcRyiMJKBsLALx3EolUoAohcC8DR5Vi6X859FL148GsgyxSjTPO4M+eJOk/+6vs3f7zW5uzPAsiwakcuppYhfnFvit5eO8faxCuXQwbOdV372iG3bBEGA7/uA6MU8kSSJIBTIsozhcIhSarzlRpZLLzzFO+uVUkRRlC9/FBYXpRRpmpIkCbZt4/u+rCYRyLKMJElI0xTP82Q1iQBIbCHMQIPKFMPRECD3IaIXLw6lNHGq2O4O+e5Bhy/vt/j6fpsftntsd0eUfIezK2Uunajyk5N13j1R48xymXLg4trzOZxVa53HFpZl4U/OMRK9ePVIkkQQJpg7yeM4ZjQa5UvdhMXGOKxer0eWZfnAR1hstNYkSUKv18vPoDAr0ITFZjgcEscxpVIpP/BZ9GJx0VqjlNodWzguGrEXi4zSiiRN6Pf7ALJt8wWiNWRKMUgUT3pDfnjU44/Xt/nr9W3utwb0RwrPtTjViPjoVIOfn1viw9MN1hsRjm299MNZ90MpxWg0ot/v7zqXRHj1yAhQEApkWcZgMCCOY6JovGQaJMBdZEySZDAYkCQJ1WpVBj4CWus8kAmDgFKpJAHugmNWncVxTK/Xy7dYiJ0Qsiyj3+8zHA4Jo8m5JHIw/OKix19pmuZJklIUoSW2eCGkWrHTT7i53ePqvRZ/v9vi+4cdNtsxSQbHqgHvb9S5crLOextVzq2WWC4HuLbFPO/2NZO1o9GIQa9PFgaEYYjrujIJMwckSSIIE8xsT5IkxHFMlmVilASAfLvNaDQiU9l4BlAC3IXFBDJpmjIcDrEsC6XUvKslzBnjQ9I0ZTQakaYpWut5V0uYJ3p3bDGMY1SmxoNkcSELi578MbEFQJplc67V60+mNMNUsdMfcWu7x9/vtPjbzW2u3u/QjlMCz+J4LeCttQq/fmuFn51psNGIqEWTQ3Pn/QI8nZiLR0Owx7GFjEXmgyRJBGGCBLPCfoh+CIJwWIy9ELshCILw8lFaM0wUd3b6/P1uky/vNflms8PdnQG9UUYtdDmzUuLjM0v89HSd86sVjtfD8fW+RzABYSZj9NGr2sIgSRJBEARBEARBEAThtUIpzSjTdOKE+80BX2+2+dvNHb6632az1ScDVisB51bKXN6o8osLy7x/ok498vBc+0isHhGOJpIkEQRBEARBEARBEF4rEqXZ6Y/47lGHP/2wzdV7Le7sDNjujQCLM0shV041+PDMEu+vVzlRj6iXvPHtNfOuvHCkkSSJIEwwd5E7joPneXKatJBj23Z+WKtt2XIeibDLVsh1ngIAFlj2bh8ierHgWIzPH2F8e4lrYgtRCwF23aIoMefzkWaKdpzyuDPkh0cdvrzb4pNbT7j5pM8whUrocGapxHvrNT483eD99TqnlyMCzz6S22sMJrbwfX98s40Yi7khSRJBmGBZFrZt59e7ysBHMDiOk58wLoGMYBKqrusSBAG+74teCFhY2NbYh4RhiO/74kOEfNATTPTBDIqFxaU4KRcEQR5/CoenN8q4ud3j73eb/Ne1bb592KHZHzHKYCl0eX+9xn+7uMoHGzVOL5dolPwjnyAxGL2QCdv5IpZaEAqYKxuNcZIAV7AsC8/zKJVKKKXy5JnoxmJjWRa+51Eul3FdV67/FfKBThiGecJd7IQA4DoupXIZP03HPkRmhxcekzArlUoAecwpNmM2mvH5I4NRxuNuzM2tHlc321y92+KbzTbbvYRy4HBmKeSt41WunKpz5VSdM8ul8fkjztFPNhj5m8lax3FwHEf0Yk5IkkQQJpisfrlczq/bEqMkmKXR5UoZNLKEXgDGeuAHAd4kmBG9EAAc2yEMQpkdFnIsy8J27HwwbFkWli22YtExEzAmwS4+ZH+01iitaPZHfHqryV9uPOHqvRZ3dwbEaUbZd9hoRHx8dol/fWuVt49VqUceoe/gvEbtatt2vkLV/Cx6MR8kSSIIE8x1W8PhEKVUPgsoxmmx0VqjlWY0GqGUymeJRS8WG6UUaZqSpumubXqiF4uN0ookTciyDNd1ZeWZAIztxWg0QmstKwYEYDLoL+hFEAQSW8xAKc0w0zT7I25t9/j2YZsv7rT5ZrPNg9YABZxdKXNhtcz7GzU+2Kjz1lqF1UqA51qvxfaaIlprsiwjSZL8PDzRi/kgSRJBKJBlGf1+n9FoRK1WyzP8YpwWF601SZLQ7XbJsiw/UAtELxYZrceJs16vl88GylkDi40Z9AwGA+I4plQqUS6XxU4sOGbQ0+/3SZJEYgsB2B1bAJJs3wOlNb044fZ2j//v28f85/Ut7u4MaMUpWsPJesBPTzf41fllPjrdYKMR4TkWjm3z2jWjBiaTtf1+H9/3cRxHViTOCYnoBGGCCXCHw2Ee4AqC1po0TYnjmDRNqdVq866SMGfMqjOjF8Z2CIIZ+MRxnN+IJSw2xdhiOBwSRRFhGM67WsI80eOvLMuI4xiAcrk83zodMRKlaPcT7u0M+O5Rl6/ut/jqfjHDKgEAACAASURBVIvNVsww1Ryr+Fw8VuXdEzV+crLGW8errNYCQu/1XXWh0aiJDxkMBvnqZUmqzgdJkgiCQT9dEjsYDMiyLD+bRFhssixjOBwyGo1IsxSNloP3FpziYBiQJImQrxgYjUbEcUwYhmit510tYZ5MxG+SJCa2QCPXAC8wevInTVOGwyEAaZrOuVZHB6U1w5HiQSvm87st/vj9Yz6906Q5SLCxqAQOZ5bK/O7SGr86v8xGI6IWTbaxzbvy/yRmAmY4HGJZlsQWc0SSJIIwQSPBrLA3MtgRBOGwGHshdkPYheiDIOyJUppBmvGgFfPtgw5fb7b4+n6H6497xIliOfLYaIS8v17j8skG769XOV4LKfnua3f2yEGYFav6zXqt1wpJkgiCIAiCIAiCIAivHK0hU4phqtjqDvl6s80fv9/ii7tN7uzExGlGPXTZaERcOV3nd5eO8ZOTdarh+GrfNyw/IhwRJEkiCIIgCIIgCIIgvFI0MMoUT3ojbm71+PxOk3/cb3HtUY+HnSGOpbm4UubSepUPNuq8t17l3EqZSuDh2pYkSISXhiRJBGGCuZLPtm1c15XTpIUcy7JwHAelFNbkj7DYGFvhOE5+qJqw4Fhg2WO9MF9yptWCY5GfS2LbNrbjjHVC1EKA3Ics6vl3mdLEqaI5SZB8enuH//vDFtced4kThWvbHKtG/ORUnZ+fW+bD03XOLpfxPfuN215TxLIsXNcd32wjxmJuSJJEECaYgXAYhrmBWkSnJezG6EKpVCJN07FeYIluLDCWZWFbFp7nEUURQRDI9b8CFha2ZRMEAeVyGd/3xU4Iu2IL27bl1iMhn5RzHIcoigAWMtneG6XcfNzj680On91+wjcPumy2BwxTTT3yeOtYhY/ONHh/vc751TLHaj6e++YmSMzki+/7lEolPM/DsZ1cX4RXi0R1gjDBssb3qkdRhOd5eJ4nhkkAwHVdoihCaz0eDItKCJaF7/uUy2VZeSYATwPcIAjyQFf8h1AcDHuel0/AiG4sNmYCxiRJFiXmVFozSjXtOOHekz5f3Gvy2e0mX9xp8rA9JHAdjlUCzq2W+PjsEj8/v8L5lRJLJQ/HefPXVViT2EIpNY4tHIkt5oUkSQShgGXb+bWNjlkWKyw0ZvtVuVQSvRByrMlKEqMPixDcCgdjT3zItG4Ii41JkogPEQwmeVYqlQAWQi+U1qRKsd0d8tmdHT6/0+LrzQ63tnu0Bgmh73B2qcRPTtX4+Owy7xyvcKwWUgs9HHsxNjrblr3LfyyCXhxVJEkiCAW01iilUEot9D5RYTdaa7KJXtgLuCRW2JssyySIEXKKPkRWFwkGoxMmSSKxhWBQSgHjBOubqhdKa9JM04kTHnRirj3q8OfrT/jybot7zQGDVLNa9ji9VOK9jRofnV7iyqk6a9UQ37Gw7TevTfZCTw4xMj7kTdWJ1wFJkgjCBBPc9rpdhsmIWrWWL4MUA7W4KKVIkoROp0OWZTQaDWzLxlogpy08i1KKwWBAr9fD932q1aokSxac3If0esRxTKlUolwuywGuC47WmizL6Ha7JElCrVYjDENAYotFphhbAFSrVXzfB948vVBK0x4k3Nju8V/Xt/ns1g63n/R51BmRKcVaJeCjM0t8dKbBByfrnF4qUYtcfGfxVuKZ2KLf7+dbemVF4nyQJIkgTDCBTDwcjgPcqDTvKglHgFwv4jgPcDUa9JsXyAiHQ2uN1po0TYnjGK01pVJpIQ/eE3ajlGI0GjEYDOSATgEYzwxnauxDhsMhYRTmSRJhQdHjrzRNGQwGAJTL5fnW6SWQKk0vTnnYGXJzq8s/Nlt8cqvJdw879EcZoWdzqlHlneMVPjq7zOX1KmeWS9QibyHjKxNbJEnCYDBAKUUYhriOi0ZWlLxqJEkiCAWMcRoOh/nSWDFKQpZljEYjkiQhy7J5V0c4IqRpynA4zJfECotNMXk2Go1IkwStNMium8VGg1bj2GI0Go11QiMHgC8w2vyZxJzAGxlbjJKMzeaAz+82+fON/5+9N2uS40gSND+/3ePOC0AmAOIgeAAki1Ws6qqaqm6Rlm2Zln0emfcWaZH5CfNr+rH/wDzMy/bu9uz2bBerp8guXiBIgjgIIJE48oo7wg+zfYgwh2dkZCJBAogEQr8UCC5NTwtTNVU1NXOzbb5cb7LZHhBnmtC3Ob9U5q/fOcFHZxc4sxixVA4I3PneeWcW5pIkwbbt0VwEzXycyHK8kCKJIIwxCa7ZMi2THsFQPGfAJDcSsOYb8RfCNPbYBE/eLxfmlIL6tdaoLBNfIeQUY8frYhdKaQbp6HDW21tdrt1v89X9JtcetHnYGuI7NufqIW+eKPPe+PyRiycq1CKP0JWKMkzknJJqzgwpkgiCIAiCIAiCIAg/Gq0h06MDWr950Ob/u/6YL+41ubPdpTXMCB2bk7WQD8/U+Ot3T/L+6Qa10CXyHRwpBuzhdSmavcpIkUQQBEEQBEEQBEF4ZrSGOFM0+wnr2z2uPWjz1XqTaxst7u32SZTmjYWIC0tlLq9WuXK6xtsnKyxXfFzbwpGD8IVjiBRJBEEQBEEQBEEQhGdGa00/yXjQ7PPJDzv8j28e8d2jNu1BhlKaxYrHuyer/O7SMh+dX+DCUhnftbHn+OwR4fgjRRJBGGPbNo7jEEURtm3j+/5cHx4ljLCw8DyPSqVCmqa4jivnkcw5lmVh2zZBEFCpVPB9X262EbAsC8dxCMMQpRRBEGDb8o79XGONYojJLRzHwfc8ObR1zjFXunqel99q47qv3pRMKU0nTlnf6fP9ow5frje59qDFnZ0eSapZKnmcXSpxZa3G+6frvH2iyqlqIAWSA7CwsK3R/KNareJ5Hq7tyBXAM+LVG5GC8AJxHIdyuUwQBHieJ45JAIs8kVFKiV0IwCjJ9X2fSqWC4zhSJBHy4pmZDAdBIH5CwLIsXNelXC4ThiHeeAFGbGO+mSySvEq5hWZUIIlTzWZ7yJfrTf7t1haf3t7h/u4Ay4Jq6LK2EPKbi4v85aUVLiyXaZQ9XNuWGuFBWGDZFkEQAOA6Dq7kFjNDiiSCMMYEJ1MgcV33lQhWwovFXO8ahiFaaxzHEbsQ8gTXTIxfleRWeLGYXYimcCZ2IQB5bqGUktxCAJ4UVcMwBMjjyHFHaU2aaTY7Mdfut/h6o8nVjRY3HnfZ7SdUAofVRsTlU1XeP1Pn3VM1zi6WqIYuriX7cJ/GvtziFbGL1xEpkghCAeOUXpVgJbwczDZ6OW1cMBj/IBNhYRKzc0BsQjCYGCK5hVDE2AVw7F/NMzfXDBPFbj/h5uM2/3pjk09/2ObeTp/OMKPs25xuRLy/VuM3F5f46PwCJ6sRnmNhy+GsR8LkE5JbzB4pkgjCGK01WZbRbreJ45hqtUoURQDipOYYpRRJktBut8myjEajIefVCGRZxmAwoNfr5WfWyC4jQSlFt9tlMBhQiiJK4630Yhfzi9aaNE1pt9skSTLKLcJotLVe7GJuUUoRxzHdbhcgP9/quNpEqka319zb7vHnu7t8fq/J94/aPGgOiDPNqVrA5dXR2SNXVmucXy6xWA5wHZnoPwtZljEcDun1eriuK7nFDJEiiSAUyLKMbrdLv98nCALCMBTHNOdorUmShG63SxzHVCoVPM8DJMGdZ7TWxHFMu90mDEPCMJRzSeYcU2jv93q0O53R+SSlkvgJIc8tBoPBk9xCXjyYe9I0pdPpAIzOqzmGuUWmNMNUsdOLubfT4+r9Jv/63SZf3G/RjxWOBctVn3dOVPjtm0t8eKbOheUytciTw1mfEa01WmuGwyGdTif3FWaX0XGyi3lAiiSCMMY4pyzLyLIs/7s4JUEpRZZlKKVQSs26OcKMMa9dGV+RZdmMWyQcB/T4S03EEWG+0VrnsUNsQoAn+abJOY2NHEeGScbdnR5X77f47O4uVzdabOz06ccZoWdzbrHEry8s8cGZGheWK5yqhZQDVwokPxJjE2ma4rrusbWLeUCKJIIwZlrQEgRgb/Fs/CWrgPON8RVm8iP+QkCDVnttQuxizimoXymFMrmFRq4BFvYsvBwnX6G0Jsk0rX7Cxm6fqxstPruzwxf3mtzd6WPbsFDxObdQ4oO1Or+7tMhbJ2s0Ip/Ak9trfiomt8iyDC2dOTOkSCIIgiAIgiAIgjDnaD16xWanN7q95k+3t7m60eKHzR5bnSGWBafrJS6v1fjtxUWurNU4WQ2pRd7o/JFZf4DXhONUNJtXpEgiCIIgCIIgCIIwp2g9Opy1M0x51Bpy83GHz+7s8ue7u9zZ7tKNM6qhy+lGxOXVGh+cafCLsw3OLpVwbQtHbq8RXjOkSCIIgiAIgiAIgjCnKK3pDVPujm+v+fj7Tb5/3GWzM2SQKhqRywen6/zy3CIfnKlzYaVMLfTwHEtePxZeS6RIIghjbNvGcZz8RhvXdeXQVgEAz/Mol8skSYLjupIQzDmWZWHbNp7nUSqV8H0/P31emF8sy8JxHIIgELsQRlhgYeW5hW3buK4r55HMOdb4y/M8oigCGNnFDFBa04szHrUG3Nnq8vVGmy/u7fLNgzY73QTPs3mrEXHpZIUPzzR4/3Sd84tlFis+tuweee5YlpXnnJ7n4dpya96skCKJIBRwHIdqtUoURQRBgGXJ/e7zjglY1WoVpRS+64ldCFiWlU96HMeZWYIrHB9M8axUKuG6bh5DBMF1XarVKmmajuxCqiTzjQWW/SS3MHnGy84tNOPzR7oxX9xt8qcftvnznR3u7fZJUk3g2azVQn735hL/4c0lzq9UWCoFhL4tBZIXgIkhe3ILx5Gcc0ZIVicIY4wT8n0f13Vl0iMAox1GWmuCIEBrLSvDAvCkeGbbdu47JIkRTAxxHAdHkluBJ7lFEASjleHxThKxi/mmOCEGXmpuobQmzTQ7/Zhbm12+22jz1XqLaxstHjQH2NicXQi4sDw6oPXDMw0unaiyUPYJPVuu932BFAtmtm1jSc45M2QWKAgFbNvOJ8WSwAgGx3HyBEbsQoAnr1aIXQhFTAxxnNEWabELASS3EKYzqxiilKaXpKzv9PmXbx7zp9tb3Nnus9VLcGyLtXrIlbUav7u0xK/OLXCyFhJ4Do5lIeb7YjHFEd/3878Ls0GKJIIwxtxL3ul0SNOUUqlEGISy4jPnKKVIkoR+v0+WZVSr1bzKL8wvWZYxHA4ZDoe4rksURfnOAWE+0VqjlaLX7zMcDgnDkCiKZDfJnKO1Jssyut1unlvI67xCMbcAKJVKeK73QnPORCk6/ZQHrQFfb7S4ut7k6v0Wd3f79NOMk9WAN1cqvHuqypW1Ku+cqrFSDQg9B1sKJC8Fk1vEcYzjOJJbzBApkgjCGK01cRyzu7tLv9/n5MmTo4P3LNnqNs9orRkOh2xvb5MkCX7g47gONrYErTlFa43Wmn6/z/b2NlEU4XlevntAmE+01iRpSqfTodVqUa/XCYJA7GKe0Xtzi8FgwIkTJwj8QA5vnWNMDInjmO3tbYD8bKsXdV6N1jBMFI/aQ75ab/F/fLXBp3d36MWKTGlqgcP5pRJ/+dYyvzq/wMWVCvXQk8LIS8Qs1vb7fXZ3d0fxw3UI7dErWZJzvlykSCIIY7TWe/5c/LsgGJsQuxAMxh6UUmIXQo5SKrcJsQvBYHyFIBheRuzQGvpxxv1mnxuPO3y13uTa/Rbfb3aJM6iFDmu1iPdO17myVuPd1RqnGyVKvi0FkhlRjCFICJkZUiQRhAkkkREmMTYhdiEYikUzmQgLBrEJ4SDM61hiG0IRYw/P2y5GN9coklSz1R3yzUaL/3Vri09v7fD9VhcFVAKH1WrIz87U+d8un+DyWp1G5BN4tmx0mjH5AowoYmZIkUQQBEEQBEEQBOE1QGtNohS7vZTrD9t8ea/J1xstvn/U5kF7gOfYrNUjLp0s8/OzC1xeq3J+sUw99PAcuaD6OCDF1NkjRRJBEARBEARBEIRXmNHuEc0wUTT7MT9sdfnk9jZ/uLnF7c0urX6K79is1kPeO13jozca/ObCEueXyzi2hWNLeUQQDFIkEQRBEARBEARBeIVRStMZpKzv9vnqfpPPftjhu4dt1nf79IYZ9cjl8mqND07Xee90nYsrFVZqAa4tNy0JwiRSJBGEMeZucs/zCIJgdHe9xAyB0anzvu9j2zaO7byw0+eFVwfLsnBdlyAI8H1fEkwhjyHGLlzXFbuYdyxAj2zD8zwyyS2EAo7j4HkeALbz429SVFoTp4rdfsL6bp9r91t8cnuHz+7tstWJcSzNYtnn/HKZX59f5KPzC1xcrrBcCeRw1mOGyS3CMBzfsCkKmhVSJBGEMcYx1Wo1yuUyYRjKZFjAsix836fRaKC1xvM8LEtWXeYZMxkOwzD3GybRFeYb13GoVCp58cy25Qr5eccUSIq5hTDfWJaFZT/JLQB8z/9ROafWkGaax+0BX663+OzuLlfvN7m91Ru/XmOxVo/4xRsNPjq3wJsnKqzWI6pyve+xw+SWe3ILV3LOWSFFEkEYU3ROWmscxxHHJGBZFo7jUCqVcrsQBFM8cxwH27bFTwhYloW2LIIgwPM8iSEC8KSoGkWR5BZCjm3Z+3MLiyPbhdaaVCk6g4wHrQHfPWzz73d2+OJek9tbXZJU0yh7nGmUePdUld9cWOT903WWygGR70iB5Jhi23aeWxjfIcwGKZIIQoGiQ5IkRgD2BSmxCwGe2IEpmoldCLDXLsQeBEMxjkhRVTAUc4tntYtMaTqDjJubXf5wY5PP7+xye7vHo/YApWClGvDeao1fnl/gZ2canG5E1EsevmNLgeQYI7nF8UGKJIIwxtxJPhgMSJKEUqmUv1ohzC9KKbIsYzAYkGUZ5XJZgpaAUoo4jhkOh/n7wzL5EZRSDIdDkiTB932CIACOvjosvJ4opej3+2RZlp81AGIX84zWmjRNGQwGoDVhFB3pHKNUaXpxymZ7yK3HXa5ujM4fuf64TXeYErgOpxsR75ys8MGZBh+crnN+pUzFd7FteYn8uKOUIkkS4jjGcZz8jETxFS8fKZIIwhgTsHZ2duj3+yyvrFCrVbER5zTPaK0ZDodsb2+TJAmu6+6p8Avzhymo9vt9dnZ2CMMwT2aE+UVrTZZltFotOp0O9Xo9f+1GmF9MQXVnZ4fBYMDKyooswMw5JoaY3AJgybaPlFvEqeJBc8DX95v8P9895ov1JjvdmEGsKHk2l5Yr/IdLS/z8bIOLyxUWyj6BZ2NbUiA57hi76PV6NJtNgiBgYWFBiqozQookgmDQo2QmTVPiOEYrNbp0XnzS3JNlGXEckyQJSis0Wg71nXNMUTVJEhzHQWs96yYJM8YkuFmWkSQJWZaJXcw7Y/Xn/iKOUZJbCGOMr4BR/nkQWsMgzdhsD7mz3eXaRpurGy2urrfYbMZ4LpxbKHHpZIX31up8cLbOheUKKxUf35UzLV4ljK+I4xjbtsn0wXYhvFikSCIIYzSSzAqCIAiCIAjHA83oit/OIOWbjTZ/vLXFp7d3uLHZIU4VvmOzVI748I0Gf/3OClfWaiyUA0qejWNLJe5VRWstRfYZI0USQRAEQRAEQRCEY4LWmiTTtPoJd3Z6fPugzdX1Jtc2Wtzb7ZFmmtVGxIWlMpdP1XjvTJV3TlVZrgSEroPjSIFEEH4KUiQRBEEQBEEQBEE4JqjxKzYPWwP+7cY2//P6Y25sdtjqJmSZYqni8/ZKhd+8ucjv3lzmwnIZz7Fw5MpYQXguSJHkGKOUotlscuvWLW7cuMEPP/xAGIacO3eOt99+mwsXLuSH+QiCIAiCIAiC8OqSKU0nTnnQHHD94Wj3yNWNFnd2egxixWLkcn6lwrunqrx/us7bJyucrAX4jty6JwjPEymSHGOyLGNra4tPPvmEf/7nf+bjjz9mcXGR3//+91iWxZkzZ6RI8hwx17qa+8kl2AgGYxNKKazxlzDfFP2FLSt3wpiiTVhym4RgkR/ealkWttx0JBQwvmJ09oSF0ppBqtlsD/lmo8m/fr/Jv93c5nEnRmlN4Nms1iN+9+Yiv724zJsrFZYrAZKuvl4Yu7BtG0uOJZkZUiQ5hmitieOYzc1Nbty4wZdffsm9e/eIoohqtVpwqMLzxLIsPM+j0WhQLpeJokgmPwKWZREEAYuLi2RZRhAE+URImE+M/kulErZt47ounufNulnCjDG2UKvVCIJgFENkUjz3WJaF7/k0Gg3SNCWKIokfc46ZBIdhyMLCAlqD5bhsNId8/6jN1Y02V+83ufGwS2uQEXk2J6shl9dqfHCmxuXVOueWylRCVwokrxHGLkqlEo7j4DgOvu9LzjkjpEhyDFFK0e/3uXv3LtevX2d9fZ1er0elUqFareb3qAvPF7NboFqtorUWpyQAo4mP7/u4rpv/XexCcByHMAwJggAQuxBG2LZNFEX5RFgK7YJlWTjuKLcA8RXCCMuycF2PcqXGMMto9VJuPOrw8c0dPr2zzY1HHbpxRtV3OFWLeHetyl+/vcIvzy2wWA4IfUd2qr2GFHOL4o5V4eUjRZJjhlKKJEl48OAB//qv/8rNmzd55513WF1d5datW3ieJ4PlBaKUQimF1jrfsSP9LRibUGp0X70kuYK5nk8phWVZ+e4+sYv5xtiBUkpiiJBT9BcgMUQArSHNFLv9IXe2enxxr8W1B22uP2qzvjtAZXC6HvLWiQofnGnw3lqdCyslGiUfz7WlQPKaMplbmEK7+IuXjxRJjhlpmvL48WNu3rzJd999R6/X41e/+hVJkrCzs0McxzJQXhDGMcVxnL9WIUmuYApncRyjlCKKolk3STgGaK1J05QkSbBtO1/1EeYbE0PSNMXzvPzcMLGN+UVrjVaa4XBIlmWEYYht2Wgkt5hXMqUZpBnN7pAfNjt8da/JH27t8t2jDs1+gmNZrNR83j5Z5aNzC/zy3AJvnahS8h0cW2zmdUZyi+ODFEmOEUopOp0On376KZ9//jm+73P27FkuXbrE9vY2QRAQx/Gsm/naYhxTs9lkOByyuLiI67rinOYcM+nZ3d0lTVNWVlYIwxCQic+8YlZ5+v0+7VYLPwjyd4eF+cXYRbfbpdvtUq1WZfengEaTZAmtVutJblFx5QDwOWaYKu5t9/h2o8n/urnF1xttHrSHtIeK0LO5sFzmF28s8P7pGm+eqLJaC4k8B1t8yWtNMbfodDr4vo/jOPmZZxJLXi5SJDkmKKVot9usr69z7do1bt++zcWLF3nvvfc4c+YMaZrmZyL8GLTSaPS+A1/NgEzTdO//aQ16v3xxgD7t8NjJwXyY/HGQNX0xGAzo9Xr52SRHefaztOF5tvm4tWFWspPyz7MvYLTDq9frkSTJ+JC16fKijxcr+1Oe/bzbq7UmSRJ6/T5q7Dumfd/r7DN/ih0f9zb8mHZorcmyjOFwSLfbxfd9sizb95zjoLtJ+ePehpcl+zT5H2MTaFDZ4bnFcbCJ46i7p8m/arJJpmn1Ex60+ly93+LzOzt8enuXO7t9XMehHrmcWyzx4dkGv76wwFsnaqxUAzzHZnRNkuagx7+I8fwsz33WZ7+IWP6y2vCiZM08JI5jut0uWZZRqVT2zP+OW545q/j8MpAiyTEhTVPu3bvH119/zQ8//ECSJFy5coW/+Iu/oFwu/6Rnm9cFsiwjy7I9/6f1aAuoecUk/x6tUVpjjd+fLRquCfzGgDU6v+JuJEC+QlKcUOTyByQHzyI72Y6DJifFA1gPk52k+E7gtNuEigcp5c89qB/0+M+FhGlawWraZ5vsj6f1g5HfJ3tQGybbzE/Xh3nnepJp7ThQHxbY2E/th+Kz9+ljUragD8s++mcr/rv5fJPf81P18cLGktIofYg+prT5sIn+UfRhjZT3VH1M/vw9sof0w552PMNYelafAvv1UfQphuLnm/ych42lSaaOJa32jc/J5x7WD1NlD2jHofo4aCxNyL5wffwU3zbR5qfFgz3twELp6UWwSdmij5hmFy9CH89jLL3I+AzTx9I02af18VFki4flHtgPBzx38jMe1t6jyOYy7D3zzPybhd6bJ2A9aS8vUB9HjEsvTB9HfO6LyJcOa8fU5x7Rp0z+/Mlna2C3n3B1vcmf7+7y5b0mNx532OmluLbNqarPlbUav7mwyLurNdYaJeqRh2tbwOH50rP4tuJ5OD9Kz0eNzzzfsfSsPmXymc9zLOXx4CCfcsSxNNXeJ9phcmqtD8g9iv0woYt9z54YS5O+6jB9HCQ7rc8syxr5MvQe2YPGUnGeVuQgu3xZSJFkxmg9esWj1WrxzTff8Oc//xnHcbh06RIXL15kdXWV4XD4o59vtv4+evSIhw8fsvn48Z5XdrTWJGnK9vY2d+7cIcsyer0ezWaTIAj23Ohhrrl0XZcsy0iShDRN962gWpaV3wZibuIZDocHynqeh+d5OI6DZVl50WbaAHUch2C8tf0wWdPmIAjybWppmubvBE9i2mz6LE1Tut1u/pxJZ+r7fv6eYJZlxHFMkiT72mv6zdyAkWUZaZrmbZ6UNVv2HcchTdP8vcRi4aH4XPPLtMH08WQ/GL05roNWek97p+nO87w8sRkOhwfKmnfuHcdBa81gMMjt6zDdASRJwmAwmOoEzQ0Rnufl+pimO+NYgyAg8AOUVnv0MSk7TR9JkhyqO1MkS5OE4WBAp9PJD9SalDV9YZ45qQ/TXmPztm3nqwZmN9dh+tD66brzfT/X3WH6MP1gZOM4ZjgcTk0ObNsmCiNc10Xp0eHSw+Fwn62ZzxeGIb7v57ozn29S1mwjLY5R02/T7Mf0sZE18gfJmn4r6mOanov6eJqsea4Zy/1+nzRNRzZYeHfY6CP/N63pDwa5XU4bS0YfSqk9vm2y34zuzLh7mu7CMMzHUpIk+4rixX4z9mZi00G6y/2P52FB3mdH0d1hsiZumNdUjD6yLDtUz0VfbGSL8uaWKnOdotnxXUpLpAAAIABJREFUYT7btLFkdKe02jOWJvui+Fyju06nk7fNxCvT5jAMcRxnjz4m/QSQ+0zXdXNZ0xeTssX4bPp4st+KssVrq42Op/Vx8bkm5h4ka+zHyMZx/OSzaf0kjx/bpbE1INdHlmV7ZI18EAR7+nhQGEvT9GF8vPGv0/wEgOd5hGGYP9e0eV/CPzHuir5qUh/FfnMcZ/TZxrtI2u02pVIp74PJWK613vPcaX7CyMLhudWkTZh+eJqshUWSFnz8hD6MTzF6zrKMwWCwz08Y2WIeNjnugNGUrhAbwyBAY5Fm6YHxeTKGHZYvFXOVp8kW9VEco5N9bBl9FHJd44snZTMF/VSzO1Tc3R3y+d0mn6+3uPG4w253SNnVnCi7vLXocGXJ5dKCy+mKQy2w8B3QWjEcxofmxcUb+A7LdYvxQGv9VH0Y32Z0V8xVpunuWXKrZ9FH0W8b+T36mIjPJo4W2zAZD4pxHw7PdaflxU/LrYz97PGDE7iuO4oHhdy81+vRarVot1rE41wqieNRPCjozsTnLE33+Fbg2XMrx8Ef687077T8dfJa4meRLc4bD4rPxbg/GAym5pkvEymSzBitNf1+n83NTT755BM+/fRT/vZv/5bf//73nD59Og+iP+X5W1tb/OlPf+Ljjz/m008/ZXd3d59MHMdsb29Tq9XY2dlhY2MjT87MoI+iiEqlQrlcJh4OabfbdHu9fUUcx3Eol8tUKhWiKEIpRavVotvt7nOCtm1TqVRGsmGE4zi0Wi2azWa+6lKUjaKIer1OFI1ku90uW1tbBxZqFhcX8/7r9/tsbW1NLTo5jsPi4iJRFOUBf3t7m1arlTtf81zHcajVaiwuLmJZFoPBgGazSavV2vNM02/lcplGo4Hnefl7hp1OZ19iZZK1RqNBFEX0+3263S69Xm9Pcm5kS6USlUqFUqk0Ohuh3abf7++TNW0olUpEUZSfu2JeHyn2m7kCuVKpEIYhWmuazSbtdnuqPiqVCrVabXQQnW3TarXY3d2d6gDDMGRhYYFSqYTWmm63y/b29tRE1/M8VlZWqFarpElCfzBgZ2eHfr8/tY8XFhbwFkYT136/z+7ubl7kKrbB87xcH5Zl5f3W6/X26MPImj5WStEfDGi12zC2LZN82baN549kq5UqURTR6/XodDr7JlbGLsvlMuVymTAM6ff7+Tk4k5Mw13VzfQRBQDouaHa73X02b3RXr9cJggCtNbu7u7Raran6KJVKLCwsEIZh/rrfzs7O1MlzGIYsLS1RKpXyAqI5SHpS1vM8lpeX8TwvD3S7u7v0er19+vB9P2+zeQ+31WrR6/X2tTcIAkqlErVaDdu26Xa7dDod+v3+Pt2FYUgURVSrVXzfp9sbyQ76exN50wbjr3zfz/UxWWgzn61arVIul7FtmziOaTab+cTGBHjjJ+r1OrVabZTkjA/fNkW2Io7jUKlUaDQaBL5PphTNZjMfS5P9FkURS0tLhGFIkiS0222azea+9hb14ThOvoW31WoxGAz2yJq+aDQaVKtV4jjeMz4mZYMgyH23Gc/dbpfBYLBHH6YoYPThOA6dTudQ2VKpRLlcxvM8ut0u7XZ7X7GmaD9G1hT4J58LI5/SaDSoVCp4nsdwOGRra4t+v79PH67rUqvVqNfreJ5HmiTsbG+Pxv8ERncLCwu4rkuSJHQ6Hba2thgMBgwGg7zYallWrrsoiojjmE6nQ6vV2ucnjB2bNg+Hw3ySPU13YRhSq9Uol8ukabqnjyf9RBRFuQ/SWuc6npxYGX2YuG901+l09hXairKlUimPz8YuJ+NdEATU6/X8uf1+n52dHQaDwT59eJ5HY2GB2jgfSpKEra2tfT6+qLtGo4HjOAyHQ3Z3d2m321Mna+VymYWlRQLfZzAY0G63abfbeyeNheKWyRNMIcz0RVHWTHyq1SqlUonBYECr1WJ7e5tmswlAr9fLJzJGH6VSiSzLaLVa9Pv9fRMEx3H2xH2jO5NbTerDjDlTlGm327RarX0TGmM/Rh+WZe3x8ZM+yORWlUolj6Pb29v7fLzR3cLCArVaLS+yHSRrciurXsd13Vwfkz7T6K5UKrG4uIjneQwGgzwmTOrO5K8mNvb7fXq9Xt5vk7LG/4RhmI/Rg/IlM45M7jiZW2VK00sUmz3Fta2ErzcT7mwPeNgZ0k8Uoa1YDRXvNGx+tgxvVGKcYZNeR+E7GscuAeQ+flohKooiGo0GpVIpt63t7e2pRV2ju2q1ilKKXq/H7u7uvtzK6K5er1Ov1/O5yrT4bPqtUqlQr9dxHCfPgUyuYjCFjFKpRL1ex/f9XBe9Xm+f7nzfz23exGejj8m+8Dwv91VBEDAcDvOxNFkcMLmV0bOJzwflVpVKhWq1ShiGuZ5brdbURUmjD5NbdTqd/Ey7SUxuVS6XSZIkn9NsPn5Ms9XKcwdzJbDRXXFBe1pebGKjuXa8OEeY1Ifp49p4XBndTcutjGy1WsV13T257jTdlctlKuUy7nj+Y9owLT6bXNfzvDy3mhzPLxspkswYE+Q2Nja4e/cut27d4tq1a7iuy7fffksQBCRJwvXr17lx4wbdbpd+v49lWbTabX7+4Ye8++67h14nZwbWG2+8kVcoixhH+c0336C1xvd9oijasyJU3OFgWRaWbeOOJ/WTr6NMyhZX701l1WD+z3EcLNvCsq08aciybF9gNIUb27axC8nIQTtUiit4pg3T+smsSBZXdoqr8sXVYeMoTOHEfG8URfsmdmaybZ5h+iYKQlK1N2ksVtbNc4ury5Oyxc9n/m5eDyrKmucUE3XTF2aFcpo+bMtCF4o304oknufhjmWNUzTFlWlFq8kV1eLOkiKmrQB2oRo9baXc9H/x70EQ7HPCk6sMk308aWvFPjOyZoVy8v563/fxXC//LOa50/RRXKUq6t183+RYMno2ujPnHBS3YRZlja0a/UzTh7Hh4hg1stOKJAfpbrKAaz5P8bmm36YVBoptNuPF6GJae40/Kj7XrIZNyhbHneu4+J4PmqmB3PO83P+Yz2Y+5+RnK9qP+VlAvjo3aVumDU/TRy5r21ha575tms2bvp9cJZ0cS0U7tiD3mdMOmDXjyOjOeYruiuNDj9tr9DEtCTOfb9purqfJmqLk5HvZ/nilrGiXxR2Bk0lx0QcaWzO62CNrO3ueazsO3ti3TTLp44srqmEY7llxn4wdRdlJP1Eco+bnTNNd8bNMawNwaHwu2o9Z7St+NuOji/HMfIZpunMLssWfNW1RoKiPou4m9WFWOid97rSV8qeNu2myjmVj8US2uIt2Uh+TY3+a7orjoxijTHw0RcNiTCrqo3iWzaSP9ydki2N/skgyqecD475lEUzx8ebzTvbbZHuLfTxNH3vi+bjfDtrJNpkvHRSfbWe0OFFsb3E3Z1G26LeLMfig3KroK4ptmMxfJ/W8Z9xZNp1BwnY/5u52nxtbQ65vp/zQSmgNFZ4Nl5bLrFYsVv2YNxc83l1rsFwL8VyXKAjw3CcXBxTbMNlveY5gWehCH0/LdaftbDO5yuRzTT8U7aeYfxzWx+a5kzmFsfnJsT/t8x3kJ8xzpxW4ctmCfrIsm5pbTdpl0damyRo/qAvxeVqeaWzQPHuaXU7qo9g3vu8ThCHBcJgXR8xOuskF22nxebKPzWcwstNy/uL8x/SFOaahKFvcfTNpPwfpzirEg2nPNX1UtDUzxyx+hllg6Wl73YWXhimAfPbZZ/zjP/4j//zP/5yvEhhjNdu1zEqImZCvrq7yX/7Lf+Hv//7v9wyeImaF06zyTVZ1zS6SR48e8Q//8A989tln/Nf/+l/5T//pP+VbguHJgDRtMonwZCEDRgHXdhwc28YaX3NnZA/aKlhM7szZKZOy8GRiVZTdd+isacd48BtZs/X/oK1bJsl4+PAhnU6HpZVlapVq/v3FNruui2M7YEGmFGrKeS+mDY5tY4/bXDwfZtoKsXEklm2hMpXLTwtgRX1kSqEPkC06PmNPk+9GFykGJCDX8VF0N22L8EG6O0wfxsEaWzNbC6fJmj4ztqqUIktTsgNeBSm2uWjD0/RhvqfX6/Ho0SOGwyGnTp3KV+b2tGFCzwc919iPSS6fRdYUBI6iu2fRh+m3p42l4th/mqxJKA/SXbHYYXyX6YsDx9Iz6O6oskW5p+mjOI6yLGN3d5fNzU1832d5eXlPYjoqzjh5glDsh4OKfZPj7qAVFKM7017z7KfpzshO89uT+jhs3BVli/YzLfmZ1IeRndaGXB+OjW3Ze/zENHsvtuGoY8n0sVaaNEunttfow7Gd/PyiyZX6yTYb/zMcDnn8+DG7u7s0Gg0WFxf39NM0fUzT3aQ+jqw7azxG9TguHdDHk7o7TB9F3Znx+TTdAU/120eNz5O6e5ps8fMd5lNMm007DovP0/RxFFnLsvKdVg8ePKDX63HixAnq9Xout2csachUdmDcnzbunkV3R8mXsMbxIJku+6z68Nxx8djiUFlgT6H2MN1N0/O0vpiM+5O6myZbHEtK79XzZHG76LeLefEwUWw0+3y90eSPN7f59ztNHncSBpnGd23O1CP+6q1FLq8EVHWPpbLLqRMr1CrlPTnNZHw+yCYmx9Lkru1im4vFfPPcg/z2QXqezAWL+hjpWaOy/XZ8kD6y5yBr5h62bee6OyhfKupuWnyelusWY+NBY2lSH4fpDgoFGHuUL2Uqy3ffmmMPzK7Rou6Ktjat4DgZc02bpxW4Jn3QUfVRHHdT9XFAG56mDwuIk4T19XX+23/7b/z3//7f+fWvf83f/d3fcenSpZdaOJGdJDPGtkevLJw5c4a/+qu/yl8DKE7Asixjc3OT27dvE8cx5XKZkydP8uabb3L69Ok9jnQSM9ms1Wr5awNFw9R6dHCr2RparKYW33EsPs/8rKLxT/u5uTxPAs9U2dFJQ3ue69gOetqJSM/Qhsl2mM92GJZtUavVCKKQWqV64FWvFlaePDvjCfJkX01rb9EZTZU1fYG1xyEfKmuNVn05TLbQD099bkE2/11zJH2YBOcgnkUf5rkm+TiKLIz72PNxj9DeYoCcKjs+sDEIAhYWFkjTlHK5PHWVpqgPE6QP6zPz+7Poo9gfB7W3OJaOoo9JnTxNtphIHiYL5J/L9/wj2Y/Rx7OMpaP0xVH0ceTnFvReKpVYWlrKd78VE6PJNhhffNi6xKQ+jqI7o4ej6M6sph3FFxs7m7aD67D2Hqa7PW05oo+3bfup9lP8+UceS7aFZ3kHtneyHcWzHQ57tu/7+bZ+s2NgMqb/GH0Y2aP0m4WFpcf6OKJfeRHx+Sj2Y35/ajyY6Iun6fmoPqUof+T4XGjDUWSVVgRhkL+iYl5RneyD/M/20X38s4wlM9E76viw/aPlVs+qj8Nsoih/lHgw2YZn0Z3ruE/tN4enPLfQBqU0CtgeJPyw1eO7hy2+vt/m2sM+mz2F5dicqflcWC5zebXGz880eKPh4qkKkedQrVby3V+TvvWoMdfYg+0fPd75no/2frru9oxnB/RR89en2E+xHUeNz0XdHaUNzxKfi/77MNnJdh8qa4HtjAqJZle62bVRLpf37rKYyMMO8puTvtiyrCOPpWK82ic70W9Htcvi74fJwv6drbNCiiQzxrZtlpeXKUURJ06c4G/+5m/2ycRxzJdffsk//dM/0Wq1WF1d5aOPPuK3v/0tFy5ceLpBF5zQJGbgTG4FK66YHvTM4u9PYzJJfJrstBOan8dznyZr2zaNRmOUuFp2Xgh5ans5Wl+8qH57XfXxY2Wfpb3F36dhAq3ZCn6UtjxLG476zFdZ9nnq40fLPuc2OI6TnyNg5I9iF6/c2D/is1+oPl7EWDJJ3nN+rjkTo1p9sgvxafH5OIylV6kNzyJ/HOKzbY0mogsLC/n3HaWoedQ2iD6erQ35M59zXqOBfqq4u9PnDzc2+eSHHa4/7NDqp9iOxclqwFsnq/zHyyf51fkFFso+Jc/BGhczijsJf8pnexbf9qLsx8i9avFu1rJm3mXO+zrs+19UG0w7ZvVcU6h61me/CKRIcgzI37ceH3A1yXA45NHmYyqVCmmaUqvVOHHiBGfOnMm3bB6FpyVqwt4r+rDB1gcHLWF+KG4PnHVlWzg+GH9hWYevKgnzg/ETSqlDJz3CfFG0C7ObQ2zj1UcDaaboDDPuN/t8u9Hi6v0W1+63uLPdY5gqTtQCzi2VePdUjffWalxZrbNUDgg9G9uCLBvFELEJAfZey3wcCgXzjBRJZoxlPTlsKIqiqTKDwYDFxgJRFDEYDCiVSjQaDZaXlymXyy+5xa8vximZq7qmHUwpzB+TdmGui5TANd+Y93aTJMknwzIpFsx5AFmW5YcZgixEzDMH5RYyKX710VoTp4qtzpCr603+z6sPuHq/xVYvIckyGqHH+aUyv31zkd9dXObdU1VCb3zW0fiMBnMAafHWPGF+KZ55UjyHROzi5SNFEkEokGUZnU6H4XDIwsLCnoNrhfnE3F1vrk5cXFw88KwaYX7QWjMYDOh0OvtOsxfmE7NToN/r0ev1KFcq+86pEeYTk1vEcZxfTyx28WrTjzM2mn1uPu7yxfouX6+3uLHZoxcrqoHD6UaFK6s1rqzVeWe1ytpChO/ajN9wQeknuQUw9awaYb4wBdXBYECv18uvKpZi+2yQIskrgGWNDhQqlUqkaUqpVDrwei/hx2NWhs2d7eVyOT90T5hfNKMbotrtNkmSUKvX0Ogjn2UgvH6YyfBwOKTdbhOGIeVy+akHQwuvN2YFsNfv02q3cVyXcrksxbN5Rj+55afb7dLv9SiVSpSiEhJCXk0ypUkzzXY35ruHHf50e5s/XN/i5lYXgMi3OVEN+cXZBn/11gnePVXlRD3Ac574ATMZTpKETqcDkJ9vJcw3JrdotVqjw7/LJTwkt5gFUiR5BXBdl4sXL/Kf//N/ZjgcUqlUWF1dzQ+SFARBEARBEAThxZFmimY/4ZsHbb4enz9y/UGbR50Bvmdxshpy6USFn59pcHmtyvmlMvWyh32ESwAEoci0a++Fl4sUSV4BHMdhbW2NtbW1WTdFEARBEARBEOYCDePrfUe7R+5s9fjk9jZ/urXN9ccddroxJd/hVC3inZMVfn1+gd9eWOb0QkTgO7hSIBGEVxIpkgiCIAiCIAiCIEyQKU0vTukniv/xzSM+v7vD9Udd7u706A4zFkoe76zWeX+txgdn6ry5XOFEPcD3bRypjwjCK4sUSQRhjDlVXG6pECYxNmHbNtb4S5hvJv2FIMBeuwA5dmLusRhtRWBsG+IrXhmU1sSpptlP2Gj22O7G/OH7LT67t0uzl5BpzWLZ48JyhV+dW+Dn5xa4fLLKYtncUvP0n7HHV0jOKYzZk3PKGzczQ4okgjCBbdv5yfMStAQY2YTruiilxCaE3AYcx8F1XSmqCgB7imbGLo40UxJea4p2kd+CJWZx7IlTzcNWn+8etPn3H3a4/rjDdw/b7PQSLAvO1iP+4uIiH55t8NZKhbVGRC30jlQgKRZT5RZFoUgxhsitebNFiiSCMMayLFzXJYoibNvG93zZMSDkSUwYhnieJwU0AXjiL0qlUm4XgmDbNmEYorUmCALxEwIwKqhGUYTjOHIL1jFGa0iVoj1I2GgN+P5Bhy/Wm3x2Z4dbmx0SBZXQ5Uwj4vKpKv/h4hJX1mosVwLKwbNPqUzOCSMbkZxzvjG5ped5RFGE53n5IozEkpePFEkEYYyp3tZqNZRSeJ6HJQduzT22beP7PgsLC2itR3YhwWrusW07v47drPqIXcw3pqBqro83q4BiF/ONKajW6/U8t5DV4eOHBjKt6A5Tvn/U5ZNb23x+b5fvH3fZbA/pJorTjZC3T1T4/VvLfHimwclaxELZw3eeXZ/F3ALGRRLJOeeeydzCLMwJLx8pkgjCBFK1FSYxBTS5jk0wGP9g3hsWBIOxB4khgkHOLjq+aEa7R/pxxlZnyK3HXb5cb/LZ3SY3HnfY7sZEvsNyNeAX5xq8v1bjl28scHGlgu85eD+hsFF87Ub8hQDku4lk1/LskSKJIIzRWoPWxHFMmqb56xXioOYbrTVKKQaDAUopSqWSBC4BpRRZljEcDnEchyAIZNeAgFIqjyGe5+H7PiAFk3lHKcVwOCRN0/yVXrGJ44HWmjjRPG4P+fzuLv/z+iZfb7TZbPfpDBWlwObSiQrnl8r87++d5O2TNWqRR+jZ/JSNH1rrPIYAhGEouYWA0oo0TYnjWHKLGSNFEkEokClFr9fLJz6uOxoi4pzmFz0unHW7XbIs2/OOqDDHaM1wOKTb7eJ5nmyhF9Bao8d20e/383fKxVfMN2Yy3Ov1SJIE13UltzgGaA2DJGOzM+TuTp9vH7T4Yr3J1fUWjzoDLAvOLZV480SFD07XeWOxxKWTVVZqAc4Rb685/Odr0jSl2+0C7DmkU+xifinmnL7vPzkEXHjpSJFEEMaYRKbb7dLv9ymVSnllX5hfiolMkiRUq1WCIEBrLbYxp2itUePJcLvdJgxDyuVyPvER5hMTQ/r9Pq1WC9u2qVQqs26WMGNMDOn1ennxLAojueFmxiit6AxTrj9s86fbO3x8c5Obm12SVONYFifrAb861+Av31rhnZNVlqoBlcDFsX/68aqmoGpyC601pVKJIAiey2cTXk3MzuXhcEin0yEMQ8IwlKLqjJCMThDGmKBlEl05f0IwGJvIsgw9/pJT6Ocb4yuUUiilxF8IAPtsQuxizimoXymFktxipmg92jHcHiTc2upx/WGbr9abfPOgzfruAK0tTtQCzi+VuHKqxgdn67xzqsqJakDJHxVInifGV4zaJnYhjDBxJMsytKSaM0OKJIIgCIIgCIIgvNZoNKnSPO7E/PHGFn+8ucV3D9s8bsc4NixWfC4ul/jLS8v85VvLnG6UCH3nueweEYRnQYpms0eKJIIgCIIgCIIgvJakStOLUx63h3yz0eLqeouvNlrc3OrRjRVLZY/zyxXeOVnhyuk6l09VWamGhJ6NY8mbUYIwj0iRRBCmIO/9CUXkij5hkqI9iF0IBvEVwqGIXbxUNKC0Jk4ztrtDrj9s839de8Qfb23R7KckSUbJd1lrRPzF+QV+fXGRK6t1lsr+eBzP+hMI80oeS2RDycyQIokgjLEsC9u282sb5QYTwWDbNr4/Spoc25HzSASA/Ho+ucFEgCdJreM4+a0EYhdzzlj9lm3heR5KqdFNFWIWL4U4UWy2B9zc6vLlvSZf3W/y/cMOvUGGb9ucXg754HSd907XeOdUjfOLJSqB+8ILJNb4y3EcPM8DRvFEECzLwnXdPLeQm21mhxRJBGGMKZL4vo/WOg9cwnxTtAu5ok+AsU2MJ8NBEOS2IQiWZeH7PlmWSZFEAEYTYtsaxRBAcouXQKY0SabZ7g75/nGHT+/s8PGNLa5ttEkyReg6LFd93lur8dfvrPDh2QbLlYBy8JKmRdbol23b+Y02MhkWioX2IAhwx0US2Z04G6RIIghjjGOqVCqUSqV854A4pvnGsiyCIKBWq6G1zu1CmHMsiyiKcF0X27alSCLkMcTED2Mb4i/mG7MyXK1WUUpJbvEC0Yxur+kOUm5udvlyvcnX602+fdjh3m4fgJO1kPPLZX51rsH7aw3OL5dYLPsE7sstUtiWTeCPcgtA7EIARv5CcovjgRRJBKGAWQU0f5ZgJZidJGa1R+xCgCerfsWdRWIXgpkQyy4SoYjZjQijV2/ENp4/SmniTNMaJKzv9Pjz3V3+7cYW3zxs86g1xHUslqsBb62U+fnZBr+/tMxbp6oEroP7nK/2PRIW2M7enSRiF8JkbiF2MTukSCIIBZRSDAYD0jQlDEPZNSCgtSbLMvr9PkopyqWSTIgFlFIkScJwOMzfH5ZkRlBKMRwOSZIE3/cJw3DWTRKOAcXcIooiOcfoOaO0ZpAqHrX7XNto86fb21zbaHN3p0+zlxB5Nm+uVHj/dJ0PzzZ491SVE7WAwBndXjMLtNakacpgMAAgiiIcxxG7mHOUUsRxTBzHklvMGCmSCMIYrTVaa/r9PsPhEM/1wAONFuc0x2itSZKEXq9HlmWj8ydccZ3zTtEuPM+TA9aEPIbEcUy/P9raL4eAC6bQ3uv1SJIk32kEcrbVT0VrSDNFa5DwqD3gu4cd/v2HHf50e5v7zQGZ0lQDj7OLER+dXeCjcwtcWaux1ghn3vemSNLv99Fa47ouju1IzjnnFHOL4mubwstHMn1BGFMMWP1+n1K5TBAF2IhzmmdMgjsYDIjjOD+bBCTBnVeKk+Fer0cQBJTL5XziI8wvZsdAt9vFcRzK5fKsmyTMmGIM6ff7lEoloiiadbNeC5RSNPsJ3z5s88W9XT79YYfvH3fZ7Q3JlMVK2ednZxv8xfkl3lmtcmYhoh4dgx3CevQrTVN6vR4A5XJ5VCCRq4/mFpNbJEmS714255OA5JwvG8noBGGMcU5ZlpEkCVqpUSATnzT3ZFlGHMckSYLSShIZYY+vcBwnL5wJ84vWGqVUbhdKKbGLeWesfrMIk47tQnKLH49mdP5IP8542B5we7PHF/d2+OJek2sP2rQGKdXA5VQt4O2TVX51boGfvbHAaj2kFrrYx2CiqcdfSinSNAVGBR9BKOYWtm2jkBgyK6RIIgiCIAiCIAjCsUdrTao0j9oDPr6xxac/7PDtgzb3m33iVFMLXd5cKfOr84v8+sIi5xZLNMo+oSfnfQivDlJgnz1SJBEEQRAEQRAE4diilGaYKnb6CT9sdfn2QYtPb+/yzcM2D9sDbOCNpYiLyxXeX6vx4dkGb5+s0ih5uHKjkCAIz4gUSQRhjLw+IQiCIAiCcPzI9Oh631uP2/zf1x7xye1tNtpDWr0Uz7Y4vVji1+cX+NX5Bd5bq3OiGhL4Nq7cRicIwo9AiiSCYLBG95F7npdfuSV1EwHAcZzcJhzbkYKagGVZ+fV8clW4ACNkDpNEAAAgAElEQVSbsG07twvXdcUu5h0L0CPb8DwPFYaSWzwjSabY7SXc3+3z7cM2V9dbfHFvl7u7fbTSnKz5vLlS4fJqjQ/O1HnrRJWTtZCSf/xfr3EcB8/zALAduSRAeJJbhGE4uk3REruYFVIkEYQxJsENggAAz/NkMixg8cQu5Co2AUa+Ik9kggDP93EcZ9bNEo4BxlcopaRIIgAjf1EstJtJsXA0hknGve0e/35nh3+5vsnn93bpxxlY0Ig83lqp8DdXTvKLNxqsNiIqgYtzzHePmBhi2zZhGALg2BJD5h1r/GX8hed5+RXyx9meX1ekSCIIBWzbplQq5c5JHJNg2Ra+71OpVFBKiV0IwCjJDYIgT3SleCYYv2Amw7LDSDCY66DTNM1jiDCd4u0167t9vn/U5uv7La49aHHjcYdBqlgoeZyul7i8VuP90zWurNU4VQ8p+w7uK+KLLetJbqG1ltxCAGuUc5oYYtu2LMDMECmSCMIYs9pTKpVm3RThGGF2DJh76gUByCfBvu/PuinCMcJxHKIoIoqiWTdFOCZIbvGMaE2mNM1BwrWNJv/vd5uj12u2eySZphZ6nKpH/Pxcg/945STvrdUIfQfvFSmOGCS3EKZhdiOaXe3C7JCRKQhjtB7dWT8cDknTlDAMZcVHQClFlmUMh0OUUpRKJRzn+L/rLLxYlFIkSUIcx3u20otdzDfGV6RpmhfRZHV4vjG5xWAwIMuyPLcAxC4KKD26vWa7G3N7s8sX95p8fb/J9Yddtroxgedy6UTIWyervH+6zpXVGmcXS4Seg/MK9qPWmjRNGQ6HAIRhKLmFkOcWSZLkBRPJLWaDFEkEoYBSil6vx3A4xHGcvMIvzmmO0ZAkCZ1OhyzL8ndEQexintFaE8cxnU4H3/flvBphT6G93+9TKpWk0C4AkKYp3W6XJEny3ELs4glKaeJM0Rxf7/vHG1v8y/XH/LDdoxtn+JbFiXrIz07X+c3FJX5xboE3FkrjAuSsW//j0FqTJAndbhcY7UKT3GK+KcaQXq+H53mSW8wQKZIIwpjJBLdcLhNGoRzeOudo9u4wUkrNuknCjNFa56uAg8EAQOxCAJ4UzwaDAb7vo7WedZOEGVPMLeLhkKRcltexCmRK0+zH3Nnqce1Bmy/u7vDNgw4PmgO0gpPVgHdOVvjgTIMrq3XePFFmsey/8gWS4g4jgHKlPONWCccFsyPR2IiJI1I8e7lIkUQQxhhnlCRJ/moFGrmqTyDLMuI4JkkSMpWh0VI8m3NMkSSOY2zblsmwkMcQs4U+TVOxi3lnrP7iqxWSW4xQGlKV0e4n3N3p8/m9Xf50a4c/391hsxPjuw4LJY8LK2V+++Yyv72wyNnFEvXIf2WLI5NkWUaSJACoTArtwv7XsDItdjErpEgiCIIgCIIgCMJLQWlNnGoetQZ8fm+XL+41+eZBhx+2unQGGbXI5UyjxM/O1vnFmQUunayw1ggp+e7cF5eE+UAK7LNHiiSCIAiCIAiCILxQtNakStGNMx61Yq4/bPPHG9uj22t2+8SpYqHkc3axxHtrVX5zYYmfnWmwWPbxHDkAWRCEl4cUSQRhjLw+IQiCIAiC8GJIlabZS7m93eMPNzb57O4ud7f7PG4PSDPNWiPig9N1PnyjwXurNc4slGiUPFzH4rV5x0YQhFcCKZIIgsEa3U/uui6+78uVW0KO4zj4vg+AbdlSUBOwLAvXdfE8T24wEYCRTdi2jeM4eJ4n13kKo1dDdMFfjHOLeQshqdJ045TtzpDbm12u3m/xv25s8c2jNsNEE7gWbyyUuLxa5aNzi7x/us65xRLl4PUcQ9b4y3YcXM8DreUGEwEY+QqTc3qeh2OJXcwKKZIIwhjjmKIwxLZtfM+XybDwxC6iKL/qdXSqvtjGvGL073lefs2r4zizbpZwDLBtmzAM0Vrj+774CSGPIWEY5oXVeWOYZKxv9/hqvcUfb27x5f0W250h/URRDhzeWqnwu7eW+NnpOueWyiyVAyLv9SyQAKMimQWu41Aa33Tkuq7knHNOMbcwOacptr+2Y+EYI0USQRhjnFAYRbieh+uNDggTxzTfFAOWUgrXFbcpsKdI4rqurAIKeQwxOxFlR6IAT4okpVKJNE3znWevu10oDXGq2O4MubPT4+v7Lb681+TL9V3WdweEvs3phYg3l8t8cKbOL88tcHGlwkLJxZuDorPZXVQqlYBRkURyTsHEEBjtYpbcYnZIti8IBWzHJozCfHusBCuhmODC+HUbsYu5x7ZtPM/Li2YyGRZgZAdBEBAEgcQQIcfsMDJ/ft3tQuvR1aXNQcJX95v88dY2X97b5dZml+4ww7Ut1moRPztd56/eXuHyWo2Fsk/Fd3Ds17tvDKZIYibB82AXwtOR3OL4IEUSQSiglSYexmRZJkmuAIxO48+yjDiO0VoThiG2lqA17yilSNOUJElk14CQo7UmSZJ8x4C8ciPAyF8Mh8P8NSzz2ubrhtaaJNO0Bgn3d/t897DD53d3+Op+i/XtPoM442Qt4I3FMldWa7x/psbltSqr9QjPseamQAJ7cwtgz6sVwvyilCLLMpIk2bMzUezi5SNFEkEYYwJWu91mOByysLCQnzMgzml+0VoTxzGtVos0TVlcXCQMQ7GJOUdrzWAwoNPpjCY9jrxyM++YGNLv9+n1epTL5XylWPzF/KK1Jk1TOp0OcRzTaDRe29xCaeglKRvNPh/f3OJ/frfJrc0OO72EONMslTyurNX4zcVFfvnGIueXygSejWPP34JUMbcAqNVq+W6jeesL4Qlaa/r9Pt1uF8/z8kUY4eUjRRJBGKO1RilFHMcMBgPSNJ11k4RjgLGL4XBImqZorfN/l0RmPtFa5xPi4XCIZVlkKsOVkDr3mInPYDDAD4LcXwjzi+ZJDDFx5HUjU5pOnPKwOeTmZoer93f5cr3F7a0u7WFKOXC5sljinVNVPjhT5/KpGmuNiHLgANb83e6rR7+MXQDiK4QnuUWaEhfswtiG5JwvF8noBGGMmQybLfRKKZkIC8AokUmShCRJyFSGRssp9HOOWR2O4xjbtiXBFfbEkDiOyQpFVWFOGU+Gi/5CKTX699cohGRK0+zGfLPR5A/fb/LxrW0etAZkCkquw6lKwO8vLfOXb61wfqnEUtkfv84865bPBj3+Mq9VAGRZNuNWCccBrTXp+DUsy7bJtJp1k+YWKZIIwhQksRWKmEq+2IUgCILwo3mNYojWkCjFZifm+qM23260uXq/yfUHHdr9hJLv8P+z92ZNchxZYu4Xe+SetaCwrwT3tZvs6e7p7hlJ9+rq6ZrJxuZRZvoZ+hn6J3qRZDaS6ZpG0kyz2U2C+06C2PfKyj0jY3G/D5keiMzKAqpAAFVAnq+srAqkV6SHn+PnHD++bdRKvHy4yhvHG7x+rM6JlRLV0MVeorNHBOFRUBJz7juSJBEEQRAEQRAEYVdoDZlSDKKUq5sD/vT9Jn+53OKHOwN6UUzJdznaKPHakRr/4qVD/OrcKmuVAN+1l3b1iCAIzxaSJBEEQRAEQRAE4aGkStMfp9xsj/j0WofPr7X59laPq1sjMq05vlLmxY0qrx+r89qxBucPVWmUPFx7ebfXCILw7CFJEkGYYq77tWxLrmETZrCsiU4opbCmX8JyY+yFbdtiL4QcoxPmRhvRiyXHYnL+CExsxTN89a/WenpAa8aNzoivrnf4x29u8+n1Dr1hSqY1K2WP8xsVfn1ujffOrPDSRpVK8Oy+85PG2AqQQzmF+5iY03EcLNlxs29IkkQQphijVClX8FwP3/fFaQlYloXnulQqFZRSuK6b/3dhObEsC9uyCMOQWq2G53n5lZ7C8mJ8SKlUApCrwgVgoheu61Iul/G8SWzxLObZ41Rzuxfx450+H15q8fmNLlc2hwzGKb5vc6pZ4p1TTd443uTFjSrHmyUCb3J7jTCLSaC609gCyGMLYXkxSfYgCKhWq/i+jztNrIovefpIjxSEArZtUy6X8X0fz/PEMAmTJInv50kSoxfCkmNZ+FO9cBwnnw0UlhfjL4IgwHEcsRUCcD95Vi6XybLsmYstUqUZxRmbgzHf3urx6ZUO//zDPb6/OwALKr7D8WaJd042+cP5Q7xytMZ6LSBwxSY+iPkkybOmF8KTwZrGFsWVqsL+IEkSQZhinJNJkMgSegHuZ/bDMERrnS+jF5YbE7yEYTizvUJYbmzb3pZkF70QjA9RSj0ztkIDSmn644Tvb/f5/HqbT650+O5Wn9v9CMeC9VrISxsV/urcKq8fbXBytcxK2ceV22seikmehWEI8MzohfBksS0b13XzMYjoxf4hSRJBmEMplQcyggDTvdhZhtZasvoCcP9aaKMXMhgWDEopsiyT5fNCjrEVJrYwNuMgYpIjcarYGsZcbQ25cKXNR5dbfHOzx+3umGrJ5cRKmZeOVHnnZINfn13jzGqFwHNwnIP5XgcRoxcgW3iFCZr7sYWcbbW/iAcXhClaa5RSdDod4jim0WhQLpfFQC05SiniOKbb7ZJmGasrK3LWgIBSitFoRL/fx/d96vW62IolxwS2/X6f0WhEuVymVqvJTOCSo7UmTdM8tmg2m/m5NQdRL7SeJEju9iM+vtLmLz9t8u2tPpfbQ3rDlFJg8/LhGu+caPDL0yu8eLjKWjXA921kAcnuKcYWAPV6nTAIwTqYeiE8HUxsMRgM8DwvP/dMdOLpI0kSQZhiApkoihiNRvk+UWG5MQOfKIomybN6Ha0nx42L01pejL0YjUYopahUKrJyQEApxXg8ZjAY4LpubiuE5SbLMkajEVEUUalU8iTJQUJrTZxpuqOEm50R39/p8+FPLT652uFWb0ScaTbqAafXKvzyVJO3TzR4+WiDIzVfEsR7RU++jQ8BqFQqaLTcnrfEmBWqSZLMxBYSc+4PEtEJwhxmqbQxVmKUBKUUaZrmeiEsN0YHsiwjTVM8zxO9EHKfYXyIUgpEL5aexXrBgbv0JVOTBMnFewP+cqnFBxc3+WlzQGeYkCnNRi3gN2dXee/sGq8cqXF8pUTFd7EsGwmT9oY2X4XtNuJDBLi/qj1NU1zXndgLYV+QJIkgTDGBjDFQ4rAEg9EJpVQe3Mhsz3Izby8EAWb1AiZjYWGJKSiA1hp9AG1FpjT9OOV2Z8xP9/p8eb3DJ9fafH+7xyDOqAQuJ5olXj5c470zq7xxvMHhRkA99Pa76s88M7ZCYk5hykzMKaHmviFJEkEQBEEQBEFYMjSQKM3d7pgLl7f48FKLT6+1udWNSDNNNXQ5u1rmDy8d4jfn1ji2Umal7MntNYIgPPdIkkQQBEEQBEEQlgSlNUmmaQ1iLt7t882tLp9f6/DtzR63exGuY3FypcSLh2u8drTO2yebnFkrUws9PFdu/hME4flHkiSCMEXOHhEehOiHIAiC8DyQac1wnHBlc8D/+vYOf7m0xbXWkPYoxXNtjjdKvHOywe/OH+KdU03WKj6+I7c0CcLTQvra/iNJEkGYYlkWruvmt1T4vi9GSsDCwvM8qtXq5CAtx5XzSJYcy7KwbZsgCKjX63ieJzfbCFiWheM4lMtlAMIwxLZl1n2psSY+xHEcKpUKnufh+/6+HdqaZopelHKrG/HF9S5fXO/w5Y0ONzojxgqONkNe3Kjw6tE6rx9v8OLhGqtlH9+1sSUeemyY24BMbAGIDxGwsLCtSWxhrv51bUduj9onpEcKQgHHdqhWq5TL5TxJIoZpubFsC9/3qU+v/g2CQPRCwLIswjDEcRxs25bBsDCTJPF9H9d1xU4I+QRMtVpFa72vEzBJprnXH/PVjS7/8MUNPr7SphdnoDT1kssLhyr8zcsbvHt6hXPrFcq+DBOeFJZ1P7YAJOYUJklV26JUKuX+Q5Jn+4e0vCBMsSwL7ImjUkrhOI44K2GyasCy8X0/vxJa9EKwbTu3ESZJInohmKC2qBOiF4IZECul8oTq09SLUZxxqzvi4t0hn13b4ovrHX68OyRR0Cx5HG+GvHmiyZvHG7x8uMaRWihnjzxhjO/wPC//XWyFYHTBJM1EL/YPSZIIQgFjiGRWWJjBBktZMuARZjABjCAYLKyZwFbshQD3t1eYlWdPSy+U0qSZZmsY893tPn/+qcX7P2zy/Z0e2BY13+FwPeDtk03+71cP88qROo2yi+84T6V+y07Rh4itEGBqK2wLNLK1e5+RJIkgTNFak6YpvV6POI6p1+uEYSiB7pKjlGI8HtPv98myjGazie/7MjheclSWMRyNGAwG+L5PtVqV7RVLjtaaLMvo9/tEUUS5XKZSqchM4JKjtSZJEnq9HkmSPJXYQmvIlKIbJXx/p8+X1zt8fqPLd7d63O6NCDyHo42QFzaq/OJkk9eO1zm7VqUauDiW+LangVKKOI7p9XoA1Go12XIjkGUZo9GI0XCI53mUp2cZiU48fSRJIghTlFJ5kmQ0GhEEQX7+hLC8zAe4lUoFz/fyrTfC8qG1RmlNFEV0u13CMCQMQ9k7vOSYJMlwOKTX62FZk73lklBdYvT9CZh+v5/HFmEQPrHDW5WaXO/bjRKutYZcuLTF+xc3+eFOn7u9mNC3OVIPePVojV+eXuW359Y4s17BdSwc8WlPBa31TGyhtSYMw8mhvsLSorVGKUUURXSmsYUfBHlsITHn00UiOkGYwxgprfV+V0U4QCilJnqB6IVwH7EVwiLMIEgQDEYnnqReKKUZJRl3emO+uN7mw8tbfHOrx5XWkF6UUi85vHqswZvHGrxxvMGLGzU2GgGubSGpvKeP+A9hEWYcopTa76osNZIkEYQFiNMSijyN4FZ4tijqg+iFYBBbIeyE1hr9hAY9WkOqFP0o5U5vzLe3enxwcZM/X25zuztCKaiVXM6slfnVmRXeO73K+Y0qGzVZLbvfiB8RFpH7Eume+4YkSQRBEARBEAThGSVTivYw4eK9Pp9cafPhpRYX7w3Z7McAHKkHvHdmhXenyZETK2XqoZxzIAiCsBOSJBEEQRAEQRCEZwylNFGiuDeIuHRvwGfXO3x8eYsvbnQZjDMqvsPRRoVXjtT47bk13j7VZL0aUg0k/BcEQXgQYiUFYYrMqAgPQvRDEARBOChoDUmmudMbceFKmwuXW3x+vcvV9og4UdRDl7OHKvzm7BrvnVnl5EqZtaqP58rpI4Jw0JGYc/+RJIkgFLBtO7+aT67zFAye51Eul/E8D9dx5e56Acuycr2QK6EFmOiE4zgEQSB6IUyYugrbsfObjlzP/Vk322itSZWiO0q52hry7a0eF65MVo9cb49QWnO0WeKFQ2XeON7g3VMrvHq0SiX08EQfDwTW9MvzPEqlEoDcjiYAs7GF53m4trPfVVpapEcKwhSTGKnX62RZJtf/CsB9h9VsNsmyDN/3sSxLdGOJsSwL27Ypl8u4rjsZ+EiAu/QYvahWq4RhiOfJmQ/CZEDsuV4eW4RB+LMS7ZmGQZxxpTXkf313h48ut7m8OeReP8a24ESzxDunmvzV2VXeOtHkUD2g7Du4oosHBwss28L3fZrNJoDEFkLuQ0qlUu4/zISt6MXTR6I6QZhijJDv+2it8xlAMUzLjW3baK0neqGU6IMAzK4aMIGN6IZgkqqO4+Q6IXqx3BRjC6UUtmNPBsl71ItMaYZxxr3BmO9v9fjieocLV7a4eHdAP05pllzOrFV49Vidt040eOVInePNEqEntukgYvyGSY7IqjMB7k/YOo7zSHZCeHxIkkQQCpgBsQlqxDgJcN9JWYWBj7DcGPsgga1QxLKsPMkuPkQwGF1wfoYPSTNNazi53ve/f3GLj660aQ9iojSjGjicW6/wNy9t8IvTTc6uVWiUPVxbdPAgU/QhYi8EmNUDGYvsL5IkEYQpWmuyLKPf75MkSb5kGiSTu8wopUiShOFwSJZl1Ot1WUYvkGUZ4/GY0WiE67pUKhUcxxG9WHKUUgyHQ8bjMaVSiVKpJEHukqO1Jksz+oNCbBGEu54lTjLFvX7MtfaQL653+PJal69udGkNYnwHzjYqvHK0xlsnGrxxvMmptTL1sovnSAL3IKO0IoknsQVApVLB8zxAYs5lxsQW4yjCcV3K5bLEFvuEJEkEYYoZDHc6HYbDIa7rysF7AlprxuMxrVaLJEnwAx/HdbCRFSXLitYarTXD4ZBWq0UYhvi+P1keKywtSinSNKXX69Htdmk2m/i+L+fVLDN6Yi/iJKbdbjMajSbb9PzdnXmmNYySjKutIR9dbvGP397hs2sdEqXxHZt6NeCNY3X+nzeO8MbxBisVn8AV33TQ0Vqj1f3YAiYHt8qFAcuN1jpPtG9tbRGGIa7ryoTtPiGeWxDmMEZKa73fVREOCEYnlFL7XRXhgGASJeZbEADRCWFHJgPj3fkQpSfnj1zdGvLdzR6f3+jy9c0OV1sjtGVxrBFwarXC2ycavHGiwfmNKo3Qw7dtbBlIPTMUbYXYDMFQjDm1dOd9Q5IkgiAIgiAIgnAAyJQmzTRbg5ivbnT5P9/d5dNrHa61RgCslF1Or1Z478wq//KVDV46XMNzLBxbRlOCIAiPC0mSHFAWZZRlmZUgCIIgCMLzh9aaONO0hwk/3Onx6dUOX9xo8/2dAVuDhLLvcGatzCtHJ7fXvHq0wdFGiOuA5EcEQRAeL5IkOSBorYmiiDiOSdOUNE3zLR8WYNk2rusSBAFBEOA4jux/FwRBEARBeMZRapogGSVc3hzw4aUW/+f7u1zaHNIbp3i2zdF6wFsnG/z67Bpvn2xyYqUkk2eCIAhPCEmSHBDiOObbb7/l+++/5/r169y+fZt+v08cx3ieR7Va5dChQ7z00ku89tprHDp0iEq1gmNLouRxYSHBhiAIgiAIT49MaQZxys12xFc3O3x0eYtvbna5tjUiSTVrZZ/XjtZ5+1STN47VOXeoykrFlwSJIDzHSP/efyRJckBIkoSffvqJDz74gGvXrnHnzh0GgwFJkuA4DuVymZWVFVqbm6g05ZXXXuPMmTPYvpxi/rgw99WbFTu2YyN5EwHAcZz8piPHdiShJmBZVn4DllwJLcCsDzG3HYleLDkWoAv2IggmN+ZN1SLJFP0o5VY34qubXf5ycZMPLm1xuzvGsS1Wyh5n16v85oU1/ursKqdWyzTL/r6+kvD4cBwnv/ZXVocLMLEVJub0fR/Hkhs29wtJkhwQsiyj1WrRarU4efIkb775JtVqlTAMSdOU27dv8+OPP/L1N99w4+ZN/lW/z/r6Os1mUwzr48ICz3VZWVkhTVNKpRK2JUmoZceyLIIgYG1tjSzL8P3JDJ7oxfJiBsPlchnXdWcCXWF5McFtrVajVCrheZ5cIS9g2za+77O6uprHFpZlkSnN1jDh29tdPrva4eMrW/xwd0BrkFDybI40Qn5xqsm7p1d5aaPGsWZI2Zew/XnA+BATW2itCYJAYoslZz62cF03n4QRvXj6iLU9INi2Tb1e5/jx45w/f55Tp06xvr5OpVLJV5lYlsWFCxf45JNPOHr0KL/5zW8olUq5wxV+HpZlgW3P3Ecu7SrYtp07LhC9ECbYto3nebium/9b9EIwA5/igEf0QrALsQVAlCha/TE/bQ746HKLC5fbfH2rSz/KaJRcTjTLvHKsxm/PrfOLk01WqwGBayOq9PxgVheZ2EJ8iAD3k6pm4kX0Yv+QJMkBoVQq8dvf/pbXX3+dSqVCuVzG931c10UpRaVSoVqpEMcxly5d4t69e9y6dYtarUYYhtKBHhPFu8ld150cnCttu9TM3FevNY7jiF4IaK3RWpNlGbZt5zeSiV4sN0YvlFKy3UbIMTqRZQpt2dzrx/zl8hYXLm/x5Y0uV7eGRIniUNXnpcM1fnl6lV+canJqrcxKxcdzLEmQPIcUYwuQAbEgscVBQpIkBwTXdTlx4sTC/6e1xnVd0jRlbW0NpRRRFDEej1FKPeWaPr8YwzQajciyjFKphO9P9v6KcVpejLMajUZ5wtK25LyaZUdrTRzHjMdjHMehVCrJ1sclx/iQ8XhMHMcEQTCzMlFYTowP6Q+GdEdjWmOLS62IP19s8dm1Lre6IzIFxxolzh+u8M6JFd451eTlw1WqoYdtyylYzyNKKdI0ZTQaAVAul3M7IfZieVFK5bGF67qEYSixxT4hSZJnAONgTeAF4HlevmdNeDxorUmShG63SxRFrK+v4/meHNK55JjBcLvdJk3TfIWXOYxPWD7MrHAURbTbbcIwzM+fEJ1YbrIso9/v0+/3qTca+QGuwvKitWacJtzb6vDj7Taf3834+l7CT5tD7vbGWMCJlRK/OrvKL0+t8NrROocbIeXAxbYkAnkeMQnVJEnodDoAuJ4rMf2SY/QiGo3odLsEQTCzJUvii6eL9MZnAKUUm5ubfP3119y6dYtyuZwf2rqbrTam0xW/i/8vSRKSJJlZlbKorMF83qL/t6jcXsvupfzDyu2lHkWnNR6PybIMNGgW/82jvt/jLFss/yzU4VHr8aSeu9tnZ1lGHMckSUKapjv+zUHQiUeV3cPKP6nnPotlTZk0TYnjGNu28yXTSqmZZx2E/ryX5+712c9af36SZY380zRlPB6TTv3qosNbH0XOT6LOB6UOz2NZAKUhSjLu9mK+vDXgk8sdvmllXO6mDMYZZc/m9HqF1481eO/MCq8cqXO0HlL2nelqRc38x4gtfrSyj/rsJ1VfC8imtgIgS7Ntf38Q2u1plN1L+WehDo9aD+NDkqleWJZFls3qxUGQ3Xyd96sOTxpJkhxwtNYkccL169f50/vv89NPP7G+vs7x48fZ2NigUqk8NEky2QebkabptgGemSUfjUZ5ouT+3tlsJrizLGuyqsJ6cBLFlC3+3E1Z87v5/J3KWlhodF52NwO7hz13HlPWBLiLHNe8Udvtu+1YZ4t81YopCzy4LebadzfyeNyyM8/cqzyUVmi1c1mzpeVh7VCsh6nvXuSx41zMxC4AACAASURBVHMtJkmyuf5i/mZeL7bpmlYszK8tkPOu5aH31pceqO8W2Nh5Xyrui16EWSXxsPqaz961Dk9tCjyC7PbQxnu1KbtNhBVtpvkb83Mv9memL/GQvjSV3W7lsdu+VOxHxffbqWzx94f1paI8dlOHok3ZUc5sb+O92MGHyaPIbssWfUfxu1jG+NW91vdB9XjkvvQQXdtrvyvalP2Wx678/lxfepx222Jyg013lHC1FfGXq0P++dKQ9lgzSjUVz+bUapl/8dIhfnl6hbPrFVbKPq7NjvX4Of5ZKTWZ9NllX3pcbVyMIx/bcx9FHnuIlx4lttqLfwZQejIFV/QbeWyBnnm/h/nnmdhqF77cfB48nr70c2PdJyGPvfjyh7Xbzxl77EUeWk92Dsz7j/mYAnhofXf7bj9HHnuxKUZ3dhtbPajs00KSJAcYpRTtdpvvvvuODz/8kB8vXqRcLvPaa6/x+uuvUy6XH7qMVylFt9vl8uXLXL58mevXr+f7H+H+bGi32+W7775Da02v12NzczNfJmxZVn7asvk2M6hxHG9LvJjT/U1ZpVSehDGd32BZVr5v25zkPBqNiKIoNw7Fsr7vE4ZhflZIFEUMh8NtBsCyJqeGl0olgiAAII5jhsMhSZJsayfbtvMzBcx+wG63S5qm2xyb4ziEYUi5XAYgSRKiKCKKoplylmXlV4OWy2Vs287bLI7jyUqVubKmzp7nzZRN03Thc4MgwPO8fPWLWekwX9bIwvO8/HyNRUmz4s0MRh6DwSCv70xZy8IvyM6yLAaDAcPhMNetB8luPB4zHA5n6mtwXZdKpUIQBJOsepIwGo3y7WbF55rr0kqlElrrhfIwRt20hbkRyuz7jON4m64Vr1/TepJMHAwGbG1tMRqNZoy/KWf2jprnmjaef66Rh+O6ZNM9ySaRWXSGRXm4rpvLztR3XnZhGM7sXx0MBnl/n5fHon5n+tJ8Gxt5mP48Ho9zHSqWg0n/qFQqhGGYr8AZj8f5bNm8PEydTRub8sV2sCwLz/PyNrYsGI/jfHVPsS+ZW2dM/7BtO5fxfFnz3FweBdktKus4Tm7bjK71+32iKMrb1FB8N5NQ6/f7M+9WrHMQBLkN0lozHA4ZjUbbyprPMfa/KI/5+sJsXzJ2u7h1c76Njb6ZfhdF0baytm3nely0r+a7qENGHqaNjTxM/1gku/myURSRZdlC2Rl5GPsaRdG25xp5GH9g2zZpmjIcDonjeFsbF2Xn2A5Kq1zO8xjZGRtvntvpdPLnGj9q6lwul/E8L5eHqfOiNjZnY6Vpmsuj6MNMWdNuRnZFPZ63KcU2Bmb6x7zsin7fsqz8PLR5eZjnGt+xG9kZf2BZFkmS5P55Xh6mHcz5LlmWMRgMZmzKvOyMjTdnPsz3u2JcUy6XcWyHNEtn6ryojY1/TpIk1/d5eTiOg+W4pNpmK9J8c6vLJ1fbfHF7wL2hAjSrgc3ZFZ/Xj/icX3U5WnWoBQ6WzhgO7/vyneQR+JN+N4pGuTx2LDvtow+LrUxfsixrxsbPt5vjOJTL5fy5RdktkkdRdkaHF8mu2JeMThhbsaiPFmOrojweFFs5jrNj2eJzjR6naUo8HhNP/cG8zy32j0xlRKMo9x2LyprnGn+wtbXF1tYWWk8OhR+NRnk7FP1zFEXbbLzB6GWxP8/7Z4PrurnsjM818fnDZFf0HYt0wsR487HuvK6ZNi6VSjNl532uqa/v+/iBj+u4M7HuItkZHTbnOBp7OV92PrZSSuU6vCi2mpfdcDhceC5kMdY1ZY3sFiWYjA4XY6ter0er1cq38pq6mjYrym7eH5g6uK470aEgQDPrnx8mu538wbb41XF2LGvebVFstZN/NvIwfbTX6zEcDhfq/NNCkiQHmDRNuX37Nn/84x/54IMPuHnzJu+++y7/+l//a1566aWZgHwnzFadCxcu8I//+I+8//77tFqtmTImOzwej9nY2KDdbnPr1q2ZvdTGcdVqtVzZO50Ow+EwHxQbXNelVqtRq9Xy7GGv16Pf729zSubq43q9ngf9vV4vP/9h3tlVq1VWVlawbRvHcej3+2xubm4LrCzLIgxD1tbW8gB1NBpx7969mSRRsc7r6+tUq9XcsGZZRrfb3ZaR9TyPZrM5E0x0Oh22trZmnmmMZaVSya8KHY/HdLtder3etsDKDJLMu0VRRK/XYzAYbBvwmyCw0Wjgui5RFNHtdhkOh9sCed/3qVar1Ov1PDFgZDfvwBzHodFo5GVNks0kjOaDsHq9TrPZzFcZmATboqRVpVLJ5aG1ZjAYcO/evYXBkhnImCDFyG5e10wbr66u5oPAKIrY3Nyk1+vNlLVtm8D3qdZq+R7P0WhEr9ej2+1u00uj8/V6nSzLcnlorXPZF+VRrVaxLItyuTwjj/nkQBAEVKtVarUapVKJKIrodDoLA3nP83J5wMQmtNtt+v3+tuDVcRyazWZeH4BOp0N7a2syYzXn9Ov1et6XTHL03r172xySZVl5cOm67rZk0aI2Nu1nkltbW1v0+/2ZssYxN5vNmSDF9I/5dwvDkGqlMukfts1wMKDX7zMYDGaCQZPwrFQqNBoNgiBgOBzSn5ad73elUolarUa1WiUIAkajEe12e1tyACAMQxqNBpVKZcYOmoClqBeu67K6upoHWEmS0O606Xa624IJ0+9MoJBlGZ1Oh1artTChUq1W8zYxwcTW1ta2+ho5mKA0SZIdZWeCn9XV1bxsv9+n0+kwGAy2lQ3DkFqtNqM/po3n7USlUqFSqVCv13O73ev1tgXyJuFZqVWpV2v4vp/XwQRX87Kr1+vUajU8z2M0GtFqtbYlHYD83YxdieM418t5eRjZOY4D3v1+1263mcdxHOr1ep5UNW1sfE0cx7kfNYNLUzaO49zfzdsJE+Sur6/nZU1bFGVXnBAw7ZumKb1eLw8yizpkkmbGXhVlNz8IMwlPY69c183t5Xzy3sjZ9CXXdfNB4KKBaxiGrKys5DGFsduLBhO+7+e+w5kOqlqt1jYbb95vZWUF13Vn+mi73V44ODDvFQRB7ss7nc42O2EGlyZ5NR6P6ff7+RlmM2U9D8vz6auAy13F//n+Hh/81KI9mtjsRmBzouby3lGfN456HCtrKnaGrRVxnObyMAmN4rtVq9VcdkBuL+fb2HGc3O8X/bN5t3l/Vy6Xc39gJjxardbCgaCJrWzbxrZtoiha6J+LsnNdN0+yLfLPJrZqNBp4npfrRKfT2eafTdlKpZLbLeOfTVsUy5pEmNG7B8VWpmyj0QDIY7ZFg2LP82ZiqzRNc3s5H1uZuLjRaOSxVafT4e7du2xubpKpSZLLxMG1Wi3356aPtlqthUlEswXf2OLhcJj3pXnCMOTQoUN4rks2PVdrc3Nzm403sUqz2cxj6CiKFtpM4+NMXzayM7o5byeKSX7f9/M4zLTbfFnjOwgmib6HxVbVapUwDPOz5IbDIUkcoxbEViYOMzbexBPzsqvX6zQaDWzbzscGZpxSxPhn42vMGVWtVmubf4bJzaaHDx/e5jvu3r1Ld3omSRzHecy/vrY2M9nZarW2yc60m6kvkMdWg8FgYaxrYgrHcRgOh7k85mVnYt1Go4HWekZ28zbTxAjGP5sz3BZNeJr6wsRmmH7X7/clSSLMYgam3377LR9//DFffPEFAL///e957733OHny5IyTfBCWZdFoNHjllVdwHIdz587NODKztKvf7/PBBx/Q7/ep1Wqsra3lwTXcD6DNLLVxDsZRzQzAHJswmMzCFa8wNpndRckMU9YEvpa1eB+eya4bo10ul7ctRzMUZ/bN55gBzjy2bVMulXCmAZAxBObMl+KAuLjqBO4nIcyVwcX6mkGPCdiMIzFGbr5sccbOPNckChY916zgMM81M45FTABokl7FsotmO0ym2sjOvNsieYRhOKMn5XJ54TK94qyvKVsqlVhZWdlxtiMIgpl3bTab+eqd+bYoBq++7+eD40Vli7pmVjB4nrdjxtzMBhhnbRIyxYO0TH3NrE8QBNRqtTxxs6gOuTw8j9p0gD7fFmYmp5iwzGWnspkljkZ2ZhYXoFqt7rhdrFgHIztze9Y8ZkbAyLFUKuX9elEbG9mZvlSv1/PETV7WtnAdNw+WTP2BfEas+G5GHibBFZZKWFOnvdMKg3mbYhIQ83I2sz6m7iZpu6gvmTY29TSB4crKykzbG9mZ+nqeR61aw3O9hYmPYlmTEF5k4817mM8ygzdgYYLLtFtxML1IdsWVC8XfgfxnXtax8VxvZrbM9EHz/GIdzCyceT/zGeVyeZs8ijN2pgywLXAtvo+xr0Ubv2hG0iQojDzq9Xo+K1dkXnZmgLPoUEUTOM7LwyQAVlZWZlaSGJtSXFViBljzzzX9zvxuys7LrjgzW/SNtm1TKpdm7IQpa+wgkJc1/rRYB+P3TVsUV8wsknNRHsYfzK9yMPIotrGx2+ZvdpKHaTcju0XymJezkd28/zJ2sCgPM1hYtJJk3j8X28KQKE17lHJjK+HiVoev70V8f3tAb5xRdmGjGvDWiQavH61yfjXgaNOnVgool0q4roNtW7lNrFSr6Dl5mBjIyM4kbBetJJkva/RnkS8v6oSxmY1GY1vZedmZtljkn4uyK064LZKdZVnYjk0pvK8Txo8u8s8mlinqTzFWWVR2Pgaaj62wLBzXIfTvr0bQWudx2Hxb5CvOCr6mGN8tWulpnmtiK5P8VUqxtraWyz5/ruOguR8vLRowGptp2vhBsa439XeWbeNMfUmj0dhm44uxldGfouwWxbpFO/Ew2RXLmthgN/HSTrEV3E/eG1+jtc7LLpLdTrHVopUkxbLGP9u2vXAlSTHeNn1pJ9mZWKUYizSbTbIsy+PKlZWV3E6FU99ZlPM2/zydaDV91JQ1Pxf50eJ4wox7FsVWpmzuc6f9eKfYyjzX/F6v1wlLYX7mY1F2JrYyPqpSqexqx8STxNL7veFH2Eaaply5coX/8l/+C//0T//EtWvXePXVV/l3/+7f8dZbb+WrB3aLWepqVmYURa715LrCmzdv8h//43/k/fff5z/8h//A3//93+cdIWe6b80MunazZ80E+Q/atzafhNjLs7Wa7iHegZmyD9hPaYjjmDt37jAcDtnY2KBeq2HZ22+smH/uruu7x7Jodn4/s5fafjJ1ML9rpVHsfCaAOe/AzI48bJ/mbuVhAtOH1Xe+LOxun/Zu26K46iVJEg4fPrxwAPs0dAL21pcelzz2Ul+YPb8Edt5fjzXRH1PnJ9mXHmdZIF/tsbm5SRiGrK+v58HO/HPN73uRx0P3Rz+qPB5gU7bZHx5vX7IsKz8DYyebYjFtM+sR/MHjLjt3xsfDnmtWFG1ubtLtdmk2m6yurs74UQsLy35Ef/CgejxiX8rLPgn/vIeySqtcPx9W3we2w8+owyOVLbSbBobjhG9u9fjTxRZ//KHFZzc6DOKMsmtxpOrw5tEa/+8vT/Crs4co+S6uY888e7fvBtw/T4YnII9d2irDg5477w8Ogux2W49Hqu+D+lLBppgJyrt37wJw6NAhKtPVkvPP3qsvf9bkkevwQ+KEn9tHF5U1v+/Fh+X2agf2IruiPMw2V7P6zazaKk7YHoQYaDdlja7v9bkwGQffuHGD//Sf/hP/+T//Z371q1/x7//9v+f8+fMzt/08aWQlyQFC68kexS+++IJPP/2UTz75hCzL+Nu//Vt+8YtfcObMmXzmYi+Y8ibrWVRQrSeHEBXPMbAsK19GWXSCi34vGtoi8w40D44XWKrisx5WflvZwoFDi5g3gotm1Yv4vs/KygrVanXS1tNM8G7eb6fPX/hz0bsVnKcpq9HY1oKVAAvKPuy5i+qyk+xm3mmajAEeKo+d2mFRPWDi+BbpxE7PftjA1ZTZqzweVBY9yZKvrq6SZVm+KmFG/nPyMH//OOXxsOfu+f32II9iH3uQri2qj9Z65+fu0Ld2etbCn7voS6b8bmzKbuVhZqzNElUzw7yTnXzQu+257M+Rxx5syqP0pd3oPOzeppjfH3dfelD77lSPB5U15YqrHIoz8w/7jMclj53+vdPnFj/vZ/vnR5BH3p+mNmK3/uBB7NY/53We/4xd+mfz35XWRKniZjvi65sdPrve4YsbHa5sDbEti7NrFc6tl3n9aJU3jtU5f7hByfdwHGumrvN13pV/ntZhV/ESu5ddcYJiYbvtQR7z7/Qw3XzUeKn4GQ8ruxfbttNzF5XZqb7bnqsnOm8S7EC+ws7IaL4vPcjG78W2zb/TXuXxoM9/ZNnp+/5pp2fPP/9hNmVP8ij+/W7ihAeMO+br8bC+VPyb4uo3s6rCrCacf+583R9Y3yfUl/I6zT23WG43/mDH97B3b1+eBJIkOSBoPbkX++7du3z44Yf88z//Mzdv3uTEiRP87ne/47333svPwTDlYfcBw07Llcxzip3Q/I3psA967l7qsNeyD0uAFOu5W3ZTvlarzdZjF8/cc/ldvNten/1EnwuPXR5Pur57qccDnb9jEThB3vced5sVyz+JvvTE5HFAZLdbvZz88vjqbJYim6WuT0Iez2JfetzyeNJ96XHKw/hacy7Hbuqxn7bt59ThWZDHXj8/L7eHd8uUJlGazjDhh7s9/umHe3x6tcOV9og0VaxUPF44VOFXZ1f53QtrvHq0hrNgdeqj1vlJ96VnTR67ffa+l7WmW9OdMN969FCd2GU7mPL7aVPyZz6DstuvsYcpt9vY4iD0pSfhD4rj293q+5NCkiQHhCiK+PiTT7hw4QJ/+tOfuHfvHm+99RZvvfUWR44cAZg5qMjcpmFmMYXHg1IqPzeleD6AsNyYLWuiF4LBLI1N0zTfA/y0loAKBxdzRlaWZbl/Flvx/KGBVCkGUcqV1pALV7b49GqHb291uduP8G144XCVN47XeevkCq8ernGoMjmc0ZqeXyN6IRRvfjI+RPRiuVkUW+w1KSM8HiRJckCI45gvv/yS//E//gfff/99fhDW+vo6/X6fS5cu5WVt26bRaOTbQszyf+HnYZbDmVP7zUFND1uOKDzfmEGPuWmguGdYWF601vl1hObANbEVgvEhcRxvO+BZeD7QWpMoxSDKuN4e8enVNv/ru7t8fbNHN0rxLIvD9ZC3TjT47QtrvHG8ztF6SDyOGEcRtmXhez4asRfLjBkMmxt2SoVDOYXlxZxLYm5GM+eRCE8fSZIcEJIk4dKlS3z66ad0Oh1c1+W//tf/yp///OeZ05dhcj7CG2+8wa9//WtefvllTp48KR3oMWEO0oqiKN8bKG273JhBj7mGsNgfRTeWk2Jw2+118xsL5m/lEZYLoxfD4ZDBYJDfliB24vlBA3Gmudcfc/FOnz9dbPHZ9Q6XNwcM45Ra4HJ+o8q7p5u8dbzJCxsVVitBHluMx2Mse3KbzH4vJRf2EQ1a6fwKd7NKVWKL5cZM1pprqk1sYW7UE714ukiS5IBgrphaX1/PD3ECaLVa28qWSiWOHj267V5q4edhlkhHUcRgMKBer8vMsABMTtoejUYkScLK6spkBlAC3KXGrCQZDUeTG6AecnOW8Pyj9eS62/F4zHA4JAgClFIyO/yckClNlGS0BjHf3+7x8dU2f/xxkx/v9dHaoh66nFqr8N7pFX77whrnDlVZqXg4QBQlRFHEaDikXq9Psi3iQpYWc0hxkiSMRiOAbVfaCsuJiS2Gw+Fk243K8PD2u1pLiSRJDgjVapW/+7u/4ze//vVDy1q2zerqKhsbGzQaDRnEC4IgCIIgPEHGqeLK1pCvb3T448UWX17rcrsfoYH1qs8bR+v85oU1XjtW58RKmXro4WCx473GgiAIwoFFkiQHBN/3ee2113jttdf2uyqCIAiCIAgCkGSK7ijhZifis2sdPr7a5pMrba5ujSj7DicaZV4+UuXd06u8d2aV480SJd/BsS3QoB5y9acgCIJw8JAkiSAIgiAIgiAU0EzOjRiOU765Ndle8+HlFt/d7NEZp5Q8m9OrZd460eR359d4+UiNtUpA6NvYssBXEISfgewS2H8kSSIIU8wVW+aecjFQgsHohFIKi/2/u13Yf4ytsG1brm0UJlhg2bM6IXrxbKI0jJOMu72In+4NuHClzcdX2/xwu8fmIGa9GnB6tcwbxxu8c6rJ60frHGmEOPaczAu7bWzbxjaxhaiFALmtkPPvhCImtnAcB0sWou0bkiQRhCnFBIncVy8UMc5KDmEU4P4Mj7EVxdvHhOXFJFCNvZBk+7OJ0pAqxdYo4ZNrbd7/YZMvb3S5sjVklCgaocurR2u8N91ec+5QhWrgYtsWLJB3MZkqOiHA9kk5QGILAbhvL8xtR6IX+4ckSQShgOM4VKtVfN+X638FYOKwPM+jVquRZRmu68oMsYBlWQRBQL1ex3VdXFfc6bJjBjylUgnbtgnDUOzEM4TWkGpFP0q5vjXim1s9Llza4rNrHW51R2SZ5sxamZc2qrxzeoU3jzc4s15mpfzwWMF13Dy28H1fViMKYJHHFuYKYIktlhsj/zAM0VrjOI7oxT4iUZ0gTDEBbq1Wy/8tRkmwbTu/qx7AtmSFkTBJqIZhSBAEALLyTAAmelCpVKhUKjOzxcLBR2nNOFbc6Y758FKL//ntPX662+feYEymNUdqAb86vcJvz6/z6tEaxxplPOfh8rUsC8d1Jlf/IrZCmGBbc7GF6IWAxBYHCUmSCEIBrTVZluVZfUEAUErleuF5nswCCmit0VqTpqmcPyHMoJRCKSVbsZ4RlNaMU8VWP+bHzT5fXO3yydUtLt3r045iqr7L2UMVXjte591TK7xypMahakjo7X4ZvIktlFJ4nicDHwG4H1sYxF4IElscHGQUKAhTjGEaj8ekaZovmRbjtNyYAU8URfmZJOK0BK01SZIwHo/zLRZy+J6glCJJEuI4xvd9wjAE5KaCg4xSmkGUcrk15IMfNvmf397hylZElGaErsPhesDvX1znb148xPGVEqtlf8/yNLFFlmVYloXv+0/obYRnBa11HlsAEnMKwGxs4bpuvvVG9OLpI0kSQSiQZRnD4ZAoivA8Lw9kxDgtMRqSJGEwGJCmKb7v57M9ohfLixn09Ho9giDA9305YG3JMYOe0WjEcDikWq0SBIHYiQOK0pr+OON6e8j3NydX/H5xo8Odfoxjw4mVkJcP13j75Apvn2hyrFmiGniTA1r3gJkVHgwGxHGM4zh4ngeID1lmzGB4MBjkq5cltlhy9OTa8fF4TL/fz7djSVJ1f5AkiSBMMcseR6MRg8GAWq1GqVQSZ7XkaCaBTL/fJ0kSGs0GGi1bbpYYMxiO45jBYECWZVSr1XzgIywnZktFFEX0+308z5MbsQ4oWkOcalqDiG9udPnjxU3ev7jJrU6E69isVwLOrVX4mxcP8YcX11mvhoSes+jymod80H29GI1GjKbJMzRyDfASY1YumyQJMNELYanRaJSexBb9fp8wDClXK3h6cg+wjEeeLpIkEQRBEARBEJaCVCk6w4Rvb/X46maXT6+2+f5Wn2GU0Cx7nGiWeONYg1+cnpw/0ij7uK619wSJIAiC8MwiSRJBEARBEAThuUYDaaboRwlXW0MuXNnig59afHuzR2uUUA8cjjdKvHm8ye9fXOfdUys0Kz6OJQkSQRCEZUOSJIIgCIIgCMJzi9KaJNPc64/5+HKLj692+Opml0ubQ0ap4nAt4NUjNd462eStE3VeWK9SDVwcC0mQCILw1JGtNfuPJEkEYYq5scSyLBzHEQMl5BidyLIMa/olLDdFeyE3EgiGeZ0QW7G/aD25vSZKMzYHMT/c7vP+xRYfXWpzqzciSjVrFY+XNmq8d2aVd8+s8NKRGvXAfTx92mKyhIWJbtgSWwgFbNvGtm25vUSYwfgQ27ax9H7XZnmRJIkgTDHBred5ZFkmAx8hp3gbgTl9XhBc1yUIAjzPE1sh5IGtuY3AdV2sPd6EIjxeMq0ZJCm32iPev7jJh5e2+PHOgFu9EUprTjdL/PJ0k7dPNnn1aJ0TKyXK3uNNZBi9mDnIV9RiqTGTLUYvtNYSWwjAxF64rovneXieJwd/7yOSJBGEAo7jEIZh7rgEwawiKZVK+TWvJqEmLCfFhKrRCwlwBZjohu/7KKXwxYfsG2Z7TXeUcK015KubXd7/cZNPrraJ4gzHtjjWLPP68Qa/PrvGGycaHGuElIMnExYbH1JMuAtLjDX5NnoByGBYuB9buC7lchnP8/KV7RJzPn0kSSIIU8xsT7VaRSmVzw6LYVpuTMKsXq9PBj6+LzohYNs2YRjiui62bcsWPSH3IZVKZUY3RC+ePpnSbA7GXLzb508/bPLnSy2ut0cMoozQtzm9WuZ359f5xekmZ9erHKoG+N6TSXSaRLvEFkKRPLao1dBMViaKXgi2bROEIe50FYnEFvuHJEkEYY6ikxLDJAD5uQIy0yPMY0/thewpF+B+okT0YX/IlGYYZ9zrR/xwZ8Bn19r85fIW397qo9A0yi7nDlV563iDX59b5aXDdeolj8B9sra9eFaN+bcgAFi2PVlYIgkSYUrxzDPRif1DkiSCUERrRqMRWZZRKpVkFlBAKUWapYxGI5RSVCoVOYNCQGtNEsdE4zGu61IqlWRgLKCUIooi4jgmCALCMARkUPw00BriVHGrM+Lz6x3+fHGTC1c73OmNSLRmveLz4qEa/+KVQ7x7epWNWkCj7OE8hXNjsiyT2EKYQWud64XWOt9eIXqx3CiliOOYcSG2EHuxP0iSRBCmaK1Jpw5rPB7jeR6+7wMS4C47aTpJkqRpOjmo0/Xk4L1lR2viJGEwGBAEAUEQyEqjJUdrjVKK8XjMcDjEsiyCIBD/8RRIM0V7mHB1a8jXN7t8fLXDl9c73GiPCFyb0yshrxyt8faJBu+cXOHMWgXfs3GfQoKkOBiO41hiCwGYxpxpynA4BMgPewbRi2UnjmOGqIm0PAAAIABJREFUw+HEVng+ti+xxX4gSRJBmGIC3GgcEY0i0jSVmWFhJpBJkoRGo4FGg5ZAZlnRWqO0zgMZrTWVSiUPcIXlRKNRepIkGQwG+L6P1nJ/45NEM7nid5RkXG4Nef/iJhcut/j6Vo/2IMF1bI42Q94+0eBvX9rgrZNNaoFH6D29mVmTJImiiNFoRLVafSqfKxxctNYzeqG1Fr0Q8nFIkiQMh0OCIJjEFlqSZ/uBRHSCMMU4La0mg2Kl1H5XSTggmGAmyzL09MuSpSRLjbEXSimyLNvv6ggHAQ1aTXTCfEuS5MmhlGacKe71xnx3u8/n19p8eq3Dj3f79KOU1arP2bUKbx5v8OaJBi8dqbFe9XGe5j7/gviVUqgsm+iERlYjCjP+Q2yFYDAxp1IKLXZi35AkiSAIgiAIgvDMoDVkWtGLEr6/3ef/++oWn1ztcKMzpB8r6oHN+Y0qf31ujV+dWeWlw1VCz8GZHpIpCIIgCA9CkiSCIAiCIAjCM0GqNIMo5UZnxGfXOnx2dYsvb3a504/Asji/XuHlozXePtngzeNNTqyWKfnuUzmgVRAEQXg+kCSJIEwx2yfkyi1hEfm10DIPKQjCQ5Br5J8MWmuSVLE5GPP1zQ7//cubfHytzWCsUFqzUfV57Xid/+vVDd441uBYs4TnyKGHgiA8W8hYZP+RJIkgGCywbRvP8yiVSjiOIwZKAMB1XYIgwHGciV5IomTpsSwLz/MIw1ButhGAiU44joPv+4RhKNd5PmbiLONeL+by5oALV9p8drXNxc0haaZZKXmcWi3x1skV3j7R4MWNOs2yj73fq0csQE9iiyAIAHAcR84jWXKs6ZeJLQA5+FsAZmML3/dxLIkt9gvpkYIwxbIsbNsmDMM8WSIIZuBTKpVI01QGw0I+w+O6LqVSCc/zRC8EYDbAFR/yeNAaUq3ojTIubw75+HKb//nNbb682UMBVd/mcD3gFydX+JevbvDiRo162cPb7wTJFBNbmGSq6IWANfk2sYXWWnyIgIWFPY0t8iTJdMJWEu5PH0mSCMIUMxgul8u5cRLDJJhBT6VSQWudzw6LXiw3lmXlgx6zwkhYbsxguFQq4fs+ruuKnfiZaA2jOOXq1pBvb/X46PIWX97ocq09wndsVqs+Lx6q8O7ZNd44VufUWplK4OAcoGY3sUWlUkEpJT5EAGZjC0D0Qpgmz+7HFuZb2B8kSSIIBSzbwvW8qZ0SZyXc1wPf9wGwLVv0QsgDF/NT7IUA5CuMzNJ50YtHJ1WaKM6424v48kaXD39q8ZfLW/x4b0DZc1iv+ry4UeFXZ9f4/YuHOLNaxnftA3lAa3EFieiEAPeTqp7vYzHREdELoRhbGFsherE/SJJEEKZorVFKMRoOSdOUUqmU7xUVA7W8KKVI05TRaITWmnK5LGcNCGRZRhzHjMfjfNuNBLmCUoooikiSJD+bBMSH7AUNZErRj1K+udXj02sdPr/a5pvbPe70I6qBw7m1Kq8dq/HemVVePVrnaD3AcywOYH4ErTVZljEcDsmybBJb+AFYohfLjNaaJEkYjUYA+dZN0YnlZj62CMNQzkjcJyRJIggFTCAzHo/xPC/fciMsL1rrPEmSpmm+jB4kwF124jhmMBjg+z6+78uy2CXHJNqjKGI0GlGpVAiCQOzEHlBaE2eKzjDhamvIhctbfPBTix/u9Ljbi6mXXI43Q94+2eCXp1f45akVjjVD7AM+22piiyRJ8Fx3ElvI6a1LjYkthsMhMNluI7HFcqO1RmtNHMcMh0M8z5s580z04ukiSRJBmGIC3DiO8wGx1lqMkkCWZfnssFJqv6sj7DMmkMmyjPF4DCB6IaDRKK3y2WHf99Fa73e1nhmU1sTT630/v9bhg59afHWjy+XWgG6UUS+5vH2iwTunV3j7eIMXDlVZKQfYlgUH2E8bWxHHMVEUUavV9rtKwj4jPkR4ECbmNOMSYX+QJIkgTCk6rTRNxTAJOUpNBj5JkqC0QqNlFnDJMbYiSRIcx5HBsAAatJr1IaIXD8fcXjMcZ9ztjvn+bo8/X2zx4aUWNzojxqnmUMXn3KEqf3V2lV+canJuvcpa9RlY6VkQf5ZlpCbRrpFrgIV8O6/5XRDmYwuF+JD9QpIkgiAIgiAIwr6gtGYYZ9xsj7hwZYs//nCPb+8M2OxFJJlmreLxm3Nr/PrcKi8drnFitUzZkz36giAIwpNDkiSCIAiCIAjCU0VriDPF1jDmamvEVzc6XLjc4osbXbYGCZ5rcXalxMtH6/z63CrvnGyyXguphxK6CoIgCE8W8TSCMMXMSsl1W8Iicv2QNdKCIDyEoj8RFpMpRXeU8OOdPh9d3uL9Hza5eK/PIM4IXIvjzZDfnz/EX59f5/RqhfXa5AYbQRCE5538+l/ZbbNvSJJEEKZYloXjOHieJ1duCTO4rksQBDiOM9ELSZQsNSZ4MbYiCAK52UbAsixs28bzPIIgkOs8d0Cp6faaTsSPd/t8dq3NZ9c6XLzXJ0oUaxWfM4eqvHm8xnunV3nxcI1GySNwn8E+Zk0S67Zt5wf5Oo4j55EsOcaHOI6D7/sA+c02wnJjYosgCOTWvH1GeqQgFLBtmzAM80BXVpUIlmXhui6lUok0TfPkmejFcmMCmVKphO/7k4GPsNSYQU8QBGit5Qr5BWityZRmazDms2tt/vLTJh9daXO9PUJhsV7xOL9R4XcvrvPbF9Y52gipBA7uM96OjuNQKpXyiRjRCwELXM+lUqnkyTOJLZab4gRMuVzG8zzRi31EkiSCMMXMAoZhiO/7eJ6331USDgBm4FMul9Fay2yPAJAnUqvVKrZtY9u2BDEClmURhiGu60qivYC5waY3Svjx7oCvb3T57Fqbr252udsfE3g2J5tlXj5a461jTd44XudYI6QSuDj2s712bz62MCsHRC+WG9uy8dxJoh2QRLsA3I8tKpVKHlsI+4NE+4JQwLbt3GFJACPA/ZUkxlGJwxLg/koS13VlICzkmG0VkiCZRWlNnGju9mLe//Eef/xxk5/uDbjbj/Fdm9OrZd4+2eCvX1jjF6dWWa/6k+TIc9J+ZiWJ1lr0QsiRmFOYx8QWZqJW9GL/kCSJIEzRWqOUYjQakaZpvoxeDNRyo5QiyzKiKCLLMiqVSj4wFpYXpRRxHBPHMY7j5Nv0RC+WmyzLGI/HxHFMEAQEQbDUg2KlNONUsdkf88WNLp9fa/PZ9Q5XWyNGieZILeDFIzXePFbnzRNNXtyoUi95z1WCBCZ6MR9bgAyAlhmtNWmaMhqNZlagiU4sNxJbHBwkSSIIBbIso9/vMx6P873DIIHMUqMhSRK63S5pms6cPyF6sbxorRmPx3S73XzlgKwyWm5Mon04HDIYDKjX60udaFdakypNd5RyZXPI//72Dv/84yatQcwozagHLqdXy/z1uXV+dXaFFzaqNMLnb5urGQyb2KJ45pmwvGitSZKEXq8HkB8MDxJbLC0atNJEUUS/38f3fVzXzZOqwtNFkiSCMMUEuGmaMh6PybIMjZabTJYcjSbLMpIkIUkSlFL7XSVhn9FaTw6gnOqFbduiFwJwf0CcJAlJmqD1ct7fmGaK7ijlRnvEJ9fafHy1zTc3unSiBM+xONKo8M7JBm8eb/LasQYnVsqU3OfzTAYTW8RxzHg8FlshbPMhgOiFgJ5+KaVIkgTLslBK5X5EkmdPF0mSCMIU47RMgKuUAo1c1SfkDitJEpRWkjwTZgJcx3GWdjAs3McMho1eqEwtnV5oDalSDMYp19sjvrjR4X9/d4cPL20xShSubbFWD3j1aI0/vHiId041Wa+GlP3nM0HCVPzGXqQSWwgFzMSc+V0QjK2I43gyAcNy+ZCDhCRJBEEQBEEQhJ+F1hCniju9iB/u9Pj4SptPrnW4dG9AnGnqJZeTzRJ/dXaNd041OXeoyko5wHNlm5ogCIJwsJAkiSAIgiAIgvDIZEoTJRmtQcx3t3p8dLnNXy5t8vWtHkpr6qHL2bUKb55o8PsX13n9RIOy7+DJOT6CIAjCAeSZSZKYrRB7OSXe/A3ItZ3Cw5HtE8KDkL2ggiDslmWxF5rJDTbDOONKa8CnVzt8enWLr292udGJADjSLPHSRpXfnF3lrZNNjjdLlD0HZ0naSBAEYa8s861oB4VnIkmSZRntdps7d+5QLpfZ2NiYuWFiHq01mcro9/rcvn0bz/M4cuQI5XL5KddceJawLAvbtvOTpG3blj3DAsDMTUe2ZUtCTcCyLBzHwff9pb7BRLiP8SHGXjiO81zrhVKaJNN0o4Qb7SGfX+/yl59afHWzy81OhGvDiUaJV47VeOdUk786s8qLh2s4toX9HLfLDBagJ7rhui5+EEhsIeTMxBYymStQsBXTm20cS/Riv3gmkiRpmvLll1/yD//wD5w7d45/82/+DYcOHdrx3milFKPhiO+++47/9t/+G/V6nX/7b/8tp0+f3ofaC88M1sRhlcvl3EDJYFgwDqtarZKmaX514/M8+BEejJF/EARUq1U8z8N1nwl3KjxhHNuhVCphWRZhGD63dkJrSJRmaxjz3e0uf7rY4vPrHa60hrQGCa4D5w9VeefUCr88tcKrR2usVQIcy1o6v2p8SKVSyZOqwnJjfIiJLbTWeK63dH1DmMXohe/7VCqVmWT78+pLDjLPRFSXZRl37tzho48+IkkS/vCHPzzwFGitNXH8/7P3Xk9yJFl+7uehI2VJFGSjuyGn1QymZ+4ILu8Td41P+8YHmnGN7/zraDQ+kEZbW+6O6Duip8W0RgNoNHShVOrQfh8iPDIyK0ugB0BVIf0zKyCr0jPSw/2Ex/FfHD8esbGxwaeffsry8jJ///d//xJrrDmJqKeAnufhOI6eDGuAsYPr+z5ZlunJsAbI7cK2ber1uh4nNEDh4Bq5OGJZFrZt7/kw5ySTZJJBkPC0H/Ltep9P7u3w5++2+G5rQBBLWp7JhaUaNy7kAsn1Mw3OLtQwjVerHQ6L9i00szCEgW3Z+L4PgGmZIOZnqZ5mNlXfwjAMHWF0hBxrb1/lE5FSEgYB3W6X0WhEkiQT+UamP6O26wzDkMFgQL1e11traQ6FMPKnw6DXA2pylIOr7MIQr96kR/PsqKV5atnnqzgZ1jw7SlR9VcXUTEqGccr9nRGfPejwu5sbfPm4y9YgJEwkbd/inXNtfnVpmbfPtXl9qU7Ls5hTfaRk4h6ixwoNgADD1HahmUT7FseHY3kXl1ISxzG9Xo8wDBkOh2xtbzMcDul0Oqyvr+O6bhnSWiXLMsIw5MmTJ3z//fdEUfTKrwvWPD+yNLefLMtwXVcLJZpSeI2iiCzL8H0fQ+qb1ryTZRlJkhDH8cQESNvFfKP8F7U071VaWhElGRu9kPs7Iz5/2OGT+x0+f9RhvRviWQYXFn2urNX5yWuL/Pj8Aq8t1VioOXMbQVJF+abKt7AsS48V844sfM4oBChzLWq7mG+Ub5EkSbn0RgslR8OxFUkGgwG3b99ma2uLIAj4/vvvCYKA7e1tbt68SbfbLSexVdI0pd/vc+fOHW7evEmWZTSbzVf2qY7m+SGlJE1Tut0uYRiytLREvV4H9MRnnlHL97a3t0mShNXV1Vc614DmcEgpGY1GdLtdHMdhcXGxTMCnmU/UPaTf7zMYDGi1WliWdeIdXCkhkxm9IOaLR10+vLvNn+5s8u3GgCjNcC2DtQWPn19c4u+urHJlrc5SzcVzzPlJ0LoPUkqSJCl9i8XFRRqNBqB9i3kmk7lAsr29DcDi4iKe5wHaLuYZKSXD4ZB+v4/jOLTb7VdKbD9JHEvlQErJ06dP+c1vfsM333xDkiTcuXOH7e1t7ty5wz//8z/TbDb3VFzjOKbf75NlGZcuXeL69et6ZxvNgZRLtaKIIAhI0/Soq6Q5BqiJTxRFxHFcLt1TW5Jr5g+13DNJEqIoQgihl3RqgPGEOAxD4jieuSz4pCAlpFIyCBPubQ64ud7nk/s7fP6wy93tIUkqOdPyuLhc460zbd47v8C1Uw2WGy6ubWiBpECS77gYhiFBEOixQgOy4lvEUR5Vou1i7lG+hfI5lW+h7iPa53y5HEuRJE1TNjY2+M1vfsNvf/tbAEajUbkE59GjR2WegGnUloztdpurV6/y3nvv8ZOf/IRWq/WyT0NzwigHpywjTdNyYNKDkkbdtNI0JZMZEqmz0GvKCbFt2yd6Mqx5Pqh7SJZl5c9JtotMSqI4X2Lzh++2+P23G3z7dMDDToAhBKsNh+trTX7+5hK/fGOZ84s1PNvANPQy1RI5/skqvgUSvQ3wHCPJx4Usy0iTtHyt0ah7SJIkWJZ1ou8hJ51jKZKYpsnZs2f5x3/8R959913iOObWrVt88sknrK6u8pOf/KTcdnH6RqyyAtdqNU6dOsWVK1e4cOFCGcKm0RwGPShpqqjJj7YLjaJqD9ouNIpXYaxIM0kQpWwOQ24+6fP5wy6f3tvh2/UB26OIlmvy5kqDa2eavHuuzY9ONznd9vCL5TVaH9mHE2wXGo3m5VHeS/R4emQcW5Hk9ddf57/+1/8KQBAE/O///b9JkoS33nqLf/qnf+LcuXMzE7dOo97XTzU0Go1Go9Fo9kbKfIvfzijmztMB//erdX7z7Sab/ZBhlOLaBufaPj9/Y4lfXVri+uk2Kw1XCyMajUajeaU4liKJQi2ncRyHt99+m3/6p39iZWUlT5zouic+GZpGo9FoNBrNUSOBOMnY6Id8tzHgy8ddPn/Q5eaTHt1RhDDg/KLPu+favHOuzdvnWry5UqfhWlog0Wg0mueMnt8ePcdaJFFYlsWlS5e4cOFCGcIaxTHE8aE+b5omtm3PzGGi0SiqUUeW3oZNU0EIgWmaZFmm7UIDUG4PbhiGFuw1JdM2cRLsIsskcSbpjmK+2xjw57tbfHB7i88edAjjFMc0WarbXFpt8P9eXeX/eWOJlYZLwzsRLuTRIqBIP5HbhfYtNBXUWKHz32mqVO8jhk5edGSciDtcmqY8fPiQmzdvMhgMnumzpmmytrbGlStXdPJWzb4IIbAsi2azieu6M7eY1swfap/6VquVJ+m0bAQnY/KjeTGoya/nebRbLWzHwTTNo66W5ohRYmqtVkMIcaglwUeJlJBmGf0w5futAX+93+GLR11uPulzf3uIzGC16XFxqcZ75xd491yby2sNlhoOnq0fOh0W5Vs0Go3St9DznvlG3UNs26ZZzE30FvIaJY54nker1cJxHCzLOjGC+6vGiRFJnj59yocffsjTp0/3LKd2oFDRJoZh4Loub731FmfPntUiieZAlIPreR6O4+iBSVM6MvV6HSnlzITRmvlDCIHrupimiWEYWiTRTDi4tm2Xzu1xJM0kcSrphzEPd0Z8fG+H397c4OsnPZ70QgxgqeZw6VSD9861+HeXV3n33AKOI7B1VO4zocSzer1OlmXat9AAY9+iUa8DlL6Ftov5RvkWZSSJHm+PjBMhkkgp2enscPv2be7fv79nmSRJ6Pf7hGGIYRjYts3KygoLCwuEYfiSa605aagbk9rOU4fQa2D8xMdxnDIkVtuFRoVIVx1bbRcaFTVgFssqjqNdZFIyilOedAJurvf5891tvnrU5d72kO1hRM0yuLhc551zLd451+baWpOzizUcR2Aes3M5KSifVPsWGkXVtwC0XWiAcT7O6pJebRdHw4kQSYDySe5e0SBZlhHHMXEcEwQBOzs7ZbhrNbpEo9kPFY2UZVnp0OjBac6RYxFWTYo1GrU9X5IkJyr/hObFIqUkyzLSNMWyjpeLlUlI0ozuKGa9F/LNkx4f3dvhj7e3uL8zJAOajsX5BY8fv7bIz19f5EdnWpxb8DENbd9/C8omtG+hqaLuIZDnX9QTYk31HnJchfZ54XjdwffAsiyuX7tO8780GY1Gu95XAkiapvT7fe7fv88f/vAHtre3uXz5MlevXqVWq73samtOGOpmtb29TRRFLCwsUC/CIPUANb9kWUYYhnQ6HZIkYXl5Gc/z9I1rzsmyjOFwSK/Xw3Ec2u22Xoo15yiRvdfrMRwOaTQaNJvNYzHxyaQkSSWbg4jP73f468MdPnvQ4bvNIRvDCGEITtdd3j7b4v2Li1w73eLCos9CzdYCyd+I8i12treJ4pjFxcXSJ9XtOr9UfQshBK1WC8/zAG0X84q6hwyHQ/qDPrZt02q29FKsI+JEiCSmabK6usrq6uq+5dSAc//+faSU3Lp1q1wDqiNJNAehlNsgCBiNRjQaDf20R4Mkd3CHwyFJkrCwsIBEInTmvblFRZFEUcRgMCDLMhqNho4ymnPUE8AgCBgMBmUE7FGuKc+kJEokgzDmSTfkzsaAj7/f5q/3O9za7NMPUtq+zem2y5VTTW68tsj7Fxc5s+BRdy29vOZvRY4nPqPCt6jX69T8mk7eOsdUIxFHoxFSyvKhnGa+KX2L/gDP86jX6tq3OCJOhEhyWAzDwHEclpeXeffdd0mShD/96U8kScKNGzeOunqaE4JydLWwpqlS2gXaLjRjlLOr0VQ5DnYhJSSpZHsYcXdzwP93a5OP7u3wcGfEZj8kSiWLNZvrZ5r8+PwiP31tgYsrdRZrDr5j6q0nnzPHwSY0xwvlV6jXGg2MxwopJVIPw0fGKyWSwHhHm4WFBXzfZ3NzE8/ziKLoqKumOUHom5WmSvWGpdHA5IRH24VGcRzGCgnEacrOMOFJJ+D2Rp+vH/f4y/c7fLveI0wktiV4c9HnzdUGb59t887ZNlfWGizUHUwh0AEkLwg9Vmg0mkNw1PcRzQkSSQ5rLCp8LQgChsMhYRiWCRc1Go1Go9FoXlUyKUmlpB8k3HzS4+N7O3x0d5uvnvToBylRmlJ3LS4u1fj1pSV+fGGRN1bqrDQ9arahBRKNRqPRaDghIkmWZXS7XZ4+fbpvRIjKSbKzs8PXX3/NF198gWEYLCwsHLss8xqNRqPRaDTPA5V7pBvEPNoZcWdjwFePenzxuMvtp32e9iMWPIsLiw3eWK1z/XSTd8+3eWO1zkrdw7OPLm+KRqPRaDTHjROhHGRZxvr6Oh9//DGdTmdmGRVB0u/3efz4MZ9//jmdTofz589z9uzZMmO0RrMXKkGrziCtmUW5FZtep6+ZQo8Xmmmq95MXjZSQZJJOEHN3Y8Cfv9vmT99tcmdzyNN+RJSkNCyTC4s13j3f5t9dWuFHZ5o0aza+Y2Jp+31p6LFCo9EchtLn1AshjowTIZKkacrTp0/58MMPefTo0YFl4zjGdV2uX7/Oj3/8Y27cuEGr1XpJtdWcVIQQWJZFrVbDsixc19UOjQYA27ZpNpukaYplWVoomXOEEBiGged55da/OlpRI4TANE1qtRpCiHKr8BdFlknCNGO7H/H99pA7GwNurve5+aTHnY0BvVGCa8Cbpxq8earB9dMtrq01ubyWL6+xTIFp6LHshSJAkPsWjUYDx3FwHEfvbDPnqAmw8i0AvYOJBshza3quS6vVKn0LPRc5Gk6EV5dlGZubm3z22WfcvXt3ZpnqBHdxcZHXX3+dd999l1//+te8/vrr5Z70Gs1+mIZJq9UiTVMcx9FRJZoyGbRhGEgptV1ogPye4/s+lmVhmiamaR51lTRHjBJJ6vU6nue9UOc2yyRJKukFCd9tDvn9rQ0+/H6bm096dIIEAM8yWGt4/Oz1JX59aYVrp5ucWfCKvCM698jLxDRz3yLLMmzb1vcPDUKI0rcASrvQtjG/qP73azVsx8EwjNK30Hbx8jkRIolt21y7do3//J//Mzs7OzPLqCd7jm3j12osLS2xtrbGmTNn8H1fG5fmQIQQYJBPegxD24wGoFxiY1kWUkrtxGgAStHMsiyMYrzQdqFRQonySZ63XUgpGUUpT/oB9zZH3HzS49snfW5tDLi3MySIMxZ8m7NtjzdXG1xba3DtdJM3Vxss1R1sU+ceedkoGzBNs7QJ9XfN/KLsQkUhanvQwKRdVO8jmpfPiRBJLMvi2rVrXLt2bdd707veKEVWo/mhSIDySZsemDSUIdOgHRnNGD1GaPbieU+EMwkyk8RZxs4w4tvHfT68u8MHtza4vTkkjFMyJA3H5NyCz08uLPDrS8v85MIC7ZqDa2nf6CipjhV63NAopm1B24UGtB0cF06ESDKNEkWklARBQBAEQB7O6Pt+ua5PG5nmWZBSkqQJ3Z0OURzTbrfLNeXaluYXtWtWr9cjTVMWFxdxHReh1/LPNVmaMhwOGQwG2I5Ds9nUa4fnHCklaZrS7/cJggDf92k0Gn/zk8A4y+gOY9Z7Id886XHraZ/vNgbc2RzyuJf7P0sNhwuLPtdOt7iy1uSN1TqvLfo0XEsnZj1ipJTEcUy32yXWvoWmoOpbADSbzTIXnraL+SXLMobDIcPhEMdxaNQbWLb2LY6CEyWSSCmJoogwDMv/u90u/X4fyCNOWq0W9Xod13XLH71WXHMYsiwjiRN6/T6DwaC0Hz0wzTdq3Ol0OsRxTL1Rx3ZsDKlDIOcVKSVpljEKAnY6HTzPK/OTaOYXtcveYDCg2+0CUKvVflCEax45khEmGb0o5cH2kJtP+nxwa5PPHnZ42g0ZxSmubdD2bc4v+vz0wiK/vLTM5VNNVlsOto6sPXrk2C56vR6j4RDXdfFcTydvnWNUFHwUReVY4Xkerusecc00R4mUkizLCIKAnZ0dPM/D8VxMS+clOQpOjEeXZRlxHHP3u+/44ssv+eabb/juu+8YDoeMRiOAMqv88vIyV65c4erVq1y7do2VlRW9pkuj0Wg0Gs2xRlLsWpNkbA8jbj/t8fXjPrfW+9zZHPKkG7A9jMiA1abL5VMNrqw1uX66wRsrdU63fdq+jan9HY1Go9FofjAnQiRRy2qePn3K5198wW9/+1u++OILvv/+e5IkmSgrhKDZbHL//n22t7exbRvTMPJtGh3niM5Ao9FoNBqNZjaZhDTLCOOMQZiI3TaFAAAgAElEQVSwPYy4tz3i4++3+fh+h1vrfTZ7Ia5j4DsWpxoOr6/U+PGFBd670Ob6WovFul3uXKPRaDQajeaHcyJEkjRNuXfvHh988AEffvghX375JQsLC/z93/89y8vLLCwsABBFEVtbW6yvr/Pw4UM++OCDcknO+++/z8rKyhGfyeGoJqOtJqXVSb80Go1Go3l1kBQJWdOMbpBwb3vIN4/73FzvcWejz+NOwOYgYhCm1FyTC8s1Lq82+dGZFpdW65xpe6y0PJqehSEEel9fjUaj0Wj+dk6MSPL48WM+/PBDbt26hWmaXLp0iV/+8pecPXuW5eVlAOI45uHDh3z77bd88MEH3Lt3j08//ZRarcb169dPhEii1q12u1263S6j0YgsyzAMA9d1abfbLCws4Ps+juNosUSj0Wg0mhOGihwZxSm9UcL2IOJRN+Db9T5fPOpy83GP+9sjMsC1BatNl9Ntl2unW7x9ps0751qcX6zhOSa2TiKt0Wg0Gs1z5USIJFmWsbW1xZ07d6jVavziF7/gxo0bXL9+nVqtViY6yrKMpaUl1tbWaDabfPjhh3z22WfcvXu33AHnOKMyGn/11Vd8/vnnfPbZZzx48IAgCHBdl1OnTvH222/zs5/9jIsXL7K6uqqT0j5HdKSOZj+UXQidbU8zhR4vNNPstQWwVIk8M0kviHm4M+LLxz2+ftzj9tM+T7oBnVFMP8i39F2qO7y26PPe+UXeOtvk3GKN0y2Ppm/jOQaWNr0ThR4rNBrNYSh9TnlwWc2L4USIJCoDdK/XY2lpievXr3P58mXOnDmzSyRoNBr4vk8URTx9+pSPP/6YXq+3K3fJcSNNU7rdLvfv3+fPf/4zH3/8MVtbWwyHQ7IsI4oihsMhcRwTRRFRFFGr1ajX61ooeU4IITBNsxTdbNvWDo0GyG2hVqsRxzGmaWqhZM4RQmAYBo7jUK/XcRznB+1gonm1UPcQz/NI03Rid7RMSsJEMooSdkYR24OYJ52Au5sDvn7S49Z6n3s7Q4JEUrMMFhsOpxou55d8Lq02ePdci8unmizUHGqOvuefGAQIcrvwfR/DMLBtW+9sM+eoCbDyLQC9O5oGyG3Ddhxq9TqObec+p56LHAkn5ooUQmBZFr7vl3uJ74VlWdRqtbLcSRARkiTh3r17fPTRR/z2t7/l3r17/OxnP+Pq1assLCyws7PDV199xffff893331HHMdcuHAB27bxPE9fQM8BZWMLCwtkWVYuZ9JtO98o4WxxcREpZTnx0XYx3wghqNVqpUCiRVWNEkmazSa+72NaFgiBlBClkq1ByMOdEV896vL14x53NgY86YX0gphhlJFm0PYszrZ93jrT4u1zbd5YqXF2wafl29QcC0svrTlxaN9CMwu1jH5xcRFA24WmvIfUazXcwrdQ4pm2i5fPiRBJDMOg1WqVosCDBw9YXl5mZXkFQxiIitOglqw8evyY7e1tlpeXOXPmzLHfezyOY27fvs2nn35Kv99neXmZt99+m/fff59Wq0Wv16PdbhPHMX/84x+5ffs2t27dwrZtzpw5oy+e54RS9qWUettoTYkQAsdxkFJqJ0YDjKNJlDiibUIDYyc3lTCMMvq9EVvDmI1+xKPOiAdbI25v9rm7lW/nG0QZNcfkVNPlVMvl7ILPxaUal081uLTaYK3p0q5pAe6ko8YK7VtoqijfAtB2oQHG9xDlV2i7ODpOjEiysrLC9evXefjwIX/5y1+o1WpcuHAhf1pTRIqoZTkbGxt89te/8t1333HmzBnefPNNXNclTdOJ4yrjO2okkjjJRRK1c8+1a9e4ceMGb731FoZhkKYpp06dYjAY8Pnnn7OxscHnn3/OwsICp0+f/uHfXdlJByArftJMkmYSkc3PYri8HSRxnJDJDNuyMaRWb+cddY0kSYKUEsexkWmmd5EomNkKz7lpxD6/7fXWi+6dql1Uw2H1eDGfSJnfy7MsI4oT+mHM017E3a2ALx91+fpxn/vbI54OQuJEEqUZUkrqrsm5BZ/rp5u8d36By2sNzrV9mp6Fa1lYlt6x5lVASkmapmRZVooleqyYb6r3EMij4PWEWJNlGVmWkabphD1ou3j5nAiRBHKjCYKAJ0+esLW1xWg04vHjx7Tb7XI9n8rr8fDhQ/7617/S6XQ4d+4cDx8+5Pe//z2tVqs8nm3bvPHGG7zxxhtHLpTITBKFeQ6VJ0+e8Prrr/Pmm2+yurpanhvkF8ja2hpnzpwhTVPu37/P9vb2wceXueM2LYhA3q4qz0mSZYRRxq0nPT64vYnrOJhWdanSi83EUL3+5R7azLiMeiEnys4eQ6p/3F/0ybKMMIxIswzPcfIwN8GuxElyj8GqWk6K3d++Xy1mnNrBHKaseLETRvEM9dhVE7nHh4TYo9eqZcXUYUX+/kHttqvvis/s1UgS0jQhiiKyLMN3PQzb2mPirhpbjj88qwrTs/l92+2wFrTryEWpPdrsgO/f9a17CBBC5lUUYvztwshfiYrtqfeFACHzN/InJeNy6jPqS8bli7KGwCg+YwiBAQgh878V7xkU7xkCwwBDHWNmC41PpuqAlOPkdLtMjFGSMAwZDAY4jkOtVhs//SkPOuO4e3fdRD32rMNex92r7FT5w5zbgXXer+w+x95Vh0OUfZbjHubYf1N/zCibSUmcSQZhws4oZrMX8rQ35Gk3YL0Xs96PuL814n4noDOMSDLJYs3mXN1jreVyuulxbtHn4kqN15frrLU8Fnwb0xhHJ5XD6w/pu33K/5D+eOF9dwgb/kFlZ9XhWcr+wHFCCFFOhHu9HlES02o0y2XS1eMdto2fxd6ftc4vrT/+1r77G/pj33rMKPsi+kP55VEUMRgMAMr8VlW7OOz94FDnNqPOz3Lv2Lf839gfz7PsD70+flDZF9AfWZYxGo0IggDLssrck2Ui1xd8fz5M2Wr5F3p/PmJOhEgipWQ0GrGxscG9e/e4d+8eX3/9Nf/yL//CqVOnyi2AozDkyfo6W1tbZWLTLMsYDAZ88cUXE2JIo9HgP/7H/8jFixePXiSRkjiO2d7eptPp0Gq1OHfuHL7vT5QTQtButzl79iyPHz9mfX2dXq934PGVEBLHMWmaTkTUqOibwWBAHEd0gphP7nUI/voQ03ExRSGS7DFBOogJg99rAqsmxNUDy10viu9Ws53SbSxEErnr+8TkP5XD7X3hZTIfnNI0xfM9HGuPMGexWzCalYFaimpZoWpcvDl1bmpyNTURy48ty+NVj1UOUjPPTZUpqzx55sUv09YvZ53uHk0mK8c+fNnqIDg+t4nvKybCIMjK6soZbZbXP283gwyJkJBVznR8fpWWq9RBlTX2NIs80ms0CsiylEa9jmXZk3JDxc7y85PlZ/dmbPcZe7ebmDSJiaOqtlHnqI6nzjEXRqvfyMTBlL0JclvbbT2T9aj+VSARMClQCIEhwDQMDGNcd/W/IYyyjCEEhikwK7+XZYu/CQqhQwhMQ/0YmAZYRv7Z/LWR/24YWKbIf7cEjikwTQMTUR5/RpdhCANEER0kK2PKrpt4Xi+AJEnpD4Zsb28Xua+syXw1gkLcMUpzy7KMPZF5PSQSgUBmErmX/chxaLYSwPcjF5uUPewWy9Uxx23BocpOOzR71kOOyx7m3KoThH3Pb4+yktn3qXIkrkxS9qLaZjDuOxUxol4naUY/SnnSDbn9tM/Xj7p89aTH7Y0evVHCKCkmyVJiA03P4vXlOtfONHnnbJtLqzXWmg4N18YycxsXxX1NLc2otu9B/XFgPxf1Nqpj4AF2WW3jQ/fzD+y7vZi+4x7Ud4c97qGvJXV9FGUPey2p6KI4jul0OgyHQyzDLJfpqf6tTjgOqm91ovQi+kMdN5NyT3/vh1xLwKHGK4PD9ceEXWZ5O2TMqHO1zYrr97BjW9nPHG5M2W9smzWmhGHI1tYWkOc/M02ztLEfMr4eWHaqHocpe5jjTo8ph6lvtS3264+yvpV+m9kfM8aqZxnjD6qzup7h8GPmgcdl3MaqXBzHDAYDOp0OrutiWRae502MFQeNP5Jn749qWXWdzCxL7vMdaD8/sB2qZQ8zXrxIToRIAnlDq8RXkBuoSuSqDMYoEqapUEbXdSeiTKriQJIk+xv5S0KJFMPhsHxS7XkejUYjz4BeQYh87WKj0UAIwWAwIAiCfQ0oTVO2t7e5desWt2/f5u7duwyHw4nvT5KEfr/PX//6GWGc8P3WkOhBF9NyEJWkt7MmzwcxPQGf1eI/RKJS7vasi3h2Nceiyn5ICUkck8oU24pnJ/0Vqs5T37TPDLM6wdzzJiPyp967jzk+Syl2T/oPU4ldWpGcLrF33Q+Y5+99nH0/IyYrMqtYtc32Klt+/2EqfchaziiWpSlJFJNJcNwEwzDyvtpVtvqH/W4G06/2aeRyclkpuUsQo2xXUf194kY3IxLscNWtVEPsKijEOHoDMRY5REWUMBjbrkA5J+TiSuUYVUFvLOCMI0eEQSVahLHgokQaQ4ku+WQzf88oBJf8M+rYJoABtiEwTAPLMDANAyEyDCkRSIwiSsUQYAqBbRo4toXjWBhS0u/32NraxrUsFndiPNfBLia6rmlQq/k0fB/XMRFIRoM+YRjmzV2xZ7Ujiu/7WJaFlJJ+v89wONw1XqhddRqNBpZlkaYpQRAwHA4n7nGqD1QiUdd1SZI8Imo0GhFF0WQfGgamaVKr13BdjyxN9y1rWbko5Ps+UuZRNWEYlvexan1t28Z1XVzXxTAMgiAgDEPiOJ4oK4QoyyqnUD1Rm3XPVonLVYL2MAwZDoczy5qmSa1WK4+r7ntRFM1sY9/3qdVqGIZBlmX0ej36gxHDJGMQS3phRrf42RqlbA5iNnohT7oB672ArUFMnEkcAW3PYNGzWW2YnF2oceXsMhdXm6zULJp2Sjrq0RvtroPa+UL1XRiGjEajXbv1qbK+75dLi1V/xHE8cX7KfhzHwXNdJJT9Md1uyueo9t1wOCQIgnLpyK6ynlcmHByNRuVDh+n+UAn2XddFGAZR0XfT9VV1rtfrpb+n+k5dS7P6rl6vI4QgjuPShmYd13Xd8kltHMdlG0/XV7WbStYcRRFhGJZtUbaDKlu0meu6hGFIr9dja2uLXq+HEIIgCMrrSLWx4zjlU+QoisolntP1dV239A+HwyFhGJYh+tP19TyvjE4YDofluc267tS5qfoNBoOZO0Oapkmj0cDzPACiKKLf7xPH8cz+qNfrpS+u/N29+k75v0IIoigqbXO6vqotVASf6o8wDHeNg6qs7/nYtkW4R1l1btU2TpKEIAjKcW26jVX7qr5Tvnyapnv2neu6SClLm9jY2ChFqXq9hlUI7p7n4TouEslwOCx3u5zGtm3q9Xp5XBXhuFffVTe/UGNmdYyvtlutVssf2AqIwnF/VM9N3WfU/cAwjIn+mO470zQnoi/VfSMIgj3Lep6HZVnl7p6z+q56LVX7TtVhuj/UvcNxHNI0Lce26cn8dFl1f56ur6pzdZxQD/kHg8GefddoNEr7CYKAXq/H5uYmnU6nrJvneWU/e55X9rMaM6froHbT8nwPweS1NN13qt1qtRpCiD3v5aps9f68Z9miP9zK/VnVYbosjH0gJQpFUUS3292z3V4WJ0IkUQN4o9Hg/PnznD9/Hin3X8950PvKgI8aJZIEQUAcxwghyoFmeoKuDFQ5CrMujlnH39ra4pNPPuFf/uVf+N3vfsf6+vrMcmkmMfwVnvYCBpsDTDNGHIOcLS+T8om+lCCSKVHi4M/O4jBCkeZ4k9sEgEQau507zZjJiJjJMXjSpdmL2WrNtFz5LOmSlMBrAqYgj0gReTSKZQkcy8SzLVxLYAqJITMMAbaQ2KbAFhLHNHAdm2bNpe67uLZFNBrQ2d7BQtJq9PEdC8c2cQ2ouzZry4usLmW0ai4mGVsb2wz6PaSsjgICyzJZaLdZFAauk0e0be908ieMUk4Ii6YhqDcaWJaNXzOI45h+f8D29tYuMQOYcOKTJGEwGLCzszMhllcnEgCO7Uw8zVLh4NWyvu/TarUmRJ1er7fLkVeOdrPZLJ+SDgYDer3ergl/9bhq4j8cDtnZ2Skn8dV6+L5Pu93GMIzSGd3a2iqd19IZFLkzury0jGnmT/HDMGR7e5t+v5/bSFW0siwWFxcxTQvTtonjmKeb2zze3GRzkLE+zHjYS3jQTXjYS1kfpfSjfNlN1c4cS7DoGVxs27y5aHNlxeXq6RZvnFthodXIHeJutzy/6rkpp1FNdtVEtNvt7uo75RdkWVZO9qv9UUYkFset1Wo0mo3yyaQqOz3hN02Ter1Oo9EoJ/TKJqYnKaqfW+12LlKaJsNhHmk1a+KqHH113DAM2dzcZDQa7RIzlK9m23Y5Adve3p4ZSWsVfec4TumYdzoddnZ2Zk7s1IM113VLx7zT6Uz4VtU2Nk2zrK/qjyAIJsoqwWFhYaGsQ7/fZ2dnh06ng4BSJFG+bbPZnBDv+v3+rrawLKss22g0Jq47NTGv9l2j0aDVapWCaa/XY2dnZ6Y4Wa/Xy9dKDNvc3Nw1qQLKiDnLskpBZWtra8Iup/tOiS9hGLKzs0O3250oV30Q6hRLncMwLPtj2n5UW6hJmyqr2qJaVm3VLoRAGH5Zdlpoq5ZV7aYErlkPJW3bptlsTvRdr9crxddqG1uWRavVKsdBJbxubGywtblJWggwg1oNy7JoNpvFGGQipWQwGLC1tbVLRFTjoBK5gbLvqnap8DyvHAOrkSzVMV7db9xikq/6MAiC8rqbroPruuW1ZJomQRCU/TE9xqs2VtFUShhQ7VY9rud51Ov1cqxSfTcYDCYEbtV3zWaz/D0IgvL+NS2G27ZNu90G8mslSRI6nU5Z3+nrrtVq0W63sSyLJEnoFuP2LPGl0WiUUUFpmtLv98sVDtPUajVs2y5FneFwyMbGBk+fPqXb7eJ5HkmS4Pv+xBbiaZoyGo3Y3t7edX8WQuC5LtnCQrkzznA4LNtietz2PI9Gsd2wKK59ZfPTfadETDUOjkajsuz0mOn7Po1Go2zvIAjY2dlhNBrtsmPXdWm322X91fi6l9j3sjgRIolpmrz22mv8wz/8A8PhcF/xo8r0RVzFsixef/31I19qo3hR4UQq6e3777/P0tISP//5zxmNRhPfq3K5/N9//Ve+urfO1bUmb1xexrTdPPR6F/nT5MPXePfT5/L7KyX2eu9QR5V7xA7MCDDY77iZlIRBQJymeI6LZVvAOMR+nxpMLPGYLDMplGSwKxJgMnRwKkJB7m0fE6FsB51ctTEOZW/j2IVqO88sUmXfY0+em5wVEVEpu9tyKm1WeaMadaLK7VeNMpS20mbT4pXqswxIk5S4cHpcz8UyzWLivbsBjMqxZi0lAiZy2ogZjbu7LkWosuAQfTfVDuWhd3feuBqi0hZ72PFUv41DVHPbV39T1ZOFsCTJn5BJKcow2UwWwkVRXhbnXA3fzCrVqR4/k5BKCZkkzfLXaaa+A5LK5yvNkPdLcQ5pKjEQREIiUoEVS/phimUagMRAlvlOzErEimkkeHaMZY0wTUEWJ4RBiiHA7URYZoJhCCxD4JgB/r2Yut/FsU0MJFEwJEsTLJEvBbJMgWUauLZJY7NPe13iOhaWAXEYEUc2rmFgmQa2JXKhxjYxDIduLEmCFAMD1/dZNlbIsmziMhdCYFrjZUBWMSEzTXMiRxdF1I+KRpiOVlGOpzpmNeJDRW42m83SSZ2+9zqOUzqCyom0C/Fhr0gStbWyeso/K8pBhSErx9z3fZaXl0snt+pA5wJMrayD67osLS2VTpyUklRClKQEMWxFJo8eD+hFGVv9gO/XOzzaCugEKf0woxtl9KKMYSQJEokhYKlms+zbNF1YcuHCcpPzy02W6haLvsWSb7LUcKn7HqZh4DoONJtlRNCsNla5K1Tb2rY90XfTZdXEVT2dbLVaE+2gjqX6BCjLzpqAVaMc1HFV3+1VVrWxmtxMTzqqooM6rud5rKyszIwkUcKOOjfVd2piX0UJbWoC5rouCwsLpSgz3W5VW3Ndl1artSvRf7XdlHClImuU+Fgtq/6unoqqCeTi4iKWZXFq7RTtVi7uqWOp/jAMYyLya1Y0ghIRgD3LqnNT/SGEKO1nOspB2U+13Wq1GisrK7vKAmWeBFUH1XezJoHVvlNlFxcXJ/LtVdtYXc9qQgaUERKz2lj1nbpOPM/b1XdKFPBcD6sQH9Uk7qC+A2i1WuVx94oOUUlXD1tWSkmr1ZoYq1ZWVsrxTj2tV2XVuD09Ka9eS6q+6rqYNblUEVxqSY/ruiwvL0+M8dW2qObaUg9o6/X6npEk1b5T1+KEaK76o2Lv1bKz+q46XmVZVuairLZxVeivLlEBdpVV/VGNQhQiT2egxolZfafqqQQWJR7tNQ6qhwKq76YjX4DyfqeuwXq9zurq6kT9lpaWyv5V/aH6Rl3X1e9X/azaQV3PSvSeZT+u62JVxm11jc+6P6sfdW2r/2fdn6ttof6u6jAhRBXXpVOUVWOm8kGOihMhkhiGwalTp8onRurmtJ9YojIDR1FUDgQzl04cA9TNQbHfOq/qGq3DiEWGYdBut3nvvfd46623dg0UKmTr8ePHPH26yf0n/8a1001+cXkF23ExjKk2E+OJ63iCu5c4MF4mUEyndkkrUo6POT21U4effDA9XjIwrsd4sjZdBVH+L8rz3W+OmaQJvU6PMAppNVu4fpFcbdf6md2f3d1flYlwZa2EnFF2LJJUJ67jSeJskWSqrJTFms2pGqg2m7CxbGY7iLKtxstc5Hi2O/sD1fOQe9lDWZvyM/m6xxk2XpQcCxnVY0+W44CyVXurrh0uCiHFbJuotpeUGVEY0x/0SdOUVqtVOva7T3F87In/Z5artMNE7Sc/Wn5PeejJvqh+SpWdvjb2q4cQlet5n4uj2sZSSmSWi4pZYZ8p5MIFYxElk0q8kGRZHkmSFa/HQkje/qkEmWVkheCRFcfJ/57/LZX5zltJlpGmkiQtXmeSJBu/zsr16VXBavJ8suJc8+gxgZQQJ+p7ixaU6vMq100KpKXQmX+HQEiQIgUShKRoAwlyWH6HIfKlPZZp4tsCzzbxHRPfMvHsDM/J8O0RvmPhWwaubeBZeZmabeE7Br5r4RsGo8hi1E2oOxK3iIKxPQe7srRIqKVFQpAIgyzOcmXKdPAbDj6yXMqEqOSFKWzTMA0838Tz/dl2UYwV6v6lHPX9BF31U/Nre5Ytx9ui7irc+zDH9X0/d3L3GK9UtoIMCaaNW2ti1wp7S/NIkDhIGGURj7sBj3ZGPOiMeLA94vvNIY+7I0ZxRpxJLJGvy7YNgW0L6o7FmZbHxUWPNS/lbEPw9sUVrpw/hWvbGEY5wueJjQuHUzm+B52bckxrtdre7SbGS6yUeHVQu0E+qZp2nmeVUw7uXnWYrsez9J2aEBymvoZhsLCwcKjjqknN9CRwv7JKONuvrJqMHabdlOCooiRWV1ZZWFgYP6SrXEsqsmYvG57uDyVKHuZaajQae9Z3+vzUtbQXz9J3VX9diRCH7btqdMBhyjaajX3bTQiBW8wj9rw+Kv2hJukH9YcobqS2ZaNyZ+xVVtFsNvPxuRAzTp06ldue8okrx64uWTqoLcpx8ID+kFLuW7ZqOwf1c9UmD6rDrLJqnJgu/0zHnaqv6jvY7T9Wy0Iu5rXb7X2vpbIeiHICP4tdY2ajTq1eO9B+VH8oYUMJPSsrK6WwV72WVLThrvpW7Fd9x55lZ9R3v/vo9JhyUD9Xj63Ejz2PW2kHJVgr0fCoOBEiSZIk3Lx5k7/85S+sra3x05/+lHa7PbHtYhUVQnbv3j0+/vhjfN/nl7/8Jaurq0dQ+/1Rzo/Kai2lnLm+HPKLPEmSMhJErec9CMPIE/E5hrNLhVZiS67SmtQdgzdX67z/+hK242JPKXjKyZycku57huWr6UiL6Z1gqk/uq+9PTAKLsur92dPm3d8/GZGwu1wGkOUJkza3MoKRxdJym2ajgWHsJZJUHO5Z3zxxfkU99hAFJmu79/szv6daRk4KA+My05EA+x+1el1NlJ2pA03KW4eqsDrUYUxo8ugHHXZGmYNaeHZ7CEQe4ZBljIIR29uCNIlZXV3G83xmB6FNtcWBqCtp5oxu72rL2b/u2x0z+25Gux2gcVWLyYrIwQG/y2L0yEUJWfl8UU9VllykmHkcmBBdMjn+XUpKwUaJN2mWJ/JTwklaCDupLH4vJsdJlk+Q0ywrhZcky5NyJpkkTjPSNCOWkjSFOM1I0pQoSgjihFQChpkLNWlGnGQEaUaUFseXKsoFSDOGUhClkkGU5kt+ppLOmkVuFdsA0yyS0pp5ThTTFNgij0DJ858Y5TFs08C1DJwy8sTEsQ0cy8C1TBxTYBfvu1aRY8Uyi/fzco5l4pj5a9s0sM1xJJOYNprC4MrLR0yOlWLqhRD5NTXhxO1ll6J8MRZCp+1eDWvquGUtK+OXspsMRnHKIErpBwm9MKY7iugFCb0goTOM6YxiekH+t36UMQgTBmFMP0rpBglhIhGGwaJrsNpwWWm5rDZc1poeKy2HlbpDyzEgGmCnIW3fxjLNImfO7gGj6pju1Q7Vsup+vet+tEd51Rp7lZ32nw7VH1Sc6gPK7nt+RfldZfcYo2fWY5+yz3rcA+v7LP0xq8nFOO+PiiApr4FnPLddZZ9Hf0yVVUvY9rsfHLqNqx87RH/8kPoext6rdTjMtfSstjYeHg/uj/L7iwls+X1CVMTqyfPb7zqaLrtnnafs/VnaYc/j7nUNqf8PcMH2rMceZWced5/6HrbO6vV+da62wWHaFyYTvh5UXo0T0z/q7xMffc798SL6ebptZx63KD9rPj/rby+TEyGSpGnK3bt3+ed//meuX7/O5cuXyxCfWajoiAcPH/Bv//ZvLCws8KMf/ejYiiSO45RqnGma5fvicf0AACAASURBVBqv6Xwj6rzUekAVFnqQEQkhyl1qpttMqaYqZNG2TE63fa6utSbCDecBlYF+04kJgoDl5Va5FvuoL1TN0ZGv/XTYruX2sbbWLsNOtV0cT/IIlFwISQrxI81U5EkuZCQy/z3NJHGaEqWSKMmI04wokURpSpTkQkecZESF+BGlGWGSEsUpwzBiGEakGUjDyo8RZ4RJRhCn+U+Sf1cZ3aIEoTJaJo+QSZKUIC7EHsgjdSjOQxaRLHJy2VFWUcEsQ2BaJr5tUCujVPLlOZ5j4k9ErpjUKn/3HCN/zzbwbCt/3zFxbQPXNLHNseNuQBEJUd2GuZgEClG8rmy9XPwNlN8kSjFPqL9VL6NSOJPqV8a/TophMv9LvrRKynG/y0rEUpaRSkmYSHpBLoRsDiK2BhFb/YiNYcRWP2CjG7I+COmPUoZJiiHyKBHTyJdG2YZBreFQty2W6zbnl2tcXK7x2mKNi0s1zizWaLkmyJRuJ8/d0aq5WKax7z1keoK1H89Stiz/LMc9xLGfpexE+cOWfc7n9oPKwnM9N3WvUA/C1JPive4hP6gOz7nOZdlXsD9eStlDli+frhd2YexhFy/82td99+zj4DO4f8/SH9Vk52pupgSSmXYxD/1xRJyIGXCWZfT7fe7fv1+ue9zrSbia9MdxzKA/4PHjx2VG/+OKEHk0yeLiIgsLC3S7Xe7du8cbb7wxcZ5pmtLpdHjw4AFCCNbW1ibXlWv+JoQYJw5T2aS1QKIRYrwGPsuyyW1eNccTASai2A0HpGmWk+syEmUiCiUXKjJJGWEii6VDmYpCKSbmKv9JHnWSL+tMi+m+OmZaRK0kRZm4EGeiJCUqRJgwyYjSlDCWhTCjhJo0f6/4CZNcrAkK4SZO0kKIkURpUYfitNMsI4gkcSLphXG5c48tRJErxcAwBZbII09U/hQVqVJGtBgU2yvn0SqWaeCaRiUqJRdf8hwpKjLFLMqYuEX+lDxKpdhtSIxFk3LnoaJeaocjGIse04JQHgWUn2+U5cJVkhbiVSFwBUlGEKWM4pRRnDAKU4Zx/hNGKUGcERYiV1iIWVEhaI2Kds2yDN80qHkWizWHpYbDcsNhte6y2nRZabgs1Ryavk3LM2l4Fg3HouZaWMY4FFvldzguec80R4cSSBYL38ItQuc184uaDKscLYD2LTSlXaiErkowUe9pXi7HViRJ07RM1DYajeh2u2xtbbGzs1NmvIWKY1URE1S25o2NDXZ2dsqkPccVdRGcPn2ac+fO0el0uHnzJleuXGFlZQXLsojjmPX1de7fv8/6+jrnz5/ntddeY2lpSV84zwkV9ljNuq/bVqPsoBoSq+3ieKOiE0xRxiq8EKrrl/eyi3yZjywEkXwiHxYT+jBOCGJZTNrzyJMwyX8fFVEoYZQSJClBlO6KUAnjXFyJiygVmQkSqsJPsSypEHpGaUIWUUa1qGVAKu9LWol2UVEqhhgnl80jTQx8K48y8Wyz+CleW8Vry8R18v8dK18+ZBgCk+J/Q23TnPeRMMbJsadz1oyjQgqhKU3zSJ8kP/cwLQSlOGUYZwzDhH6UMgzjfGlNmDAI8/ZVCYNtJf4YBpYJjmnQcCxsX+BaBjXHZLHusNrMl9KstTzOtD1Otz1WGx4t38I09h4HXNfFcR0Eu0OkNfNHLgyaeJ6PRPsWmhzlV/g1H8iXZWi70Kg5YVUc0XZxNBxLkURKSRSGbG1vMxqNym2O1JaE6+vrZSbuquGopKaDwYA7d+5w69YtsizLl+ZYxzNpq8K2bS5dusSjR4/46KOP+Oijjzh9+nSZeLXT6fDZZ5/x0UcfMRqNOHXqFG+/8zanT58+6qq/UqglN2mallsI6sFpvlHjitp1QYU/aruYb7Jiy8YkSfJcA5aJwW67MIpMqq4wsU0Tv4hUGUekjPOnlBEsMhcEsgxSmSezTdPic0W0i1pGlKR5RImKjAjjlDAdR0qM4vHyoDDNRZYoznOmhIXYEhe/R0VERRznS5LSQgDKl6ukJGnGMBIIkWAaxRIfQSkYmCpaRQkiAkwjd/JU3qlcwCoW3lSW5VRRS2vUDkX5appctFE5ZVIpJiOBVOROIfbkUTyUS62koNh1yKDt27R8m1bNZsGzWajZLPoOC3WbpbrDYt2h7ljUHLNMsOsWYpBvG0US1tnXv7KJNE0nllVo5ps0Gz/4UztDaLvQKN8Cxltca7uYb5TPWfoWRR4jbRcvn2MpkmRZxk6nw0cffcSjR48Iw5Avv/ySXq/Hw4cP+cMf/sDKysquHSaqIsnDhw95/PgxCwsLnD17Ftc5OMHpUWLbNm+88UZ5jnfu3OHLL79kNBrRbDbpdrvcvn2bTqfDxYsXuXbtGq9ffJ2FhQV94TwnlP0EQUAcx+XTH8nhdhLSvJpUEyanaVpm0dfMN1JKoigiCIJyaz320OINITDM5z+GqOVBUbFcJ1AiSSGMqN+DOCMolvGEcVZErIyXnQRFJEuoxJYoJSqOmxUiTlIuOyocuGy8XEkJE3GSEcisEHwKcUIKMsY5VfLEveNIFZWDpWjVMkmsElWMQmCBXFAxhFoKVDxhU0JNsXTHtcw8iW1lCZFVbKPsmALfMWnXHNq+zYJv5//XbJbqNgs1NxdJaja2aRRJuw+PEmyiKCIMw3LJpnZw5xvlW4xGI5IkKbdGBh1CP8+oibDajEEIgWM72uecc7IsK32L/XY/07x4jq1I8ujRI/7n//yf/OlPf0JKyc7ODk+fPmUwGLCxsbHvWl/1hG9lZYUbN27wzjvv7LlV03HBsizOnTuHaZr0+31qtRoPHjzgiy++IE3Tch/qS5cu8dOf/pT33nuPxcXFvbci1TwzUkrSNKXf7zMajfI9vl0HAx0uPc+oHEfdbpckScpcA6Ad3HlFTYbDMKTT6ZRbI77sreoMkSdRdUW+m42fjXOqqCUqavmK2kJ54u9qB6Bd+VbU0pZCbInVsp9cUAmUCFMsBcojUmT+v1oWVOT4iNLxcZMy6mP8f1qoJFmRiFWoPCVquZRBmdMkT6aa78xjFTv25Lv5CFw7j/bwLSOPAvEsGo5J3bWpuyZ11yy3V7ZtA8fIE9LaZr6rkGMWQoqV52RRWyk/K2maMhgM6Pf7tNvtQ+1Ap3m1UUJ7v98vJz7aLuabav7EbrcLUOwyaR9qlyDNq0nVt+h2u7iuOzHf1T7ny+VYiiQqydXS0hJnz54t84ns7OxQr9dZWVnB9/2Z4Yoq+abv+5w/f57333+fq1ev5k/5jjGGYdBoNDh79iw3btzA932+/vprHj58SBRF2LbNysoK169f5yc/+Qnnz58vn1Jpng/VZRVhGJJlWR7nrcekuSdNU6IoypdiZWmxna02jHlGTXyiKBpvl3kECBVZgeB56bn5TsW5mBKqRLJF0tMoUZEnGWGqhJCMMCpyrahdgeK0TKqaVbdenth9RuVAUds959eUUSR4NUS+XElUkrw6wsBS2xeXWx0X2xebRrkzj18sl1GvfcfAty1s48Wt8a6GSUdRRJIkR2YXmmNCuY15PiGOtG+hqZCmabnc5jjnTtS8PJRvEYYhQuSRmJqj4ViKJIZhcP78ef7Tf/pP/If/8B8IgoDf/e53/I//8T+4fPky//iP/8ja2tqu7W9VEiTbtqnX6zQaDZrNJvV6/USo9kIIPM/jypUrnD9/nl//+tflTj5KOPI8j0ajUeZF0Gg0Go3meSKg3IHGNCw8R+ZbEitxQ46jT9RPmWQVykgV5DipuqS6nW/xt/EOxuXWvxO7MFZ3CxSi3DJYFMtuKISUUlCBIgqlSBCrolIMWSzVUdtrvsDG02g0Go1Gc+I5liKJEIJGo8GlS5eI45g4jrFtG8dxOHfuHL/4xS9YXFzMw9KmRBLDMPJlEo5zIpOmmaZJo9E49suDNBqNRvPqkmsQotxOWa861Gg0Go1GMy8cW5GkTIRH/tTpV7/6Fe+99165lEYJILM+q/5XT7iUeKLR7MdJEtM0Lx9tHxqNRqPRaDSaF416yC/0apsj41iKJDAWSmCcAbrb7ZZr9w6LYRjU63VWV1fxPO9FVFXziiAQE9FIhmHoNcMaYDwemaaZ24k2jLlHjRVqiz4tommmbULvaqNBUK4py7cKt8oILY1GjRVSSv0wV1Oi7EL7FkfLsRVJqmRZxubmJp9//nmZBXoWsxKkWZbFhQsXaDQaWiTR7I+gFEjKpVrak5l7BLlAYlmWdmQ0wDiqyDAMbNveM7JRM5+o8UI7uBqYXApePoDRzDUqSqAqkuixQlN9WGubVim0n7TUEa8KJ0IkSdOUBw8e8K//+q88evRo1/vV5HFpmpaDjWma+L7P+++/z8WLF1lcXDyC2mtOEionjO/7ZWJgPTDNOSLfmq/VapFlWbnttraL+cYwDDzPK3dUs6wTcTvVvECqS4Vt28bxXD1OaACwbZtWq0WtVtu16YBmPlEbMrTbbQDtW2hAjDfx0L7F0XMiWj5NU54+fcpHH33E7du39yyTpimj0Yg4jkvjWlpaolar8Q//8A8vudaak4ZycFutllb1NSUqfL7VagE6N4kmxzAMfN8vnRmNBihFklqtpu1CA4x9i2azqX0LTYkQohTPtE1oFOoBv/Ytjp4TIZI4jsO7777Lf/tv/41OpzOzjNqDvtPp8OjRI7788kviOOb69ev86le/KpVajWY/siwjjmPSNMVxHB0urQFyEVZtx+26rs41oCkjF+M4Lpfd6DB6jcqhliSJXoqlKVFjhcwybO1baAqUb6EEE+1baLRvcXw4ESKJZVlcvXqVq1ev7lsujmM2Nzf55ptv+D//5/+wubnJe++9x5UrV6jVai+ptpqTilqyFQRBGY2kkgdr5hc16QnDkDRN9ZpyDZDbRRRFBEFQhsTqp8QaKSVRFBGGIVLK8h6i7WJ+qfoWSZLQ0HkoNIwnw2EYAuOoVc18o3yLMAwnkrfqseLlcyJEksOilkq8dvEiP/vZz/jqq6/45ptvSJKE8+fPs7CwcNRV1Bxz0jRlOBwSBAGO4+C6LqAd3HlGSkmSJPT7fZIkKbcgB20X84qa9ERRRK/Xw3VdXNfFcZyjrprmCJFSkmUZo9GI4XA4sbZcM98kScJwOCQMQxzHKfNPaOYXFQHf7/eBPGpe+xbzzbRvoeYhSjzTdvFyeaVEErVGfHVlhatXr7K9vc2f/vSn8uak0exHlmWlqj8cDmm32/pJjwbIHVyV7yhJEyRS73w05ygHNwgCIB8/NPONejIcRRHD4RDXdcmyTD8dnmfkWDwLw5DRcEjSbufbAutbyNyiJsNJkpT3kCRJjrhWmuOA8i1Go1FuI1mKjX3U1ZpLTpRIMmuL32myLJvY6WY0GhEEAWmavoQaajQajUaj0Wg0Go1GozmpnAiRRIUejUajfZ/WqdwB3W6Xu3fv8vDhQ5Ik0TkENBqNRqPRaDQajUaj0RzIiRBJsixjZ2eH77//vgxLm0ZFjgwGA548ecKnn37KnTt3sCyL1dVVHFuHKmn2Ry+r0exH1T70UhuNRnMY9H1Fo9FoNM+KStYqDl5EoXlBnBiR5NGjR/z+979nc3NzZhm1xCYMQ7rdLg8ePEBKyeXLl7l27Rq1ev0l11pzEhFCYBiGjj7STGAUuxGYpokhtF1oKHe/qmaf18w5AoQxtgt9D9EgyPOPUNxH1JbQerjQMPYtQAuqmjFVn1PbxdFxIkSSJEm4e/cu/+t//S++++47YHd+EjW5dV2XWq3GysoKly9f5u/+7u945513aLfbR1BzzUlC2ZDjOGWyPT04aYCJver1xEejxgU1Xlhq4qOZawQCQ+TOreu62i40wNi3sG17YltozfyiogRM08QuIt21XWhg/ACm6lvo+8jRcCJEEsMwWF5e5t1332V1dbXMFK4yQQshsCyr3Cqp0Whw+vRp3nzzTd5++23OnDlTbuWq0eyHaZr4vo9tWdiOrQcmTTm+NOp1kjTVNy0NkNuF4zg0Gw1Myyq3btTML2oy7Pt++dBGjxMaAMu0qNVqOI6Dbdt6yaYGBJiWSaPRQEqpRVVN6Vs6jkOj0cA0Tb0t9BFyIrw627Z57733OH/+PGEYIqUkCIJyeyTDMKjVanieV6r1juPgeR61Wk0vndAcCuXgNhqNPJLE1JEkmnEUidVqleONtguNihZwHKccO7RdaJRI4nneeE25tou5RgiBaZk0m83xPcTQNjHvGMLAtmzMhqnvIZoS0zTxPE/7FseAYy+SpGlKHMd0u10ePXrE+vo6W1tb9Pv9XSJJs9lkZWWFtbU1zp8/X6pwWiDRHBa1b32apriGjj7S5Kh967Ms01FpGmCcBytJktKJ0Y6MRiWRT4uoM+1/aEDfQzSzUfcQyB8I6yU3mupqCe1bHC3HWiRRg0ev2+Xbmzf513/7Nz799FNu3rxJr9cjCAIkEiEEvuezuLjIj370I27cuMG///f/vowk0U6K5jCogWk0GhHHMUKI8mmgZn5RN6vhcDgx8dF2Md9kWVZuTW9ZFvV6XTszGqSURFFEEAT4vq+TMmqAfLwIgkD7FpoSNccZjUYAZc4zbRfzjfItgiDANE3tWxwhx1YkSdOUMAy5e/cuf/zjH/n444/5+quv6PZ6LCwssLKyUoYiqV1t4jjm3r179Pt9tra2uHHjBj/72c84e/asfqKjORTKkQmCAM/zygTBenCaX6qOTJIk1Ot1vUZ0zlFRJFEUMRwOcRxnYkKsmU+U0B4EAYPBoAyb1uPEfKOii0ajEVEU4bpuGU2ibWN+kVKSJgmDwQAhRJnsGbRdzC0y/1G+hW3beJ6nfYsj4liKJOqG0uv1+Oqrr/jv//2/88knnxDHMa+99hrXrl3jzJkzLC0tYRgGSZKwvr7OgwcP+OKLL/j222/59ttvefjwIcvLyywtLVHXWwBrDiDLMtI0JQgChsMhrSIHhb5ZaZSDG8cxSZrkEWw68d5c8/+zd29Nkhzl3cD/mXXu7umZXWkRKzBSICHJEgKEwOEbB7avfOPb9yv6C9i+IsI4fOEbYdAKCSQQBx1AaHd2Znq6u7oOmfleVD851TXdc5B2twbq/9uYYLXU9mZXPpX51FNZVbJ8frlc+jlL3lJAwyRxUBQF8jxHkiT+TWk0UO4sLuRZent7e83JEKeQwZJCe1XXWK1WANDEBQ2ag4N11ucWaZqitgYRL9j24sYWSU5OTnDv3j288847yPMcr772Gr7z+ut44YUX8Oyzz2Jvb88/qNUYg+VyiZOTE3z88cf48MMP8ctf/hKHh4d4++23kSQJXn31VRwcHPT91egvRPcV0zRsktAwLmgbxgV1MSZoK8YFEV0Bc87+3dgiyfHxMd555x386le/gtYa3/3Od/D//t//wwsvvLDzOSPGGJycnOBXv/oV/u3f/g0ffPAB3n33XUynUzz33HMskhARERERERHRTjeySGKtxWKxwKeffoqyLPHd734Xb775Ju7cuYMkSXYuN1JKIcsyfPWrX8UPfvADBEGAP/3pT/joo4/8cjYiIiKiJ4GLo4mI6Lp4a03/bmSRBACKosCf//xnGGPwyiuv+NtlLrrnW2uNNE3x9NNP49vf/jZOT0/x61//Gp9//jnKsnyCrae/RDIgKaUQhiEHKPKUUgiCANba5injPPUZPHnaPN9IQG3nYoJxMWwKzfNHsH57SRBwrCBPxgqAJ8V0pj2PaOabvbmRRZL2Q66cc5hOp9jb27vy033DMMT+/j4mk4n/HGPMY241/aWTQUmeOh8wmaG1MAyRJAmCIECg+ZRxaoRhiDRNEScxxwryc4i8kUDewEcDpwAdbOYWPO8ZNrX+FQTBZlzQ4MmFWplDtNa8MNeTG1kkAc4KJdZaRFGEKIqu/IT4IAgQRRHiOPav7+TDb+gqZGAKw9C/io2GTVaRjEYjGGN88YwnP8Ml/R/HMUajEcIwZIJLAOBf5QkAcRz33Bq6CRQUAh343IJvwSKo5kdyC+cc5xA6l1v4C3OKK436cGPPAuWK/mq1wnw+x2KxwHQ6vdLkUte1/ztBEPAd03QlMjiNRiNfnOPJMGmtEYYhxuMxrLUsnhGAszkqCAJorbnyjPxKkjRNEUURwjDkrVi0UWh3zvnbeRkXw9bOLRgXJLq5hQ74Cvm+3Mg9L1W0g4MDaK3x6aef4tNPP/W331xEHvr68ccf449//COSJMF0OmWRhK6sPUlxsqI2xgXtwtWKBJzNHzzZoS7GA+3CMYO6fCxwFUlvbuQlUbmaf/fuXRwdHeEXv/gFsizD3/zN3/jlR9sCxjmHoijw4MED/PznP8f777+PyWSCZ599Fmma9vBN6C+Jc84X2aqqwmQy8W9T4gA1XNZa1HWNxWIBYwym0ymvDhOstSiKAnme+6uBHCuGzTkHayzyPEdRFMiyDFmaAZpJ7pDJ7ePd3AJgXAyZ5BbL5RIAMB6Nm9XyPCkeNMktVqsVgiBocouAuUUfbmyRZDKZ4KWXXsLx8THef/99vPXWWxiNRnjhhRfw1FNPYTQa+ft9nXNYrVZYLBb4/PPP8cEHH+Dtt9/GbDbDG2+8gZdeegmj0ajnb0V/Cay1WK1WKIoCaZr6RIaGS55rlOc56rr2S2MBJjJDJf1fliWWyyWSJEGWZVyxSLCuSXDbt/vyoXvUzi2SJGFuMXSu+THGIM9zOOeQJAnCKOR4MWDOOTjnfG4hDwHnG5D6cSOLJFpr3Lp1C9/73vcwn8/xq1/9Cm+99Rb+8Ic/4KWXXsKrr76KZ555BgcHB1BKoa5rHB4e4rPPPsO9e/fw4YcfYrlc4pvf/CZef/11vPbaaxiPx31/LbrhZCWJVHDlgb8clMgYg6IoUFUV35RFAM6KZ6vVCkopGGP4QMaBkzmkqiqsVitkWcbbsMivJJGVZ9PptDlJZmoxWG79S97ACYC5BQE4yy2KogAA5hY9upFFEgBI0xRf/epX8dprr+HTTz/FO/fu4U+ffYZf/vKX+PzzzzGdTv3yZmstTk5OMJvN8PDhQzjn8Morr+D73/8+XnrpJdy5c4dVe7qUVHD5RiTqkiTXGOOTG17tGTYZK6y1TG7Jk5iQH84jA9fqfmstrDGMCfJknAD4XCs6I+chYRjCMdXszY0sksiTwPeme3jllVcwGo3wta99DT/5yU/wwQcf4MMPP0Rd1375kQwsSZLg2WefxWuvvYZ//Md/xPe//33cvXsXo9GIqwGIiIiIiIiI6EI3skgCrAslOsDe3h6+8Y1vAADG4zFef/11fP7555jP58jz3G87Go2wt7eHu3fv4rnnnsPf/u3f4mvPPotsNPLFFCIiIiIiIiKiXW5skQRoih9RFOHWwS1Mp1O8/PLL/gGtR0dHODk5gXMOQRDg1q1b2N/fx2g0QpqmiKKIbxqga2m/3pVxQ13+FX3rX0SC4wV18XXhtA3jgYiuwuec7uy/6cm60UUSobRCqEMEQYA4jpGmKSbjMZ5++mk456C1RpqmyLIMYRjyDQP0hchtXvL8mjAMOSgRFJpibZZliKKI4wv55CWKIv+mNa5YpPYcUte1f4U8DZhq5hB505HWGmEY8qGtA9eeQ7IsA9DknDRsCgpaaZ9bSM7JeaQff1FHpCQgWZYhyzIc9N0g+qsjBbcgCLgaiRoKCIIAo9EIxhhfPGNcDJtSCnEcYzQasThPAJqY0Fr7QnscxxwnaCN3DcPQ5xY0bEophGGI0WjkV8Uztxg41fxIbhEEAYskPfqLKpIQPU6S4GZZhjiOmcgQAPgrf/I6T05YBDRxISfBWmtorRkX5IskYRiyoEqeUgppmvrcQv6MhqtdPAO4epka23IL6geLJEQtUtkPwxBacWCihiyLdQAnLAJwVlSN49j/N5HMIbwqTG1a643iCOOCgM24YG5BQmuNKI6bhSUcK3rDIgnRmnMOxhgsFgtUVYXxeIw0TTlADZy1FlVVYblcwlqLvb09rjIiGGNQFAVWqxXCMMR4POZqEoIxBnmeoygK/6w0nhQPm+QW8/kcdV373ALgCdCQOed8bgHAP4OCMTFs1loURYGiKPyt3lzB3A+WLYlarLVYLpc4PT1FVVVwzsE513ezqEfOOdR1jcVi4ZNcxsWwSf+XZYnT01Msl0vUdd13s6hnzjlYa5HnOebzOYqi4DhBAIC6rs/lFjRsUiSZz+fMLQjA9tzCGMO46AlXkhCtSYJbVRXKsvQDE6u3ZIxBVVWoqgrW2r6bQzeExEUQBIwLgoODdRZ1XaMoCv8cIxq2bm7BsYLkpFfiAgDjgjxjDOq6Zm7RMxZJiNbak5ZU9ImAs9UkdV3DOgsHB8V3OA6ajBXGGBhj+m4O3QQOcPYsLqy1nEeGrtX91lqYum5Oehz4GmDyY4X8nqhdPAuCABacQ/rC222IiIiIiIiIiMAiCRERERERERERABZJiDx59gjfREDbSFzILyLB8YK62vMJkWA8ENFV+JyTd9v0hs8kIVpTSkFrjTiOYa1FGIZMaAgAEIYh0jRFGIYIgqDv5tANoJRCFEVI0xRxHENrXnMYOqUUgiBAHMdI05Sv8yT/3BGtNZIkAQAEYcDnkQycXGyR3AJo8gyibbkFL972g0ckUUsYhv5d9UxwCWgmrDAMMZlMYIzxxTPGxnBJ/8dxjL29PRbPCMBZoT3LMmitkaYpxwlqToaDJreI4xhJlHA14tApABoIoxDj8RgAmFvQRm4xmUwQhiGLZz3inidak8FJrgBGUeT/nIZLa40wDJEkCZxzPBkmAPCJjJwYy9UeGjaJCxk3eNJDSiko3eQW1lqEUQgo5hZDp5VGGIT+VeHMLQhock65SMtVJP1ikYSoRQanMAx50kOeLJV2zjEuCAD87TXtQgmRFEeCIOBYQZ7cyss5hNoYF9Qlq5dZIOkfiyREa845OGsxXyxgjPFLYzlADZu1FnVdI89zWGv9EkjGxbBZa1GWJVarFcIw9LdYMC6GSN06sQAAIABJREFUzRiDoihQFAWSJPG33DAuhs0Yg+VyydyCPOccqqpCnucAgNFoxNyCYK31c0gYhsjSFDoIGBc9YJGEqKU2BvP5HHme+1UlAJfFDpkkMsfHxzDGIEkSvyyWcTFMzjlYa7FarXB8fOxv0YvjuO+mUY+cczDrOWQ+n2N/fx9JknCcGDjnHOq6xmw2w2q18g9mBDiHDJnkFicnJwCw8WwrxsVAOcBZh6IocHJygjiOm9u9eStWL1gkIVqTE5+qqlDXNayzcHB8wBrBGANjDKqqgrW27+bQDWGMQV3XjAvaIGNFXddwju9vHDrJLWzdzCNEcGdxITHBOYTc+pfkFkEQNKvc1/MIi2dPFoskRGsyEMlVH2cd4MBX9ZG/QmyMYfGMAGwmuExuCWidDK9/2sktDVSr+42zMHXdjBfMLQbNrQOjXSThWEHA2TxS1zXCMIQF46IvfNIcERERERERERFYJCEiIiIiIiIiAsAiCZEn9/rxTQS0jY+P9S8iol3a8wmRx3ggoiuQcxHFu216w2eSELVorRGGIeI4htasIVIjCAL/NgLGBQFNAiNjRRRF0Dz5IQUo3cRFFEX+TRU0YAqAg3+jjTGmmUM4XBA6uUXA3ILO5xZKrS/NMcd44lgkIVqTgWk8HiNJEr66kQCcJbfT6RTGGIRhyNVGAyf9nyQJptNp8+rGkNPp0CkohEGI0WiEIAiQZRmLquRzi8lkgjRNkSRJ302inskcIrkFAERh1HOrqG/t3GJ/f78pooURi6o9YVZHtCaD02g0gjEGcRzzZJh8gjsajeCcQ8iTYUITF7LiTH5o2GS+SNMUYRiyoEoAmriQopmz9uzqMONi0LTSiMIQWZb5PINxQUpv5hZKMyb6wmyfqEVrjSAIEAQBJysCcHbiI8URrTXjgnxRRJZKc7wgoIkDrbUvshMB2JhDOFYQgPXteXrjVl7GBSk0cwhv8e4fiyREa/Ju8qIoYIxBkiT+ig8Nl7XWx4W1FlmW+SIaDZe1FlVVoaoqaK2RJAmTXNqIiyiKEMcxAD7AdeiYW1CXcw51XaMsSzjnkKYpcwvaiAvmFv1ieYpoTQamk5MT3L9/H6s8h3MOzvHR0kPmnENRFHj48CEePHjgExrGxXBJQTXPcxweHmI2m6Gu676bRT1zzsEYg9lshsPDQywWC44TBGstyrLE0dERHjx4gJy5BbmzuHj48CGOjo5QFAXjYuAkt1gul3j48CFmsxmqqmJc9IQrSYjWZHAqy7K54mMtnHOs3hKMMSjLElVVwRgDB8fXABPqukZRFNBaw1rbd3OoZ5LI1nWN1WqFLE1hreVy6SFbn9c451BVFVarFYwxzZ9zChkstw4MyS2kwEokc0hRFFBKMbfoEWduog5JdFm1pTYfF2Bc0OY4wSSGRDsuOFJQG/MK6mJM0DYb8wiLqb1hkYRoC05a1MbCGRERfWmcQ4joCphz9o9FEiIiIiIiIiIisEhCREREREREdCPweYj944NbidZkQFJK8TVstEFiwloLtf5FpJTyP0TAWUzIw1oZGySUUtDMLahFKQWtVPMcX8YFrckcorWGcmd/Rk8WiyREa0ophGGI6XSKNE2RJAkHJYJSCnEcY39/H3VdI4qivptEPZMEJssy3Lp1C1EUMS7IF1PH4zHCMESWZZxDhk4BCgpRFGF/fx9ZliFJEr7ZZuCkmBrHMfYPDgAAcRz33Crqm4JCsM4tACAMQ0RRxHmkJyySELUEQYDJZAJrLcIw5FViglJNgru3twfnHOOCAABaa6RpijAM/RUfGjYpno3HY6RpyhWJBOCseMbcgtrauQUAP14wLgZMAWqdW0hxhPNIf1gkIVpTSsE5x6XStEGSliAIfHwwLkhioJ3YMi6ofbsN44IEY4K6zt2apxkXdJZbtMcL6gcvfRF1GGNQVRVfvUUAzl7DVlUVyrJkXBCAzbio65pxQQCauJA5xFrbd3PohuAcQts451DXdTOHWMYFNTFhrWVucQOwSEK0JpPV8fEx7t+/jzzPYa3lADVwzjoURYGjoyM8ePAARVEwLgZOkpjFYoHDw0OcnJwwmSFfIDk9PcXh4SHm8znHCvIFEsktlssl44JgrUVRFHj48CEePnzI3IIAB1hjsVwu8fDhQ8xmM1607RGLJERr1loYY5DnOebzOQcmAgA4NAnufD7HfD5HbWo4MC6GzlqLsiyxWCyQ5zmMMX03iXomRZLVaoX5fO5PemjA3Flc5HmOxTq34BQybO2ViMvlEsvlEnVd990s6pmDg3VNbjGfz5u4sMbHCz1ZLJIQEREREREREYFFEiIiIiIiIiIiAHy7Te/k3vb2Uir53/ZT0PlEdCIiIiIiIqLHi0WSnsi9iHme4/PPP8f9+/dxenrq70t0ziGKIozHY9y+fRt37tzBnTt3kKapf10YERERERERET06LJL0xDmHPM9x//59vPXWW3jrrbfw6aef4s9//rN/CODe3h6eeeYZvPLKK/je976HH/zgB/jKV77CFSWPiexTeW899zG1+XfWr38RcYUfdUk8yMUMxgYJpRQUL3JRC+cP2sXnnOvntTJOnjwWSXoiRZLDw0Pcv38fR0dHGI/H+OY3v+kPBHl7wvvvv4/VagUAePXVV/E3f/M3SNO0z+b/VVJKIQxDTCYTRFGEOI45KBGUUojjGHt7ezDGIIoiJjYDJyfBaZpiOp0ijmOEIafToVNKIQgCjEYjaK0xGo04TgydAhTOcoskSZAkCVhnHzbJIaIowt7eHgAw56SduQXjoh/M6noiRRJ5B/ZkMsHLL7+M559/Hvv7+9Ba489//jPeffdd/Pd//zc+++wzlGUJAHj66adZJHkMpEiyv78Pay3CMOStTQStNZIkQRiGcM5xwiIAQBAEyLIMSRxDaY0gCBgXAydFkr29PYzHY2ituSqR/MnwwcEBrLUIgoC5BW3kFgA4hxAAINABxqMR0jT1cwrjoh8skvREKYX9/X184xvfQJqmePnll/HMM8/g6aefRpZlUErh6aefRhAEuH//Pn73u9/h448/xqeffoqiKPpu/l+t9kNz+U5yauPqEWrzY8X6JNg5x/ggAABnDuqS8UGv5xGOFyQYB9TlwJzzJmCRpCdBEODWrVs4ODjAiy++6P+8fVDcvn0bQRDg8PAQeZ7jN7/5DT777DPUdf2F/93uib+8VYcFgbN9Y4yBMQZxHDORIX98yAOVGRcEnMVFVVXQWvuVRoyLYXPOwa7nkLB1BZBxMWwyh1hrEa2vDnO8GLZ2bgEAURQxJgaufU5W17VfcTbEFYnuBlxuYJGkR5dVCeX/M8YAaAZQeR7Cdcgrhq21MMZsFESccyjLEkVR+H9H/o78dNsj/+ucA9z2QN66Lc4Xaa69bXOD78a2FxV4zn22dRceeKauMZvNUBQF9vf3MRqN/D3F3c/9Iu29rM1fdB/7z7tg224bHknffYH+uMp3+9LbXqO9l21rrUVRFJjNZjDG4NatW0iS5NxxuK0/Lurnx9IfW7bd2YYv2XfX6udrtHfntl/iWHpUMdFta57nmM/niMIQk729c+Pz4+qPx3XcPa7+kG3lsx91f3zR8bU9v1227WX9oXTzvYwxmM/nyPMc4/HY33bTjYsrfe512vC4Yu1LfC5w8Zz7Zfrjsm2vGj/btn/U/WGtRVVVODk5QVmW2N/fx3g8Pvu3n1B/XHcevU5udZ3+uPBzO23e9bndMeWyz/5S++0aMXydOamdWwDAdDrdyC2+aH88zrn8yse+W2//iPfbY/vca36/i+K9+9nX3cfGGCyXSywWC//Mmvaz8B5XjtBu72XjxHW2vc7403ZRPz8pLJLcUDKAlmWJxWKBqqowGo38A+Gu8znGGOR5jjzPsVqtNg5uKZJ8/vnnWC6XsNairmt/dVQOKqXO3vgify5FlO6Bt2tbOUi728v9dvK92p/b3Vbu8W5v2y38tNsh9/5KG3ZtK59drxPc+XyOMAz93+8evEEQIAgC3wbZz91/X7Ztt7e9P7btN601FJrEyrqL9/FVP1fa2u074Hzy2O0PYw2sud622/bxF+m7IAg2vtu2iemq23b7ox2PF+1jOUYkwZUkpn0cbuuPXTEs7ZXJ4yrHknzuRdu2v5swxuzc9jr9oVvP3GjH+5fpO/n+0oZ2X1y2rbT3KseSbHvZmCL/xlX6TvbtcrnEw4cPm/vK11cB2/t/W390x4md21oDU2/fVvoDuDwmlF73hwou7Lsv0x/tY2nb9+s+m2NbEb67rVYaUqS8Tt9dNg52k9FdyW63P2QVwNZtdQDtNByalUWnp6c4OjpCXdeIomgjFq96LG3MB1fY9qp9t7GPZT5wFs66rdvump93fW6gNdDpu4va0I6Ji+bndn9c1nf+eWLrEyrr7M7j7qrH0nX7ox2XzjVxcXx8jDzPEYahb2P7M7v50qPoj23j4FX77qIxvlkl1cT8VfMwOPic5irH3a7cqr2P/batGL7KPHqVvtNaw1kL2xrf2ttvzXWveCw516wUkDnEObeRF8h+aO+LXavIpe+u2x8X7Ydd216Uh+06Pi7aFlj3nXNbc0e/j7WCdvps20eQF7e3le137YvufCDbbtM+7uTf3tV3285TyrL0c0iapn6FkeRVl/XddeeD7tx43XH7KtteNbfa+Fxjd55PPCksknwBl1XkrqJdXdv2+XVd4+joCB999BF+8Ytf4PDwEC+88AKef/755snoV2StxeHhId577z289957+PWvf435fL6xjST79+7dgzEGJycn+OyzzxDHMaIoAtAMEEmSIMsypGmKqqqQ5zmKovAPlBVaN09mzrIMSZLAWovFYoHVaoWqqs61McsyjMdjxHEMrTVmsxkWi8XWAShJEkwmE/9Ao/l8jtlstvUADaMQe5M9ZFkGrfXGg3K7lFKYTqeIogh1XaMoChwdHWG5XJ4rkgRBgPF47J9ILoWs5XJ5vg1hiDRNMZlMEIYhiqLAcrlEnufn2iwrhSaTCeI49tsWRXFugA3DEEmSYDQaIUkSFEWBfLnEasu28oDJNE0RxzHqusZisdj6uUopX4yTvp/NZv611F2j0cj3nVIKp7NTf1WkK0kS7O3t+fhdLpd+dUZXEAQ4ODhAlmWw1mK1WmE+n5+LNdl2b28Pk8lkY4LZ9uyeMAyRZRkmkwmUUs1+WxcQu8d0FEVIkgRpmvo2LBYLhGGI09PTjQlTth2NRojj2H9md4WWbJumKdI09X03n89RVdW5/tBaYzweb/Td6ekpVkUBu6UoNx6PfRsA4OTk5NzxLtI0xd7enr99aLFYYDabbR3b4jjGdDpFmqa+6Dqfz7dO/PLw4/F47I8libdue8MowmjdH3JVbde2st/G4zGUUr7oWxTFuWMpjmM/BkVRhOVyieVyibIsd24r+1i+W1VV57YNw9AfcwrwV4eVUv4WvfbJsPRHGIWwxuLk5GTrOCHHnRxL1lrMZrOdfZckCfb3931MLJdLzOfzreNgFEXY399HlmWoqsrHcXccVKp5i5O0ua5rrFYrH8dtWmtEUYQsy5BlGZxzftuyLM/FkBxHUuRfLBbI83zrPpZtsyxDGIZ+bN22bRzHvg1BEPhxYtu2QRBgMpn4zy3LErPZzL85rvv9ZBVIGIYwxvgT3C7pOxnjZXx9+PAhqqpCVVUbCXa772QeXS6XW8dieauWzLmr1crvi2574zjGaP2wP2MMVquVPz62bStzAtCMxavV6lzfKaU2+iMIApyenvq+29bP0gatNZaLRRNr61sVu30nY5v03Ww22znGTyYTvypHitbbxnjpu8lkAq01qqrCfD7fedxlWYbpdOpjQvqjO24HQeCv6sq4LXP0tjlXvl+SJD7Wjo6OcHp6CgDI8xxaaz+Xyxgk46vkS93+kL5I09SP26s8P7ePu9tKviS51ba+k/5QSvkxZVu+FIYh9vb2/PPz5Ptt6w/pu8lkAgB+fu4ed8oBOgz8saQDjbIo/Vix7QKN5BRRFG3M5d2+C9fbjtb9IduuVqsLc6soijZy3bqzj4Mg8Ps4jmMYY85yq6rauAYuebHMH9Y284G84VJOYsfjsc/ZJH6kn+fz+aV5sYzFs9ls5/w8nU4xGo3gnENRFBfmSzIOSr40n8+3jpmSW0n7ZT7oXpgFzvIlGTOvmi9JXtzuj21tkMJCVVVYLBYoy3LrMSpjlfSdjG3d9mqtkWWZ7zvZdrFYbM2XtuVWu/oujmPs7+/7z83zHMfHxzg8PMTJyYn/c2mnHHfSzxflS9JmpZSfO4qiODdOXDe3kn3c7ruyLM99v3ZuJeOr9Me5Y3SdW8m2ssJq1357UlgkuQYZUOQkd9vBfxmZwCVJkisYZ/8IfFHhk08+wa9//Wt89NFHiOMYL7744rWLJM41S8L/+Mc/4r333sNPf/pTHB8f+/+/XWl9+PAh9vf3faLZfvWU3G8vFU1JwrYddPKk7jAMEUURjDF+v3VPUqRy2H6Fppwoda8USUVUEokgCFBVlU9StiV3WZr579cuDnRJMUO+X13X/sBvF0lkX8jr/Nrbzk9PNyfF9UkggI1kQga29qAt+0AmXAD+NigZVLrbAkC8flVxXdfIt5zQSHvlf6Mo8if8205opFIdRZG/Z3pXf0jfydPZtdZ+224hUSrqso/l+207WQOaiXE8HvsiiZwIdk9S5HvJMSHbysTfJid2ssJBKeX7rluUkxMJiXkAPo6lze1qvRSJpB3yuXLi0e27dn/Iyc+2pDiKIh9v0m457roxL9tIAgbAx9q2/gDgTxjbE+62FVGS3MmxL8ddN9bke23btn2S0t5v0fok1NpmSbokYtJe2VZW8CRJ4o99maDbx5LWGsYYv61cxW3v4/a2dV37RKHdhu62sk0QBD7ejTFYFSvAOszXRWXZt1L0TNMUzp6Nmdv6Qz5P4l1irb0f2m12zmE8HvvxtSzLcyfP0h9ystbuD9lv3f6oqsq3ub3tYrE4t62c3Mo+lrGte5Ii44j0IQBU67Gtu48lxiU2pE0yVm3rOzkhbR/PRVHA1PXGeCyvdY+TGNpqn5DKCkp0tpX94Pt5tTo3pkibpVAifScn2+0xp31VT04Y22NKd5yQfSHzQftzu30XhiGstf47SsFRxsz2sSSfK/tNxngZr7b1nfSzzGHSH93jzlrrxzUAKKsKyy0JtByb7VuIpZ93nVRJci5XJLeN8e2+kzG+fdy1P7d95VJO7LpjfHcfy4lEu++646CsTLHW+gtNVVX540OW0cu/LzmHFOO6n9tuczu3avfdYn3st/dx+21sso/bY3x3vpP2yrHUPsHcVfSUmNg2xnf7TsZkyVXmnb6TfSwnr/K52wpRso9lHJRxe1sBWApRDkCyvuDR/tzuHNbuj20x0e4PiXOZo9uF/rqqYDrbyudLfHYvmkmRQ/pZ4qedh23LdeUkWtq2bX5u9102OsuLt43x8rny78sY1N7H3dy8PYdJP28r6sqYCMBfwNxVAJZ5QPZFu5/lfKLbd3JctftO4qfbd9JumUflc7u5ruTQsj/afdctOMo5nVyg2TWmiHbxpdsfcqxKji8FB5mfJS/elVtJEa/dd90CcHv+lPlOjtHVuhje3laO425/5J1ttdao13my7Ov2GN+NY2mvbCv9se3C1pPEIsk1GGPw8ccf4969e3j33Xfxm9/85toPUU3TFH/3d3+Hf/7nf8bdu3f9lREAgGuWWJ+enuK3v/0tfvzjH+PevXvY39/HSy+9hDfeeAPPPffctYokWmvcvn0bP/zhD/G1r30NP/rRjzarwLJq5fgY//7v/45PPvkE+/v7+OpXv7qxkkQGEwlkuRo2Go3OnVS1t5XJYzqd+hOAbVXMdkFGrlhvWyInFWjZVpKbXUsbJZEHmsHozp07O5f/yYQvf+/g4MBf+WwXSWRbrZtlqWma4tatWz55an+mTAgyCMnAKRN7t71ywt/ddttVLdnH7cFtMplcuK0khQcHB1u3lcGvXcDb1c/Sd3LSKn0nyVuXJJnyue2rtNv6TiZbuTrw1FNPbW1Du+/k37h165Y/Een2RzuupT1S8Oq2oV1UkZi8c+eOT+IkLmTbdj/LhLKtP6QNklTIpLDtWJKTCUkM5bt140f6TvoDgF+Ns21pY7vvAFzYd3JMSDzv6rv2CXS7IBQEAfb397dum8Rnr0CUPtzWd919LKsuuslPd1uttb8q2N3HSvqu1R+j0cj3+a6+C8MQzlrEUYSD/QOEYYinnnrq3EoS6ef2cScFi219J39fa+2vLnW141z+Dbm6vas/sjTbKObt6jsZ29vLvqMownQ63dhWYrF9QjyZTJAkydYkXuYBSWLHkwnidXu39Z3sNyk+yAnIRf0sx50cS9vG1ziOEUcxlG7GjNu3b2M6nW4tRCVJ0vSH0tCR3jrGd/tO9tdkMsHtp25jf38ft2/d9kWSdlFX/l57hda2fdw9luSEc9u2Epuyui5N062r02S/Sd/Jtt2EX9rb7o/JZII4ic/dUtDdFoAv5G1bji2xJidBMsZvy6mkP2TeT5Jk6xjf3lbamySJn8u3bRut29wuxLZPONvbSt+1i4Tb+k5O0uRYkivLt27dQhzH+MpXvoLpdHruOJKiuMRytz/aJ3UyZkr8dG/PaZ+QS3/syq3ax758brtw1LWxrTrru+4Y3+07oDlJv33rFvZ29F07fmQevShfaudAsvKhW5Br953kFlLMv0q+JPNCd7/JfCj9IfPcRdvK58q27dt47ty54/d7e1sAfmXCVXJdyVt39Z3MHRJnkrtt27Z9AVP6Y29vb+ttR7IvtFLI0hRhEJ7LVbp5cXt+3tvb29p37W2l73bluu0x8KJctz0GSty1c6tdfdeen+Wcpq07P2utd87P0o4szfzxOhqN8NRTT/mxPk1TPPXUUz6+0zSFDjSU1sjWbesed/Lvto/99j7e1nfdOTeKItR7exfnVq1t97Zs2/5c6bur5sVyjim5Zl9YJLkGay2WyyU+//xz/P73v8cvf/nLrUtDLzIej/G1r33tXDVPrvLN53P87ne/w9tvv423334bR0dHeP311/Hmm2/ihRdewNNPP32tf08O0PF4jOeee+7cAS0V0c8++wzvvvsu/vSnP2E8HvvJvB2cSin/gDo5WLadgPltWyeRo2wEl+14qF9rOxm00zRtHtjjLt5WlqDt0m6HDBoX3SpVlqUfBCaTCQ4ODvy/1/1cfzIUaT/hbtuu3Q5pQ5qlW79be1tJvLfe3qXQ9EXrc6WvrrKtTKZX6rv1qoCr9EeWZruLeJ12yJWoy9rgnPPJ9K6+axeyLurn7ndrrxjZti0Af0VS4mx/f9/frrPru7UTva33i7YeqnVh321p83g0hsP1jqVtuu2Q2+N2btv6CXSws++As/5on2w+qv5ox3ESJ7Cwlx5Lvg27YrjTH7v6rr19bermdqH1ElF5oO+u7yerCHfts27fyedetO3GsZQm574bgHNjdnv1R2fDrePERcdouy3+eN6xj6+zbXeMl/16lTZf2netGJar0RftY9mHchvSRdvKqos0TTHdm+Jg/wC3bt06P4+2fiTxvey7Xbgtzh9L0o5L+w7NuH3Z58rvL52fW8fShX2H88fHRfNzd79tK2zv2vYqfef3cRDuLCy3t5fC37b91t4WWN8GILeRaI2DgwMcHBwAqnklcHf/Ben2vuu2AcDO/ui2oTsfbHz2Otban32tsTg6e7vXRfsXuHx+7rahWQWy/bvtau9l3629QuOyfSxtuEpMAGerry6LCQC+mLJareCc8yf0fp+1j6XsgjG+c4xe1nft8aq9L67yudu23RZrsdaI4+R8rtIa1/y2F+S62/rjwtyqtX2gA0RhtDVf6m4LtPrugmOpe9xt04359u1xF23rnEOapBvFyTRJcOvgAOl6NU871w129PO29vqYuMJ3k7xt17HU3jZprfa5bNur9J3sBykYyYWPvrBIcg1BEODu3bv4+7//e3zjG9/AP/zDP1x4wr1NGIZ4/vnncffuXX+FCGhOxObzOT755BP8+Mc/xs9+9jNYa/H666/jn/7pn/Daa69trdJfxUWDm3POD1Jy4twejHYFZ3eSumyb7sB4lc+TCeKi7aWdF9k2gG/TXZIsg1H7IL/K51+pDVf8bt0/e9LbXqXN3X7W6tH0x0Vtuc7nf9lt28eDnGTuiosn0R/XPZauun8vO5ba2zm4C9uwqy2Xue6x5OCgoa98LD2q4279YedjQvZJu7uu0R/d/++q/dE0Z/d329WWq27zuMa2q4wpj3tsu05/XLat3FbUXn7enke2tVfm4Efx3S77e7u2AR7f/HxZm68zHzyJbS8b26773XxegbOr180q1KZAsjPWH1F/fNlj6VHt411/50qf+4hj7Tptvvb8jIvHFflzOe59IWg9dnRzC/lfvX4o60Vj/HX746pjyk04lq7TZv/n/n8e3dgmtNYXnv9dJ9Y29plq4sLPH0EA1Vqd+kU+9yrf7TrjxJPY9qI/e5JYJLkGuQKQJAmeffbZrQ8uu4xSZw/ok4qa3Ff2m9/8Bu+88w7effddHB4e4jvf+Q5+8IMf4Nvf/ja+/vWvf+FguWjAlhUsssSz+3euk0Be1obreFyffdm27aWIsozzsv3wqNvwRbf/S2vDdbfvc1u5ktS+daKv44P93P+2zjlopf3VDlmGKys2blp7b2I7/hq3lZOe9sP2thVJvmgbrrs9j+fHu+1VtldK+TdMyXJzuSVhV1ywP77Yto/rsx/LZ65/SW4hJ8YX5RY3YR/fhL67CW14XNvKHCK3NbefafUkY+I62/e9zx4nFkmuQQYxeQL4F32YjNzzqJTyD2n97LPP8F//9V/43//9X2it8corr+BHP/oRvve97+H27dsAzirP9HhI/x4cHPiHJV2lQEJ/3bTWiNf3wMvyVMbFsEn/y/247WWkNFz/+ervAAAgAElEQVRKKX/PvjxLZVdyS8Ohlfa5hTxgl3PIwClAB9o/XwcA44J8kUTebKSUQhRGjImesEhyTe2ltF+GrOBYLpd4//33ce/ePbzzzjt48OABvvvd7+KNN97ACy+8gNu3b0Mp5Z9S3X4gET16UihpV/Rp2JRqlkXL7WqMCwLWt5Up+PtxGRcEnBVK5PZVIgBbb6sgUuvcAjh/OwUNU3s1iQKgNGOiLyyS9MS55pWb9+/fx//8z//gP//zP+Gcw1e+8hW8/vrr+M53voM4jnF0dOT/jjwdeG9vjwnYY2Kd9a+8Y1WfgOZYtc6iKiv/EFmu6iLrLIxtXpMrCQ2TXHLrN8Z1b2NlXAybtcwtaJNzDs46FGVzEVTenMS4GDa5iM7con8skvTEOYeTkxN89NFH+OCDD/Dee+9hNBphtVrh3r17mM1m5ybROI7xyiuv4Ic//OEXfogr7Sav0MvzHGVZYjqdbjzMlobJOYeqrLBYLFDXdfNcoji59MFe9FfMAXAOZVlisVj4B1/3+RR26p/MIavVCqvVClmWYTwec/4YuPbK4aqqmFsQgCYuyqqZQ4CzN5AAjIshc86hKAosl8vmmSSauUVfWCTpibUWJycn+OSTT3B4eIjZbIblconZbIZPPvlk62tt9/b28K//+q94+eWXWSR5DJxzMHXzGuY8z5Ekib8nkIbLOYeqqnB6eoqqqjCZTJrj0zGRGSoHB7teDTibzfyrTr/sbZj0l83h7GT49PQUAHa+epaGQ1YXzedzrFYrpGm68/WhNAzyelWJC+cc0jTdmvvTcEihvSgKnJ6eIkkSpGmKIGRRtQ/M6Hoib8p58cUX8S//8i/45je/eenfSZIEb7zxBiaTyRNo4fDIpGWtRV3X135zEf31kmSmrmtYZ/2r7Wi4ZKwwxsAY03dz6CZwm3EhcwoNWKv7rbUwdd089N+BqxHJjxUAOFaQJ+chYRjCgnHRFxZJehIEAZ555hncuXMH3/3ud1HX9aV/RymFMAqbpf5ERERERERE9EixSNIjeQI+Xx1JRERERERE1D8+CYZorX2vH+/7oy7/lor1LyKiXfhWG9qK8UBEVyAv71C826Y3XElCtKag/PvJ5U0VTHAJaJ4hFIYhrLWMCQLQJDBBECAMw41XvdJwtecPvu2IADTPHXFn44WPCw4XgyYXWyS3AMDxggBs5hZBEJwVS5hjPHEskhAJdfYKNuecf0UfDZtMWFEU+ZMgGjZJWGS8CMMQWjEuaP3ssDBEHMd+zKBhk7EiiiLmFtRQzU/7lntemKN28UzmEOac/WGRhGhNToan0ynqukaapqzeEpRSiOMYBwcHsNYijmPGBUEphdFo1BRItPav6KPhkpPh8XiMJEn8WEHDJoWz/f19GGOQJAnnENrILQD41/8yLgZMAUorZFnmcwuuVO0PiyRELVprJEmCJElY1ScAZ8WzNE0B8GoPNSR54XJYaguCYKNAwquABDTjRZqkzevjOVYQmFvQdkopRFHkiyOMif6wSELUYq1FURSw1iJJElZwCc45GGtQFiWstciyjMkMwVoLYwzKsvRLYxkXZIxBVVUwxvjbbhgT1M0tePJDwFlcAODFOQLQ5Jx1XaOua7/aiHHRDxZJiNacc3DOoSgKFEWBQAcIg9Bf+aFhcs6hrmrkeY66rhGGIZIk6btZ1DPnHKqqwnK5RBRFfJU7eTKHtJdMcw4ZLuccjDFYrVa+qCrPJWFcDJe11s8hQLMKTZ6Jx7gYrm5uIXMIPXnc60RrksgsFgvM53MUZQEHvntr6KSqP5/PcXp6CmOML6jRMLULqvP5HMvlEnVd990s6ln7ZPj09BSr1YrjBMGhWY24XC4xn89RlmXfTaK+ubPcYrFYYLFYoK5rjhcD184tFouFvzjHnLMfXElCtOacg7UWdV37ZbGs6BMAf1tFVVUw1jSri/gOx0GTBFeuDDOBofYcUpalL6jSgLnmx9nm6nC5zi3gwNcAD5hcgJPb8+T3RFJsL4oCSilYXqztDVeSEBERERERERGBRRIiIiIiIiIiIgAskhB5clsNnzpP2/j4WP8iItqlPZ8QeYwHIroCORdRvNumN3wmCdGagoLWGlrrs6dJM58hAFprRFHEZ9SQp5RCEAQIw5CvCicATUzIm0vCMPRvMKEBUwDc2XgRMbegliAIfG7BN5gQ0Bor1m+2YW7RHxZJiIRqBqcoimCtRRAEXDFAUDibsBTARIb8FZ4gCJAkSRMbTGQIZ3NIHMdMcAnAWfFMXu/K4hnJHCIXYADwVeHkyXjRfoU8Y+PJY5GEqCUIAkwmE6RpijiOOTARlG5Oevb29mCN8SfEjIthU0ohSRIA8KtJaNjkpCfLMgRBgDiJOU4QgGaMGI/HG7kFDZsUVPf29gDAF0sYG8Mlc0iaphurEhkT/WBWR7QmV4ZHo5H/bw5MpJTyCS7AlSTU0FojSRIWU2lDEATIsgxpmjIuCMDZiY/MIYwLAphb0HbMLW4OFkmIWqy1KIoCxhgkScIKLsE55+PCOYc0TblcmuCcQ13XKMvSJzVMcskYg6qqYIxBFEaIYt6KRWe5hbWWuQV5EhcA/BzCuBg25xyqqkJd1/52LOac/WCRhGhNTobzPPcnPlxCTzJhLZdLGGM27hGl4bLWoixLLBYLxHHM27DIK4oCq9UKo9EIQRhwvBg4yS1Wq9VGbsEHgQ+bFNqXyyWAZhVaHMc9t4r6Zq31OacUSDiH9IOXvYhaJJFZLBaoqgrOOTjH928NmXMOxhjkeY7FYoG6rhkXAyf9X1UV8jzHarWCMabvZlHPZKwoigLL5RJlWfbdJLohZA5ZLpc+t6BhkyKJxAVzC2rnFsvl0ucWjIt+8DI50Zq1FsYYlGW5MTCxekt1XWO1WjXL6K2Bg+ObjwZOEpnVagWgGT9o2GTFgMRFlmWw1vI2rCFzZ3FRliVWed4UVB34GuABk5Peuq797TYstBNwPrcwjrlFXzhzExERERERERGBRRIiIiIiIiIiIgAskhB57dtqeIsNdUlMqPUvIqJd/HjBuYTaGA9EdAXyIHjFR5H0hs8kIWpRSiEIAv8GEyIA/m0E1lqe9BCAzbGCr/MkAIAClG7iQt5IQAOnADjmFrRd+y2KjAsSEhdBEDC36BGLJERrSilorf0r2Dg4kQiCAGma+pMfGja5whOGIbIsQxRFTHAJCgpaNXNIlmWI45hzCPncIlnHQxiGfGjrwMkcIrkFwCIJNbTWiKIIaZr63ELihZ4sFkmIWoIgwGg0QhzHiKKIt1XQxslwkiR+1QAnrGFTSiGOY4xGIxbPyAu0RpIkPj44ThDQ5BbZaITYGK48o4YCwqjJLQA0OSfjYtAkt4yiCKPRiKtJesYiCdGaDE5ZlsE511RvNQemoZNlj+Px2P83JyySREaWSrNwRkopQGskaYo4jnkFkACc3WozGo3gnONJDwEAtNIIA+YWtEkK7FI04wqj/nDPE3XUdY2qqvx77GnYJA6qqkJZlowLAtDEhbUWZVmirmvGBQFo4sKs5xBjDMCQIADWWp9bWGs5VhAA+NyCOSeJdm7B8aJfLJIQrTnnYKzBcrnEbDbjCTEBOEtiFosFZrOZT2ZowBwA51CWJebzOfI8h7W271ZRzyS5Xa1WmM1mKIoC1jHBHTrnHIwxfg5hbkFAUziT3GKxWLBQQgCa8aIsSywWC6xWK1jD3KIvLJIQrTnnYI1FURTI8xx1XffdJLoBJMHN8xx5njdXh9d/TsPk4GDXxbM8z5uTYRZJCM2JT1EUWK1WKMuy7+bQDeDgfFzkeY6qqvpuEvXNnc8tOIdQe+XyMl9itVrBWMPiWU/4TBKitfYSt9Vq5ZfQ8x5RMsagKIpmCb01cHB8qC+hrmsURQGlFBNc8olsXddYrVZI0xTWWt5TPmSu+WnnFv42LE4hg+XW9+EZY/zKIl6YIwA+FsqihFaauUWPOHMTdUixhEjIyQ8r+STaMcG4IMGYoF2cc3DMLaiFYwVtI+ch1lo4FlN7wyIJERERERERERFYJCEiupL2bVe81YaIroIjBRERXZe8Pl5xoVFv+EwSojU5CVZKIQgCPouEPK01tNZNXPC0h9CMExtxwfGCsBkXSimAcTFsCv410FpraI4V1CJjBQDGBXmSV8g8Ij/0ZLFIQrQmxZE0TaG1RhiGHJTIx8VoNEJVVT4uGBvDJf0fRRHG4zGiKOLDOckXSJIkwXg8RpIkHCfoXG4RRRGXGA2czCFBECDLMgBgsZ38HBJFEbIsQxzHCIKg72YNFoskRC0yYcVxjCiKeDJMUEohDEOkaYokSRCGHDYJvkgyGo0QBAETGdookiilEMcx5w/aOBlmbkGiPYc455riGbiiZOjacRGG4dmqRHrimO0TrUnSIq9tlESGhq29ksQ5x6s9BAD+JFiWSzORIQC+SBKGIVedkae1RpZlsNZylSoBOCuqciUJtUluIfHAVar94Z4nIrqIO3tQq3MODnyKFp3H1zhSF2OC2vi6V7oQQ4PWOFbcDCySEK3Je8nn8zmOj49RFiWc5UA1dNZZlFWJ2WyGk5MT1FXNmCBYa7FarXBycoLFYgFjDONi4JxzsMZisVjg+PgYeZ7DWsu4GDjnHOq69rlFURSMC4K1FlVVYTabYTaboaoq5pwEay2KosBsNmNu0TMWSYha5MRnsVigrEquGiA452CMwXK53JiwOGkNl/R/VVXI8xyr1QrW2r6bRTeAsQZFUWC5XKIoir6bQzeEtRZ5nmO5XKKqqr6bQzeE5BbL5RK1qZlzDlw7t1gul1itVsw5e8RnkhCtyUqSqqpQVZW/0sN7RMkYg7quUVUVjDF9N4duiLquUZYltNYskpBPZI0xKMuSVwAJwFluIeOFtba5tYKpxWC1x4q6rgGAcwgBOFt5VlUVc4uesUhCtCaTlkxcTG5JSEwYY+DWvxQz3EGTscJayySGvHZM8OoftRcGWGthmVtQi4wX8nsi4CzntNbCMdXsDW+3ISIiIiIiIiICiyRERERERERERAB4uw2RJ88eUUr5HyKhtW7iYv2LiGMFdUk8aK39fxMB69jQvDZJZzh/0C4+5+RdWL1hkYRoTSmFIAiQJAmUUoiiiJMXQaGJhdFohDiOEQRB302inslJcBzHGI/HjAsCcBYXSZLAGIM0TTmHDJ1q5pAgCJCmKbTWiKKID20dOCmOhGGI0WgEAAjDkOMFbeQWURQhCAIW03rCIglRSxAEGI/HSNPUF0k4MA2b0k2RZDwew1rLuCAATZLbTWRo2KRIkmUZgiBAHMccJwhAcwIsuQXjggD4i3Hj8RjOuaZ4Bq4+GzLJLZMkAdCMGyye9YdFEqK19uBkrUUY8vCgzavDzjm/BJKGrb3aTGvNuCAAZ3ERBAGvABKA3bkF42LYZO5I0xQA/C16NGzd3ILjRH94FkjUIrfchEEAMLmlNa21T2yZyBBwluDKVR6OFQSs5xAdINCacwh5kluwcEZt/tlFABRPiAmbt2JxrOgXiyREa/Je8vl8jrIsMZlMkGUZB6iBs9aiLEssl0vUdY39/X0ulyYYY1AUBZbLJcIwxGQy8SdANFzWWiyXS+R5jtFohCzLeDVw4CS3OD09RVVVPrcAuJpkyJxzKMsSi8UCzjlMJhPmFuRzizzPEQQBc4se8ZIoUYsUSU5OTlCWJZxzcI6Plh4y5xzqusbp6SlmsxnqumZcDJz0f1EUmM1mWC6XMMb03SzqmZwML5dLzGYz5Hned5Pohqiq6lxuQcPmnENVVTg9PcV8PmduQb7/V6sVTk9PsVwuUVUV46InXElCtCaDUG1qGGOa/4bj614J1loYY2CMgbW27+bQDSExwbgg4Zzz44W1lokt+dxC4oIxQd2YAMA5hACczSF1XSMIAo4XPWKRhGjNV2odzhIZB76qj/wVYmMMHFg8o80kl8ktAedjglf/CK3ut9bCMregFhkv5PdEwFnOaa2F4zjRG95uQ0REREREREQEFkmIiIiIiIiIiACwSELkyZOj+cot2kbiQn4R+ZjgeEFr3ZhgbJBQYDzQeYwJ2sbPJbwLqzd8JgnRmoKC1hpJksA5599RThRFEdI0RRRFCIKg7+bQDaC1RhiGSNMUSZJAa15zGDqlmjkkjmNkWcbXeZJ/7ogONJI0BZRCGIZ8HsnAycWWMAyRJAkANHFBg6eUQhRFfg6R1/9yLnnyeEQSCdVMUuPxGEmSIEkSrhggqHVSu7e3B+ccoijihDVw0v9pmgJoxg0muCRFktFohDAMWSQhAM0JcRiEmEwm/sSHBk4BSivEcYy9vT1/YszxYtjauYVSCmEQ8MJcj5jVEa21Bydrrb/aw0lr2LTWCIIAWZbBOccVAwTg7GqP1ppFM/KUUv7qH68AEnBWPGvnFowLkrjIsgwAfG7BuBg2rbUvmGmtfY5BTx6LJEQtSikEQcATH9rQLoxwwiLgrKgqV3k4XhBwduLD59VQW/uEh3MICeYW1KWUglYaURg2bwpnTPSGRRKiNXlf/WKxQFVV/rYbDlDDZq1FXddYLpew1mIymXBZLMEYg7IsURSFX2kkKwdouKy1yPMcZVk2z6tJE2jFk58hc87BGIPFYgFjDEajkX8OBeNiuNq5BQCMRiPmFgRjDIqiQFmWzC16xiIJ0ZpzDlVV4eTkBHmeIwiCjeX0NEzOORRFgePjY1RVhTiO/fMnGBfD5JyDcw55nuPo6IgP9SUAZyc98/kcp6en2N/fb54/wbAYNOccyrLE8fExitUKX3nmGcRRDKU5fwyVzCGSWwCbz7ZibjFMEher1QrHx8dIkgRhGPJWrJ6wSEK0JoOTtRbGGDjH925RQ64EGmNgnYWD40N9yY8V1lqOF+QxLshrdb9zDsZaWGv7aw/dKO18k3FBADbOQziH9ItPICTqkAGKAxMJiQkmMSSkqMrkltracUHU5pyD41hBHRwrqKudczpej+sNiyRERERERERERGCRhIiIiIiIiIgIAIskRJ48EImvbaRt/Cs917+IBMcL6mrPJ0Qe44GIrsDnnLwbqzd8cCtRi9YaQRAgjuON99fTsGmtEUWR/z2RUgphGPq3HfFkmKAArRXC9ZvR5E0VNGAKgNscL7TWYJ2dAPi3KMrviZRS/jyk/YZN5hhPHmdwojVJYqbTKUajEdI05aBEUEohSRLs7+/DOYcoijhhDZz0f5qmuHXr1kaiS8OloBAEIcaTCeIkQZIkLKoSlFKIogjT6RTGGKRp2neTqGcyh8RxjP39fQDwuQUNVzu3kIu2LLb3h3ueaE0Gp9FoBGstgiDgyTD5qv54PIa1lhMWAWhWFMVxjCAI/JUeGrZ2ghvHMQId8NY8glIKWmuMRiM455hbEIDN3AI4W6XKuBg2rTWSJEEUhlBaM7/oEbN9ohZJXLi8jYS/L3QdF/JnRAA2xgrGBSmloJUC5JYKxfGCzgolzjmOFQQA5+YNxgW1KZ6H9I7rQIlarLVYrVZYLBao65rvrydYa2GMQZ7nWC6XzXvrGReD55xDXdfI8xxFUTAuCEAzXhRFgeVyiaqqGBMEYDO3YFwQ0MwhxhisViusVisYYxgXxNziBmGRhGjNWou6rnF8fIwHDx4gz3M45zg4DZxzDmVZ4uj4CIeHhyiKgnExcM45WGuR5zkePnyI2WyGuq77bhb1TE56TudzPHjwAPP5nGMFwTqLsipxfHyMw8ND5CvmFoPnzgqqDx8+xMOHD1GWJeNi4LblFlJUZVw8ebzdhmhNBqeqqjaq+lzqRnVdo1gVqKoKxho4OD5rYOCcc36sAJqEl4atPYcURYG6rmGt5cNbh8w1P842xfZVnsMa2/w5p5DBcmhOeI0xKMvS/56om1sYx9yiL5y5iYiIiIiIiIjAIgkREREREREREQDebnNjGWNQ17Vffqe1RhRFfBUUERERERER0WPCIskNVNc1Hjx4gP/7v//D7373OxRFgbt37+L73/8+7t69i/F4jCAI+m4mERERERER0V8VFkluGHnV6EcffYT/+I//wE9+8hPMZjO8+eabGI1GGI/HSNOURZLHoP3O+iAIuGKHPKUUtNbNSq71Lxo2GSskLogUNmNCYoQIaFYEa+YW1CLjhfyeCIA/D2lyTgCK8dEHFkluEOcclosF3vnFL/Czn/0MJycn0FqjrmuUZcknXz9mSilEUYT9/X2MRiOkacpBiaCUQpIkuH37Nuq6RpIkPPkZOOn/0WgEpRTCKEQURX03i/qmgDAMMZlMEEURsixjAW3oVFM8k9xCLnQpzfljyGQOSZIEt27dAgDEccy8YuCkaDYajaC1RhiGiKMYWnEe6QOLJDeEcw51XeP45ATvvPMOfv7zn8MYg9u3b+Pk5KTv5g2CVG6n0ymcc9BKM5EhaK0RxzHCMPT/zUSGgiBAmqZIkgRQaMYLxsWgyRwyHo99AY1FElJKIQxD7O3t+f/mWEHMLWibdm7BsaJfLJLcEHVd409/+hM++OADfPjhh1gsFnjllVfw7LPP4ujoqO/mDYa11v8gALTjpDV0zjkfE8655oQYjIuhc8752FBKwWnHmKBmnFiPFzoI4Bzjgs7mEeccAsYFrfl8c42FEurmFny8Qn94ieMGsNaiKAr84Q9/wHvvvYejoyOMRiN861vfwquvvuqvPnwZ7RM9a85+XKso4Jzb2H5oZGAqyxJFUcAY4/+MhqsdF2VZwlnn/5yGS1b/FUXRxAXHCkITF2VVYVUUqKqKcUFNDFiHqqqYW5AnubfknNZawDG3GDI5V2vnFnJ+NrS4uAnflytJematxWq1woMHD/DTn/4UP/3pT/Hiiy/iW9/6Fr7+9a/jt7/97ZeuKltrYeq6eaXwlmJIURRYLBao69r/mbUWxpiNf7v9YFM5YHcFcXtbacOj2BbAxkOurrOtfK+LGGMwm82wWq1wcHCA8Xi8dbl0+1YcSYActrejfWXgOvvt2tte0IbH3R+Pq+++SBseZX+IoihwfHyMuq7x1FNPbX1ezUZ/2PXnXqE/HldMAFfrZ/n9VffxVfbZl+q7x7AvLmvDdftOvlee5zg5OUGSJJhOp+fuKX9cx9119gPwxfvusn3ht3WAdc3Y+ij64zptuEljpnMOxhicnp5iuVxiMplgOp2euzp81f74suMEsL0/2sf9Zf3xZcaU67b5ovn5uvtC5prHvY+vum1ZlTg+PkZRFLh169ZGbvEk5wM4XHg8y9+79BhV2j9M8tI5V/Il1+qPHudGv92OffEk27BarXB8fAwAODg4QJZl5/oNwMWfC0BdI9e9znwgx1J7PLlsTLlSm7/Afntcn/u4tr1Ke4Hz/WGMwWKxwHw+RxzHPrfQSgHrY8nH745jqdvei9qhmgcnfbHvd0Ebvux+u8q+e9xYJOmZtRb379/HBx98gN/+9rc4Pj7G888/jzfffBPWWvz+97//Up/vnEOxWuHh0RGOjo4wm81QleXG/19WFR48eIAHDx74VS3L5RLWWr/MS57WH4ahXypaVZUvprRt27auaxhjzk28SjVLyWRbpRSqqkJd11sPjiAIEEWRb1dd1zuv1mmtEUURwjD0k8auB+Aq1dwzbK3FcrnEbDbbeZ+o1hpBECCOYwBNH0qbu+Tp1FEU+cSjvS92bau1hjHm0m3DMITW2rehu3Sz3V7Z1jm3szot+6G9bVVVO698hWHo2yt9J/3RFQYBwnXfSUxIm7va9+rKd5J2bNs2iiJEUeS/07Z+lsleYgjAxj7+/+y9W48kx3H+/WSdq08ze+CSlEWaFClTJmzRkl4fAMMQ7P+FLvwR/QV8bd/bgG3AgmXZogWSsikKkAmLIrncmenu6u46Zb4XVZGdXVPd00Pubo9Uz2+xmN3Z2JrsjMiIyMiszD5bE1suyxKLxQKbzQZRFKGu653iWVd3Vd0UJfv04fu+1YfYxNPUndgaABRFYcdSty+kH1w979Od2Lvv+3bMS799Wd2JPsTeZIxKX/Tpw+03acO+Pu6OJflsN+njkKzr1+q6tgluFEXwPA9xHO9MNFx9iO76/IToQ4osh2SlzfK+soylqiyhj9BdVW1ts08foTNG9+l5R3d+AAOzo49DuoMC6uqwrPSx53koq/Ko57q665NVStl4IOPuUDxwZW/SnegZaGLScrnEkydPUFWVHcNiF77vI45ieL53lD6+rO5Eb4d058bRffHZlRUf3yfb1Z1Saqe9++KzyN5WH7IjY68+ohAKCkZrFHvic9+4c/OPvn6TMV7reseOu5+t6yvyPMfFxQWyLLO24NqG+HgAe3MrN1/yfA8w2Ktn0Uc3Pve1t0/2pvh8m9xK4jOAo/IwN1/al1tJH4vu3PHRZ2tuPDiUh7m6k9jo5gjH5kt9Y7Qbc/M8x3K5xBdffGF/dl3X1q91x/Oh+LwjW1coi8O5lcgek1tJLiz+dZ+t9cXnvtzKa20+avUs9rtPH/L5unHfbYeb37l+ws2t3Ha4uYeru765h9sGNw87lFtJTnBTrhsEwTXZVbv4cnFxYRfkkiSxYyMIAsAAta57x4e0wcZcYEfPfXOwa7orS9Sd3Epk3TmNG3O7sm4fKyjb3r78VX6+tFd20pRlea3PnicsktwScSrHVGD7EMORScx6vcZPfvIT/Mu//AuUUvjud7+LN954Ay+88IKtLn8VtNb44skT/OQnP8G7776L995779pBsLKb5aOPPkIQBJjP5/j0008Rx7FNYMIwRBzHGI1GGI1GKIoCWZZhvV7breby+XzfR5qm9oYYrTUWiwXW6/W1hNvzPHvInVxtvFwssMyya4Hf8zykaYrJZGJlsyzD1dXVNWellEIURc1NNWkK5XlYrVZ2JaeL7/s4Pz9HHMf2NqFuQiNVTt/3MZlMcHZ2BqCZiC4WCyyXy51+kACaJAlmsxnCMMRms0GWZVitVjuOze3j2WyGOI6t7GazQeEUtkQ2SRKMx5jO09EAACAASURBVGOkaXqjrOgjjuOdCX83YZJDB8fjMeI4htYa8/nc6q777ux4PMZkMrGJ43K5xNXVVW9ASuIYs7MzpGkKAFYfXScobT4/P8dkMrGT0aurK2w2mx056ePZbIbZbGZtebFYIMuyXtnxeIzpdAqlFDabDVarFVar1TVbkz4ejUb2ucvlEr7nIXZ2kohsmiQYt30h+pDtkl27dPUhz82d7fkiG4g+2tsyqqqy/dBNKER30+nUFvDm8zkWi0Vv0B+NRtbWjDFWd32JuZzAn6YpqqqyOyi6n036+N69e5hOp6iqyupjvV7vyEoAnU6nmEwmto/Fr8hncyeAMv69djyv12trx+5ni+PY9nEURVbH3aArCaMru16vsVwuURTFjqzYpfgrYDv2oZoE0t1JIp9tPB4jDEPUdY2rqytkWdabIIzHY+snZNyJ7lzED4q/KsuyWXVaLFB02ittvn//PtI0RVmW2Gw2mM/nO37QnZBPJhNMJhOru+VyeU13kgTKtfTGmB19dMdSkiS2jz3fsz6wW3gQ3YlfC4IAq9UKy+XyWjLotlcSSPET3WRQ+mE6nWI0GiEIAhRFs7K/Xq+v6cO1S3fcLRYLdPF9H6PRCGdnZ/a5WZbh4uLCfj6ZeMnnu3fvHpI4Rp7nO/bW18ez2Qzj0Qh5nu/4iq6sxOfxeNwk2q0+7Db+HlnxxaLj7uRVDhAUWYm52WqFqkcfcRw3+kib+LxarbBYLK5NrMQPzmYz+9z1eo3Ly8veV9fCMMRsNrNjX3Tn+nhXd7KDx/d9FEWB+XyOLMt6E/40TXF2doYoiuykdbVaXRv7QdtvZ+24K/ICq9UKWZZd010QBNu+SBLkeY75fI7Ly0vM53N4nofNZrMTZ9I0RZqmdhVZ9OG2OQgCpGlqdWJg7K6lbm7l5mFpmkJBYblcYrlc9sbyJEkwmUzsTgZZLOqb3EluNR6PAWx3Wrp+wtXd2dkZJpMJgMZnih90ceOz6C7Pc/v5uvYjudXZ2ZnNrcTmXX1InHF3+9m4v16hLK77eMmtoiiy/nWz2ez0hbTBjeWyi6wvXxJZud3IGIP5fI7Hjx/jyZMnVna5XCIIAoxGI2s/AJBlGebzeW+uG8cxztzcKltdi8+u7iS3kph7dXV1zcfL55tOp/aVfzeWd+1H2jydTu14Fn10/UTQ5kuSq4is9LErK/oQX+zmVt18yc11RXeLxQJ5nl/TRxiG1l9GUXQwt3L1EccxdK1tzt+X66ZpitlshiSOoY1BlmVYLBa9+kiSpIkHaYq6LZA8efIFHn/+GPP53NpVkiRWd+Px2O5klVze7QfRx2QysWPU7eOun7C6m0zheR6yVdabW0mhSOxY4vO+3Er6eDQaWd25uZXbb1EU2dwqCALrM5fL5UlvdmWR5BZI4vrkyRNcXFzYyeBtCIIAL7zwAr72ta+hqio8fvwY//3f/40PP/wQ3/nOd/Dd734Xr7zyCsbjcW9C9mWQ6qS89+gmWJKMyKqMrP7K97XWtkrfTdble+6/uduq3L5xn9fts53nNjvIrFxX1g1Q8n/ddgg7W7sawR35LlLFPea58mzVNHfns/X1g/v5jDFATz/sk+3rsz7Zrrwr21dFP+bZptNn+/rYxf1Z13TnPM9tR9+Ky6H2unJdWdG37pEVHff9/H122dcO3VMgtXZ2RP9229tth2tD2vOgO3L72tynD1eXfZ+v+7uvH6TN6LQBQK8+DvWxK9t91r5+c2Xdr/Lz9/mJL+V/Dsh2x4bntss0r5t0+6a7s6PPV9jPuGdM9/mrPrm+VZ+uze+zB1d33bYekt1nP4fsUmHXxx477np9im7O1dr5+76x1BPD9umjbyFkny7EPvueK8+yYwiOHWPXpg7pw3Seu0/PrkyfPvrGaJ9vcZ/dG2sO+EwZD7IN29WFq4/e5/bowm3jvj522Tde9uUwffQ9Wzu+35XZ9zn2fXXbcig29z17J3a0ydJNsvb76rDsvn4/Rh/75Pr6cl+f7ZPt+/4xfet+tj7ETvf5BGMMVOd713KNHh+xr83Xxn+Pf73p8x6yt25/dP+87zl9fWaMOZhP9Mn3/by+9jb9vr+9+/7e19d9Mb6PfW0+1gdd+7/YP0Z3/q6anWyHxof1zdsHwGhj84mu7+z7Wd1+2NcfN+lOfu3rn0N9eCiGdtvT/bd97b0LsEhyC+q6xq9+9Sv86Ec/wk9+8hN88MEHvZXBQ4xGI/zFX/wFfvCDH2C1WuGjjz7Cxx9/jLqu8eorr+AP/uAPMJ1O7Qq0VI21brZKle33ZHvUTXiehwcPHuB73/seXn/9dfzVX/3VTrXPmGaL2ePHj/G3f/u3+PDDD3F+fo6XXnrp2tVk7nZFWQWSarRr3DtbEH0Pnmmu1ZXq585AUEDgBzuv0EynU1tp7w4a2W4msrJKKwmDi+/7zf3ifrNzR1asDm0JNcbYlbb79+/bHQduImz7oW1DkiTwPA+TyeRaP7grgtKGIAgwaldfu+2VFTZXVvq4q1d3C6LsrJlOp72vP7lbBT3Pw9nZGabT6V7dhUFgb2aQFaOuPtzto9J2q7sefXRfzZGK8b6ilfvqgvRF3y4H6TN5btqu+s06Bx67FXbZ+isV7ul02qsP6S+p5BsYPHr0aOe9YVdW2iHtlT7uPtd9hUbsR9rgtqO7JVR5Hs7Pz3tlre7C0G7Fns1mdsXR1Ud3SyjQjDvZVdJFxoS7zVJeO+rTh1yLKysUslLTle2+WiGrOtPZ9Fp73b4AYGWvbedVgO/5OzYvbbg2sWv9j7vVVGyibxLo6q6ua8RRZPvtwYMHO/0pPkX6SyllV1T79CGvCHhqO0ZHo9F1fbRtjuMYnmr0ISuOfQUudyxJ+/bpzu2zuN2SLauU+3QnW+6lDcds55WdasfI7tUddrfourqTz9YdS+4rG7Kjo2trXd2JX3FXzruysmUagN3dcv/+fZydneHBgwfw27HbHXfi6/fpzpWVnZ3Sxy478dn3bB+ORiNUdbXz+bqvggCwO3f26cN9hUZWwo+V7dOz6M6NHUmS4MGDB6h1fU0f3VdzrO56DrUX3YmeZddDNz53+9jd3SK7B7eCsONSxpLoI03TvbKufqfTKe7du4coivDiiy/i7Ozsmr2L7sRnHcytHL+9T3bnFZpWVtrbm4cFoc2X7Fjaow95ZQNo4rPEyS6u7oAmX1K+16u7ne35Tl4z7uRLh3IryTNd2W7+KjvPZKdqtw07frD9e1+u25UV+zwk68Y78avS3hdeeMGeVePmSwC2uxiM3ptbSR93/aCL61PcXGXf6+KunxDZ2Wx2TR/dnDRNU5tb9emjT7ab6/bpzpXt5kDd2CH/dzKZXOu3bm4l+uiT3cmtWj9+bG4l9iA7s/v6WHyK5Es2bkex9Ytis+5zR6MRwihEXR1+lRnY5kvH6G5fbtUnuy8+d2XFfsIgRD2te/URSntbHy/zxmPmus8KFkluiat0NyE+ljiO7WT8s88+w89+9jP88pe/xGeffYb/+fBDTGczKKXs1q/33nsPT548wXq9xn/+539C1zV+97XX8Oqrr+Kll16yA2Af4oBefvllPHr0qLeamec5PvnkE/zjP/4jPvroI7vVMI5j+EFjnLL6J8FJBoBgHGvvygKA7650dTy8wu4hVVEU2UG1T1aeL7JdOSvbOZDI9/29BwzBNFtBRb+jdms/lEJ3sdBT3k47ZEtkbz/0tcGY3s/m9tttZUUfvX3mtAEAkjjZVoxv0IckRIdkpS1xHCOMwt7u7crad5r36c75XOLw9+lO9HFIz312qZSyZyrsk5eV4CAIEEex3XbZCvU+200sbuozpRTSJO3VR/e5HgC/LSAeerZSjb6TOIGO+1fSbj2WHH0cJYvt+6t9uuvTh/jXvf3g2LF97hHjw32v+hh9HNRd2wZjDLx2kiTbgeM4FsHez2cLiD30jaUoim7Wh/GOlz2gu772hrfUXRiE18aSKytf9+njq8q649mV75MF9uuj+/nsZNj07CRxZGUFVl5FkleXPN+H6rEJmWx3dSdy3TbIZOEmWWC7O7KvH7p90Sfb1w9AE59vkpWvru762tE37o7RBwyQJik0+vXR9fF98bnvue4E56bPJhOym3QnyCuAxhj7mmq3nQCgvMP66Mofozv5GrX2c4zsMfHZ7bs0TQ/KuvKpl8DExz3X93yY+Gafsi9f6pOVOHOMrG3DbXzKEbozxlibkCKQvC4LYCe/ljbf5Lfl67G5lcgfGnc3xcZ9/kfyoEN97NrwsbJuG/ra4coCsHp2Zfv6AThed67sMfn2Pt3J8zy1Pa9K/s94PEZZlja3kLNJevvthlzpy/TxsbKH4nO3Db7n98bnrj6MMfYVue5h+M8bFkluge/7eOmll/Anf/IneOONN3BxcbF3K98+giDAyy+/jIcPH+LnP/85PvnkE3z22Wf43//9X/zd3/0d/uEf/sEaibxL+/nnn8PzPPz93/89fvazn+EP//AP8f3vfx/379+/sUgCbJ2KG0y7uKsCwHa1SQav+yz5Ku0Edh2lK9f3967stX//ErJ9creVNTA2GAXtToquU9r3XJsgP4PPdsznu00bANiT5vue/VV15x24WfzL6O42/SB/dm3zxjYoAGb/sz0nqZJxZINm5798GX24bej7jF9JH14zid7H89LHbWRPMZZu2wZjDKCwYxd9vqKru0M+eF+bn6Y+TjmWnqU++trQ9+yvqo+bfJsx5rqv8BS8PXbxmzqWbvPcY/OEmz7bjnybeB/ybce2d+dnP4v4bLay3d0zrr849tlfNT7f1iaehZ84JLvzs5+iT/mybX6W8RnYXRiQr+5uxGvteQZ+4pDsjswB+7lNP3Rlb2rHsT7l0HOPaceXkT0q376FLNAs+nV35Sml7I1S7v/dZ8NP47Md0+bb2IT47b6x1NcPh77/vGCR5BYo1WxD+trXvoaHDx82B4zdUn8KCmm7vf6ll17C7//+72M8HuPVV1/dMQatmwOVPv/8cywWC3uWyYsvvogHDx40B+DdYhdLN3kX3KTuJgez77m3acNdl5VtlVEU2dsj9vXds2wHZb+a7NN8toHa2ZobhmETqNTwxsfzkH1Wz36abZCERbbRy6uJx/iKu9DHv236uCuySin7motSzeq6u8vtebf3NvJ3QR93oQ1PXVY1eZ+8IhDH8bVbsJ5ne28j/1upjy8p/7TbID5BXkkBsPN6zZfJx5+H7F1px2+rrKc8GN/YVzBl56dSCj31imfWjrsge+oCCcAiya1QSu2cI/BVnmOMwTe/+U2cnZ1huVxiIydLq+21VRcXF/iv//ovZFmG8XiM//f//h/eeecdvPrqq3j55ZfttknydJAE9+zsDFpruxJIho3nN++Ghve2Z9bQLoicD+G+330Xgjo5HRJDJpOJXcigXRDJHc/OzuzCFG2CyOt27hkatIuBo7Y35MgrNrSL08EiyS2RJOirIgdiJkli73Z3yfMcXzx+jC+++MJeyfr1r38dr732Gl5++WVMp1NO1J4RfadIk4GjAKNpD2TLtRPiDfau9BBCCADAGE54yA77Xpkgw0WhuVGLvuK0sEhyIpRqDhPbd5tEnucwxmA6ndoTjafTqb2VRF4FIU+PZqLTnAWj69puiWU/Dxv3dimt9c4BWmS4GNNcrV6WZfO6YtSckUC7GDbiK6qqsjfkAHdj6zA5HVprFEXR3IoFbLfQk8EiuUWe5wCw84o3GS7GGFR1jbIsoZTiXOSEsEhyQg6dE+Ie1iOycnYIB8uzo6prLJdLFEWB8/Nz+O3BuOzv4eIeolzX9c7rdrSLYSJXD+Z5juVyaQ++5u6+YSOTntVqhfV6jfF4bLfSk+EiBVU3twiYWwweyS0WiwWA7eKp/JkMENPYxWazQZZl9qBnuWGSPF+Y0d1h5LrG6XSKyWRiVx7oPJ8NWmvUdY3VaoX5fN4czMstkIPHTXDn8zmqutp7jSsZDrICuFgskGUZ6ro+dZPIiTHGoK5rrNdrzOdzbDabW9+AR37LMFu7yLLM5hYMIcNGCu1lWWK5XGK5XF577Z4MDwOzk1usVitUurb2Qp4v3ElyB5FDvs7Pz/Gd73zH3pzw9ttv4+zsjKuVzwE6I+IiAYp2QQgh5EvDGEIIOQLmnKeHRZI7iu/7mE6neOutt/DWW2+dujmEEEIIIYQQQshvPdySQAghhBDyDODLsYQQQm6LHK+guJnkZHAnCSEt3UNyCRHEJjzPg2p/kWHTPVibEMBJbMUmaBvDRsGeP6KUguLB+8SBcYT0cS2OkJPAIgkhLe4NQkEQ8BYhYvE8D0EQQGvNAhqxeJ6HMAytvyDDRpJa8Re+77OgSgC1zS8C328KZzSLQSOLLeIrADCGEABbXyE327BgcjpYJCHEwfM8e1d9GIanbg65Ayil4Ps+kiTZKZ4xYA0XpRS81kekaYooipjgEgCwV4RrrZsYQjcxeBSaGJKmaXOdZ8DUe/Co5rfkFgC4MEdsbhmGIZIksYUSchroqQlpkcnwbDZDXdeIooiTYWKv4p7NZjDG8L560qAU0jS1hTNZ8SHDRVYAR6MRoihCGIac+BCbW0ynU2itmVsQANvc4uzsbCe3oF0MG8/zdnKLIAhoEyeCRRJCHOT6ZXv+BB0TAWxl3xjD5JYA2K748NU84iITYp5tRVxkssMYQlwkhsifaRcE2NoFbeK0MIIT4qC1Rp7nWK1WqKqKd5QTGGOgtcZms8FqtYLWmnZBYIxBVVXYbDbI85x2QQBsY8h6vUZZljDG0C7ITm5R1zVtgsAYg7qusdlssNlsGEMIgG1ukec5iqKgXZwQ7iQhpEWS2dVqhaIoEATBToWfDBNjDMqyRJZlqOsacRTD93yeNTBwjDEoigKrLEPovFpBhovEkKIosF6vYYxBGIaMHwNHJsOr1QplWTK3IAC2k+EsywA055NIDKFdDBeJIVmWIYoiHgx/QtjrhLRIwFqtVlgsFiiKgtVbYoskYhdVXcGAq8NDxp0ML5ZLu/OMDBsDg1o3K8OLxQJ5ntNPkGu5RVmWp24SOTESQ8QuZIcRGTZubpFlGdbrtd15xljy/OFOEkJaxAlprfmqDdlBkpm6rqGNhoHh1Z4DR3xFXddMbkmDAYw21ia4TZrAUb/WGnVVQWvdfJ8hZPBIDJE/E+LOQ6qqggZjyKngThJCCCGEEEIIIYQQsEhCCCGEEEIIIYQQAoBFEkIsclAWr9wifYhdyC9CrE3QX5AWN464XwkBaA+EkOOw+QXftjkZPJOEkBYFBc/z4Pu+vamCCQ0BYG1CKcVTxgmAJoHxfR9Re7MNfQWRpFb8hdxgQgaMAmAa2wjDEHVdNzGE7mLQyGKL+AoA8JlbEDS+IggCxHG8MxdhjvH8YQQnRFCA53mIoggAmOASANviWRzHO1f0keHiTobdRIYQpRSiKEJVVQiCgIkt2SmoAswtCJoiWZtzxnHcfIsLc4NHgbnFXYKemhAH3/MxmUygtUYcx6zeEiivmfTMZjNorRFFEe2CQCmFJEls4cz3/VM3iZwYSW5Ho5HdYcQEl4hdMLcgLlJQnc1mAGCLaLSLAaO2uYUU2X3fp02cCBZJCGlRSkF5CkmcwMDwdRsCADtVfQC0CwKgsYMgCGxxhHZBgO3ER17Bok0QYLtjwKB5rYJ2QZhbkD76cgtyGlgkIcSh1jXyPEdZlkjTlGcNEBhjUNc1NpsN6rrGeDxmZZ9Aa42yLFEUhU10uZuEaK2R5zmqqkIURYiiiEkugdYam80GVVUxtyAA2tyiqrHerAEAaZoytyAwxlzLLVhAOw0skhDSYoyBMQar9QpFXiAMQ4RhCGMMndOAkYC1Wq1Q1zUnwwTA1i6yLNt5tYK+YtgYY1AUBdbrNYwxjCHEFtpXqxXKskQYhAiDEAa0iyFjjEFZNbkFAIRhyNyCQGuNoihsbhEEAQvtJ4K9TkiL3TGw3iDLMhRFAWN499bQEbtYr9fIsgx1XduCGhkmov+yLLFer+0uIzJsjDF2x8BqtUJRFKduErkDGBjUut7aRVnAgPFj0JjdXaqyy4i5xbBxcwuxC+acp4M7SQhpkQS3qioURQGtNVcACQCgrmsURYGyLFHrulkB5B2Og8YYY32F53lMYIiNIeIv6rqG1pqrgEPGNL+Nbv1FnkNr3XyfIWSwSJGsrmuUZQmg2UFAiBTP8jyHUgqaBdWTwchNCCGEEEIIIYQQAhZJCCGEEEIIIYQQQgCwSEKIRV6r4bWNpA+xC/lFiEB/QSytKbjxhBCgMQ3aAyHkGGzOybdtTgbPJCHEQe4n57WNxMX3fYRhCIB31pMGpZT1FbzOkwAA1NYuwjBEEDDFGjwKgGntIgwR1nUTQ+guCDq5hc/cgmxjSBzHzC1ODCM4IS1KKXiehziOAYDOiQAAFBR8z0PSBiwWSYis8ARBgDRNaRcEgPgKH3EcQ2uNIAwYQwiUUvD9xi48z7OTYjJcJIb4vo8kSQAAvufTX5BrRRLf97nD/USwSEKIg+d5SNN0Z3WYjmnYKK9ZARxPJtBa0y4IgCaRiaIIQLMa6Pv+iVtETo34hTiO7Qqx8ugnSOMjRqMR6rrmAgwB0PiLMAwxHo8BwBbPaBvDRWJIFEV24VaKJOT5wyIJIS3ikKSq73keHROxqz1pmgKgXZAGWRGWVypoFwSA3Y1ok1zFHUZD51puoegrCHML0o8Uz9zcgpwGFkkIaTHGwGiNPM9R1zXfByQAAKMNdGsXWmukacrKPoHWGmVZoiiKna30tItho7VGURQoyxJRFNliCe1i2GjmFqSDMQZVVSHPcwBAkiTMLQiMMSjLEmVZ2qI7c4vTwCIJIQ611litViiKwh7iCnD745AxxqAoCiyXS9R1jSAIbGWfdjFMjDHWLrIsQxiGCAOeSzJ0jGkKqpvNBuv1GqPRiJNhYifDy+USZVni/PycuQWxk+EsywA0r2Qxtxg4BtdyCzfnJM8X9johLZLg5nmO1WqFqqpgwLu3ho7B1i7W6zW01qduErkDyMRns9mgKApoQ7sg2wR3s9k0McQwhgwdyS2KosB6vUZZlqduEjk1ZreoutlsmFsQGJidHUZFUaCua7swQ54v3ElCSIsErLIs7bZYGPCqPoK6rpHnOcqyRK1rGBgoGsagcRMZpRQTXGJjiNgFiyRE1llk10DRvrbJ3GLYyAJcXde2aFbX9SmbRO4I7gIMAGgu1p4M7iQhhBBCCCGEEEIIAYskhBBCCCGEEEIIIQBYJCHEIgdl8SYC0ofYhfwiRKC/IF3ceEKIhfZACDkCm3PybZuTwTNJCHFQnrK32niex3eGCYDmnvowDGGM4SnjBECTwPi+b0+f52SYQDUxxPd9BEEA3/dP3SJyahQAs/UXzC2Ii8QQ5hZE6MstuHh7GlgkIaRFHFOaptZBcccAUUohCAIkSYIoiuD7PgPWwBH9R1GE0Whk7YIMGwUF3/ORJAmMMYiiiH6C7OQWQRAgDMNTN4mcGIkhvt/4CwXY3IIMF7GLMAyRpimiKLLXhZPnD3uekBalFDzlIU3TaxVcMlykSDIej1HXNQMWAQCbyIxGo+3qMBk0Ei/iOLZFNM/zGEMGjkyGR6MRyrJsFmCYWwweN7cwxtjiGe1i2EjsAJrCGWPI6WC2T4iD53mI4xhRGMJjVZ9gm+DGcQwADFgEwDbB9TwPnmp+0y6I53l29c9n4Yy02NzC2Y1Iho27kwRgbkEalOfkFu1vchrY84Q4aKNRliWKsoQxBsbwxKShI3ZQliVK2gVpMcagruvGLqoS2uhTN4ncAbTWqKoKRVGgqmqAroKgsYuyLJHnOeq6ZgwhNpcoigJFUTC3IADa3ELXNufUWtMuTgSLJIS0GGOga40sy3B5eYk8zxm0iE1iFosFLi8vURYlJz5DxwAwBnme4+rqClmWMZEhTQzRGqvVCldXV1itV9CGdjF0pKC6XC5xdXXFCTEBsJtbzOdz2gUBABhtkG9yzOdzZFmGuq5P3aTBwiIJIS2S4OZ5jvV6jbIsT90kcgeQBHez2WC9XqPWNQyYyAwZAwNtDKqqwmazQVEU0Jo7Sch24rNer1FV1ambQ+4ABs3KsMQQ5hYEZje3yPMcmpPhwePuXJbcQnaeMed8/vBMEkJapEhSVdXOaxV8R5TIVumqqmyRhDcfEXndJggCFkmIjRliF1VVwWgN8J3yYWOa1WGxC611sxuNIWSwmHY7quSczSsWjCFk91Ve3/dZHDkhjNyEdJBiCR0TEWTyw4kwEcQmaBfExbULgG/mDR7HAIwxTdGMkBbuECD70Fo3cxEWU08GiySEEEIIIYQQQgghYJGEEEIIIYQQQgi5E/BV/9PDM0kIaRGHJHfX00ERwfM8+L4PrTVU+4sMG6UUPM+zvwkBdu1CKcU4Qiye58GT3IJmQbD1F/JnQoCtXfi+D2XAWHIiWCQhpEUphSAIMB6PEQQBoiiiUyKNXfg+xuMx6rpGENBtDh1JWKIownQ6RRiGtAtiC+xpmgIAkiRhDBk6ClBocovRaMTcggDYxpAwDDEejwEAQRDQLgaOQlMcieMYk8kEURQxtzgh7HlCHDzPw2g0QhiGCMOQ1VvSFEnCEJPJBHVd0y4IANgiCQD4vs/dJMT6hTiO4XkeJ8MEwLZ4Nh6PEccxwjC03yfDxV2YA0C7IE1Rtc0t7K5E7mw/GSySENLirg4HQcBXbgiA7bbHKIpgjLHb6Mmw8TwPQRBYe6BdEADWV/i+b2MI7YKIXTC3IIIUz+I4BgDGEAJgWzzb5ha0iVPBpS9CHJRSMFrzmj5yDbmOjRAA9tpGe104b3EkLWITvNqTCHJVOGMIEbrXyNNfEBctcxGaxclgkYSQFmMM6rrG1XyOL548wWazYaJLoLVGURS4urzExcUFiqKgTRBorbFer3FxcYHFYoGqrmgXBHVdI8syXFxcYLVacfJDBqzUawAAIABJREFUmtyiqjGfz/FEcgvN3GLoGGNQFAUuLi5wdXmJsiyZcxKbW1xeXGCxXKKqmFucChZJCGkxxqCqKqzXayyXSxuwyLBpEtytXdR1zURm4Ij+i6JAlmXYbDao6/rUzSInRlaE880Gy+USeZ6fuknkjlDVFVar1Ta34PLw4JGcc7PZYLVeczJMdnKL1XptcwvmnKeBZ5IQ0kG2xIpT4juiRBuDqq5R1zW3SxOL1hp1axdMYIhBEzPq1i64i4QA24mPduyCDBvxC1IoAUC7IAC2xfaqqhAEAWPICeFOEkJa3PdDOekhLu775Kb9RYZN931yQmB2J8Rc/SNuqDDGbM87o1kQ7MYRQoSdnJPrtCeDRRJCCCGEEEIIIYQQsEhCCCGEEEIIIYQQAoBnkhBikbNHmnvJeV892cXzvMYu2l9k2Cil7G/P43oD6bcJxhEi7OQWNAuCrc+QPxMCbH2F53lQfBPrZLBIQkiLUgpBECBNU3iehzAMGbQIACAMQ4zHY1RVBd/3T90ccmIksY2iCJPJBFEU0S4IgKaYmqYpjDFIkoQxZOgoQEHB932MRiMEQYAwDE/dKnJiJIYEQYDxeAwACIKA/oLA8zxEUYTpdIogCOD7/k4xjTw/WCQhxMHzPEwmE6RpijiO6ZjITsDSWiOKItoFgVIKcRzb1R4WSYis/iVJgjAMWWgnliAIMJlMUNe1jSFk2EihfTqdAoAtntE2hovklm5uweLZ6WCRhJAWSXCjKIIxhlvoCYCtXcRxTLsgFuU1q4CSyPAVPQJsi6paa2sTtIth4+4801rbgirtYtgwtyB9yA4j2UFCuzgdLJIQ0sHzPBuwmMQQYPesAU56CNBsoef5RaQP1y5oGwTYxhBunScuzC1IF9rB3YFFEkJajDGo6xqLxQJ5nmM2m9l3yumwhovWGkVRYLlcoq5rnJ+fIwojKI82MWTqusZms8EqyxCGISbTqZ0AkWFijIGuNZbZEpvNBqPRCKPRiIW0gWOMQVmWWC6XKIqCuQUBsJtbGGMwnU75Oi9BXddYr9dYr9f2PDy+cnMaWCQhpEVrjbIsMZ/PsV6vEcexPZeEDBdjDIqiwNXVFaqqag7fCwN4hhOfoWKMgTEG6/Ual1dXSJIEcZLwXJKBY4xBVVdYrVZYzOcAgDRJAG6XHi6mtYuqwmKxsLlFEie84WbASAwpigLz+dwe9BxF0ambRk6IMQZaa2w2G1xdXSGO452D4ZlzPl8YuQnpQQIYIYIELwPaBdlCX0G6GGOgW7ugZRBBfAX9BRFcm6BdEIH2cDdgkYSQDjIZJkRgEkO6MLklfdAmyD6MMTDMLUgH+grSh9a6WZjj5pGTwSIJIYQQQgghhBBCCFgkIYQQQgghhBBCCAHAg1sJsciBSLyXnPRhr+hrfxHCaxuJi2sPEkNoG0RQSkExtyAOjB9kH/Yaeb6NdTJYJCGkRaFJbOM4BgBeuUUsQRAgTVOEYcgbTAiAJoERu3BPnyfDxvM8RFFkb6pgDBk4CoBp7EKu/Q2CgDfbEABNbpEkif0zF2CIUgphGO7knCymnQYWSQgRVBOkptMp0jRtrv9lwBo8SilEUYSzszPUdW0nPgxYw0X0n7bX/spvQnzPw2g0QhRFLJIQANtJz3Q6xWg0ssUSMlxkt1kYhjg7OwMARGEEKO4+GzJiF2ma2rwiCDhVPxXseUJaZOITx/F2xwAD1uCRoBXHMYwxfBWLAGjswg9DJFzlIS1KKaD1FUEQcAWQANjNLbTWtqBKuxg2Sin4vm93LyuPvoLA7jazr9swhpwMFkkIcXDPJXG/kuHSF6RoF0TB7qRnIkOuwRhCXFx7oK8gLvQVZB88A++0sEhCSIsxBnVdI8sylGWJ8XjMbbEEWmuUZYnVagWtNSaTCbfRE9RaI89zbDYb+L6P8Xhsdw6Q4aK1xmq1QlEUSJIESZrAUx7tYsBIbrFcLlFVlc0tAE6Mh4ybWwDAeDxGGIa0iYGj+3ILxdziFLBIQkiLMQZVVeHq6grr9Rq+7yOKIrvljQwTYwzyPMfl5SWKorCvYwFMcIeKMQbGGKzXa1xcXNhDOnkuybDRRqOqK2RZhvl8jvPz82YrPc1i0BhjUBQFrq6ukG82CIKgOfOM8WOwSAwpigKXl5cAgCAM7PkTtI1hYoyB1hrr9RqXl5eI49jOQwDaxfOGRRJCWiRoaa1RVRWM4b1bpEEKaHVdQxsNA8MtkANHfEVd16jr+tTNIXcBAxhtrE1orRlHho6jfskttNbte3onaxW5I0gMARrfQQiw9RVBEECDdnEqWCS5I7gJt52MaW3/3fM8e+VkGIY8PJIQQgghhBBCCHnKsEhyR6jrGp9++il+9atf4aOPPsL//d//YblcoigK+07ao0eP8NZbb+Hb3/42JpPJqZtMCCGEEEIIIYT8VsEiyYlxDwv931/+Ej9591386Ec/wgcffIAnT55gs9kgDEM8ePAAr7/+OrTWePPNN1kkIYQQQgghhBBCnjIskpwYrTU++eQT/OIXv8A//dM/4f3338f5+Tm+//3vYzweI4oiAICBQRRG+PrXv26/R54u3Sv6CHGxVzfySjbSgf6CANjeCw1e60n2QHsghByBzTl5JMnJYJHkxJRliY8//hg//vGP8e677+KTTz7BN7/5TfzxH/8xXnnlFZydnaGqmtPyr66u8PDhQxZJniGe58H3fXvuCxNcAjR2ITfa8DwgAjQJTBAEiKIIQRDQVxAoKHhqe3YY7YJAATC7/sLzPB7aSgDA5pvKgDeYEACN/uV2TXcuQrt4/rBIckK01thsNnjvvffwz//8z7h//z7efvtt/Nmf/Rm+9a1vYTQaIY5jGGNwdnaGRy+8gDRNmysFyVNHkpjz83NMJhOkaUrHRKCUQhzHuHfvHrTWiKKIdjFwlFLwPA9pmu4cqE2GjSS30+nUXt1IP0GUUoiiCPfu3UNVVTa3IMNFYojkFgAQxzEXYQaO2MVoNEIQBNsiGv3FSWCR5EQYY1CWJebzOT766CP89Kc/xQ9+8AN861vfwmQywWq1wnK5tMF1PB5jNpvZpJw8fdyJj/ydjonIJHg8Hjd/V9xhRBq7iKIIURjCtH+nXRCZ+MRxbGMKGTbMLUgfsjA3Go+hwF2qpEHmfdy9fHpYJDkRWmssFgt8+umn+OKLL7BcLrHZbHBxcYEPPvgAFxcX9mab+/fv480338S3v/1tvPLKK7h3795TW7U0xtjfZHuQrtYaYRjCGMNkZuDI+KjrGsYYBEEAz3BCPHS00TBGo65qKKdAQrsYNq6/8H2fE2ICoLELXdfQbQxhbkGMMdBaQ9e1/R6L7UTsoq5rWyAZol3chXkpiyQnwhiDLMvw+eef4+rqCvP5HJ999hl++ctf2u+VZQmtNX7961/j4uICm80GeZ7j7bffxnQ6he/7R/88rXWvwbmDUWu98333q9AdpPuMuG8wHzL4Y5/7LGXl3/M8R1VVALD3/JfbfL5nJdsnf5fb8DxlD8nf9vPJhGe9XkNrjfF4vDdYUR9fXfaQ/FeRfZptMMbAaIOiKJHnOXzf793ld60NMMABF3QX9XGozXdFH8+iDbeVt3bRxpA8z5Ekid1R4j7rTur5jstekzetbR4h+7T0/GV9seRZ683Gvm4Tx3EzrjoH/T6rNvymyF6TP6Dn59YXz6gNxhhUVYX1eg0ASNN0ZwH0WdjwbZ97G/mvouenJXsX2vBVZY0xKIrCLpQnSbJ3EeYujNFnmQueGhZJbonWureocBuCIIDWGqvVCldXV9i0gfPnP/85lFJ4++238ad/+qeIogjz+Rw///nP8cknn+BXv/oVrq6u8ODBA0RRhDRJobybjaquaxRFgaqqUJbljpHKYJzP5yiKwhZTqrpqCgUSwLEdoJ7n7RRdusGjK9vdrdIn725LvunZknAqpaxsXwCz95B4N8uKfFVVmM/nWK/XePDgATzP6z1kTUHZIpXWGtoYdGcSth962nCo36Ri/DRlFRSgYPWxUxA7oI9jdSe/a13vT+4cWcDZxbRPdz1t2Kc7T3k3yn4ZuxSKosDl5SXKqtw5i6I7Po7WR08/CK5897nH6M6uOBg0+jhg77fRh9uGp6G72+ijO5a6/faVx0ePT9kr244lY4zd/SeHMdozKBy7cPut1hr7Kg5dfWitD+rOLcg8Dd0d0kd/PwCmIwvTSB7Sh9vevX28Z3wcI7uvDX19cUwf30ZWJj2LxQLz+Ryz2Qzn5+fNjhJP7X3uvs8mffY0ddd9NoCj4sGX1ccxY9SVPVYfRmvoA7K+7x8VO9yx9DR9CgDbF01BtYkh6/UaDx8+tLuM3MM63bHf91x5tqvnW+lOb3usK+tBwRwZD9x+Oya3OiY+d597Uxtu61NE9jbjrvvcffLHPFdku7qTGGJl1PZ5t7WJo/PiW+RWX1UfBmY35Kkb9OHmj+oGPR+Q7dVHTztuI7s3Pndku2PJyvZ0sesDRLYoCmRZhvl8bs8ykhxDfu/orpNz24JKJ1+CMY3PPKAPt49v0t0xsu78x2gDY/Q2Pu/Rh/vcfQv8zwsWSW5BXde4vLzEp59+is8++wwXFxe3LpT4vo/f+Z3fwSuvvILVamULJECza+Hs7AxvvfUWvv3tbyNNU5to/fCHP8R//Md/4H/+53/w8ccfYzabIY5j+Di8m0RrjeVyiV//+tf45JNP8Pnnn2Oz2dh/N6ZZJX/y5Ak+/vhjGGOQrTLMr+bI4xxBENh2y2nLUuQpigJlWaJ2tgoC25tAgiBAEIYADIq82CnCCEophGFonwsAeZ7vlQ2CAHEUIWgPMsrzHJvNptdRSAVWKvNSse+2V56dJAkAYLPZYLlcIggClGV5bZub+8450NiFtLlP32EY2tVEKVjJLqGubBAEjV593xa1+vpYZKXfqqqyhbBefUQhoiCE327zzfPctqHbx/IupOhjs9nslZXPJglfvtnqo9u/og95blEUyPO8Vx9ycFUYhtDGoCrLnR0+3b4QfcgkRT5ftw0ykRXdSf92i4ciG4ah1UWWZVitVwiDEEWe21csXFnRR1mWKIoCdV336s49tVzsp0/WnnvRBkhtNPJN0w/7dCeHvyml7O6zPn24ugNgV7/7fFoQBEjT1I79stVHn+5Ez3Ec78h2dSc2IZ9P9CF23P1s7lhydSd90Scr/SarMt3itisrunY/W98YdX3ger3G5eWltWn34D3X1iSpWa9W12ztmu58DzDNuHN9tSsr+pDnyljq053v+3Ys1XW9V3fSF3Ec21cNXX24SKLm6q4oChRlgbqq9+pOikhu7DikO5GVeLBPHyIrY79rP9JmOUxVxt1qtbKv0R2SNcZgtVr1+njRnaz2lWWJxWKBL774AnXbb77v2zEp+vB93+pDbLPbBlcfEnMPyUZtbDTtuJPx0W2vHDQcRZG1H9FHX8wVWQDWt/bJur5NdCd22RefpY+Bw/G5e86L7Ozr+niRFX0A2wPy+3Qn503JWJKYK/bW18dpmtqYIHG3Tx/d+LxarfDkyRNkWWbtT55pb0MKQxijURb7bUJkJa85lC+JXBiGUK1s3jOWbG7V2hpwPT67zxbZru5uis9Aky/16cONz6I7yZe6+hBbC4LAjjs3t3L7zZWNomhn3HXHhysbRiF8P4B2ZLv95sYOiQnif7rjo5sjAMBqtcLl5SW++OILaK3tmHH9mpsX940lN7cS3ZVluTO3cJE+k7G/T9Ydz27MlT7e5+NFd/vy124s9zxvJw+7SXf7ct2+WN7Nrdw2u75KCqr7cl031km+tF6vURTFtbmHjLskSa7lVn2+TfyPxNw8z7FcLnFxcYHLy0vb96LfY/R8SHf78iU3jrr6uEnWHXN9+nBzXVd33T52/aXoeb1a9eavzxMWSW6B1hqffPIJfvjDH+LHP/4x3nvvvd7Ae4jRaIS//Mu/xF//9V9jvV7DGGMH1e/93u/hz//8z/HOO+/gzTfftAn7gwcPUNc1PvzwQ1xeXuIXv/gFHj58iPv379/4yo0xBpeXl/jpT3+Kf/u3f8O7776Ly8vLa5+rKAp8+umnSNMUi/kCjx8/3rnaUhK78XiM0WhkE8G+SZjv+1YubavasjtDnIqglMJkMmluk0lSeL6H5XKJxWLRO1FK0xRnsxmStk2r1QoXFxe9CZtUYN0J48XFBfI8v9ZPvu/j3r17SNPUOtbLy0ub0NjKbPtzZ7PZTpIyn8+xXC57E8zRaITz83MEQYDNZoMsy7BcLq85FHGAZ2dnSJLEyq7aiVVXNk1TTCYTeJ5nHav08bU2jEcYj8ZIlULp7JbpBjvP8zCdTu0rJcYYLBYL294+3c1mM5uoLJdLXF5e9gaOJEmsPoAmyFxcXPQmumJ3QdAkKZvNBleXl1h3Jo0ic35+jiiKdnS3Wq2uyYZhiHHbZ57n2T7OsuxaMIijCEmaYjwe2+QnW2YI/ABZlu2s3MRxjCRJMJ1O7XPlnKE+3Y1GI0wmE8RxbO1Hgl03cMj4iKLI7nTqm9x5nofZbGbbI7q7uroCgGv6GI/HOD8/t7LZcomLy8trkwN5nlIKo9HIJsRXV1fXxpJ8vvv37yOKIhvEr66u7JZit71RFGEymcD3fVt0WC6XWK1W1z5bHMf2VgjP87Ber5Fl2bWJldiajI84jnf00U2KRXY8HiOKIqzXaywWi2uFHflsk8kEo9HIJncy7uXmI7Fv8RPii0R3y+Xymj5k3Hmeh0g1diy66yuoyCQ7jmOUZWmviO+2F4AthEk8Wa/X1t5cWdHz2dmZLfRJX7i6k/6P4xjj8XiniJBlGTabzbWxlCSJlRXdLZfLa4mjKytjW9rQnTRKeyeTCQAgDENsNhtcXl72ThrDMMTZ2ZnVY9nuoBQ/0Y1hs9nM+nnR3WKxQBfP86wfFlnZJVpVFaq6bs4xauOIFIqTJGl0t1xivlhc8xPSxxI7iqKwB7p3dSe2MJ1OMWqTUYkd3aK1TPTFhl3ddQttsmvO1cc+Wfls0+m0+TmBb22tb5Iri0LSfvET8tm6upMdOWLHfT7e1Z3Iyk7ZvvjseR7G43GTzMeRzWuWy+W1seR5np34WN21sbwv5oo+0jRtYke7Mjyfz+1ncIs04/HY6k5ieZ/uJA9TSsHAWH/Z7WNZaJhMJnZ8L7PM5lZ9ujs7O9vJl2QsdfUhuZVdHMnzXh8vuhOfIpOqq6srZFm2Iyd2IK+SB0GAPM+tPvqKOlLciqIIm83G2mZ3LImsfD7RR7fw6eZW4/EYcQzr4/vyVznQfTQaIU3THd11ZSUvFnlZwLy4uLALrqIzkZ3NZnaMiv305cVSmHBzq8vLy95cN4oi3L9/f6eo06c76YvZbLZTqFksFsiyrLcwID5FxrPkVl2/HUWRjeWiO9FHd9yJrORAIitFOWmH24ZGdzGKorDzlG6uK7nVeDxGkiR2B6C0t6u7yWSC6XRqZWWe0le0Go1GVi/uWwN9ua74FCmmyrj74osv7E4SkZObkIIgsMVG8ZluP0i/SW4FNIsuEsu7fkL6WPym5Evd3MrNwyaTiR2j+3KrOI6tPmT+48p2fYroA2iKtIvlElmW9Rb7nhcsktwCG9jPz/DSSy/ZYHMbkiTBw4cPEccx6rreSWAfPXqE119/HY8ePcJsNgPQBKYgCPDiiy9iOp2iqio8fvzYDs5jiOMY9+/fx6uvvmodjCDJ/aqt2BVFYSfrcRzv7CSRarkE0SiKoI22ybjbT1KdFacdRZENAl1EVrZkSYVZfnb3s/htGzwnOezrC9sGpQBHtq8Nkqy4OwP23VAgybB87m4F3UVWfeS5rmy3zVIBdydZ0m/dvpDn+r5vP5tUoruFM9/3EYVtwavVnaxMdmXl36QvpF1JkvSuPIdtZV0+n8j2VX7dHSfyGfbp2fd9BG3bJMmJ4hjo2JrI+o6s7/uI21WSbnuDIEDk3Dsv/djX5qhj76J3KYjIZ5Y+cifIUhWXP7u4sqqju66s2IC7zfKgPpzPJj8rTdO9Oxd2ZNsVvD7duQVTd4W7bywFQdAr28W1tW6/9Y1nd0XCXTl3t8m6n82OD6cfAVzrN/e51kbaVZKurNiLaxPyWdM03bEBz/MQiW9T11dJ+/qia2v7ZF3dHbIJ+XxuG0QffX67KytjtIu7y0qSeNfm+wrW1r96aqcNfboTm3Db4HneNbtwZd1iQZ+sJKKiH3Wgj+XzuX0sieQh3cnfpS+kAOfGliiK4Kmtjci46459aYN83+2Lru7Eh7i6c3ddXXtuFO60yX1un+7cnTD79LGjO9+Dp3Z11/Urrv24fdaH+PiuPvp8lfyb6zP3jTvXjmWrt8j27eJwfZ4b73pjrmOb7u4oiR9JklzbceLqTnYW9K1ou+POXZE/JKuwbW/fRDuKIgROLD/k411bc21in+66udU+Hy/91M2B0jTtHc9dv70vd3R9uny2KAxROzspXVnXNl19dPvCzYu7upPdCV19dGXdXZfiL1zddfOwvjmHfGbP82Bg4AeHddc39vtwY7nbN92cQikFv+1jNz6HYYg0SdrXTLeybh9bfbTjuTvRdneRyHiRfKnbF65s108E7S7qQ7Jubt63C6ibs/Xl8fviaJ+PB7bx2fZjO+6SJEGe5/bPstukL5Z36cvjXdlukcT2hefDU7vP7RZJ3HmKm4d1ZaUNrk2I7gD06q4v5rr+4BSwSHILPM/Diy++iD/+//4Y33zzm7i6urr16zZBEOCFF17Ao0eP8PjxY7sKLysa7g4FYHcFYzKZ2C3Yx25B8jwP9+/fxx/90R/hzTffvLYlUrbafv755/ibv/kbvPvuuzg7O8OLL764M9DdQel5HqI4slV016F0Zd3Vga6syLsJEIBmNayttN8kO5lM7MSub5XITazEyex73cb3fXsjgazgnZ2d7ci4svJcCVDT6XSnH7ptlsqyVEy7CaanvCa5bNvtynadT/fzxXGMMAihje6VtQFfefAiZVcR9r3S5E6eZ7MZxuNxbx/36U6S0T59uMF5NBr1JktuwcXVnbS5Tx99K7V9/dDVnTjivl0yIqNUs/1QCiMPHjywq9eurPtbtkT2bWvuyor92PeIO2PJbW8Uhjg/O0Pdke32g+hjNpthNBr16sO1S2A7lvr0IbqTdshKzT59SGFQtk5KH/fpI/B9KCfgSgG52w/dvpAVoH197HtN4dXzmtU5aW/fqxVu4iHFjj5Z+UxKNQWUKIowm80QRRFeeOGFJrFw3tuVzy/tPzs727Edl+5E0NXdIVlJnPYVuFzdiazsHup+NteGJMnqK0Jv+9iD5/kwMM1uwHYnXl97XbsU3e17TdLts/F4jCRO2tuE+nXn+ombdOeO63v37u2N4bfRncjKpHUymaAsS5yfn+PBgwe9cVS+Jwl0X3v7ZPsmjH0x90ZZz4Ny4qhMfG7Sx2QywSgd7dWH6+PdMXpNVsZSx2/36aOrO1kN3xfLRR/A9jXmPt1dy2vaSexoNOr9bK4PkldT+orQrqzkCJPJxJ4t8OjRI7uLxp1suL5WcqBue92xZIyxO9uO1d0+PVvdec05An0+fl8fJ3EMf89YsrJeIyuLJftk3TZHbR9PJpPe9rr9JvqQXOUY3Y16ZPtyhL5Y3qcPaXvfK3xdWzPGYNbmjCL/6NEju/PH9fGi52N8PACMR2PE0X7dubnVMeNOfJvkNX0LNG5fANj6Yicv3qc7Och436uP8tvm0GFoc6BDsqK7ffpwded5nvUTN8lKfO6zNQBfWneSF7sFIVlYl3miq7vRaIQ4ilHrm/Uhcf9QDuQ+VwrFN/XxodzKnXcopeAl27F0KLeS8Szzxm4h83nCIsktkKAvWz/73i0/5hnyLufZ2Zl1ir7fbAvd906uvEcuW7rdQspNP0+2O06n02vGKUWS0Whkt/ZJNd59H9J9nlIKHjx4wfXVIVeu+/VQX8lzAewM7KchK1/dKmgfEqwkwXTf55Pn9LVBnEBflbhXtnVIvbLYHvrYXS069Gxpg0G/rNsPCs2kdK/u2ja4/+eQk/qy+jhWz2I7+1YZe2XDCCbcb5tdfezTHdDYhehMJo37VuLlq6uPfX2wI7tHH11ZoFkB948cd24ie9OzpS3HPPeQ7tznuvZ7k10C277u08et+s0ZRyLb1de+NhyrD1lZFH/ZtYtuG8QXH/ITruyhcfdV9HGsnnfG0gE7bnyKOqy7nr441tY8z4MXHjeWXJ95Uxt83987Rvv64hjdSXtdP9HdQfdl9HEb2a6PPcav3Hbs+21h7Kbn3sa3uX10TfZLjKVjffw1v70nPvfaz6FY7upObVdR4zhGFG93trht7frBY/rhUG71VXW3N+/otsPzEe0bo518wjPeXp/SbbPvecBT1ocrG/jBjb4NwI0+pesrDrXB7eegXWmX3MaNIX3x4DY+86acUf58KL/s/vxj4nPXho/pt2N0131uXw60z8ce89zb6O428fkY3XXb7e466+YWnvJs3xlj4IUegp6pfNfWnqk+bsh17XNxc3zu2tmhuPA8YJHkFsigkO1xX+U5QLPK++KLL+LevXtIkgRZluGzzz7DK6+8Ygsl8irMcrnEcrm071XKu3/H/jwJ/l3EWN0tXzf9H/czHGu83QF7F2Vle+vO4HROZj70XHf1+KY2uF+/apu/TBtu89zfVNmnqY+6rqGUsts13ZW5vUn9HbCJZyX7rNt77LNvK/s022CMsfGgu335Jrv4jdPHM7DjZ9WGWz+7XTV/ms8Vu5AY4q66feX2PsOxdGqbAHB0TiPPfBZ+4ljZo9tgAKOMjSFhGCLwt69Q9f3/uxIbj56ctJObo23ijsTGZ9EXt+o3bF8puim3OHXcF1n369OSvU07ftPypS8jK3OQ7qvAXf94F8bSM43PtxxLzwIWSW7J01KarIxPJhP87u/+Lt566y08fvwY//qv/2pfLYiiCFmW4cMPP8S7774KeJinAAAgAElEQVSL5XKJF198Ea+99hoePXp0cPW7r93P+jP9pqPU9qAq2W525Lgnv8Uo1WzvPj8/t69YcMwMG6WaFR05jFiKJbQLEgSBPWSwb8cZGRjtBEJ29MprLLcpCJHfPmTSK4dlA2BuQaxdyGs3klvIOVbk+cIiyYmQ1abRaIRvfOMbeOedd/D+++/j3//93/HgwQP7buWTJ0/wox/9CO+//z4A4OWXX8Ybb7yBR48eMcg+ZUQncjo/+5cA2wPXZEsq7YIAgOc355d0D/Elw0ViiNxgQbsgwPXcgnZBgN2FOdoEEdw3FmgXp4VFkhMTRRG+9a1vwfOag1vff/99fPDBB/jFL35hD7fabDZ44YUX8N3vfhff+9738PDhQ1txJk8XrZuDT+VGmUPbpMkwkNtT5BCrQ+d8kOFg7aKqmnNibjhjhwwDOeBRzrc69TvV5G4gZ54xtyCCm1sA27MgaBfDRuyiqqqdQ1XJ84dFkhMTBAFef/11PHz4EGVZoqoq/OxnP8OHH36Iuq4xGo3w9a9/Hd/4xjfw/e9/H2+88Qbu37/PSdozQE58L4oCZVna07nJsJGAlec56rrGeDxmIkNgjEFZliiKYud2GdrFsHFjiHslNO1iuEhukec5qqqyuQX9BZHcwhhjr/8lw0ZrzdzijsAiyR1A3j9755138OjRI3z/+9/HcrmE1tpef/bw4UN87WtfszfQkGdDXddYLBbI89y+CwgwwR0yMumZz+eoquravfZkeEjhbLPZYLFY2JvAWFQdNmIXq9UKWZZhOp1y1ycBAFRVheVyiTzP7e0jtIthI4X2+XwOYPc2OtrGMJGC6mazwXK5tLkF5yKngUWSO4AcDPnaa6/htddeO3VzBotse9xsNjbBZfWWAE2Cu1qtUJYl7t2/BwNz9Gne5LcTSXBXq5V9xYIMG3mlIs9zrFYrxHFsr4omA8Vs7WK9XmO9WjVnkxjwYPgBI5PhsiyxXq8BwJ5ZQ4aN2EWWZc3u5ekEIfZf00yeHYzchBBCCCGEEEIIIWCRhBBCCCGEEEIIIQQAiySEWPhaDTmE2IdqfxFCyA5q948KjCukA+2BEHIEcv2vMqduyXBhkYQQB3FKcm0jE1wCNHYhV7HRJgiw9RWe5/G2IwKgLaBKYut5nBCTncLZjq+gaRDs2gRjCBEkt6BdnBYe3EpIizijIAgQBAEdE7FIgcQYw0MYifUNcuo8/QURpMgehiH8gEVVsltkD4KAMYRsi6lKwQ8CoM0tuEuVuDFEbsFiseQ0sEhCiIPv+xiNRvY6TwYsIoWzyWSCqqq4y4gA2N5KNh6Pmwlxe3UjGTa+7yNNUyilkMTJqZtD7gi+72M8HiNyJj5k2NjcYjwG0BTdofiK3pCR3DKOY0wmE1tYpU2cBhZJCGmR1Z7JZAJjTDMZ9uiYho7neYjCCP6s2UnCgEWAZtITx7FdGearWERiyHg8RpIk8H2fr2KRnUK7zS1oE4NHCu1SYKddEKDJOeM4tsVUz+fOs1PBniekgzEGWutTN4PcFQxgYGBM+xs8RYs0fqL9g7UNQgBsfQVtgrTQJkgX1yaYc5IuWuvGX9BlnAzuJCGkpXFGBnmeo67rnYOTyHDRRqOua6zXaxhjMPbG8BTtYuhorVEUBfI8RxAESNMUxhjaxcARuyiKAlEUIUmaV25oF8NGa21zizRNmVsQALC5BQAe1EkANL6iLArkRYEgCJAkCXOLE8EiCSEOVV1jtVrZiU8YhgCY4A6dqqqwWq1QVZXdHkubGC6yGlwUBbIsQxRFiKKIBzIOHFkRXq/XWK1WmE6niOOYvmLgGGNQ1zWyLENRFPZQRoC5xZAxxtjcAsDO2Va0i2GTFwWy5RJhFNkzEsnzhxkdIS1aNzsGNpsNsixDWZbcGkt2Epksy1DVlX39hgwXYwzKskSWZdhsNqjr+tRNIidGiiR5nlu7MNxGP3ikSOLmFtxCP2zkNZuqqpBlWZNbVNWpm0VOjMSQsiyRrVY2t+CreqeBRRJCOoiTokMigtgE3xsmAt8nJ310z55gFBk4jgEYY1g0IzswzyR9uDmn4aaik8EiCSGEEEIIIYQQQghYJCGEEEIIIYQQQu4Ecoiv4majk8EiCSEtclCW3Grjfo8MG7EJz/Og2l9k2NgExvEXZNh0bYI3VRAXz/PgyaHfNAsC0FeQXmgXdwPebkNIi0LjlMIwRBzH9pRxQnzPs7eXcEJMhCAIEMcxwjCkXRAATXIrtxEEQcAEd+i06vc8z9oFfQWRxRb3piPaBQG2MSQMQ4RhuFN8J88XFkkIEVQTpJIkscUSQpRqEpkkSVDXtb3+lwFruCil4CmFMAyRJAknPsTieR7iOIbWmjGEANguwCRJYifFjB8DRwHKa3KLNE1hjGFuQaz+wzDEaDTauRaaPH9YJCGkRSbD4/HYTnwYsIjyFIIownQ65cSHbFEKcRzD8zz4vs9Ehtgt0mma2lVA2TJNhovkFpPJBHVdI4oi+30yXGQyPJlMAIDFMwKgsQvJLSS/oF2cBhZJCHGQZMaeP0HHNHgUml0DYhcsnBFgu+JDuyAuYhMAt8+TLW5OQV9BBNdf0CYIsM0t+Lrm6WEEJ8RBa431eo3lcomyLHmHPYHWGlVVYbVaIcsy1HVNuyAwxqAoCqxWK2w2G2itaRcEWmvkeY7VaoU8z2kTBABzC3IdY4zNLVarFXMLAmCbW2RZhs1mA2MM7eJEsEhCSIsxpjeRoXMiVVU1dpFlqKrq1M0hdwBjDMqyxGq1wnq9Rl3Xp24SOTHGGBhtsNlssFwuURQFYwixk+H1eo2sjSG0C+LaxXq9RlVWgAHtYuC4ucVms2FucUJYJCGkxRiDuq6x2WywWq2aRAYMVkNnxy6cnSRMZIaL6F8SmTzPobU+dbPIHUAbbXcYSZGEDBs3hqzb3IIMG4khdV3bIkmta+acA0cWa8uyxGazsUUS5pyngWeSENIiTkher9BaAwb2Cj8yXCRo1XUNbTQMDBQNY9CIr6jrmtukCYDrNsFXsIg752VuQbqIv5A/EwJsc07f96FZODsZ3ElCCCGEEEIIIYQQAhZJCCGEEEIIIYQQQgDwdRtCLHLVllJqe3Ujt8OSFnt1Y/uLEF7nSVxce3DjCSFAax+8Fpo4MH6Qfdgrw/m2zclgkYSQFoWmOBKGIZIkge/7nAwTAIDv+4jjGL7vbwtoZNAopRAEAZIoRhxFtAsCYGsXcRwjDMNTN4ecGgXAwOYWWmv4vs8FGAKgyS2iKLJ/JkQphTAMEccxoja3YDHtNLBIQoigmkQmSRKb0BCioOD7PpIkQV3XTGSITVjCMEQyShGGIYskBEATQ6IogtYaURQxsSV2d6osvjC3IBJDxC6ApkjCyfCwUVDw2twiTZvcgjnn6WCRhBAH3/ORpqldBWTAIspTiKII4/EYAGgXBECT5Mok2PM8FkmItYU0TRFFEYIgoF0QKNUU2kejEYwxLJ4RANsYMplMYIyxuQUZMAqAk1vI7mXaxWlgkYSQFqUU4MFufeREmADbiU8cxwDAgEUAwE5+3a+0CyKv2wRBwBhCLLLDCGBuQRoktxC7YEGVAP25BTkNLJIQ0mKMgdYaq9UKdV3b1UAmM8NGa42qqrBer2GMwXg8thMgMlzqukZRFMjzHEEQIE3T/7+9O2uOIs3uP/7Nyqx9U5WW0oZWJCRA7PT05vjb44mZcMRcjCfsG0f4vfj9OMIRvnE4Ymz3LE0vNNAChECAEJLQvta+Z/4v6MwRDd0zvSGo+n0iFHSjKpFVeirzeU6e5xwFSgTbtqlWq9RqNQKBAKFQSIviNuc4Ds1mk3K5/MLcAlTYt505jkO9XqdcLgMQiUQ0txBvblGr1byt3u5WLHm9FCQROaLZbFIqlajValiW5e0d1smpjTl4QZJ6vU4gEPD2iGpctCfHeV5uvl6vUywWCQQCXoE1aV9uoL1SqVAqlYjFYgSDQZ0nhGazSbFYpF6rYX1Vl0Tjor05jkOj0aBUKgG8UH9CY6M9OY6D4zjUajWKxSJ+v/+FmmcaF6+XgiQiX3EnuLVajXK5TDwex8FRh5s25/D8LqB7d9hdIEt7cye41WoVeJ5BIO3NwcF2bOq1GpVKhUAgoPOFvDC3qFQqxJvN4z4kOWbuYtidW4CuIfKcxsWbQ0ESka8cvWjV6/XnJyYHteoTb4Jbr9dp2k0Fz+SFc4VpmloMCzjg2A6NI9cQjYs299Wv3z1fNDS3kCPc7bzuf4vAn7fc+Hw+bHQNOS4Kksi3aucJ3tHX3s7vg3zt9+98w99L23jV790Nsop8fRxoXLS5I4ESx/vTwXAMHC2A2p57fnCvIYZh6JzRptwxcPT3bzh4N+baYVwc/TwcNwVJ5AW2bWPbtnd3tJ3Ytu3dGW40Gt6XijG2L/fun/vljolmo4lt2BoXbcotuOeOiaPjQ3VJ2pOXifjVeDh6DQHtJW9X7rj4+rxCc4v25m7Bcq8dwAvXEI2L9uRu4/36vNNqWG0z5zw6v2o2m8+DJa8IHr0OCpKId7J2/ywWi2SzWcrlMpbVHkPk6J7hXC5HqVQiFArhOE5LXrDehAjt28A9KRcKBQ4PD2k0GhweHnppkNKe3IlMLpcjm81SrVYxTdMr0tlq5wv5y44uhg8ODigUCsDz4Ihpmt/7fKFz9dvPcRyq1SrZbJZKpUIoFMK2bZ0r2tjR+fbBwQEAlmVRq9UABVXfNj/mebrRaJDNZslmswSDQXw+X9sVAG80GhwcHFAsFp8HSjiea2F7rIDlG7kTu0ajgW3b5HI5bt26hWEYL1TabgeObdNoNr1FcDKZJBqNArpgtSP3hOy29Mzn8zSbTVKp1LEvhrVwOl5HW3oWCgUCgQCJRMILKut80X7cz2Sj0SCfz1OpVIhGo8RiMQzDeCFIos9v+3C31tRrdbLZLPV6nWQySSQSUZDkLfZjfIaPzi0AEolE2y2G5c/cMeV22SyVSvj9fmKxmNcNqx3Ghju/ymaz3L17l3w+/0LWldt19HVQkES81C43in3t2jXu3LnTFh/Go9wPZqlUotlsEg6HCQaDgBY97cy9O1wul3Ech0gkovaN8kK3CsuyCIVCmKapcdHmbNumXC5Tq9UIBoOEw2GNCaHRaHh3RaPRqDe3kDfH6/ycHm0j77YAducWr/tY5M3h3riuVqsvzC0sy2qrMXG0PXY4HMbv97+yXstPTUGSNmcYBpZlkUgk+NnPfgbwg1KD32buHcBbt26xs7PD1atXGR0dfa3vRzudBN90R9Pnt7a2uHv3LoVCgZmZGTKZTNtdtOTPbNumUqmwtLTEwsICnZ2dnD59mo6ODgVK2pibjfngwQOePn1KX18fU1NThEKhtrymvi1+ys+re/Pl4OCAGzdusL+/z6nJSUbHxtp2riV/vvmyubnJ7du3ARgfH6evr0/XkO+gld4ndwuWO7d4+PAhsViMM2fOkEql2m5cuO9HLBbjwoULx/IeKEjS5gzDIBgM0tXZxS9+8QsuX75MMBhsyw9jtVplbW2NSqUCwD/8wz/w93//9977Ie3Htm0KhQJ37twhn8+zsbHBb3/7Wy5evEggENAEt001m0329/f56KOPyOfzTE1N8S//8i8MDw8ry6hNuXe+1tfX+Y//+A/K5TIffPABv/3tb0kmk21T3+tN8iZ8Dt2Ms8XFRYrFIgC//NWv+MUvfqG5RRtzt2vOzs6Sy+UwDIPf/OY3XL58ue22ustzbkB1b2+Pjz76iHK5zMmTJ/nnf/5nxsfHsSyrreac7hYbeL4VLZVKvfZ5t67ags/nIxAI0NPTQyqVarsPIvw5SGLbNtFoFL/fT2dnJ0NDQwQCAV2w2pRt215wJBwOEwgEyGQynDhxQkGSFvB9FlHuRCYcDpNOpwkGg8RiMfr6+rxx8SYszuT1sm3b62STTCYJBAKkUikGBgZIpVKvdR+1vDncIEmpVPK22XR2djI4OEgwGFTwrE25W7vX1ta8LXk9PT0MDg5qztmm3LlFKBTy5hbxeJxMJsPg4CB+v7+t5pxHm4qYpnksr19nZ3leDMg0CIVCbVs0yt1acTSLxrIsAoGA7va0MXeC6y58vz4u2umCJc+5E5lAIIBlWZim+fwCHggQ+OqrHc+h7c7thOYucNyuNu6YUJCkPdm2DeBN8N2i+MFgUHOLNuYGVd2bLe640NyivTUaDfwBv3e+OHoNadu5hQMYx5MZqCCJeNqlcvI3+frrd/+/3d8XedHR8aBx0Z6+fl4wDAPjFX8v7eWV40Jjoq19/dxw9O+P/int5+u/e80t2pzjni9e/t239bg4xpesUKWIiIiIiIiICAqSiLxEd/3kJV+l+ikFVr5O5wp5FY0L8bwis0gE/jwmNLeQoxxDa5E3gbbbiBxhGAbRaJRkMkkwGDzuw5E3gGEYWKZFPBEnWUh6tQV08WpvhmEQCASIx+NEIhHVFhAATNMkEomQTCYJh8NevQFpb6ZpEo/H6ezsJBAIALqGtDu3xlk8HgdQ3SIBnjfTCAWCJJNJIpGIOuYdIwVJRL5imibRaJTTp08TCoXo7e3VwqfNucXUOjs7uXD+AicGT3gdoKQ9uXd3gsEgAwMDXLl8maHhYaLRqM4Xbc40TUKhEGNjY7zzzjsMDQ1pgtvm3AK+iUSC06dPE4vFNLcQb1yk02nOnz8PQCqV8oo+Sxv6KnvEnVtcvHiRgYEBYrGYgu3HxPy3f/u3fzvugxA5bu7Jx+1ckU6nOXnyJOl0WhctwbZtTNOkt7eXiYkJ4vG4LlptzuuIFQpx4sQJBgYGCIVCSpFtU4Zh4DgO8HxsxONxRkdH6enpwTItDJ/GRDtr2k0cx6Grq4vxk+OkU2ldQ+SFucXIyIjmFgI8v4aEw2EGBgY0tzhGhuNe1UXanGM71Bt19vf3qVarpNNpotGoTkxtrtlsUq1WOTw8pNFo0NXVRTgcBpQu3a4cx8G2bQqFAvl8nkAgQEdHh7IG2pzjODQaDXK5HKVSiVgsRiKR0KKnzTmOQ61W4+DggFqtRiqVIhqLYqC5RdtyngdIKtUK2WwWwNuipzHRvo7OLYrFIn6/n0Qi0b7tf4+ZgiQiIiIiIiIiIqi7jYiIiIiIiIgIoCCJiIiIiIiIiAigIImIiIiIiIiICKAgiYiIiIiIiIgIoCCJiIiIiIiIiAigIImIiIiIiIiICADWcR+AyNvEtm2azSaNRoNGo4Ft2xztou3z+bAsi0AggGXp49WObNumUqlQr9dxHAfDMAgGg/j9fnw+n3rdtyDHcbBt2zsvNJtNbNv2vmcYBoZhYFmW92Wa5jEftfwYvv67dz/3AIZhYJomfr8fv9+PYRj4fLo31YrccVCv171zgOM4L4wF9xzg9/sxTVPXA8FuNql/dd5oNBoA3hhx5wzSutxzRLPZpF6vU6/XsW3bmz+414xAIPDCeUNeD63iRP5Ktm1TKBTY3t5meXmZ5eVl9vf3KZVKAPj9flKpFL29vVy4cIGRkZHjPWB57WzbJp/P88UXXzA3N0epVCIWi3H16lUmJyeJx+MEAoHjPkz5ETmOQ61WI5/Ps7q6ytOnT9nd3eXw8JBqtUqz2SQUChGPx+nv72doaIjh4WFSqZS3cJK3l23b7O/ve9eEZ8+ekc/nsW2bcDhMV1cXp06dYmxsjEQiQSQSOe5Dlp9As9lkd3eXpaUl1tfX2dnZIZfLUalUMAyDQCBAMpkkk8kwMTHB4OAgkUhE14M25jgO+XyeJ0+e8OjxY1ZXVzEMg9HRUSYmJhgZGSEWix33YcpPyL2ptr29zaOHD1lZXfXWFY7jEAgESKVSnDx5komJCbq6uohEIrrJ8pooSCLyV7Btm2q1ys7ODvPz89y8eZNbt26xsbHB4eEhhmEQCoUYGBjgzJkz9PT0KEjSZo5e7D7++GP+8z//k+3tbXp7ewkEAmQyGUKhkCbFLcb9ve/u7DB39y6fff45S0tLbG9vUywWaTQaxGIxOjs7mZiY4OLFi/j9fkKhEKFQSJOdt1iz2aRUKrG2tsaNGze4ceMG8/PzHBwcYNs2sViMoaEh/uZv/gaAsbExQqGQgmMtqF6vs7m5yc2bN7l79y4rKyvs7OxQLpcBCIVCpNNpTp48SalUwufz0d/f72UYSXtxHIdGo8H+wQGzt2/z0Ucf8eWXX+L3+3n//fcByGQyCpK0MMdxqFarbG9v8+DBA65du8bc3BwbGxvkcjng+XljcHCQDz74gFgsRjQaVaD9NVKQROQvcLMDVldXmZ2d5fr16xQKBUZHR5mZmSEUCnlps4Zh0NHRQTKZPO7DltesWq3y8OFDvvzyS7a3twkGgziOQ71e97ZfHN2aJa3BcRzK5TIHh4cUikV8Ph+Tk5NcunSJYDCIz+ejXC6TzWbZ2trik08+odFoUCgUmJqaIpVKHfdLkO+h2WySz+dZWlri+vXrXLt2jUqlwvnz50kkEliWxf7+Pvv7+9y4cYPNzU1+/etfk0gkCAaDCo61GDfTdGdnB8uyOHPmDOFw2DsHVCoV1tbW2NnZ4aOPPmJjY4Nf/vKXTE9PK4W+DdXrdfb393ny5Alzc3M8ffoUgHA4jGEYL2zVktbjbs1bXV3lo48+Ym5ujmq1Sn9/P6dPnyYajWKaJrZtEwwGGRkZIR6Paxv/a6Z3W+QvsG2bw8NDFhYWuHnzJnfu3KG/v593332XyclJ+vv7MU2Ter3O3t4etVqNjo6O4z5seU3c/aT5fJ6FhQWuX79OuVymt7eX3d3d4z48eQ3cOkV+v59MJsPg4CAnT56kM50mEAyytbXFgwcP+O///m8WFha8OjX9/f0KkrylHMchm83y8OFDZmdnefToESMjI97WulAoxIMHD7hx4wbXr1/n0aNHTE5OMj4+TiqV0t3AFmVZFr29vd6WmnQ6jWma7O3t8cknn3D9+nVu377N9vY2U1NTXnaRgiTtw3EcSqUSKysrPHr0iPX1dcrlMpFIhEQioQBqG2g0GmSzWZaXl7l27RqLi4ucPXuW06dPc+bMGfr6+vD7/VSrVUqlkrddT5lnr5eCJCLfws0E2Nra4vr162xtbTEzM8OZM2e4dOkSPT09RKNRL/KfSCSwbVtBkjbi7kV/8uQJjx49Ynt7m9OnTzMzM8PBwQEHBwfHfYjyE/L5fHR0dHDy5Em6urq8OjSJRMJb/Lh7iLe2tvD5fGSzWZ49e0alUjnuw5fvqdFosLe3x4MHD9jf32d0dJRLly5x7tw5BgYGME2TRCJBMplkb2+Pe/fu8fTpU+7fv8/Zs2cVJGkxwWCQ8fFxwuEwAMlkklgsRjAYxDAM4vE4Pp+PaDRKNptlf3+fnZ0d9vb26O7u1h3iNuFmEGxvb/Ppp5/y8OFDRkdHyWQyPH36lGazqYBZGygWizx48IA7d+5QrVYZGRnhww8/5Ny5c6RSKaLRKD6fzysK7vf7CQaD3vlEXg+dlUW+hfNVvYHNzU3m5+dpNBpcvHCB4eFhgsEg5XKZUqmEaZoEAgHi8TjRaFQTnjbh1qpZW1tjbm6Ora0tgsEgo6OjnDhxgo8//lhBkhbnLnyi0Sh9fX2vfIy7r3xsdJSNjQ0ePXrEwcEB9Xr9dR6q/IjcDMOlpSXy+TwzMzOcPn3ayxQB6O7uJhQK8dlnn/Hw4UM2Nzd58uQJQ0ND9Pb2HvMrkB+TZVn09fV94zkgHo8TiUSo1+v87ne/Y3t7m1wuR7FYVDZZG3Ezjp8+fcrCwgKHh4dcunQJ0zTJ5/McHBxoEdwGSqUSjx8/ZmFhgWazSV9fH5lMhmg0SrFYpFAoYFkWoVCISCRCOBxWxtkx0EpO5Bs4jkOlWmVvb4+dnR2y2SyGYVAslZibm+MPf/gDpVLJK8zY3d3NuXPnmJqeJp1KEY/Hj/slyE/ILbq1t7fH3bt3+eyzz+jp6eHy5cuMjY3pjpC8oNlsUqlWqdfr3l0hpVW/ndyii6VSicPDQxzHoaenh87OzhcC5G5Xk56eHjKZDOVyma2tLWUQtSE3oF4ulbBtG8uyvIWPzgPtwbZtstkst27dYnZ2FsuyvM5XtVqNUCh03Icor0m1WmV9fZ319XVisRj1ep2PP/7Yu7HWbDa9jnhuZ5sTJ054NWvk9VCQROQbuFttDg8P2d3dpVAo0Gw22dzcxLIstra2KJVK3mI4FotRqVSoVCpeOrVb0FVaT7PZZH9/n8ePH/PkyRMODg44d+4cV69eJRgMsr6+rt+9eMG0QqHA7u4uuVyORCJBZ2cnfr//uA9Pvgc3Zb5cLpPP5702jclk8qUFr2VZJJNJOjs7KRQKHBwcUKvVjunI5bjUajU2tzZZffaMer1OPB73WkIrSNL63E5YGxsb3Lt3j8XFRUZGRjh37hyDg4Ps7u4qA7mNuBlF6+vrZDIZDMMgm83SaDQoFovYtk0gEGBzc5O9vT3v5kpvb68ySl4jfSKl5TiOg23bP6ijiGEY+Hw+6vU6+XyeQqFAtVrl4OCA+fl5Tp06xeXLl+no6MDn87G8vMzS0hI3b97k0aNHWJZFT08P4XBYF743hG3b3lez2fxeP8MwDG9hWy6XWVxc5OOPPyaXyzE9Pc2pU6fo7e3VIugtcHQsfJ/zhHuOsCzrG4OhRwOtKysrLCwssLu7y/nz55mYmCAajf5YL0deE/f6Uq1WqVQq2LaNaZpee++vT17dIr3BYJBsNku5XKbRaBzT0cvr5hb2Pjg44PbsbT7//HMcx2FkZITe3l46OjoULG1xjuNQqVRYXV3l/v37rKys4DgO09PTXLp0iVgspiLvbcbNRNza2uLw8JC+vj5Onz7N6OgonZ2dAGxvb7O0tMTs7CzlctnroDkwMEAgEDjmV9AetHqTluMWWt3d3WV/f59SqfSdnm8YBpFIhOHhYfx+P+VymWq16i2sLcsik8lw8eJFent7MU2Tnp4egsEg165dY2VlhStXrv28PbEAABkaSURBVDA1NUVPdzfxROKneJnyHdi2TblcZnt7m52dHQ4PD6lWq9/pZ/h8PsLhMBMTE4RCIfb29rwsEnc8jI2NEY/HvR738mZqNpsUCgVvPGSz2e9cH8SyLLo6OxkaHiaVSuH3+19YILtbMrLZLPfv32d2dpa9vT1isRgTExOMj48rSPKWcn+3jUYDx3G8YNmrAuKGYWBZFn7L8orw2bZ9DEctx8Et0ukWaVxZWWFwcJDz58/T19enLRYtzg2SZbNZFhYWmJub84JkY2NjDAwMqDZVG3JvoLhb9v1+P6Ojo1y+fJne3l58Ph+rq6veemZ5eZnu7m56e3vJZDIKkrwmCpJIS3Fbqz148IAvvviCubk51tfXv9PP8Pl89Pf384//+I+cOnWKer3uTXQzmQyXLl3iypUrTE9P09HRgWEYpNMpejMZ1tbWWFtbY319nSdPnhAOhxUkeQM4jsPB/j6zX37JjZs3mZ+f/84FVYPBIJlMhn/9138llUqxuLjIo0ePKJVKpNNpJiYmSCaTlEolisUilUrFy1KoVquUy2UqlYpXi0LpksfHtm12dna4ceMGt27d4v79+xQKhe/0M8LhMJcvX+bXv/41wWCQxJHP+dGJ8fLyMn/605+YnZ0lGo1y6tQpZmZmGBkZUYeTt5h7V8/lOM43ZiO533Ofo214rc/NODo8POTOnTt8+umnLC4u4vf7uXz5Mu+//z6ZTOa4D1N+Ykdv0MzOzjI3N8e5c+e4fPkyiUSCUqlErVajVCpRr9ep1+vUajWvKUC1Wn0pAC+tIxAI0NnZycmTJ7l69SoXLlzwAqfJZJJarUY+n+fZs2csLS0xPT2tTMTXSEESaTk+nw+/308sFqOjo+N7ZQx0dHQQDAa9AovuRSqRSDA8PMzQ0BBdXV3eIicSjWD6LLq6uggEAuRyOba3txkfH/8pXqJ8D6ZlEQyFiMfjpNPp77wP3O/309HRgWVZ5HI5njx5wpMnT1hbWyORSNDR0UE4HMZxHIrFIuvr6zx79oxcLsfdu3cJhUKMjY0xMjLC4OCg1/FEjodbOT6RSNDV1fWd7+iGvhpL/oD/pcWym0EyNzfH7Owsi4uLAExPT3P16lVGRkZeCKrI28PdZuX3+73tNc1mk1qtRr1efylQ4t4xrNXr3vO04Gl9bgbJwsICN27c4OHDh8TjccbHxzl37hyjo6Neu2BpXW7W4tbWFqurqywuLhKNRolEIqytrREKhWg2mzx9+pTFxUV2d3e9RXC1WuXixYve1kwFV1vH0XVKZ2cnmUyG3t5eenp6vMeYpklfXx+9vb2sr6+zt7dHPp9XJuJrpCCJtBTDMAiFQkxOTtLZ2cnFixe/93abEydOeHeIo9GoNyl22/wenej6DB+mZRIOhwmHw9i27aXRyfHz+Xwkk0nOnDlDf38/77777neuG+JutxkYGGB5edkr6Otu7ZqdncU0Ta/WRaVSYWNjg1KpxB//+EdWVlaYmZnhvffeI5FIKEhyjEzT9M4PQ0ND5HK575zy7P6MwcFBIpEIhmF4GSS5XI7V1VX++Mc/8tlnn5FMJjl79iwffvgh586d0zabt5zP5yMYDBIKhfD7/d7d4kql8lKQpNlsUqlUKBaLWJalFvEt7mgW2fz8PNeuXePevXs0Gg3ef/99PvzwQ06cOPHSHEJakzsXzOVyXgHvGzducP/+fS+j1H3M3t4etVqN9fV1Hj9+zOLiIo1Gg76+Pl0zWoxpPl8vJJNJOjo6iMViL9UmcutZRaNRTNOkWCy+MhAvPx1dqaXlWJZFOp0mGo3S19f3vYp0uneZbdums7OTVCpFMBjEtu1vvWPo7lPXHcM3TzAYpLu7m2QySb1e/87ReMMwME2TQCBAqVRienoay7IYHx9/YYHdbDa9Yp1uR6RMJuNlkKTTaRXqO2ZuINQ0TTo6Or73eAgEAkQiEW/RW6/XyWaz3L17l1u3bvH48WN8Ph+nT5/m6tWrnDx5klQq9VO8JHmN3O2X4XCYeDxOsVhkb2/P605wlNsFa29vj56eHrq6uggGg8d05PJTq9frbG5usrCwwOeff87CwgKxWIzx8XEuXLjA+Pi4Otq0EffmSm9vL1euXPHavR7NCmk2m+zt7QFQKBSIx+NkMhnGxsbo7u7Gb/kxUBZJK3HnHul0GsMwqNVqL81B3DVFrVbDcRz8fj+maSqj6DVSkERajs/nIxAIeAvR79vdBsCxHVKpFN3d3cTjcWq1Gnt7e+zv7zM4OOgVT6rVahQKBfL5PKVSiWAwSCqVUnGlN4SbIh8KhbwFyg8ZF/39/XzwwQfMzMx4tUdcbnrt06dPKZfLPHv2jHfffZcPP/yQoaEh+vr6iMfjP84Lk+/lxxwP7phoNpvk83lWV1f55JNP+MMf/kA8Hmdqaor33nuPK1eueNuxjj5f3j5uwDQajdLd3U21WmVra4vNzU1OnjxJOBzGMAzq9Tq5XI7NzU12dnYYGxujr69PtWhakJtBcnh4yMLCAn/84x+5d+8e1WqVCxcu8Hd/93cMDw8Ti8UwDAPbtr3Pv84DrctdDE9OTpJOp3nnnXdeWgzXajUePXrE//7v/7K1tUVfXx8zMzO88847nDp1ilg8hmIkrcWtcZfJZNjf32d/f598Pk+1WvUCqNVqlWw2y8HBAbZtey3Ddb54fRQkkZb0Y2Vw2IZNJBKhq6uLkZERlpeXWVhYIB6Pk0gk6O7uxufzsba2xoMHD3j27BmWZdHb28vw8LAWw2+QH6tgouM4XvpjV1eX1+HC5U6UbdsmFosRDAbp6elhaGiI/v5+tXx8Q/yY48HNHLpz5w7Xr1/n3r17OI7DxMQEV69epb+/H9M0vcJ87iLbvTMkbx/TNEmlUpw8eZJ8Ps/y8jLxeJyuri6GhoawLIvt7W3m5uZYXl4GYGBggImJCdWjaUGNRoONjQ3m5ub4/PPPmZ+fx+/3MzU1xfT0NJlMBr/fT6VSAZ7PUUzT/NYW4vL2c7fmuX/29PS8FJCvVqvUajXS6bRXCH5gYIDh4WG6u7u1Pa8FhcNhxsfH2djY4NNPP+XJkyfMzc0RCoW87JKNjQ3m5+dZXFzEMAyNh2Ogd1rkW7hZKT09PUxPT5PP51laWsI0TZLJJAMDA1iWxb1797h16xY7Ozt0dnYyPDys7hUtyk21/6Y9ws1m06uBEgqFME2TWCxGMpkkFoupWF+LcevP7OzscPPmTf7rv/6LarVKX18fw8PDjI2NYds2a2tr3nMMwyAWi5FOpzUe3lKmaZJOpzl16hQbGxtcv36d+fl50uk0uWyWYCjEo0ePuH37Ntvb26RSKcbGxjh58qSC5y2oXq/z7Nkzrl27xmeffcbu7i6XLl3i1KlTpFIpcrmcVx/NMAyvaGM8HveuE9J63IC4O5d8lUql4s0XAoGAt40vmUx6WWnSWiKRCOPj4+zt7XHnzh3W1taYnZ3FcRyGhoYwTZPl5WXm5+e9DMXJyUkymYyCJK+R3mmRv8A0Tbq7u/nZz35GIBDgxo0b5HI5fve733ntXIvFIrVajZmZGcbHx5mamtK+4xb2bVkIjuO81OLXfbzuGLYe27bJZrOsrq6yvLzM2toa5XKZw8NDGo0Gt2/fBl5MqQ8Gg5w9e5Zf/vKXDA8PH9ehyw/gBkInJye99p1bm5tcv36dW7duYZompVKJZrPJmTNnmJiYeJ46H4tpktuC3G428/PzPHz4kFKphOM4HB4eeoGQo9trurq6uHjxIqenpxkYHFR2UYv7tjnD0XnB0bmC5gutKxAI0NXVxfT0NH/7t3/LvXv32Nvb4//+7/8IhUJe1zT3+nHx4kXOnDlDT0+Prh+vkd5pkb/A7WIRiUQIh8PU63Vu3rzJw4cPyefzGIZBd3c3o6OjvPPOO7z33nteK2BpT27hXreejVvcUxOe1uM4jhcUqdVqBAIBisUi2WyWW7ducevWrZee4xbve+eddxQkeUv5fD5isRgjIyMYhkGz2eT69evcuXOH7e1tGo2Glz1y9epV3n33Xfr7+79zq2l5OziOQ61WI5fL0Wg0CAQC7OzssLOz89JjLctibGyMcDj8vJhvd/cxHLG8Kdwi4MlkkmKx+EIWqrQmy7JIJpOMjY3hOA7JZJKPP/6YBw8ekM/nve3cU1NTXLlyhUuXLnlFn+X1MRz1EhL5i9yibAcHB6ytrbGzs8PBwYHXRjYSiZBIJDhx4gS9vb2Ew2EFSdqUbdtewa179+6RzWaZmpryWsXqLkBrcQu2bm9vs7q6ysbGxl9sJ2xZFoODg8zMzNDV1fWajlR+Ckd//2478HK5jG3bhEIhEokEg4ODXsFWdbZpTdVqlZWVFe7du8fBwcG3PtYwDBKJhFenKpVKadtdG3O72ywtLVEsFonFYmQyGXp6ejQuWlytViObzbK7u8v6+rp3s8UwDMLhMKlUikwmQ1dXF8lkUvPH10xBEhERERERERER4MdpASIiIiIiIiIi8pZTkEREREREREREBAVJREREREREREQABUlERERERERERAAFSUREREREREREAAVJREREREREREQABUlERERERERERAAFSUREREREREREAAVJREREREREREQABUlERERERERERAAFSUREREREREREAAVJREREREREREQABUlERERERERERACwjvsARERERH5MjuN4/20YxjEeyY+vlV+biIjIm0BBEhEREWkJtm1TqVQol8vYto3P5yMajRIKhY770H4wu2lTrVWpVqtUKhVM0ySRSBAMBo/70ERERFqKgiQiIiLSEiqVCvPz88zNzVEoFIhGo7z77rtMT08f96H9MM7z1/Zk6QkLCwssLCzQ0dHBr371K8bHx4/76ERERFqKapKIiIhIS6jVaqyurnL9+nX+9Kc/8cUXX7C1tXXch/WDOThU61U2Nze5ffs2v/vd7/jkk0/Y3d097kMTERFpOcokERERkZbmOA62bWPb9gt1PBzH8b4Mw8AwDHw+n/fnUbZt02w2cRzHe4xt297zgZee//V/yz0GANM0X/o33J/lPs59jO3Y2E2bRqNBo9HwHlOv16lWq96/bZrmK49dRERE/noKkoiIiEhLq1afZ2HkcjmCwSCmaeI4DtVqlWKxSLPZxOfzEYlESCaTdHR0EI/HvWCD4ziUSiWWl5cpFoukUin8fj/FYpFKpeIFKgKBAPF4nFQqRSwWIxwOYxgGzWaTSqVCNptle3sbgBMnTtDR0eEFUxzHoV6vUyqV2NraIpvNkslk6O7upl6vs7e3x7Nnz3j27Bm5XA6/38/c3Jx37NFolFQqRSqVIh6PY5rmsb3fIiIibzMFSURERKSlHR4e8vvf/54HDx6QTCaJxWIYhsH+/j4rKysUCgUCgQADAwOcOnWKCxcuMDU1RTAY9DJGNjc3+fd//3eePHnCxYsXSSaTrK2tsbm5yf7+PrZt09HRweTkJOfOnWNycpKBgQFM06TRaLC1tcXc3By///3vMU2Tf/qnf+L8+fP4/X5M08S2bUqlEk+fPuV//ud/uH//Pj//+c/58MMPqVQqLC4u8umnn/Lpp59yeHjI1tYWpVKJjo4OQqEQw8PDXLhwgQsXLjAxMUE4HD7ut11EROStpCCJiIiItCw3Y2RpaYkvvvjCyxZJpVI4jkOxWKRYLJLNZjk4OGB/f59QKERXVxednZ1esKFQKHDv3j0+//xzCoUCfX19VKtVyuWy11Hn8PCQQqFAoVDA5/N5AZlms0mhUGB9fZ0vv/ySYDDIz3/+c2/rjXuctVqNw8NDHj58yPXr1xkfH+fKlSsvPO4od4uQ+yUiIiI/nIIkIiIi0vIcx6FcLrO/v0+hUKC7u5uJiQnS6TT1ep21tTVmZ2e5d+8e6XSagYEBLMt6oX2wbdvs7e2xsLCA4zjMzMwwMjJCOBzm4OCAxcVFHj16xMcff0wsFmNgYIC+vj78fv/3Pm7TNEkmk/h8Pt555x2q1Sp3796lq6uL3/zmN0xNTeHz+YjFYqQ703R2dhIIBH6Mt0xERKQtKUgiIiIibcEteBqNRhkbG+PChQv09PRg2zYrKyvs7u7y9OlTtre3WVlZIZPJ0NPT88LPcAukptNppqamOH36NPF4nHw+TzqdJp/Pc+fOHZ4+fcrDhw8Jh8N0d3d/72P2+XyEw2F8Ph/9/f309/ezsrJCV1cXZ86c4fLlywBYloVpmvgtvwq3ioiI/AAKkoiIiEjLMwyDQCBAOBxmfHycixcvcvbsWfx+P47jEAwGefToEQ8ePKBSqbCxuUG+kH/pZyQSCUZGRjhz5gxnz55lbGwM0zRpNpvEYjG2t7dZX19nb2+P+fl5BgYGflCQxDAMfKYPy7IIBAIEAgFM08SyLMLhMLFY7IXHauuNiIjID6MgiYiIiLQFv99PR0cHPT09dHV1kUgkvO8lEgmvq41t2+SyOaqV6gvPNwyDSCRCX18fJ06coLOz84UgRWdnJ729vfT09JDP59nc3KRYLP7g4zYwMHzGC22D3Va/6mIjIiLy41I+poiIiLQ8wzDw+/0kk0mSySSWZb3y+24Nkmq1SqPRwHGcFx4TCoVIp9NeG+CjfD4f8XicdDqNYRjkcjmvPbD7/G/L8jj6b4mIiMjxUJBERERE2oJhGFiWhd//6rodbnYGPC/S+qqghVuTxLKslwIeR78HvDLI8m3cmikKloiIiBwfBUlERESkLbhBEJ/P98qAhZvp4TiO9/V1tm3TbDZfCoDA8yCH+z3AC6S86t+1bfulFsC2bdNoNGg2mz/myxYREZHvQEESERERkb+C4zhUKhX29/c5ODigXq+/9P18Ps/+/j6O4xCPxwkEAhiGQTAYJBgM4vP5qNfrVCoVyuWyFxCxbZtiscje3h7FYvGlAIzB8+CKG2hRtomIiMhPQ0ESERERkb+C4ziUy2W2t7fZ2Nggl8tRqVS8oEcul2NnZ4ft7W1M06Snp4doNIrP5yMUChGNRvH7/TQaDbLZLIeHh97zy+Uye3t7rK+vc3h4+MpsEr/fj2VZOI5Do9GgXq9Tr9dpNpveNh0FT0RERH4YdbcRERER+Ss4jkMul+PJkyd0dXXR3d1NtVolGo1SKBR4+PAht2/fZnd3l9HRUWZmZuju7sY0Ta+gazKZZGdnh7t37xKJRDh9+jSxWIydnR1u377NrVu3WFlZeSlLxbIsotEo8XgcgFwux7NnzxgcGCAWjxMOhzFN06u3ojbAIiIi34+CJCIiIiJ/BbduSLFYZH19nfn5earVKvF4nL29Pe7fv8/KygqBQIChoSFOnTpFOp3G5/MRiURIp9P09/ezsbHB0tISpmlSr9eJx+Ps7+/z6NEjr23w17vvmKZJIpEgnU57QZnHjx8TCoXo6uqio6ODRCJBMpkkFoupNbCIiMj3pCCJiIiItAy3w4z75XarcbMs3L//psKtbneao891maZJV1cXZ8+eZWBggO3tbVZXVymVSlQqFWzbpru7m/HxcS5evEhPTw+hUMj7ud3d3bz//vsEAgEeP37M3bt3WVpaIhKJEIvFiMVinD9/HsDbsuMWfg0EAt7PPnPmDPfu3ePmzZvMzs4SDAYZGhri3LlzzMzMMD4+Tjgc/unfbBERkRakIImIiIi0BMuy6OjoYGhoiGQySTKZJB6PEwwG6e/vJ5vNkslk6OzsJBAIvPK5IyMjVCoVuru7icfjLxRJNQyDeDzO6OgoJ06cYGtri62tLa/Qajqd5uzZs1y+fJlTp06RSCS8jA6fz0cymeTcuXP4/X4AHj9+TLlcxjAMkskkJ06coKenh3A4zNOnT+nt7SUQCOD7KsiSSCQYGhri4sWLGIbB8vIy+/v7FAoFotEo+XyeWq2muiQiIiI/gIIkIiIi0hJCoRBTU1P09PRQq9UIBAL09vYSCoX4f//v/3HhwgXC4TDxeJyOjo6Xnjs9PU13dzeNRoNwOEx3d/dLnWTc+iKTk5NcvXoV0zSpVCoABINBOjo66OzsJJFIvJCJ4na46e3tJRwOc+LECfL5PI1GA9M0CYfDJBIJ7zUUCgX6+/vp6OggGAwCzwMt6XSa9957j1OnTlEsFr1/OxaL0dnZSWdnp/d4ERER+e4UJBEREZGWYFkWvb299Pb2vvS9kydPfu/nHuUGNLq7u5mcnCSVSv3Vx+cGWOLxOIODg3/181yGYRCJRBgeHmZ4ePg7P19ERET+MrUAFhERERERERFBQRIREREREREREUBBEhEREZG/yDRNotGoVwjWsqxXdsgRERGRt5tqkoiIiIh8C8MwSKVSfPDBB0xMTHDmzJlXdsgRERGRt5/hqE+ciIiIyLeq1WocHBzQaDSIRqOEw2Esy/Ja/IqIiEhrUJBERERERERERATVJBERERERERERARQkEREREREREREBFCQREREREREREQEUJBERERERERERARQkEREREREREREBFCQREREREREREQEUJBERERERERERARQkEREREREREREBFCQREREREREREQEUJBERERERERERARQkEREREREREREBFCQREREREREREQEUJBERERERERERARQkEREREREREREB4P8D1EISDWlH8qkAAAAASUVORK5CYII=;" vertex="1" parent="1">
                    <mxGeometry x="920" y="489.99999999999994" width="457" height="354.94" as="geometry"/>
                </mxCell>
                <mxCell id="120" value="Text" style="text;strokeColor=none;align=center;fillColor=none;html=1;verticalAlign=middle;whiteSpace=wrap;rounded=0;" vertex="1" parent="1">
                    <mxGeometry x="1040" y="870" width="60" height="30" as="geometry"/>
                </mxCell>
            </root>
        </mxGraphModel>
    </diagram>
</mxfile>